<?xml version="1.0" standalone="no"?>
 <!DOCTYPE svg PUBLIC "-//W3C//DTD SVG 1.1//EN"
 "http://www.w3.org/Graphics/SVG/1.1/DTD/svg11.dtd">
<svg
  xmlns:svg="http://www.w3.org/2000/svg"
  xmlns="http://www.w3.org/2000/svg"
  xmlns:xlink="http://www.w3.org/1999/xlink"
  xmlns:inkscape="http://www.inkscape.org/namespaces/inkscape"
  version="1.1"
  width="99.9998mm" height="99.9998mm" viewBox="0.0000 0.0000 99.9998 99.9998">
<title>SVG Image created as Placement_P1_bottom.svg date 2026-09-28T19:51:06 </title>
  <desc>Image generated by PCBNEW </desc>
<g style="fill:#000000; fill-opacity:1.0000;stroke:#000000; stroke-opacity:1.0000;
stroke-linecap:round; stroke-linejoin:round;"
 transform="translate(0 0) scale(1 1)">
<path style="fill:#4D7FC4; fill-opacity:1.0000; stroke:none;fill-rule:evenodd;"
d="M 87.9998,18.6000
89.9998,18.6000
89.9998,17.7000
87.9998,17.7000
Z" />
<path style="fill:#4D7FC4; fill-opacity:1.0000; stroke:none;fill-rule:evenodd;"
d="M 87.9998,5.1000
89.9998,5.1000
89.9998,4.2000
87.9998,4.2000
Z" />
<path style="fill:#4D7FC4; fill-opacity:1.0000; stroke:none;fill-rule:evenodd;"
d="M 84.0248,17.0500
84.2248,17.0303
84.4171,16.9720
84.5943,16.8773
84.7496,16.7498
84.8771,16.5945
84.9718,16.4173
85.0301,16.2250
85.0498,16.0250
85.0498,13.9750
85.0301,13.7750
84.9718,13.5827
84.8771,13.4055
84.7496,13.2502
84.5943,13.1227
84.4171,13.0280
84.2248,12.9697
84.0248,12.9500
81.9748,12.9500
81.7748,12.9697
81.5825,13.0280
81.4053,13.1227
81.2500,13.2502
81.1225,13.4055
81.0278,13.5827
80.9695,13.7750
80.9498,13.9750
80.9498,16.0250
80.9695,16.2250
81.0278,16.4173
81.1225,16.5945
81.2500,16.7498
81.4053,16.8773
81.5825,16.9720
81.7748,17.0303
81.9748,17.0500
Z" />
</g>
<g style="fill:#4D7FC4; fill-opacity:1.0000; stroke:none;">
<circle cx="82.9998" cy="7.8000" r="2.0500" />
<path style="fill:#4D7FC4; fill-opacity:1.0000; stroke:none;fill-rule:evenodd;"
d="M 57.2998,93.1500
57.2808,93.0543
57.2266,92.9732
57.1455,92.9190
57.0498,92.9000
54.9498,92.9000
54.8541,92.9190
54.7730,92.9732
54.7188,93.0543
54.6998,93.1500
54.6998,95.2500
54.7188,95.3457
54.7730,95.4268
54.8541,95.4810
54.9498,95.5000
57.0498,95.5000
57.1455,95.4810
57.2266,95.4268
57.2808,95.3457
57.2998,95.2500
Z" />
<circle cx="50.9198" cy="94.2000" r="1.3000" />
<path style="fill:#4D7FC4; fill-opacity:1.0000; stroke:none;fill-rule:evenodd;"
d="M 6.5498,71.2000
6.6455,71.1810
6.7266,71.1268
6.7808,71.0457
6.7998,70.9500
6.7998,69.0500
6.7808,68.9543
6.7266,68.8732
6.6455,68.8190
6.5498,68.8000
4.6498,68.8000
4.5541,68.8190
4.4730,68.8732
4.4188,68.9543
4.3998,69.0500
4.3998,70.9500
4.4188,71.0457
4.4730,71.1268
4.5541,71.1810
4.6498,71.2000
Z" />
<circle cx="5.5998" cy="66.5000" r="1.2000" />
<path style="fill:#4D7FC4; fill-opacity:1.0000; stroke:none;fill-rule:evenodd;"
d="M 91.2998,93.1500
91.2808,93.0543
91.2266,92.9732
91.1455,92.9190
91.0498,92.9000
88.9498,92.9000
88.8541,92.9190
88.7730,92.9732
88.7188,93.0543
88.6998,93.1500
88.6998,95.2500
88.7188,95.3457
88.7730,95.4268
88.8541,95.4810
88.9498,95.5000
91.0498,95.5000
91.1455,95.4810
91.2266,95.4268
91.2808,95.3457
91.2998,95.2500
Z" />
<circle cx="84.9198" cy="94.2000" r="1.3000" />
<path style="fill:#4D7FC4; fill-opacity:1.0000; stroke:none;fill-rule:evenodd;"
d="M 22.1998,93.4500
22.1808,93.3543
22.1266,93.2732
22.0455,93.2190
21.9498,93.2000
20.0498,93.2000
19.9541,93.2190
19.8730,93.2732
19.8188,93.3543
19.7998,93.4500
19.7998,95.3500
19.8188,95.4457
19.8730,95.5268
19.9541,95.5810
20.0498,95.6000
21.9498,95.6000
22.0455,95.5810
22.1266,95.5268
22.1808,95.4457
22.1998,95.3500
Z" />
<circle cx="17.4998" cy="94.4000" r="1.2000" />
<circle cx="13.9998" cy="94.4000" r="1.2000" />
<circle cx="10.4998" cy="94.4000" r="1.2000" />
<path style="fill:#4D7FC4; fill-opacity:1.0000; stroke:none;fill-rule:evenodd;"
d="M 74.2998,93.1500
74.2808,93.0543
74.2266,92.9732
74.1455,92.9190
74.0498,92.9000
71.9498,92.9000
71.8541,92.9190
71.7730,92.9732
71.7188,93.0543
71.6998,93.1500
71.6998,95.2500
71.7188,95.3457
71.7730,95.4268
71.8541,95.4810
71.9498,95.5000
74.0498,95.5000
74.1455,95.4810
74.2266,95.4268
74.2808,95.3457
74.2998,95.2500
Z" />
<circle cx="67.9198" cy="94.2000" r="1.3000" />
<path style="fill:#4D7FC4; fill-opacity:1.0000; stroke:none;fill-rule:evenodd;"
d="M 93.5498,26.8000
93.4541,26.8190
93.3730,26.8732
93.3188,26.9543
93.2998,27.0500
93.2998,28.9500
93.3188,29.0457
93.3730,29.1268
93.4541,29.1810
93.5498,29.2000
95.4498,29.2000
95.5455,29.1810
95.6266,29.1268
95.6808,29.0457
95.6998,28.9500
95.6998,27.0500
95.6808,26.9543
95.6266,26.8732
95.5455,26.8190
95.4498,26.8000
Z" />
<circle cx="94.4998" cy="31.5000" r="1.2000" />
<path style="fill:#4D7FC4; fill-opacity:1.0000; stroke:none;fill-rule:evenodd;"
d="M 5.7248,57.8500
5.8205,57.8310
5.9016,57.7768
5.9558,57.6957
5.9748,57.6000
5.9748,56.4000
5.9558,56.3043
5.9016,56.2232
5.8205,56.1690
5.7248,56.1500
4.2748,56.1500
4.1791,56.1690
4.0980,56.2232
4.0438,56.3043
4.0248,56.4000
4.0248,57.6000
4.0438,57.6957
4.0980,57.7768
4.1791,57.8310
4.2748,57.8500
Z" />
</g>
<g style="fill:none;
stroke:#4D7FC4; stroke-width:1.7000; stroke-opacity:1;
stroke-linecap:round; stroke-linejoin:round;">
<path d="M5.1248 54.5000
L4.8748 54.5000
" />
<path d="M5.1248 52.0000
L4.8748 52.0000
" />
<path d="M5.1248 49.5000
L4.8748 49.5000
" />
<path style="fill:#4D7FC4; fill-opacity:1.0000; stroke:none;fill-rule:evenodd;"
d="M 93.5498,40.8000
93.4541,40.8190
93.3730,40.8732
93.3188,40.9543
93.2998,41.0500
93.2998,42.9500
93.3188,43.0457
93.3730,43.1268
93.4541,43.1810
93.5498,43.2000
95.4498,43.2000
95.5455,43.1810
95.6266,43.1268
95.6808,43.0457
95.6998,42.9500
95.6998,41.0500
95.6808,40.9543
95.6266,40.8732
95.5455,40.8190
95.4498,40.8000
Z" />
</g>
<g style="fill:#4D7FC4; fill-opacity:1.0000; stroke:none;">
<circle cx="94.4998" cy="45.5000" r="1.2000" />
<path style="fill:#4D7FC4; fill-opacity:1.0000; stroke:none;fill-rule:evenodd;"
d="M 42.1998,93.4500
42.1808,93.3543
42.1266,93.2732
42.0455,93.2190
41.9498,93.2000
40.0498,93.2000
39.9541,93.2190
39.8730,93.2732
39.8188,93.3543
39.7998,93.4500
39.7998,95.3500
39.8188,95.4457
39.8730,95.5268
39.9541,95.5810
40.0498,95.6000
41.9498,95.6000
42.0455,95.5810
42.1266,95.5268
42.1808,95.4457
42.1998,95.3500
Z" />
<circle cx="37.4998" cy="94.4000" r="1.2000" />
<circle cx="33.9998" cy="94.4000" r="1.2000" />
<circle cx="30.4998" cy="94.4000" r="1.2000" />
<path style="fill:#4D7FC4; fill-opacity:1.0000; stroke:none;fill-rule:evenodd;"
d="M 4.3498,82.8500
4.3498,81.1500
2.6498,81.1500
2.6498,82.8500
Z" />
<circle cx="3.4998" cy="84.5400" r="0.8500" />
<circle cx="3.4998" cy="87.0800" r="0.8500" />
<circle cx="3.4998" cy="89.6200" r="0.8500" />
<circle cx="3.4998" cy="92.1600" r="0.8500" />
<circle cx="3.4998" cy="94.7000" r="0.8500" />
<path style="fill:#4D7FC4; fill-opacity:1.0000; stroke:none;fill-rule:evenodd;"
d="M 71.3998,8.3000
71.3883,8.1738
71.3381,8.0127
71.2508,7.8683
71.1315,7.7490
70.9871,7.6617
70.8260,7.6115
70.6998,7.6000
69.2998,7.6000
69.1736,7.6115
69.0125,7.6617
68.8681,7.7490
68.7488,7.8683
68.6615,8.0127
68.6113,8.1738
68.5998,8.3000
68.5998,9.7000
68.6113,9.8262
68.6615,9.9873
68.7488,10.1317
68.8681,10.2510
69.0125,10.3383
69.1736,10.3885
69.2998,10.4000
70.6998,10.4000
70.8260,10.3885
70.9871,10.3383
71.1315,10.2510
71.2508,10.1317
71.3381,9.9873
71.3883,9.8262
71.3998,9.7000
Z" />
<circle cx="69.9998" cy="12.4000" r="1.4000" />
<circle cx="60.1998" cy="9.0000" r="1.4000" />
<circle cx="60.1998" cy="12.4000" r="1.4000" />
<path style="fill:#4D7FC4; fill-opacity:1.0000; stroke:none;fill-rule:evenodd;"
d="M 48.3498,54.5500
48.3498,49.4500
43.2498,49.4500
43.2498,54.5500
Z" />
<path style="fill:#4D7FC4; fill-opacity:1.0000; stroke:none;fill-rule:evenodd;"
d="M 22.7498,54.5500
22.7498,49.4500
17.6498,49.4500
17.6498,54.5500
Z" />
<circle cx="32.9998" cy="52.0000" r="8.9000" />
</g>
<g style="fill:none;
stroke:#585D84; stroke-width:0.1200; stroke-opacity:1;
stroke-linecap:round; stroke-linejoin:round;">
<text x="32.9998" y="52.4000"
textLength="3.8952" font-size="1.0667" lengthAdjust="spacingAndGlyphs"
text-anchor="middle" opacity="0" stroke-opacity="0">BT301</text>
<g class="stroked-text"><desc>BT301</desc>
<path d="M31.6093 51.9448
L31.7236 51.9829
" />
<path d="M31.7236 51.9829
L31.7617 52.0210
" />
<path d="M31.7617 52.0210
L31.7998 52.0972
" />
<path d="M31.7998 52.0972
L31.7998 52.2115
" />
<path d="M31.7998 52.2115
L31.7617 52.2877
" />
<path d="M31.7617 52.2877
L31.7236 52.3258
" />
<path d="M31.7236 52.3258
L31.6474 52.3639
" />
<path d="M31.6474 52.3639
L31.3427 52.3639
" />
<path d="M31.3427 52.3639
L31.3427 51.5639
" />
<path d="M31.3427 51.5639
L31.6093 51.5639
" />
<path d="M31.6093 51.5639
L31.6855 51.6019
" />
<path d="M31.6855 51.6019
L31.7236 51.6400
" />
<path d="M31.7236 51.6400
L31.7617 51.7162
" />
<path d="M31.7617 51.7162
L31.7617 51.7924
" />
<path d="M31.7617 51.7924
L31.7236 51.8686
" />
<path d="M31.7236 51.8686
L31.6855 51.9067
" />
<path d="M31.6855 51.9067
L31.6093 51.9448
" />
<path d="M31.6093 51.9448
L31.3427 51.9448
" />
<path d="M32.0284 51.5639
L32.4855 51.5639
" />
<path d="M32.2569 52.3639
L32.2569 51.5639
" />
<path d="M32.6760 51.5639
L33.1712 51.5639
" />
<path d="M33.1712 51.5639
L32.9046 51.8686
" />
<path d="M32.9046 51.8686
L33.0188 51.8686
" />
<path d="M33.0188 51.8686
L33.0950 51.9067
" />
<path d="M33.0950 51.9067
L33.1331 51.9448
" />
<path d="M33.1331 51.9448
L33.1712 52.0210
" />
<path d="M33.1712 52.0210
L33.1712 52.2115
" />
<path d="M33.1712 52.2115
L33.1331 52.2877
" />
<path d="M33.1331 52.2877
L33.0950 52.3258
" />
<path d="M33.0950 52.3258
L33.0188 52.3639
" />
<path d="M33.0188 52.3639
L32.7903 52.3639
" />
<path d="M32.7903 52.3639
L32.7141 52.3258
" />
<path d="M32.7141 52.3258
L32.6760 52.2877
" />
<path d="M33.6665 51.5639
L33.7427 51.5639
" />
<path d="M33.7427 51.5639
L33.8188 51.6019
" />
<path d="M33.8188 51.6019
L33.8569 51.6400
" />
<path d="M33.8569 51.6400
L33.8950 51.7162
" />
<path d="M33.8950 51.7162
L33.9331 51.8686
" />
<path d="M33.9331 51.8686
L33.9331 52.0591
" />
<path d="M33.9331 52.0591
L33.8950 52.2115
" />
<path d="M33.8950 52.2115
L33.8569 52.2877
" />
<path d="M33.8569 52.2877
L33.8188 52.3258
" />
<path d="M33.8188 52.3258
L33.7427 52.3639
" />
<path d="M33.7427 52.3639
L33.6665 52.3639
" />
<path d="M33.6665 52.3639
L33.5903 52.3258
" />
<path d="M33.5903 52.3258
L33.5522 52.2877
" />
<path d="M33.5522 52.2877
L33.5141 52.2115
" />
<path d="M33.5141 52.2115
L33.4760 52.0591
" />
<path d="M33.4760 52.0591
L33.4760 51.8686
" />
<path d="M33.4760 51.8686
L33.5141 51.7162
" />
<path d="M33.5141 51.7162
L33.5522 51.6400
" />
<path d="M33.5522 51.6400
L33.5903 51.6019
" />
<path d="M33.5903 51.6019
L33.6665 51.5639
" />
<path d="M34.6950 52.3639
L34.2379 52.3639
" />
<path d="M34.4665 52.3639
L34.4665 51.5639
" />
<path d="M34.4665 51.5639
L34.3903 51.6781
" />
<path d="M34.3903 51.6781
L34.3141 51.7543
" />
<path d="M34.3141 51.7543
L34.2379 51.7924
" />
</g></g>
<g style="fill:none;
stroke:#585D84; stroke-width:0.1500; stroke-opacity:1;
stroke-linecap:round; stroke-linejoin:round;">
<text x="42.1498" y="42.8000"
textLength="4.8690" font-size="1.3333" lengthAdjust="spacingAndGlyphs"
text-anchor="middle" opacity="0" stroke-opacity="0">BT301</text>
<g class="stroked-text"><desc>BT301</desc>
<path d="M40.4117 42.2310
L40.5546 42.2786
" />
<path d="M40.5546 42.2786
L40.6022 42.3262
" />
<path d="M40.6022 42.3262
L40.6498 42.4215
" />
<path d="M40.6498 42.4215
L40.6498 42.5643
" />
<path d="M40.6498 42.5643
L40.6022 42.6596
" />
<path d="M40.6022 42.6596
L40.5546 42.7072
" />
<path d="M40.5546 42.7072
L40.4593 42.7548
" />
<path d="M40.4593 42.7548
L40.0784 42.7548
" />
<path d="M40.0784 42.7548
L40.0784 41.7548
" />
<path d="M40.0784 41.7548
L40.4117 41.7548
" />
<path d="M40.4117 41.7548
L40.5069 41.8024
" />
<path d="M40.5069 41.8024
L40.5546 41.8501
" />
<path d="M40.5546 41.8501
L40.6022 41.9453
" />
<path d="M40.6022 41.9453
L40.6022 42.0405
" />
<path d="M40.6022 42.0405
L40.5546 42.1358
" />
<path d="M40.5546 42.1358
L40.5069 42.1834
" />
<path d="M40.5069 42.1834
L40.4117 42.2310
" />
<path d="M40.4117 42.2310
L40.0784 42.2310
" />
<path d="M40.9355 41.7548
L41.5069 41.7548
" />
<path d="M41.2212 42.7548
L41.2212 41.7548
" />
<path d="M41.7450 41.7548
L42.3641 41.7548
" />
<path d="M42.3641 41.7548
L42.0308 42.1358
" />
<path d="M42.0308 42.1358
L42.1736 42.1358
" />
<path d="M42.1736 42.1358
L42.2688 42.1834
" />
<path d="M42.2688 42.1834
L42.3165 42.2310
" />
<path d="M42.3165 42.2310
L42.3641 42.3262
" />
<path d="M42.3641 42.3262
L42.3641 42.5643
" />
<path d="M42.3641 42.5643
L42.3165 42.6596
" />
<path d="M42.3165 42.6596
L42.2688 42.7072
" />
<path d="M42.2688 42.7072
L42.1736 42.7548
" />
<path d="M42.1736 42.7548
L41.8879 42.7548
" />
<path d="M41.8879 42.7548
L41.7927 42.7072
" />
<path d="M41.7927 42.7072
L41.7450 42.6596
" />
<path d="M42.9831 41.7548
L43.0784 41.7548
" />
<path d="M43.0784 41.7548
L43.1736 41.8024
" />
<path d="M43.1736 41.8024
L43.2212 41.8501
" />
<path d="M43.2212 41.8501
L43.2688 41.9453
" />
<path d="M43.2688 41.9453
L43.3165 42.1358
" />
<path d="M43.3165 42.1358
L43.3165 42.3739
" />
<path d="M43.3165 42.3739
L43.2688 42.5643
" />
<path d="M43.2688 42.5643
L43.2212 42.6596
" />
<path d="M43.2212 42.6596
L43.1736 42.7072
" />
<path d="M43.1736 42.7072
L43.0784 42.7548
" />
<path d="M43.0784 42.7548
L42.9831 42.7548
" />
<path d="M42.9831 42.7548
L42.8879 42.7072
" />
<path d="M42.8879 42.7072
L42.8403 42.6596
" />
<path d="M42.8403 42.6596
L42.7927 42.5643
" />
<path d="M42.7927 42.5643
L42.7450 42.3739
" />
<path d="M42.7450 42.3739
L42.7450 42.1358
" />
<path d="M42.7450 42.1358
L42.7927 41.9453
" />
<path d="M42.7927 41.9453
L42.8403 41.8501
" />
<path d="M42.8403 41.8501
L42.8879 41.8024
" />
<path d="M42.8879 41.8024
L42.9831 41.7548
" />
<path d="M44.2688 42.7548
L43.6974 42.7548
" />
<path d="M43.9831 42.7548
L43.9831 41.7548
" />
<path d="M43.9831 41.7548
L43.8879 41.8977
" />
<path d="M43.8879 41.8977
L43.7927 41.9929
" />
<path d="M43.7927 41.9929
L43.6974 42.0405
" />
</g></g>
<g style="fill:none;
stroke:#585D84; stroke-width:0.1000; stroke-opacity:1;
stroke-linecap:round; stroke-linejoin:round;">
<path d="M48.3498 49.4500
L43.5498 49.4500
" />
<path d="M48.3498 54.5500
L48.3498 49.4500
" />
<path d="M48.3498 54.5500
L43.5498 54.5500
" />
<path d="M43.5498 46.1500
L36.7998 41.4000
" />
<path d="M43.5498 49.4500
L43.5498 46.1500
" />
<path d="M43.5498 54.5500
L43.5498 61.3000
" />
<path d="M36.7998 41.4000
L29.1998 41.4000
" />
<path d="M22.4498 46.1000
L29.1998 41.4000
" />
<path d="M22.4498 49.4500
L22.4498 46.1000
" />
<path d="M22.4498 49.4500
L17.6498 49.4500
" />
<path d="M22.4498 54.5500
L22.4498 61.3000
" />
<path d="M22.4498 61.3000
L43.5498 61.3000
" />
<path d="M17.6498 49.4500
L17.6498 54.5500
" />
<path d="M17.6498 54.5500
L22.4498 54.5500
" />
</g>
<g style="fill:none;
stroke:#E8B2A7; stroke-width:0.1500; stroke-opacity:1;
stroke-linecap:round; stroke-linejoin:round;">
<text x="32.9998" y="67.5000"
textLength="17.2976" font-size="1.3333" lengthAdjust="spacingAndGlyphs"
text-anchor="middle" opacity="0" stroke-opacity="0">CR2032 / NO CHARGE</text>
<g class="stroked-text"><desc>CR2032 / NO CHARGE</desc>
<path d="M25.2855 67.3596
L25.2379 67.4072
" />
<path d="M25.2379 67.4072
L25.0950 67.4548
" />
<path d="M25.0950 67.4548
L24.9998 67.4548
" />
<path d="M24.9998 67.4548
L24.8569 67.4072
" />
<path d="M24.8569 67.4072
L24.7617 67.3120
" />
<path d="M24.7617 67.3120
L24.7141 67.2167
" />
<path d="M24.7141 67.2167
L24.6665 67.0262
" />
<path d="M24.6665 67.0262
L24.6665 66.8834
" />
<path d="M24.6665 66.8834
L24.7141 66.6929
" />
<path d="M24.7141 66.6929
L24.7617 66.5977
" />
<path d="M24.7617 66.5977
L24.8569 66.5024
" />
<path d="M24.8569 66.5024
L24.9998 66.4548
" />
<path d="M24.9998 66.4548
L25.0950 66.4548
" />
<path d="M25.0950 66.4548
L25.2379 66.5024
" />
<path d="M25.2379 66.5024
L25.2855 66.5501
" />
<path d="M26.2855 67.4548
L25.9522 66.9786
" />
<path d="M25.7141 67.4548
L25.7141 66.4548
" />
<path d="M25.7141 66.4548
L26.0950 66.4548
" />
<path d="M26.0950 66.4548
L26.1903 66.5024
" />
<path d="M26.1903 66.5024
L26.2379 66.5501
" />
<path d="M26.2379 66.5501
L26.2855 66.6453
" />
<path d="M26.2855 66.6453
L26.2855 66.7882
" />
<path d="M26.2855 66.7882
L26.2379 66.8834
" />
<path d="M26.2379 66.8834
L26.1903 66.9310
" />
<path d="M26.1903 66.9310
L26.0950 66.9786
" />
<path d="M26.0950 66.9786
L25.7141 66.9786
" />
<path d="M26.6665 66.5501
L26.7141 66.5024
" />
<path d="M26.7141 66.5024
L26.8093 66.4548
" />
<path d="M26.8093 66.4548
L27.0474 66.4548
" />
<path d="M27.0474 66.4548
L27.1427 66.5024
" />
<path d="M27.1427 66.5024
L27.1903 66.5501
" />
<path d="M27.1903 66.5501
L27.2379 66.6453
" />
<path d="M27.2379 66.6453
L27.2379 66.7405
" />
<path d="M27.2379 66.7405
L27.1903 66.8834
" />
<path d="M27.1903 66.8834
L26.6188 67.4548
" />
<path d="M26.6188 67.4548
L27.2379 67.4548
" />
<path d="M27.8569 66.4548
L27.9522 66.4548
" />
<path d="M27.9522 66.4548
L28.0474 66.5024
" />
<path d="M28.0474 66.5024
L28.0950 66.5501
" />
<path d="M28.0950 66.5501
L28.1427 66.6453
" />
<path d="M28.1427 66.6453
L28.1903 66.8358
" />
<path d="M28.1903 66.8358
L28.1903 67.0739
" />
<path d="M28.1903 67.0739
L28.1427 67.2643
" />
<path d="M28.1427 67.2643
L28.0950 67.3596
" />
<path d="M28.0950 67.3596
L28.0474 67.4072
" />
<path d="M28.0474 67.4072
L27.9522 67.4548
" />
<path d="M27.9522 67.4548
L27.8569 67.4548
" />
<path d="M27.8569 67.4548
L27.7617 67.4072
" />
<path d="M27.7617 67.4072
L27.7141 67.3596
" />
<path d="M27.7141 67.3596
L27.6665 67.2643
" />
<path d="M27.6665 67.2643
L27.6188 67.0739
" />
<path d="M27.6188 67.0739
L27.6188 66.8358
" />
<path d="M27.6188 66.8358
L27.6665 66.6453
" />
<path d="M27.6665 66.6453
L27.7141 66.5501
" />
<path d="M27.7141 66.5501
L27.7617 66.5024
" />
<path d="M27.7617 66.5024
L27.8569 66.4548
" />
<path d="M28.5236 66.4548
L29.1427 66.4548
" />
<path d="M29.1427 66.4548
L28.8093 66.8358
" />
<path d="M28.8093 66.8358
L28.9522 66.8358
" />
<path d="M28.9522 66.8358
L29.0474 66.8834
" />
<path d="M29.0474 66.8834
L29.0950 66.9310
" />
<path d="M29.0950 66.9310
L29.1427 67.0262
" />
<path d="M29.1427 67.0262
L29.1427 67.2643
" />
<path d="M29.1427 67.2643
L29.0950 67.3596
" />
<path d="M29.0950 67.3596
L29.0474 67.4072
" />
<path d="M29.0474 67.4072
L28.9522 67.4548
" />
<path d="M28.9522 67.4548
L28.6665 67.4548
" />
<path d="M28.6665 67.4548
L28.5712 67.4072
" />
<path d="M28.5712 67.4072
L28.5236 67.3596
" />
<path d="M29.5236 66.5501
L29.5712 66.5024
" />
<path d="M29.5712 66.5024
L29.6665 66.4548
" />
<path d="M29.6665 66.4548
L29.9046 66.4548
" />
<path d="M29.9046 66.4548
L29.9998 66.5024
" />
<path d="M29.9998 66.5024
L30.0474 66.5501
" />
<path d="M30.0474 66.5501
L30.0950 66.6453
" />
<path d="M30.0950 66.6453
L30.0950 66.7405
" />
<path d="M30.0950 66.7405
L30.0474 66.8834
" />
<path d="M30.0474 66.8834
L29.4760 67.4548
" />
<path d="M29.4760 67.4548
L30.0950 67.4548
" />
<path d="M31.9998 66.4072
L31.1427 67.6929
" />
<path d="M33.0950 67.4548
L33.0950 66.4548
" />
<path d="M33.0950 66.4548
L33.6665 67.4548
" />
<path d="M33.6665 67.4548
L33.6665 66.4548
" />
<path d="M34.3331 66.4548
L34.5236 66.4548
" />
<path d="M34.5236 66.4548
L34.6188 66.5024
" />
<path d="M34.6188 66.5024
L34.7141 66.5977
" />
<path d="M34.7141 66.5977
L34.7617 66.7882
" />
<path d="M34.7617 66.7882
L34.7617 67.1215
" />
<path d="M34.7617 67.1215
L34.7141 67.3120
" />
<path d="M34.7141 67.3120
L34.6188 67.4072
" />
<path d="M34.6188 67.4072
L34.5236 67.4548
" />
<path d="M34.5236 67.4548
L34.3331 67.4548
" />
<path d="M34.3331 67.4548
L34.2379 67.4072
" />
<path d="M34.2379 67.4072
L34.1427 67.3120
" />
<path d="M34.1427 67.3120
L34.0950 67.1215
" />
<path d="M34.0950 67.1215
L34.0950 66.7882
" />
<path d="M34.0950 66.7882
L34.1427 66.5977
" />
<path d="M34.1427 66.5977
L34.2379 66.5024
" />
<path d="M34.2379 66.5024
L34.3331 66.4548
" />
<path d="M36.5236 67.3596
L36.4760 67.4072
" />
<path d="M36.4760 67.4072
L36.3331 67.4548
" />
<path d="M36.3331 67.4548
L36.2379 67.4548
" />
<path d="M36.2379 67.4548
L36.0950 67.4072
" />
<path d="M36.0950 67.4072
L35.9998 67.3120
" />
<path d="M35.9998 67.3120
L35.9522 67.2167
" />
<path d="M35.9522 67.2167
L35.9046 67.0262
" />
<path d="M35.9046 67.0262
L35.9046 66.8834
" />
<path d="M35.9046 66.8834
L35.9522 66.6929
" />
<path d="M35.9522 66.6929
L35.9998 66.5977
" />
<path d="M35.9998 66.5977
L36.0950 66.5024
" />
<path d="M36.0950 66.5024
L36.2379 66.4548
" />
<path d="M36.2379 66.4548
L36.3331 66.4548
" />
<path d="M36.3331 66.4548
L36.4760 66.5024
" />
<path d="M36.4760 66.5024
L36.5236 66.5501
" />
<path d="M36.9522 67.4548
L36.9522 66.4548
" />
<path d="M36.9522 66.9310
L37.5236 66.9310
" />
<path d="M37.5236 67.4548
L37.5236 66.4548
" />
<path d="M37.9522 67.1691
L38.4284 67.1691
" />
<path d="M37.8569 67.4548
L38.1903 66.4548
" />
<path d="M38.1903 66.4548
L38.5236 67.4548
" />
<path d="M39.4284 67.4548
L39.0950 66.9786
" />
<path d="M38.8569 67.4548
L38.8569 66.4548
" />
<path d="M38.8569 66.4548
L39.2379 66.4548
" />
<path d="M39.2379 66.4548
L39.3331 66.5024
" />
<path d="M39.3331 66.5024
L39.3808 66.5501
" />
<path d="M39.3808 66.5501
L39.4284 66.6453
" />
<path d="M39.4284 66.6453
L39.4284 66.7882
" />
<path d="M39.4284 66.7882
L39.3808 66.8834
" />
<path d="M39.3808 66.8834
L39.3331 66.9310
" />
<path d="M39.3331 66.9310
L39.2379 66.9786
" />
<path d="M39.2379 66.9786
L38.8569 66.9786
" />
<path d="M40.3808 66.5024
L40.2855 66.4548
" />
<path d="M40.2855 66.4548
L40.1427 66.4548
" />
<path d="M40.1427 66.4548
L39.9998 66.5024
" />
<path d="M39.9998 66.5024
L39.9046 66.5977
" />
<path d="M39.9046 66.5977
L39.8569 66.6929
" />
<path d="M39.8569 66.6929
L39.8093 66.8834
" />
<path d="M39.8093 66.8834
L39.8093 67.0262
" />
<path d="M39.8093 67.0262
L39.8569 67.2167
" />
<path d="M39.8569 67.2167
L39.9046 67.3120
" />
<path d="M39.9046 67.3120
L39.9998 67.4072
" />
<path d="M39.9998 67.4072
L40.1427 67.4548
" />
<path d="M40.1427 67.4548
L40.2379 67.4548
" />
<path d="M40.2379 67.4548
L40.3808 67.4072
" />
<path d="M40.3808 67.4072
L40.4284 67.3596
" />
<path d="M40.4284 67.3596
L40.4284 67.0262
" />
<path d="M40.4284 67.0262
L40.2379 67.0262
" />
<path d="M40.8569 66.9310
L41.1903 66.9310
" />
<path d="M41.3331 67.4548
L40.8569 67.4548
" />
<path d="M40.8569 67.4548
L40.8569 66.4548
" />
<path d="M40.8569 66.4548
L41.3331 66.4548
" />
</g><text x="49.9998" y="90.6000"
textLength="22.0957" font-size="1.6000" lengthAdjust="spacingAndGlyphs"
text-anchor="middle" opacity="0" stroke-opacity="0">GROWBOX P1 / BOTTOM</text>
<g class="stroked-text"><desc>GROWBOX P1 / BOTTOM</desc>
<path d="M39.9712 89.4045
L39.8569 89.3473
" />
<path d="M39.8569 89.3473
L39.6855 89.3473
" />
<path d="M39.6855 89.3473
L39.5141 89.4045
" />
<path d="M39.5141 89.4045
L39.3998 89.5188
" />
<path d="M39.3998 89.5188
L39.3427 89.6331
" />
<path d="M39.3427 89.6331
L39.2855 89.8616
" />
<path d="M39.2855 89.8616
L39.2855 90.0331
" />
<path d="M39.2855 90.0331
L39.3427 90.2616
" />
<path d="M39.3427 90.2616
L39.3998 90.3759
" />
<path d="M39.3998 90.3759
L39.5141 90.4902
" />
<path d="M39.5141 90.4902
L39.6855 90.5473
" />
<path d="M39.6855 90.5473
L39.7998 90.5473
" />
<path d="M39.7998 90.5473
L39.9712 90.4902
" />
<path d="M39.9712 90.4902
L40.0284 90.4331
" />
<path d="M40.0284 90.4331
L40.0284 90.0331
" />
<path d="M40.0284 90.0331
L39.7998 90.0331
" />
<path d="M41.2284 90.5473
L40.8284 89.9759
" />
<path d="M40.5427 90.5473
L40.5427 89.3473
" />
<path d="M40.5427 89.3473
L40.9998 89.3473
" />
<path d="M40.9998 89.3473
L41.1141 89.4045
" />
<path d="M41.1141 89.4045
L41.1712 89.4616
" />
<path d="M41.1712 89.4616
L41.2284 89.5759
" />
<path d="M41.2284 89.5759
L41.2284 89.7473
" />
<path d="M41.2284 89.7473
L41.1712 89.8616
" />
<path d="M41.1712 89.8616
L41.1141 89.9188
" />
<path d="M41.1141 89.9188
L40.9998 89.9759
" />
<path d="M40.9998 89.9759
L40.5427 89.9759
" />
<path d="M41.9712 89.3473
L42.1998 89.3473
" />
<path d="M42.1998 89.3473
L42.3141 89.4045
" />
<path d="M42.3141 89.4045
L42.4284 89.5188
" />
<path d="M42.4284 89.5188
L42.4855 89.7473
" />
<path d="M42.4855 89.7473
L42.4855 90.1473
" />
<path d="M42.4855 90.1473
L42.4284 90.3759
" />
<path d="M42.4284 90.3759
L42.3141 90.4902
" />
<path d="M42.3141 90.4902
L42.1998 90.5473
" />
<path d="M42.1998 90.5473
L41.9712 90.5473
" />
<path d="M41.9712 90.5473
L41.8569 90.4902
" />
<path d="M41.8569 90.4902
L41.7427 90.3759
" />
<path d="M41.7427 90.3759
L41.6855 90.1473
" />
<path d="M41.6855 90.1473
L41.6855 89.7473
" />
<path d="M41.6855 89.7473
L41.7427 89.5188
" />
<path d="M41.7427 89.5188
L41.8569 89.4045
" />
<path d="M41.8569 89.4045
L41.9712 89.3473
" />
<path d="M42.8855 89.3473
L43.1712 90.5473
" />
<path d="M43.1712 90.5473
L43.3998 89.6902
" />
<path d="M43.3998 89.6902
L43.6284 90.5473
" />
<path d="M43.6284 90.5473
L43.9141 89.3473
" />
<path d="M44.7712 89.9188
L44.9427 89.9759
" />
<path d="M44.9427 89.9759
L44.9998 90.0331
" />
<path d="M44.9998 90.0331
L45.0569 90.1473
" />
<path d="M45.0569 90.1473
L45.0569 90.3188
" />
<path d="M45.0569 90.3188
L44.9998 90.4331
" />
<path d="M44.9998 90.4331
L44.9427 90.4902
" />
<path d="M44.9427 90.4902
L44.8284 90.5473
" />
<path d="M44.8284 90.5473
L44.3712 90.5473
" />
<path d="M44.3712 90.5473
L44.3712 89.3473
" />
<path d="M44.3712 89.3473
L44.7712 89.3473
" />
<path d="M44.7712 89.3473
L44.8855 89.4045
" />
<path d="M44.8855 89.4045
L44.9427 89.4616
" />
<path d="M44.9427 89.4616
L44.9998 89.5759
" />
<path d="M44.9998 89.5759
L44.9998 89.6902
" />
<path d="M44.9998 89.6902
L44.9427 89.8045
" />
<path d="M44.9427 89.8045
L44.8855 89.8616
" />
<path d="M44.8855 89.8616
L44.7712 89.9188
" />
<path d="M44.7712 89.9188
L44.3712 89.9188
" />
<path d="M45.7998 89.3473
L46.0284 89.3473
" />
<path d="M46.0284 89.3473
L46.1427 89.4045
" />
<path d="M46.1427 89.4045
L46.2569 89.5188
" />
<path d="M46.2569 89.5188
L46.3141 89.7473
" />
<path d="M46.3141 89.7473
L46.3141 90.1473
" />
<path d="M46.3141 90.1473
L46.2569 90.3759
" />
<path d="M46.2569 90.3759
L46.1427 90.4902
" />
<path d="M46.1427 90.4902
L46.0284 90.5473
" />
<path d="M46.0284 90.5473
L45.7998 90.5473
" />
<path d="M45.7998 90.5473
L45.6855 90.4902
" />
<path d="M45.6855 90.4902
L45.5712 90.3759
" />
<path d="M45.5712 90.3759
L45.5141 90.1473
" />
<path d="M45.5141 90.1473
L45.5141 89.7473
" />
<path d="M45.5141 89.7473
L45.5712 89.5188
" />
<path d="M45.5712 89.5188
L45.6855 89.4045
" />
<path d="M45.6855 89.4045
L45.7998 89.3473
" />
<path d="M46.7141 89.3473
L47.5141 90.5473
" />
<path d="M47.5141 89.3473
L46.7141 90.5473
" />
<path d="M48.8855 90.5473
L48.8855 89.3473
" />
<path d="M48.8855 89.3473
L49.3427 89.3473
" />
<path d="M49.3427 89.3473
L49.4569 89.4045
" />
<path d="M49.4569 89.4045
L49.5141 89.4616
" />
<path d="M49.5141 89.4616
L49.5712 89.5759
" />
<path d="M49.5712 89.5759
L49.5712 89.7473
" />
<path d="M49.5712 89.7473
L49.5141 89.8616
" />
<path d="M49.5141 89.8616
L49.4569 89.9188
" />
<path d="M49.4569 89.9188
L49.3427 89.9759
" />
<path d="M49.3427 89.9759
L48.8855 89.9759
" />
<path d="M50.7141 90.5473
L50.0284 90.5473
" />
<path d="M50.3712 90.5473
L50.3712 89.3473
" />
<path d="M50.3712 89.3473
L50.2569 89.5188
" />
<path d="M50.2569 89.5188
L50.1427 89.6331
" />
<path d="M50.1427 89.6331
L50.0284 89.6902
" />
<path d="M52.9998 89.2902
L51.9712 90.8331
" />
<path d="M54.7141 89.9188
L54.8855 89.9759
" />
<path d="M54.8855 89.9759
L54.9427 90.0331
" />
<path d="M54.9427 90.0331
L54.9998 90.1473
" />
<path d="M54.9998 90.1473
L54.9998 90.3188
" />
<path d="M54.9998 90.3188
L54.9427 90.4331
" />
<path d="M54.9427 90.4331
L54.8855 90.4902
" />
<path d="M54.8855 90.4902
L54.7712 90.5473
" />
<path d="M54.7712 90.5473
L54.3141 90.5473
" />
<path d="M54.3141 90.5473
L54.3141 89.3473
" />
<path d="M54.3141 89.3473
L54.7141 89.3473
" />
<path d="M54.7141 89.3473
L54.8284 89.4045
" />
<path d="M54.8284 89.4045
L54.8855 89.4616
" />
<path d="M54.8855 89.4616
L54.9427 89.5759
" />
<path d="M54.9427 89.5759
L54.9427 89.6902
" />
<path d="M54.9427 89.6902
L54.8855 89.8045
" />
<path d="M54.8855 89.8045
L54.8284 89.8616
" />
<path d="M54.8284 89.8616
L54.7141 89.9188
" />
<path d="M54.7141 89.9188
L54.3141 89.9188
" />
<path d="M55.7427 89.3473
L55.9712 89.3473
" />
<path d="M55.9712 89.3473
L56.0855 89.4045
" />
<path d="M56.0855 89.4045
L56.1998 89.5188
" />
<path d="M56.1998 89.5188
L56.2569 89.7473
" />
<path d="M56.2569 89.7473
L56.2569 90.1473
" />
<path d="M56.2569 90.1473
L56.1998 90.3759
" />
<path d="M56.1998 90.3759
L56.0855 90.4902
" />
<path d="M56.0855 90.4902
L55.9712 90.5473
" />
<path d="M55.9712 90.5473
L55.7427 90.5473
" />
<path d="M55.7427 90.5473
L55.6284 90.4902
" />
<path d="M55.6284 90.4902
L55.5141 90.3759
" />
<path d="M55.5141 90.3759
L55.4569 90.1473
" />
<path d="M55.4569 90.1473
L55.4569 89.7473
" />
<path d="M55.4569 89.7473
L55.5141 89.5188
" />
<path d="M55.5141 89.5188
L55.6284 89.4045
" />
<path d="M55.6284 89.4045
L55.7427 89.3473
" />
<path d="M56.5998 89.3473
L57.2855 89.3473
" />
<path d="M56.9427 90.5473
L56.9427 89.3473
" />
<path d="M57.5141 89.3473
L58.1998 89.3473
" />
<path d="M57.8569 90.5473
L57.8569 89.3473
" />
<path d="M58.8284 89.3473
L59.0569 89.3473
" />
<path d="M59.0569 89.3473
L59.1712 89.4045
" />
<path d="M59.1712 89.4045
L59.2855 89.5188
" />
<path d="M59.2855 89.5188
L59.3427 89.7473
" />
<path d="M59.3427 89.7473
L59.3427 90.1473
" />
<path d="M59.3427 90.1473
L59.2855 90.3759
" />
<path d="M59.2855 90.3759
L59.1712 90.4902
" />
<path d="M59.1712 90.4902
L59.0569 90.5473
" />
<path d="M59.0569 90.5473
L58.8284 90.5473
" />
<path d="M58.8284 90.5473
L58.7141 90.4902
" />
<path d="M58.7141 90.4902
L58.5998 90.3759
" />
<path d="M58.5998 90.3759
L58.5427 90.1473
" />
<path d="M58.5427 90.1473
L58.5427 89.7473
" />
<path d="M58.5427 89.7473
L58.5998 89.5188
" />
<path d="M58.5998 89.5188
L58.7141 89.4045
" />
<path d="M58.7141 89.4045
L58.8284 89.3473
" />
<path d="M59.8569 90.5473
L59.8569 89.3473
" />
<path d="M59.8569 89.3473
L60.2569 90.2045
" />
<path d="M60.2569 90.2045
L60.6569 89.3473
" />
<path d="M60.6569 89.3473
L60.6569 90.5473
" />
</g></g>
<g style="fill:none;
stroke:#E8B2A7; stroke-width:0.1200; stroke-opacity:1;
stroke-linecap:round; stroke-linejoin:round;">
<path d="M48.5498 49.2500
L43.7498 49.2500
" />
<path d="M48.5498 54.7500
L48.5498 49.2500
" />
<path d="M43.7998 45.9500
L36.9498 41.1500
" />
<path d="M43.7498 54.7500
L48.5498 54.7500
" />
<path d="M43.5498 61.5000
L36.8498 61.5000
" />
<path d="M36.9498 41.1500
L29.0498 41.1500
" />
<path d="M29.0498 41.1500
L22.2498 45.9500
" />
<path d="M22.4498 61.5000
L29.1498 61.5000
" />
<path d="M22.2498 49.2500
L17.4498 49.2500
" />
<path d="M17.4498 49.2500
L17.4498 54.7500
" />
<path d="M17.4498 54.7500
L22.2498 54.7500
" />
<path d="M29.1498 61.5000 A10.2505 10.2505 0.0 0 0 36.8462 61.5015" />
</g>
<g style="fill:none;
stroke:#D0D2CD; stroke-width:0.0500; stroke-opacity:1;
stroke-linecap:round; stroke-linejoin:round;">
<path d="M99.9998 0.0000
L-0.0002 0.0000
" />
<path d="M99.9998 100.0000
L99.9998 0.0000
" />
<path d="M-0.0002 0.0000
L-0.0002 100.0000
" />
<path d="M-0.0002 100.0000
L99.9998 100.0000
" />
</g>
<g style="fill:none;
stroke:#FFFFFF; stroke-width:0.6000; stroke-opacity:1;
stroke-linecap:round; stroke-linejoin:round;">
<path d="M89.5498 18.1500
L88.4498 18.1500
" />
</g>
<g style="fill:none;
stroke:#FFFFFF; stroke-width:0.6000; stroke-opacity:1;
stroke-linecap:round; stroke-linejoin:round;">
<path d="M89.5498 4.6500
L88.4498 4.6500
" />
</g>
<g style="fill:#FFFFFF; fill-opacity:1.0000; stroke:none;">
<circle cx="82.9998" cy="15.0000" r="1.3500" />
</g>
<g style="fill:#FFFFFF; fill-opacity:1.0000; stroke:none;">
<circle cx="82.9998" cy="7.8000" r="1.3500" />
</g>
<g style="fill:#FFFFFF; fill-opacity:1.0000; stroke:none;">
<circle cx="55.9998" cy="94.2000" r="0.6500" />
</g>
<g style="fill:#FFFFFF; fill-opacity:1.0000; stroke:none;">
<circle cx="50.9198" cy="94.2000" r="0.6500" />
</g>
<g style="fill:#FFFFFF; fill-opacity:1.0000; stroke:none;">
<circle cx="5.5998" cy="70.0000" r="0.6000" />
</g>
<g style="fill:#FFFFFF; fill-opacity:1.0000; stroke:none;">
<circle cx="5.5998" cy="66.5000" r="0.6000" />
</g>
<g style="fill:#FFFFFF; fill-opacity:1.0000; stroke:none;">
<circle cx="89.9998" cy="94.2000" r="0.6500" />
</g>
<g style="fill:#FFFFFF; fill-opacity:1.0000; stroke:none;">
<circle cx="84.9198" cy="94.2000" r="0.6500" />
</g>
<g style="fill:#FFFFFF; fill-opacity:1.0000; stroke:none;">
<circle cx="20.9998" cy="94.4000" r="0.6000" />
</g>
<g style="fill:#FFFFFF; fill-opacity:1.0000; stroke:none;">
<circle cx="17.4998" cy="94.4000" r="0.6000" />
</g>
<g style="fill:#FFFFFF; fill-opacity:1.0000; stroke:none;">
<circle cx="13.9998" cy="94.4000" r="0.6000" />
</g>
<g style="fill:#FFFFFF; fill-opacity:1.0000; stroke:none;">
<circle cx="10.4998" cy="94.4000" r="0.6000" />
</g>
<g style="fill:#FFFFFF; fill-opacity:1.0000; stroke:none;">
<circle cx="72.9998" cy="94.2000" r="0.6500" />
</g>
<g style="fill:#FFFFFF; fill-opacity:1.0000; stroke:none;">
<circle cx="67.9198" cy="94.2000" r="0.6500" />
</g>
<g style="fill:#FFFFFF; fill-opacity:1.0000; stroke:none;">
<circle cx="94.4998" cy="28.0000" r="0.6000" />
</g>
<g style="fill:#FFFFFF; fill-opacity:1.0000; stroke:none;">
<circle cx="94.4998" cy="31.5000" r="0.6000" />
</g>
<g style="fill:#FFFFFF; fill-opacity:1.0000; stroke:none;">
<circle cx="4.9998" cy="57.0000" r="0.4750" />
</g>
<g style="fill:#FFFFFF; fill-opacity:1.0000; stroke:none;">
<circle cx="4.9998" cy="54.5000" r="0.4750" />
</g>
<g style="fill:#FFFFFF; fill-opacity:1.0000; stroke:none;">
<circle cx="4.9998" cy="52.0000" r="0.4750" />
</g>
<g style="fill:#FFFFFF; fill-opacity:1.0000; stroke:none;">
<circle cx="4.9998" cy="49.5000" r="0.4750" />
</g>
<g style="fill:#FFFFFF; fill-opacity:1.0000; stroke:none;">
<circle cx="94.4998" cy="42.0000" r="0.6000" />
</g>
<g style="fill:#FFFFFF; fill-opacity:1.0000; stroke:none;">
<circle cx="94.4998" cy="45.5000" r="0.6000" />
</g>
<g style="fill:#FFFFFF; fill-opacity:1.0000; stroke:none;">
<circle cx="40.9998" cy="94.4000" r="0.6000" />
</g>
<g style="fill:#FFFFFF; fill-opacity:1.0000; stroke:none;">
<circle cx="37.4998" cy="94.4000" r="0.6000" />
</g>
<g style="fill:#FFFFFF; fill-opacity:1.0000; stroke:none;">
<circle cx="33.9998" cy="94.4000" r="0.6000" />
</g>
<g style="fill:#FFFFFF; fill-opacity:1.0000; stroke:none;">
<circle cx="30.4998" cy="94.4000" r="0.6000" />
</g>
<g style="fill:#FFFFFF; fill-opacity:1.0000; stroke:none;">
<circle cx="3.4998" cy="82.0000" r="0.5000" />
</g>
<g style="fill:#FFFFFF; fill-opacity:1.0000; stroke:none;">
<circle cx="3.4998" cy="84.5400" r="0.5000" />
</g>
<g style="fill:#FFFFFF; fill-opacity:1.0000; stroke:none;">
<circle cx="3.4998" cy="87.0800" r="0.5000" />
</g>
<g style="fill:#FFFFFF; fill-opacity:1.0000; stroke:none;">
<circle cx="3.4998" cy="89.6200" r="0.5000" />
</g>
<g style="fill:#FFFFFF; fill-opacity:1.0000; stroke:none;">
<circle cx="3.4998" cy="92.1600" r="0.5000" />
</g>
<g style="fill:#FFFFFF; fill-opacity:1.0000; stroke:none;">
<circle cx="3.4998" cy="94.7000" r="0.5000" />
</g>
<g style="fill:#FFFFFF; fill-opacity:1.0000; stroke:none;">
<circle cx="69.9998" cy="9.0000" r="0.9000" />
</g>
<g style="fill:#FFFFFF; fill-opacity:1.0000; stroke:none;">
<circle cx="69.9998" cy="12.4000" r="0.9000" />
</g>
<g style="fill:#FFFFFF; fill-opacity:1.0000; stroke:none;">
<circle cx="60.1998" cy="9.0000" r="0.9000" />
</g>
<g style="fill:#FFFFFF; fill-opacity:1.0000; stroke:none;">
<circle cx="60.1998" cy="12.4000" r="0.9000" />
</g>
</svg>
