ISO-10303-21;
HEADER;
FILE_DESCRIPTION(('Open CASCADE Model'),'2;1');
FILE_NAME('SW_Push_1P1T_XKB_TS-1187A.step','2026-09-30T00:00:00',('Author'),(
    'Open CASCADE'),'Open CASCADE STEP processor 7.8','Open CASCADE 7.8'
  ,'Unknown');
FILE_SCHEMA(('AUTOMOTIVE_DESIGN { 1 0 10303 214 1 1 1 1 }'));
ENDSEC;
DATA;
#1 = APPLICATION_PROTOCOL_DEFINITION('international standard',
  'automotive_design',2000,#2);
#2 = APPLICATION_CONTEXT(
  'core data for automotive mechanical design processes');
#3 = SHAPE_DEFINITION_REPRESENTATION(#4,#10);
#4 = PRODUCT_DEFINITION_SHAPE('','',#5);
#5 = PRODUCT_DEFINITION('design','',#6,#9);
#6 = PRODUCT_DEFINITION_FORMATION('','',#7);
#7 = PRODUCT('SW_Push_1P1T_XKB_TS-1187A','SW_Push_1P1T_XKB_TS-1187A','',
  (#8));
#8 = PRODUCT_CONTEXT('',#2,'mechanical');
#9 = PRODUCT_DEFINITION_CONTEXT('part definition',#2,'design');
#10 = SHAPE_REPRESENTATION('',(#11,#15,#19,#23,#27,#31,#35,#39),#43);
#11 = AXIS2_PLACEMENT_3D('',#12,#13,#14);
#12 = CARTESIAN_POINT('',(0.,0.,0.));
#13 = DIRECTION('',(0.,0.,1.));
#14 = DIRECTION('',(1.,0.,-0.));
#15 = AXIS2_PLACEMENT_3D('',#16,#17,#18);
#16 = CARTESIAN_POINT('',(0.,0.,0.));
#17 = DIRECTION('',(0.,0.,1.));
#18 = DIRECTION('',(1.,0.,-0.));
#19 = AXIS2_PLACEMENT_3D('',#20,#21,#22);
#20 = CARTESIAN_POINT('',(0.,0.,0.));
#21 = DIRECTION('',(0.,0.,1.));
#22 = DIRECTION('',(1.,0.,-0.));
#23 = AXIS2_PLACEMENT_3D('',#24,#25,#26);
#24 = CARTESIAN_POINT('',(0.,0.,0.));
#25 = DIRECTION('',(0.,0.,1.));
#26 = DIRECTION('',(1.,0.,-0.));
#27 = AXIS2_PLACEMENT_3D('',#28,#29,#30);
#28 = CARTESIAN_POINT('',(0.,0.,0.));
#29 = DIRECTION('',(0.,0.,1.));
#30 = DIRECTION('',(1.,0.,-0.));
#31 = AXIS2_PLACEMENT_3D('',#32,#33,#34);
#32 = CARTESIAN_POINT('',(0.,0.,0.));
#33 = DIRECTION('',(0.,0.,1.));
#34 = DIRECTION('',(1.,0.,-0.));
#35 = AXIS2_PLACEMENT_3D('',#36,#37,#38);
#36 = CARTESIAN_POINT('',(0.,0.,0.));
#37 = DIRECTION('',(0.,0.,1.));
#38 = DIRECTION('',(1.,0.,-0.));
#39 = AXIS2_PLACEMENT_3D('',#40,#41,#42);
#40 = CARTESIAN_POINT('',(0.,0.,0.));
#41 = DIRECTION('',(0.,0.,1.));
#42 = DIRECTION('',(1.,0.,-0.));
#43 = ( GEOMETRIC_REPRESENTATION_CONTEXT(3)
GLOBAL_UNCERTAINTY_ASSIGNED_CONTEXT((#47)) GLOBAL_UNIT_ASSIGNED_CONTEXT(
(#44,#45,#46)) REPRESENTATION_CONTEXT('Context #1',
  '3D Context with UNIT and UNCERTAINTY') );
#44 = ( LENGTH_UNIT() NAMED_UNIT(*) SI_UNIT(.MILLI.,.METRE.) );
#45 = ( NAMED_UNIT(*) PLANE_ANGLE_UNIT() SI_UNIT($,.RADIAN.) );
#46 = ( NAMED_UNIT(*) SI_UNIT($,.STERADIAN.) SOLID_ANGLE_UNIT() );
#47 = UNCERTAINTY_MEASURE_WITH_UNIT(LENGTH_MEASURE(1.E-07),#44,
  'distance_accuracy_value','confusion accuracy');
#48 = PRODUCT_RELATED_PRODUCT_CATEGORY('part',$,(#7));
#49 = SHAPE_DEFINITION_REPRESENTATION(#50,#56);
#50 = PRODUCT_DEFINITION_SHAPE('','',#51);
#51 = PRODUCT_DEFINITION('design','',#52,#55);
#52 = PRODUCT_DEFINITION_FORMATION('','',#53);
#53 = PRODUCT('base','base','',(#54));
#54 = PRODUCT_CONTEXT('',#2,'mechanical');
#55 = PRODUCT_DEFINITION_CONTEXT('part definition',#2,'design');
#56 = ADVANCED_BREP_SHAPE_REPRESENTATION('',(#11,#57),#339);
#57 = MANIFOLD_SOLID_BREP('',#58);
#58 = CLOSED_SHELL('',(#59,#99,#130,#161,#192,#223,#254,#285,#307,#323)
  );
#59 = ADVANCED_FACE('',(#60),#94,.F.);
#60 = FACE_BOUND('',#61,.F.);
#61 = EDGE_LOOP('',(#62,#72,#80,#88));
#62 = ORIENTED_EDGE('',*,*,#63,.T.);
#63 = EDGE_CURVE('',#64,#66,#68,.T.);
#64 = VERTEX_POINT('',#65);
#65 = CARTESIAN_POINT('',(-2.55,-1.25,0.));
#66 = VERTEX_POINT('',#67);
#67 = CARTESIAN_POINT('',(-2.55,-1.25,0.9));
#68 = LINE('',#69,#70);
#69 = CARTESIAN_POINT('',(-2.55,-1.25,0.));
#70 = VECTOR('',#71,1.);
#71 = DIRECTION('',(0.,0.,1.));
#72 = ORIENTED_EDGE('',*,*,#73,.T.);
#73 = EDGE_CURVE('',#66,#74,#76,.T.);
#74 = VERTEX_POINT('',#75);
#75 = CARTESIAN_POINT('',(-1.25,-2.55,0.9));
#76 = LINE('',#77,#78);
#77 = CARTESIAN_POINT('',(-2.55,-1.25,0.9));
#78 = VECTOR('',#79,1.);
#79 = DIRECTION('',(0.707106781187,-0.707106781187,0.));
#80 = ORIENTED_EDGE('',*,*,#81,.F.);
#81 = EDGE_CURVE('',#82,#74,#84,.T.);
#82 = VERTEX_POINT('',#83);
#83 = CARTESIAN_POINT('',(-1.25,-2.55,0.));
#84 = LINE('',#85,#86);
#85 = CARTESIAN_POINT('',(-1.25,-2.55,0.));
#86 = VECTOR('',#87,1.);
#87 = DIRECTION('',(0.,0.,1.));
#88 = ORIENTED_EDGE('',*,*,#89,.F.);
#89 = EDGE_CURVE('',#64,#82,#90,.T.);
#90 = LINE('',#91,#92);
#91 = CARTESIAN_POINT('',(-2.55,-1.25,0.));
#92 = VECTOR('',#93,1.);
#93 = DIRECTION('',(0.707106781187,-0.707106781187,0.));
#94 = PLANE('',#95);
#95 = AXIS2_PLACEMENT_3D('',#96,#97,#98);
#96 = CARTESIAN_POINT('',(-2.55,-1.25,0.));
#97 = DIRECTION('',(0.707106781187,0.707106781187,-0.));
#98 = DIRECTION('',(0.707106781187,-0.707106781187,0.));
#99 = ADVANCED_FACE('',(#100),#125,.F.);
#100 = FACE_BOUND('',#101,.F.);
#101 = EDGE_LOOP('',(#102,#103,#111,#119));
#102 = ORIENTED_EDGE('',*,*,#81,.T.);
#103 = ORIENTED_EDGE('',*,*,#104,.T.);
#104 = EDGE_CURVE('',#74,#105,#107,.T.);
#105 = VERTEX_POINT('',#106);
#106 = CARTESIAN_POINT('',(1.25,-2.55,0.9));
#107 = LINE('',#108,#109);
#108 = CARTESIAN_POINT('',(-1.25,-2.55,0.9));
#109 = VECTOR('',#110,1.);
#110 = DIRECTION('',(1.,0.,0.));
#111 = ORIENTED_EDGE('',*,*,#112,.F.);
#112 = EDGE_CURVE('',#113,#105,#115,.T.);
#113 = VERTEX_POINT('',#114);
#114 = CARTESIAN_POINT('',(1.25,-2.55,0.));
#115 = LINE('',#116,#117);
#116 = CARTESIAN_POINT('',(1.25,-2.55,0.));
#117 = VECTOR('',#118,1.);
#118 = DIRECTION('',(0.,0.,1.));
#119 = ORIENTED_EDGE('',*,*,#120,.F.);
#120 = EDGE_CURVE('',#82,#113,#121,.T.);
#121 = LINE('',#122,#123);
#122 = CARTESIAN_POINT('',(-1.25,-2.55,0.));
#123 = VECTOR('',#124,1.);
#124 = DIRECTION('',(1.,0.,0.));
#125 = PLANE('',#126);
#126 = AXIS2_PLACEMENT_3D('',#127,#128,#129);
#127 = CARTESIAN_POINT('',(-1.25,-2.55,0.));
#128 = DIRECTION('',(0.,1.,0.));
#129 = DIRECTION('',(1.,0.,0.));
#130 = ADVANCED_FACE('',(#131),#156,.F.);
#131 = FACE_BOUND('',#132,.F.);
#132 = EDGE_LOOP('',(#133,#134,#142,#150));
#133 = ORIENTED_EDGE('',*,*,#112,.T.);
#134 = ORIENTED_EDGE('',*,*,#135,.T.);
#135 = EDGE_CURVE('',#105,#136,#138,.T.);
#136 = VERTEX_POINT('',#137);
#137 = CARTESIAN_POINT('',(2.55,-1.25,0.9));
#138 = LINE('',#139,#140);
#139 = CARTESIAN_POINT('',(1.25,-2.55,0.9));
#140 = VECTOR('',#141,1.);
#141 = DIRECTION('',(0.707106781187,0.707106781187,0.));
#142 = ORIENTED_EDGE('',*,*,#143,.F.);
#143 = EDGE_CURVE('',#144,#136,#146,.T.);
#144 = VERTEX_POINT('',#145);
#145 = CARTESIAN_POINT('',(2.55,-1.25,0.));
#146 = LINE('',#147,#148);
#147 = CARTESIAN_POINT('',(2.55,-1.25,0.));
#148 = VECTOR('',#149,1.);
#149 = DIRECTION('',(0.,0.,1.));
#150 = ORIENTED_EDGE('',*,*,#151,.F.);
#151 = EDGE_CURVE('',#113,#144,#152,.T.);
#152 = LINE('',#153,#154);
#153 = CARTESIAN_POINT('',(1.25,-2.55,0.));
#154 = VECTOR('',#155,1.);
#155 = DIRECTION('',(0.707106781187,0.707106781187,0.));
#156 = PLANE('',#157);
#157 = AXIS2_PLACEMENT_3D('',#158,#159,#160);
#158 = CARTESIAN_POINT('',(1.25,-2.55,0.));
#159 = DIRECTION('',(-0.707106781187,0.707106781187,0.));
#160 = DIRECTION('',(0.707106781187,0.707106781187,0.));
#161 = ADVANCED_FACE('',(#162),#187,.F.);
#162 = FACE_BOUND('',#163,.F.);
#163 = EDGE_LOOP('',(#164,#165,#173,#181));
#164 = ORIENTED_EDGE('',*,*,#143,.T.);
#165 = ORIENTED_EDGE('',*,*,#166,.T.);
#166 = EDGE_CURVE('',#136,#167,#169,.T.);
#167 = VERTEX_POINT('',#168);
#168 = CARTESIAN_POINT('',(2.55,1.25,0.9));
#169 = LINE('',#170,#171);
#170 = CARTESIAN_POINT('',(2.55,-1.25,0.9));
#171 = VECTOR('',#172,1.);
#172 = DIRECTION('',(0.,1.,0.));
#173 = ORIENTED_EDGE('',*,*,#174,.F.);
#174 = EDGE_CURVE('',#175,#167,#177,.T.);
#175 = VERTEX_POINT('',#176);
#176 = CARTESIAN_POINT('',(2.55,1.25,0.));
#177 = LINE('',#178,#179);
#178 = CARTESIAN_POINT('',(2.55,1.25,0.));
#179 = VECTOR('',#180,1.);
#180 = DIRECTION('',(0.,0.,1.));
#181 = ORIENTED_EDGE('',*,*,#182,.F.);
#182 = EDGE_CURVE('',#144,#175,#183,.T.);
#183 = LINE('',#184,#185);
#184 = CARTESIAN_POINT('',(2.55,-1.25,0.));
#185 = VECTOR('',#186,1.);
#186 = DIRECTION('',(0.,1.,0.));
#187 = PLANE('',#188);
#188 = AXIS2_PLACEMENT_3D('',#189,#190,#191);
#189 = CARTESIAN_POINT('',(2.55,-1.25,0.));
#190 = DIRECTION('',(-1.,0.,0.));
#191 = DIRECTION('',(0.,1.,0.));
#192 = ADVANCED_FACE('',(#193),#218,.F.);
#193 = FACE_BOUND('',#194,.F.);
#194 = EDGE_LOOP('',(#195,#196,#204,#212));
#195 = ORIENTED_EDGE('',*,*,#174,.T.);
#196 = ORIENTED_EDGE('',*,*,#197,.T.);
#197 = EDGE_CURVE('',#167,#198,#200,.T.);
#198 = VERTEX_POINT('',#199);
#199 = CARTESIAN_POINT('',(1.25,2.55,0.9));
#200 = LINE('',#201,#202);
#201 = CARTESIAN_POINT('',(2.55,1.25,0.9));
#202 = VECTOR('',#203,1.);
#203 = DIRECTION('',(-0.707106781187,0.707106781187,0.));
#204 = ORIENTED_EDGE('',*,*,#205,.F.);
#205 = EDGE_CURVE('',#206,#198,#208,.T.);
#206 = VERTEX_POINT('',#207);
#207 = CARTESIAN_POINT('',(1.25,2.55,0.));
#208 = LINE('',#209,#210);
#209 = CARTESIAN_POINT('',(1.25,2.55,0.));
#210 = VECTOR('',#211,1.);
#211 = DIRECTION('',(0.,0.,1.));
#212 = ORIENTED_EDGE('',*,*,#213,.F.);
#213 = EDGE_CURVE('',#175,#206,#214,.T.);
#214 = LINE('',#215,#216);
#215 = CARTESIAN_POINT('',(2.55,1.25,0.));
#216 = VECTOR('',#217,1.);
#217 = DIRECTION('',(-0.707106781187,0.707106781187,0.));
#218 = PLANE('',#219);
#219 = AXIS2_PLACEMENT_3D('',#220,#221,#222);
#220 = CARTESIAN_POINT('',(2.55,1.25,0.));
#221 = DIRECTION('',(-0.707106781187,-0.707106781187,0.));
#222 = DIRECTION('',(-0.707106781187,0.707106781187,0.));
#223 = ADVANCED_FACE('',(#224),#249,.F.);
#224 = FACE_BOUND('',#225,.F.);
#225 = EDGE_LOOP('',(#226,#227,#235,#243));
#226 = ORIENTED_EDGE('',*,*,#205,.T.);
#227 = ORIENTED_EDGE('',*,*,#228,.T.);
#228 = EDGE_CURVE('',#198,#229,#231,.T.);
#229 = VERTEX_POINT('',#230);
#230 = CARTESIAN_POINT('',(-1.25,2.55,0.9));
#231 = LINE('',#232,#233);
#232 = CARTESIAN_POINT('',(1.25,2.55,0.9));
#233 = VECTOR('',#234,1.);
#234 = DIRECTION('',(-1.,0.,0.));
#235 = ORIENTED_EDGE('',*,*,#236,.F.);
#236 = EDGE_CURVE('',#237,#229,#239,.T.);
#237 = VERTEX_POINT('',#238);
#238 = CARTESIAN_POINT('',(-1.25,2.55,0.));
#239 = LINE('',#240,#241);
#240 = CARTESIAN_POINT('',(-1.25,2.55,0.));
#241 = VECTOR('',#242,1.);
#242 = DIRECTION('',(0.,0.,1.));
#243 = ORIENTED_EDGE('',*,*,#244,.F.);
#244 = EDGE_CURVE('',#206,#237,#245,.T.);
#245 = LINE('',#246,#247);
#246 = CARTESIAN_POINT('',(1.25,2.55,0.));
#247 = VECTOR('',#248,1.);
#248 = DIRECTION('',(-1.,0.,0.));
#249 = PLANE('',#250);
#250 = AXIS2_PLACEMENT_3D('',#251,#252,#253);
#251 = CARTESIAN_POINT('',(1.25,2.55,0.));
#252 = DIRECTION('',(0.,-1.,0.));
#253 = DIRECTION('',(-1.,0.,0.));
#254 = ADVANCED_FACE('',(#255),#280,.F.);
#255 = FACE_BOUND('',#256,.F.);
#256 = EDGE_LOOP('',(#257,#258,#266,#274));
#257 = ORIENTED_EDGE('',*,*,#236,.T.);
#258 = ORIENTED_EDGE('',*,*,#259,.T.);
#259 = EDGE_CURVE('',#229,#260,#262,.T.);
#260 = VERTEX_POINT('',#261);
#261 = CARTESIAN_POINT('',(-2.55,1.25,0.9));
#262 = LINE('',#263,#264);
#263 = CARTESIAN_POINT('',(-1.25,2.55,0.9));
#264 = VECTOR('',#265,1.);
#265 = DIRECTION('',(-0.707106781187,-0.707106781187,0.));
#266 = ORIENTED_EDGE('',*,*,#267,.F.);
#267 = EDGE_CURVE('',#268,#260,#270,.T.);
#268 = VERTEX_POINT('',#269);
#269 = CARTESIAN_POINT('',(-2.55,1.25,0.));
#270 = LINE('',#271,#272);
#271 = CARTESIAN_POINT('',(-2.55,1.25,0.));
#272 = VECTOR('',#273,1.);
#273 = DIRECTION('',(0.,0.,1.));
#274 = ORIENTED_EDGE('',*,*,#275,.F.);
#275 = EDGE_CURVE('',#237,#268,#276,.T.);
#276 = LINE('',#277,#278);
#277 = CARTESIAN_POINT('',(-1.25,2.55,0.));
#278 = VECTOR('',#279,1.);
#279 = DIRECTION('',(-0.707106781187,-0.707106781187,0.));
#280 = PLANE('',#281);
#281 = AXIS2_PLACEMENT_3D('',#282,#283,#284);
#282 = CARTESIAN_POINT('',(-1.25,2.55,0.));
#283 = DIRECTION('',(0.707106781187,-0.707106781187,0.));
#284 = DIRECTION('',(-0.707106781187,-0.707106781187,0.));
#285 = ADVANCED_FACE('',(#286),#302,.F.);
#286 = FACE_BOUND('',#287,.F.);
#287 = EDGE_LOOP('',(#288,#289,#295,#296));
#288 = ORIENTED_EDGE('',*,*,#267,.T.);
#289 = ORIENTED_EDGE('',*,*,#290,.T.);
#290 = EDGE_CURVE('',#260,#66,#291,.T.);
#291 = LINE('',#292,#293);
#292 = CARTESIAN_POINT('',(-2.55,1.25,0.9));
#293 = VECTOR('',#294,1.);
#294 = DIRECTION('',(0.,-1.,0.));
#295 = ORIENTED_EDGE('',*,*,#63,.F.);
#296 = ORIENTED_EDGE('',*,*,#297,.F.);
#297 = EDGE_CURVE('',#268,#64,#298,.T.);
#298 = LINE('',#299,#300);
#299 = CARTESIAN_POINT('',(-2.55,1.25,0.));
#300 = VECTOR('',#301,1.);
#301 = DIRECTION('',(0.,-1.,0.));
#302 = PLANE('',#303);
#303 = AXIS2_PLACEMENT_3D('',#304,#305,#306);
#304 = CARTESIAN_POINT('',(-2.55,1.25,0.));
#305 = DIRECTION('',(1.,0.,-0.));
#306 = DIRECTION('',(0.,-1.,0.));
#307 = ADVANCED_FACE('',(#308),#318,.F.);
#308 = FACE_BOUND('',#309,.F.);
#309 = EDGE_LOOP('',(#310,#311,#312,#313,#314,#315,#316,#317));
#310 = ORIENTED_EDGE('',*,*,#89,.T.);
#311 = ORIENTED_EDGE('',*,*,#120,.T.);
#312 = ORIENTED_EDGE('',*,*,#151,.T.);
#313 = ORIENTED_EDGE('',*,*,#182,.T.);
#314 = ORIENTED_EDGE('',*,*,#213,.T.);
#315 = ORIENTED_EDGE('',*,*,#244,.T.);
#316 = ORIENTED_EDGE('',*,*,#275,.T.);
#317 = ORIENTED_EDGE('',*,*,#297,.T.);
#318 = PLANE('',#319);
#319 = AXIS2_PLACEMENT_3D('',#320,#321,#322);
#320 = CARTESIAN_POINT('',(0.,-1.279507605007E-17,0.));
#321 = DIRECTION('',(0.,0.,1.));
#322 = DIRECTION('',(1.,0.,-0.));
#323 = ADVANCED_FACE('',(#324),#334,.T.);
#324 = FACE_BOUND('',#325,.T.);
#325 = EDGE_LOOP('',(#326,#327,#328,#329,#330,#331,#332,#333));
#326 = ORIENTED_EDGE('',*,*,#73,.T.);
#327 = ORIENTED_EDGE('',*,*,#104,.T.);
#328 = ORIENTED_EDGE('',*,*,#135,.T.);
#329 = ORIENTED_EDGE('',*,*,#166,.T.);
#330 = ORIENTED_EDGE('',*,*,#197,.T.);
#331 = ORIENTED_EDGE('',*,*,#228,.T.);
#332 = ORIENTED_EDGE('',*,*,#259,.T.);
#333 = ORIENTED_EDGE('',*,*,#290,.T.);
#334 = PLANE('',#335);
#335 = AXIS2_PLACEMENT_3D('',#336,#337,#338);
#336 = CARTESIAN_POINT('',(0.,-1.279507605007E-17,0.9));
#337 = DIRECTION('',(0.,0.,1.));
#338 = DIRECTION('',(1.,0.,-0.));
#339 = ( GEOMETRIC_REPRESENTATION_CONTEXT(3)
GLOBAL_UNCERTAINTY_ASSIGNED_CONTEXT((#343)) GLOBAL_UNIT_ASSIGNED_CONTEXT
((#340,#341,#342)) REPRESENTATION_CONTEXT('Context #1',
  '3D Context with UNIT and UNCERTAINTY') );
#340 = ( LENGTH_UNIT() NAMED_UNIT(*) SI_UNIT(.MILLI.,.METRE.) );
#341 = ( NAMED_UNIT(*) PLANE_ANGLE_UNIT() SI_UNIT($,.RADIAN.) );
#342 = ( NAMED_UNIT(*) SI_UNIT($,.STERADIAN.) SOLID_ANGLE_UNIT() );
#343 = UNCERTAINTY_MEASURE_WITH_UNIT(LENGTH_MEASURE(1.E-07),#340,
  'distance_accuracy_value','confusion accuracy');
#344 = CONTEXT_DEPENDENT_SHAPE_REPRESENTATION(#345,#347);
#345 = ( REPRESENTATION_RELATIONSHIP('','',#56,#10)
REPRESENTATION_RELATIONSHIP_WITH_TRANSFORMATION(#346)
SHAPE_REPRESENTATION_RELATIONSHIP() );
#346 = ITEM_DEFINED_TRANSFORMATION('','',#11,#15);
#347 = PRODUCT_DEFINITION_SHAPE('Placement','Placement of an item',#348
  );
#348 = NEXT_ASSEMBLY_USAGE_OCCURRENCE('50','base','',#5,#51,$);
#349 = PRODUCT_RELATED_PRODUCT_CATEGORY('part',$,(#53));
#350 = SHAPE_DEFINITION_REPRESENTATION(#351,#357);
#351 = PRODUCT_DEFINITION_SHAPE('','',#352);
#352 = PRODUCT_DEFINITION('design','',#353,#356);
#353 = PRODUCT_DEFINITION_FORMATION('','',#354);
#354 = PRODUCT('cover','cover','',(#355));
#355 = PRODUCT_CONTEXT('',#2,'mechanical');
#356 = PRODUCT_DEFINITION_CONTEXT('part definition',#2,'design');
#357 = ADVANCED_BREP_SHAPE_REPRESENTATION('',(#11,#358),#679);
#358 = MANIFOLD_SOLID_BREP('',#359);
#359 = CLOSED_SHELL('',(#360,#400,#431,#462,#522,#582,#599,#616,#633,
    #650,#662));
#360 = ADVANCED_FACE('',(#361),#395,.F.);
#361 = FACE_BOUND('',#362,.F.);
#362 = EDGE_LOOP('',(#363,#373,#381,#389));
#363 = ORIENTED_EDGE('',*,*,#364,.T.);
#364 = EDGE_CURVE('',#365,#367,#369,.T.);
#365 = VERTEX_POINT('',#366);
#366 = CARTESIAN_POINT('',(-2.55,-1.25,0.9));
#367 = VERTEX_POINT('',#368);
#368 = CARTESIAN_POINT('',(-2.55,-1.25,1.2));
#369 = LINE('',#370,#371);
#370 = CARTESIAN_POINT('',(-2.55,-1.25,0.9));
#371 = VECTOR('',#372,1.);
#372 = DIRECTION('',(0.,0.,1.));
#373 = ORIENTED_EDGE('',*,*,#374,.T.);
#374 = EDGE_CURVE('',#367,#375,#377,.T.);
#375 = VERTEX_POINT('',#376);
#376 = CARTESIAN_POINT('',(-1.25,-2.55,1.2));
#377 = LINE('',#378,#379);
#378 = CARTESIAN_POINT('',(-2.55,-1.25,1.2));
#379 = VECTOR('',#380,1.);
#380 = DIRECTION('',(0.707106781187,-0.707106781187,0.));
#381 = ORIENTED_EDGE('',*,*,#382,.F.);
#382 = EDGE_CURVE('',#383,#375,#385,.T.);
#383 = VERTEX_POINT('',#384);
#384 = CARTESIAN_POINT('',(-1.25,-2.55,0.9));
#385 = LINE('',#386,#387);
#386 = CARTESIAN_POINT('',(-1.25,-2.55,0.9));
#387 = VECTOR('',#388,1.);
#388 = DIRECTION('',(0.,0.,1.));
#389 = ORIENTED_EDGE('',*,*,#390,.F.);
#390 = EDGE_CURVE('',#365,#383,#391,.T.);
#391 = LINE('',#392,#393);
#392 = CARTESIAN_POINT('',(-2.55,-1.25,0.9));
#393 = VECTOR('',#394,1.);
#394 = DIRECTION('',(0.707106781187,-0.707106781187,0.));
#395 = PLANE('',#396);
#396 = AXIS2_PLACEMENT_3D('',#397,#398,#399);
#397 = CARTESIAN_POINT('',(-2.55,-1.25,0.9));
#398 = DIRECTION('',(0.707106781187,0.707106781187,-0.));
#399 = DIRECTION('',(0.707106781187,-0.707106781187,0.));
#400 = ADVANCED_FACE('',(#401),#426,.F.);
#401 = FACE_BOUND('',#402,.F.);
#402 = EDGE_LOOP('',(#403,#413,#419,#420));
#403 = ORIENTED_EDGE('',*,*,#404,.T.);
#404 = EDGE_CURVE('',#405,#407,#409,.T.);
#405 = VERTEX_POINT('',#406);
#406 = CARTESIAN_POINT('',(-2.55,1.25,0.9));
#407 = VERTEX_POINT('',#408);
#408 = CARTESIAN_POINT('',(-2.55,1.25,1.2));
#409 = LINE('',#410,#411);
#410 = CARTESIAN_POINT('',(-2.55,1.25,0.9));
#411 = VECTOR('',#412,1.);
#412 = DIRECTION('',(0.,0.,1.));
#413 = ORIENTED_EDGE('',*,*,#414,.T.);
#414 = EDGE_CURVE('',#407,#367,#415,.T.);
#415 = LINE('',#416,#417);
#416 = CARTESIAN_POINT('',(-2.55,1.25,1.2));
#417 = VECTOR('',#418,1.);
#418 = DIRECTION('',(0.,-1.,0.));
#419 = ORIENTED_EDGE('',*,*,#364,.F.);
#420 = ORIENTED_EDGE('',*,*,#421,.F.);
#421 = EDGE_CURVE('',#405,#365,#422,.T.);
#422 = LINE('',#423,#424);
#423 = CARTESIAN_POINT('',(-2.55,1.25,0.9));
#424 = VECTOR('',#425,1.);
#425 = DIRECTION('',(0.,-1.,0.));
#426 = PLANE('',#427);
#427 = AXIS2_PLACEMENT_3D('',#428,#429,#430);
#428 = CARTESIAN_POINT('',(-2.55,1.25,0.9));
#429 = DIRECTION('',(1.,0.,-0.));
#430 = DIRECTION('',(0.,-1.,0.));
#431 = ADVANCED_FACE('',(#432),#457,.F.);
#432 = FACE_BOUND('',#433,.F.);
#433 = EDGE_LOOP('',(#434,#435,#443,#451));
#434 = ORIENTED_EDGE('',*,*,#382,.T.);
#435 = ORIENTED_EDGE('',*,*,#436,.T.);
#436 = EDGE_CURVE('',#375,#437,#439,.T.);
#437 = VERTEX_POINT('',#438);
#438 = CARTESIAN_POINT('',(1.25,-2.55,1.2));
#439 = LINE('',#440,#441);
#440 = CARTESIAN_POINT('',(-1.25,-2.55,1.2));
#441 = VECTOR('',#442,1.);
#442 = DIRECTION('',(1.,0.,0.));
#443 = ORIENTED_EDGE('',*,*,#444,.F.);
#444 = EDGE_CURVE('',#445,#437,#447,.T.);
#445 = VERTEX_POINT('',#446);
#446 = CARTESIAN_POINT('',(1.25,-2.55,0.9));
#447 = LINE('',#448,#449);
#448 = CARTESIAN_POINT('',(1.25,-2.55,0.9));
#449 = VECTOR('',#450,1.);
#450 = DIRECTION('',(0.,0.,1.));
#451 = ORIENTED_EDGE('',*,*,#452,.F.);
#452 = EDGE_CURVE('',#383,#445,#453,.T.);
#453 = LINE('',#454,#455);
#454 = CARTESIAN_POINT('',(-1.25,-2.55,0.9));
#455 = VECTOR('',#456,1.);
#456 = DIRECTION('',(1.,0.,0.));
#457 = PLANE('',#458);
#458 = AXIS2_PLACEMENT_3D('',#459,#460,#461);
#459 = CARTESIAN_POINT('',(-1.25,-2.55,0.9));
#460 = DIRECTION('',(0.,1.,0.));
#461 = DIRECTION('',(1.,0.,0.));
#462 = ADVANCED_FACE('',(#463,#506),#517,.F.);
#463 = FACE_BOUND('',#464,.F.);
#464 = EDGE_LOOP('',(#465,#466,#467,#475,#483,#491,#499,#505));
#465 = ORIENTED_EDGE('',*,*,#390,.T.);
#466 = ORIENTED_EDGE('',*,*,#452,.T.);
#467 = ORIENTED_EDGE('',*,*,#468,.T.);
#468 = EDGE_CURVE('',#445,#469,#471,.T.);
#469 = VERTEX_POINT('',#470);
#470 = CARTESIAN_POINT('',(2.55,-1.25,0.9));
#471 = LINE('',#472,#473);
#472 = CARTESIAN_POINT('',(1.25,-2.55,0.9));
#473 = VECTOR('',#474,1.);
#474 = DIRECTION('',(0.707106781187,0.707106781187,0.));
#475 = ORIENTED_EDGE('',*,*,#476,.T.);
#476 = EDGE_CURVE('',#469,#477,#479,.T.);
#477 = VERTEX_POINT('',#478);
#478 = CARTESIAN_POINT('',(2.55,1.25,0.9));
#479 = LINE('',#480,#481);
#480 = CARTESIAN_POINT('',(2.55,-1.25,0.9));
#481 = VECTOR('',#482,1.);
#482 = DIRECTION('',(0.,1.,0.));
#483 = ORIENTED_EDGE('',*,*,#484,.T.);
#484 = EDGE_CURVE('',#477,#485,#487,.T.);
#485 = VERTEX_POINT('',#486);
#486 = CARTESIAN_POINT('',(1.25,2.55,0.9));
#487 = LINE('',#488,#489);
#488 = CARTESIAN_POINT('',(2.55,1.25,0.9));
#489 = VECTOR('',#490,1.);
#490 = DIRECTION('',(-0.707106781187,0.707106781187,0.));
#491 = ORIENTED_EDGE('',*,*,#492,.T.);
#492 = EDGE_CURVE('',#485,#493,#495,.T.);
#493 = VERTEX_POINT('',#494);
#494 = CARTESIAN_POINT('',(-1.25,2.55,0.9));
#495 = LINE('',#496,#497);
#496 = CARTESIAN_POINT('',(1.25,2.55,0.9));
#497 = VECTOR('',#498,1.);
#498 = DIRECTION('',(-1.,0.,0.));
#499 = ORIENTED_EDGE('',*,*,#500,.T.);
#500 = EDGE_CURVE('',#493,#405,#501,.T.);
#501 = LINE('',#502,#503);
#502 = CARTESIAN_POINT('',(-1.25,2.55,0.9));
#503 = VECTOR('',#504,1.);
#504 = DIRECTION('',(-0.707106781187,-0.707106781187,0.));
#505 = ORIENTED_EDGE('',*,*,#421,.T.);
#506 = FACE_BOUND('',#507,.F.);
#507 = EDGE_LOOP('',(#508));
#508 = ORIENTED_EDGE('',*,*,#509,.T.);
#509 = EDGE_CURVE('',#510,#510,#512,.T.);
#510 = VERTEX_POINT('',#511);
#511 = CARTESIAN_POINT('',(1.05,0.,0.9));
#512 = CIRCLE('',#513,1.05);
#513 = AXIS2_PLACEMENT_3D('',#514,#515,#516);
#514 = CARTESIAN_POINT('',(0.,0.,0.9));
#515 = DIRECTION('',(0.,0.,-1.));
#516 = DIRECTION('',(1.,0.,0.));
#517 = PLANE('',#518);
#518 = AXIS2_PLACEMENT_3D('',#519,#520,#521);
#519 = CARTESIAN_POINT('',(0.,-1.279507605007E-17,0.9));
#520 = DIRECTION('',(0.,0.,1.));
#521 = DIRECTION('',(1.,0.,-0.));
#522 = ADVANCED_FACE('',(#523,#566),#577,.T.);
#523 = FACE_BOUND('',#524,.T.);
#524 = EDGE_LOOP('',(#525,#526,#527,#535,#543,#551,#559,#565));
#525 = ORIENTED_EDGE('',*,*,#374,.T.);
#526 = ORIENTED_EDGE('',*,*,#436,.T.);
#527 = ORIENTED_EDGE('',*,*,#528,.T.);
#528 = EDGE_CURVE('',#437,#529,#531,.T.);
#529 = VERTEX_POINT('',#530);
#530 = CARTESIAN_POINT('',(2.55,-1.25,1.2));
#531 = LINE('',#532,#533);
#532 = CARTESIAN_POINT('',(1.25,-2.55,1.2));
#533 = VECTOR('',#534,1.);
#534 = DIRECTION('',(0.707106781187,0.707106781187,0.));
#535 = ORIENTED_EDGE('',*,*,#536,.T.);
#536 = EDGE_CURVE('',#529,#537,#539,.T.);
#537 = VERTEX_POINT('',#538);
#538 = CARTESIAN_POINT('',(2.55,1.25,1.2));
#539 = LINE('',#540,#541);
#540 = CARTESIAN_POINT('',(2.55,-1.25,1.2));
#541 = VECTOR('',#542,1.);
#542 = DIRECTION('',(0.,1.,0.));
#543 = ORIENTED_EDGE('',*,*,#544,.T.);
#544 = EDGE_CURVE('',#537,#545,#547,.T.);
#545 = VERTEX_POINT('',#546);
#546 = CARTESIAN_POINT('',(1.25,2.55,1.2));
#547 = LINE('',#548,#549);
#548 = CARTESIAN_POINT('',(2.55,1.25,1.2));
#549 = VECTOR('',#550,1.);
#550 = DIRECTION('',(-0.707106781187,0.707106781187,0.));
#551 = ORIENTED_EDGE('',*,*,#552,.T.);
#552 = EDGE_CURVE('',#545,#553,#555,.T.);
#553 = VERTEX_POINT('',#554);
#554 = CARTESIAN_POINT('',(-1.25,2.55,1.2));
#555 = LINE('',#556,#557);
#556 = CARTESIAN_POINT('',(1.25,2.55,1.2));
#557 = VECTOR('',#558,1.);
#558 = DIRECTION('',(-1.,0.,0.));
#559 = ORIENTED_EDGE('',*,*,#560,.T.);
#560 = EDGE_CURVE('',#553,#407,#561,.T.);
#561 = LINE('',#562,#563);
#562 = CARTESIAN_POINT('',(-1.25,2.55,1.2));
#563 = VECTOR('',#564,1.);
#564 = DIRECTION('',(-0.707106781187,-0.707106781187,0.));
#565 = ORIENTED_EDGE('',*,*,#414,.T.);
#566 = FACE_BOUND('',#567,.T.);
#567 = EDGE_LOOP('',(#568));
#568 = ORIENTED_EDGE('',*,*,#569,.T.);
#569 = EDGE_CURVE('',#570,#570,#572,.T.);
#570 = VERTEX_POINT('',#571);
#571 = CARTESIAN_POINT('',(1.05,0.,1.2));
#572 = CIRCLE('',#573,1.05);
#573 = AXIS2_PLACEMENT_3D('',#574,#575,#576);
#574 = CARTESIAN_POINT('',(0.,0.,1.2));
#575 = DIRECTION('',(0.,0.,-1.));
#576 = DIRECTION('',(1.,0.,0.));
#577 = PLANE('',#578);
#578 = AXIS2_PLACEMENT_3D('',#579,#580,#581);
#579 = CARTESIAN_POINT('',(0.,-1.279507605007E-17,1.2));
#580 = DIRECTION('',(0.,0.,1.));
#581 = DIRECTION('',(1.,0.,-0.));
#582 = ADVANCED_FACE('',(#583),#594,.F.);
#583 = FACE_BOUND('',#584,.F.);
#584 = EDGE_LOOP('',(#585,#591,#592,#593));
#585 = ORIENTED_EDGE('',*,*,#586,.T.);
#586 = EDGE_CURVE('',#493,#553,#587,.T.);
#587 = LINE('',#588,#589);
#588 = CARTESIAN_POINT('',(-1.25,2.55,0.9));
#589 = VECTOR('',#590,1.);
#590 = DIRECTION('',(0.,0.,1.));
#591 = ORIENTED_EDGE('',*,*,#560,.T.);
#592 = ORIENTED_EDGE('',*,*,#404,.F.);
#593 = ORIENTED_EDGE('',*,*,#500,.F.);
#594 = PLANE('',#595);
#595 = AXIS2_PLACEMENT_3D('',#596,#597,#598);
#596 = CARTESIAN_POINT('',(-1.25,2.55,0.9));
#597 = DIRECTION('',(0.707106781187,-0.707106781187,0.));
#598 = DIRECTION('',(-0.707106781187,-0.707106781187,0.));
#599 = ADVANCED_FACE('',(#600),#611,.F.);
#600 = FACE_BOUND('',#601,.F.);
#601 = EDGE_LOOP('',(#602,#603,#604,#610));
#602 = ORIENTED_EDGE('',*,*,#444,.T.);
#603 = ORIENTED_EDGE('',*,*,#528,.T.);
#604 = ORIENTED_EDGE('',*,*,#605,.F.);
#605 = EDGE_CURVE('',#469,#529,#606,.T.);
#606 = LINE('',#607,#608);
#607 = CARTESIAN_POINT('',(2.55,-1.25,0.9));
#608 = VECTOR('',#609,1.);
#609 = DIRECTION('',(0.,0.,1.));
#610 = ORIENTED_EDGE('',*,*,#468,.F.);
#611 = PLANE('',#612);
#612 = AXIS2_PLACEMENT_3D('',#613,#614,#615);
#613 = CARTESIAN_POINT('',(1.25,-2.55,0.9));
#614 = DIRECTION('',(-0.707106781187,0.707106781187,0.));
#615 = DIRECTION('',(0.707106781187,0.707106781187,0.));
#616 = ADVANCED_FACE('',(#617),#628,.F.);
#617 = FACE_BOUND('',#618,.F.);
#618 = EDGE_LOOP('',(#619,#625,#626,#627));
#619 = ORIENTED_EDGE('',*,*,#620,.T.);
#620 = EDGE_CURVE('',#485,#545,#621,.T.);
#621 = LINE('',#622,#623);
#622 = CARTESIAN_POINT('',(1.25,2.55,0.9));
#623 = VECTOR('',#624,1.);
#624 = DIRECTION('',(0.,0.,1.));
#625 = ORIENTED_EDGE('',*,*,#552,.T.);
#626 = ORIENTED_EDGE('',*,*,#586,.F.);
#627 = ORIENTED_EDGE('',*,*,#492,.F.);
#628 = PLANE('',#629);
#629 = AXIS2_PLACEMENT_3D('',#630,#631,#632);
#630 = CARTESIAN_POINT('',(1.25,2.55,0.9));
#631 = DIRECTION('',(0.,-1.,0.));
#632 = DIRECTION('',(-1.,0.,0.));
#633 = ADVANCED_FACE('',(#634),#645,.F.);
#634 = FACE_BOUND('',#635,.F.);
#635 = EDGE_LOOP('',(#636,#637,#638,#644));
#636 = ORIENTED_EDGE('',*,*,#605,.T.);
#637 = ORIENTED_EDGE('',*,*,#536,.T.);
#638 = ORIENTED_EDGE('',*,*,#639,.F.);
#639 = EDGE_CURVE('',#477,#537,#640,.T.);
#640 = LINE('',#641,#642);
#641 = CARTESIAN_POINT('',(2.55,1.25,0.9));
#642 = VECTOR('',#643,1.);
#643 = DIRECTION('',(0.,0.,1.));
#644 = ORIENTED_EDGE('',*,*,#476,.F.);
#645 = PLANE('',#646);
#646 = AXIS2_PLACEMENT_3D('',#647,#648,#649);
#647 = CARTESIAN_POINT('',(2.55,-1.25,0.9));
#648 = DIRECTION('',(-1.,0.,0.));
#649 = DIRECTION('',(0.,1.,0.));
#650 = ADVANCED_FACE('',(#651),#657,.F.);
#651 = FACE_BOUND('',#652,.F.);
#652 = EDGE_LOOP('',(#653,#654,#655,#656));
#653 = ORIENTED_EDGE('',*,*,#639,.T.);
#654 = ORIENTED_EDGE('',*,*,#544,.T.);
#655 = ORIENTED_EDGE('',*,*,#620,.F.);
#656 = ORIENTED_EDGE('',*,*,#484,.F.);
#657 = PLANE('',#658);
#658 = AXIS2_PLACEMENT_3D('',#659,#660,#661);
#659 = CARTESIAN_POINT('',(2.55,1.25,0.9));
#660 = DIRECTION('',(-0.707106781187,-0.707106781187,0.));
#661 = DIRECTION('',(-0.707106781187,0.707106781187,0.));
#662 = ADVANCED_FACE('',(#663),#674,.F.);
#663 = FACE_BOUND('',#664,.T.);
#664 = EDGE_LOOP('',(#665,#666,#672,#673));
#665 = ORIENTED_EDGE('',*,*,#509,.T.);
#666 = ORIENTED_EDGE('',*,*,#667,.T.);
#667 = EDGE_CURVE('',#510,#570,#668,.T.);
#668 = LINE('',#669,#670);
#669 = CARTESIAN_POINT('',(1.05,0.,0.85));
#670 = VECTOR('',#671,1.);
#671 = DIRECTION('',(0.,0.,1.));
#672 = ORIENTED_EDGE('',*,*,#569,.F.);
#673 = ORIENTED_EDGE('',*,*,#667,.F.);
#674 = CYLINDRICAL_SURFACE('',#675,1.05);
#675 = AXIS2_PLACEMENT_3D('',#676,#677,#678);
#676 = CARTESIAN_POINT('',(0.,0.,0.85));
#677 = DIRECTION('',(-0.,-0.,-1.));
#678 = DIRECTION('',(1.,0.,0.));
#679 = ( GEOMETRIC_REPRESENTATION_CONTEXT(3)
GLOBAL_UNCERTAINTY_ASSIGNED_CONTEXT((#683)) GLOBAL_UNIT_ASSIGNED_CONTEXT
((#680,#681,#682)) REPRESENTATION_CONTEXT('Context #1',
  '3D Context with UNIT and UNCERTAINTY') );
#680 = ( LENGTH_UNIT() NAMED_UNIT(*) SI_UNIT(.MILLI.,.METRE.) );
#681 = ( NAMED_UNIT(*) PLANE_ANGLE_UNIT() SI_UNIT($,.RADIAN.) );
#682 = ( NAMED_UNIT(*) SI_UNIT($,.STERADIAN.) SOLID_ANGLE_UNIT() );
#683 = UNCERTAINTY_MEASURE_WITH_UNIT(LENGTH_MEASURE(1.E-07),#680,
  'distance_accuracy_value','confusion accuracy');
#684 = CONTEXT_DEPENDENT_SHAPE_REPRESENTATION(#685,#687);
#685 = ( REPRESENTATION_RELATIONSHIP('','',#357,#10)
REPRESENTATION_RELATIONSHIP_WITH_TRANSFORMATION(#686)
SHAPE_REPRESENTATION_RELATIONSHIP() );
#686 = ITEM_DEFINED_TRANSFORMATION('','',#11,#19);
#687 = PRODUCT_DEFINITION_SHAPE('Placement','Placement of an item',#688
  );
#688 = NEXT_ASSEMBLY_USAGE_OCCURRENCE('51','cover','',#5,#352,$);
#689 = PRODUCT_RELATED_PRODUCT_CATEGORY('part',$,(#354));
#690 = SHAPE_DEFINITION_REPRESENTATION(#691,#697);
#691 = PRODUCT_DEFINITION_SHAPE('','',#692);
#692 = PRODUCT_DEFINITION('design','',#693,#696);
#693 = PRODUCT_DEFINITION_FORMATION('','',#694);
#694 = PRODUCT('brass_actuator','brass_actuator','',(#695));
#695 = PRODUCT_CONTEXT('',#2,'mechanical');
#696 = PRODUCT_DEFINITION_CONTEXT('part definition',#2,'design');
#697 = ADVANCED_BREP_SHAPE_REPRESENTATION('',(#11,#698),#751);
#698 = MANIFOLD_SOLID_BREP('',#699);
#699 = CLOSED_SHELL('',(#700,#733,#742));
#700 = ADVANCED_FACE('',(#701),#728,.T.);
#701 = FACE_BOUND('',#702,.F.);
#702 = EDGE_LOOP('',(#703,#713,#720,#721));
#703 = ORIENTED_EDGE('',*,*,#704,.T.);
#704 = EDGE_CURVE('',#705,#707,#709,.T.);
#705 = VERTEX_POINT('',#706);
#706 = CARTESIAN_POINT('',(1.,0.,1.1));
#707 = VERTEX_POINT('',#708);
#708 = CARTESIAN_POINT('',(1.,0.,1.5));
#709 = LINE('',#710,#711);
#710 = CARTESIAN_POINT('',(1.,0.,1.1));
#711 = VECTOR('',#712,1.);
#712 = DIRECTION('',(0.,0.,1.));
#713 = ORIENTED_EDGE('',*,*,#714,.T.);
#714 = EDGE_CURVE('',#707,#707,#715,.T.);
#715 = CIRCLE('',#716,1.);
#716 = AXIS2_PLACEMENT_3D('',#717,#718,#719);
#717 = CARTESIAN_POINT('',(0.,0.,1.5));
#718 = DIRECTION('',(0.,0.,1.));
#719 = DIRECTION('',(1.,0.,0.));
#720 = ORIENTED_EDGE('',*,*,#704,.F.);
#721 = ORIENTED_EDGE('',*,*,#722,.F.);
#722 = EDGE_CURVE('',#705,#705,#723,.T.);
#723 = CIRCLE('',#724,1.);
#724 = AXIS2_PLACEMENT_3D('',#725,#726,#727);
#725 = CARTESIAN_POINT('',(0.,0.,1.1));
#726 = DIRECTION('',(0.,0.,1.));
#727 = DIRECTION('',(1.,0.,0.));
#728 = CYLINDRICAL_SURFACE('',#729,1.);
#729 = AXIS2_PLACEMENT_3D('',#730,#731,#732);
#730 = CARTESIAN_POINT('',(0.,0.,1.1));
#731 = DIRECTION('',(-0.,-0.,-1.));
#732 = DIRECTION('',(1.,0.,0.));
#733 = ADVANCED_FACE('',(#734),#737,.F.);
#734 = FACE_BOUND('',#735,.F.);
#735 = EDGE_LOOP('',(#736));
#736 = ORIENTED_EDGE('',*,*,#722,.T.);
#737 = PLANE('',#738);
#738 = AXIS2_PLACEMENT_3D('',#739,#740,#741);
#739 = CARTESIAN_POINT('',(-6.409875621279E-17,1.910944170279E-18,1.1));
#740 = DIRECTION('',(0.,0.,1.));
#741 = DIRECTION('',(1.,0.,-0.));
#742 = ADVANCED_FACE('',(#743),#746,.T.);
#743 = FACE_BOUND('',#744,.T.);
#744 = EDGE_LOOP('',(#745));
#745 = ORIENTED_EDGE('',*,*,#714,.T.);
#746 = PLANE('',#747);
#747 = AXIS2_PLACEMENT_3D('',#748,#749,#750);
#748 = CARTESIAN_POINT('',(-6.409875621279E-17,1.910944170279E-18,1.5));
#749 = DIRECTION('',(0.,0.,1.));
#750 = DIRECTION('',(1.,0.,-0.));
#751 = ( GEOMETRIC_REPRESENTATION_CONTEXT(3)
GLOBAL_UNCERTAINTY_ASSIGNED_CONTEXT((#755)) GLOBAL_UNIT_ASSIGNED_CONTEXT
((#752,#753,#754)) REPRESENTATION_CONTEXT('Context #1',
  '3D Context with UNIT and UNCERTAINTY') );
#752 = ( LENGTH_UNIT() NAMED_UNIT(*) SI_UNIT(.MILLI.,.METRE.) );
#753 = ( NAMED_UNIT(*) PLANE_ANGLE_UNIT() SI_UNIT($,.RADIAN.) );
#754 = ( NAMED_UNIT(*) SI_UNIT($,.STERADIAN.) SOLID_ANGLE_UNIT() );
#755 = UNCERTAINTY_MEASURE_WITH_UNIT(LENGTH_MEASURE(1.E-07),#752,
  'distance_accuracy_value','confusion accuracy');
#756 = CONTEXT_DEPENDENT_SHAPE_REPRESENTATION(#757,#759);
#757 = ( REPRESENTATION_RELATIONSHIP('','',#697,#10)
REPRESENTATION_RELATIONSHIP_WITH_TRANSFORMATION(#758)
SHAPE_REPRESENTATION_RELATIONSHIP() );
#758 = ITEM_DEFINED_TRANSFORMATION('','',#11,#23);
#759 = PRODUCT_DEFINITION_SHAPE('Placement','Placement of an item',#760
  );
#760 = NEXT_ASSEMBLY_USAGE_OCCURRENCE('52','brass_actuator','',#5,#692,$
  );
#761 = PRODUCT_RELATED_PRODUCT_CATEGORY('part',$,(#694));
#762 = SHAPE_DEFINITION_REPRESENTATION(#763,#769);
#763 = PRODUCT_DEFINITION_SHAPE('','',#764);
#764 = PRODUCT_DEFINITION('design','',#765,#768);
#765 = PRODUCT_DEFINITION_FORMATION('','',#766);
#766 = PRODUCT('terminal_1_L','terminal_1_L','',(#767));
#767 = PRODUCT_CONTEXT('',#2,'mechanical');
#768 = PRODUCT_DEFINITION_CONTEXT('part definition',#2,'design');
#769 = ADVANCED_BREP_SHAPE_REPRESENTATION('',(#11,#770),#920);
#770 = MANIFOLD_SOLID_BREP('',#771);
#771 = CLOSED_SHELL('',(#772,#812,#852,#874,#896,#908));
#772 = ADVANCED_FACE('',(#773),#807,.F.);
#773 = FACE_BOUND('',#774,.F.);
#774 = EDGE_LOOP('',(#775,#785,#793,#801));
#775 = ORIENTED_EDGE('',*,*,#776,.F.);
#776 = EDGE_CURVE('',#777,#779,#781,.T.);
#777 = VERTEX_POINT('',#778);
#778 = CARTESIAN_POINT('',(-3.25,1.6,0.));
#779 = VERTEX_POINT('',#780);
#780 = CARTESIAN_POINT('',(-3.25,1.6,0.3));
#781 = LINE('',#782,#783);
#782 = CARTESIAN_POINT('',(-3.25,1.6,0.));
#783 = VECTOR('',#784,1.);
#784 = DIRECTION('',(0.,0.,1.));
#785 = ORIENTED_EDGE('',*,*,#786,.T.);
#786 = EDGE_CURVE('',#777,#787,#789,.T.);
#787 = VERTEX_POINT('',#788);
#788 = CARTESIAN_POINT('',(-3.25,2.1,0.));
#789 = LINE('',#790,#791);
#790 = CARTESIAN_POINT('',(-3.25,1.6,0.));
#791 = VECTOR('',#792,1.);
#792 = DIRECTION('',(0.,1.,0.));
#793 = ORIENTED_EDGE('',*,*,#794,.T.);
#794 = EDGE_CURVE('',#787,#795,#797,.T.);
#795 = VERTEX_POINT('',#796);
#796 = CARTESIAN_POINT('',(-3.25,2.1,0.3));
#797 = LINE('',#798,#799);
#798 = CARTESIAN_POINT('',(-3.25,2.1,0.));
#799 = VECTOR('',#800,1.);
#800 = DIRECTION('',(0.,0.,1.));
#801 = ORIENTED_EDGE('',*,*,#802,.F.);
#802 = EDGE_CURVE('',#779,#795,#803,.T.);
#803 = LINE('',#804,#805);
#804 = CARTESIAN_POINT('',(-3.25,1.6,0.3));
#805 = VECTOR('',#806,1.);
#806 = DIRECTION('',(0.,1.,0.));
#807 = PLANE('',#808);
#808 = AXIS2_PLACEMENT_3D('',#809,#810,#811);
#809 = CARTESIAN_POINT('',(-3.25,1.6,0.));
#810 = DIRECTION('',(1.,0.,0.));
#811 = DIRECTION('',(0.,0.,1.));
#812 = ADVANCED_FACE('',(#813),#847,.T.);
#813 = FACE_BOUND('',#814,.T.);
#814 = EDGE_LOOP('',(#815,#825,#833,#841));
#815 = ORIENTED_EDGE('',*,*,#816,.F.);
#816 = EDGE_CURVE('',#817,#819,#821,.T.);
#817 = VERTEX_POINT('',#818);
#818 = CARTESIAN_POINT('',(-2.5,1.6,0.));
#819 = VERTEX_POINT('',#820);
#820 = CARTESIAN_POINT('',(-2.5,1.6,0.3));
#821 = LINE('',#822,#823);
#822 = CARTESIAN_POINT('',(-2.5,1.6,0.));
#823 = VECTOR('',#824,1.);
#824 = DIRECTION('',(0.,0.,1.));
#825 = ORIENTED_EDGE('',*,*,#826,.T.);
#826 = EDGE_CURVE('',#817,#827,#829,.T.);
#827 = VERTEX_POINT('',#828);
#828 = CARTESIAN_POINT('',(-2.5,2.1,0.));
#829 = LINE('',#830,#831);
#830 = CARTESIAN_POINT('',(-2.5,1.6,0.));
#831 = VECTOR('',#832,1.);
#832 = DIRECTION('',(0.,1.,0.));
#833 = ORIENTED_EDGE('',*,*,#834,.T.);
#834 = EDGE_CURVE('',#827,#835,#837,.T.);
#835 = VERTEX_POINT('',#836);
#836 = CARTESIAN_POINT('',(-2.5,2.1,0.3));
#837 = LINE('',#838,#839);
#838 = CARTESIAN_POINT('',(-2.5,2.1,0.));
#839 = VECTOR('',#840,1.);
#840 = DIRECTION('',(0.,0.,1.));
#841 = ORIENTED_EDGE('',*,*,#842,.F.);
#842 = EDGE_CURVE('',#819,#835,#843,.T.);
#843 = LINE('',#844,#845);
#844 = CARTESIAN_POINT('',(-2.5,1.6,0.3));
#845 = VECTOR('',#846,1.);
#846 = DIRECTION('',(0.,1.,0.));
#847 = PLANE('',#848);
#848 = AXIS2_PLACEMENT_3D('',#849,#850,#851);
#849 = CARTESIAN_POINT('',(-2.5,1.6,0.));
#850 = DIRECTION('',(1.,0.,0.));
#851 = DIRECTION('',(0.,0.,1.));
#852 = ADVANCED_FACE('',(#853),#869,.F.);
#853 = FACE_BOUND('',#854,.F.);
#854 = EDGE_LOOP('',(#855,#861,#862,#868));
#855 = ORIENTED_EDGE('',*,*,#856,.F.);
#856 = EDGE_CURVE('',#777,#817,#857,.T.);
#857 = LINE('',#858,#859);
#858 = CARTESIAN_POINT('',(-3.25,1.6,0.));
#859 = VECTOR('',#860,1.);
#860 = DIRECTION('',(1.,0.,0.));
#861 = ORIENTED_EDGE('',*,*,#776,.T.);
#862 = ORIENTED_EDGE('',*,*,#863,.T.);
#863 = EDGE_CURVE('',#779,#819,#864,.T.);
#864 = LINE('',#865,#866);
#865 = CARTESIAN_POINT('',(-3.25,1.6,0.3));
#866 = VECTOR('',#867,1.);
#867 = DIRECTION('',(1.,0.,0.));
#868 = ORIENTED_EDGE('',*,*,#816,.F.);
#869 = PLANE('',#870);
#870 = AXIS2_PLACEMENT_3D('',#871,#872,#873);
#871 = CARTESIAN_POINT('',(-3.25,1.6,0.));
#872 = DIRECTION('',(0.,1.,0.));
#873 = DIRECTION('',(0.,0.,1.));
#874 = ADVANCED_FACE('',(#875),#891,.T.);
#875 = FACE_BOUND('',#876,.T.);
#876 = EDGE_LOOP('',(#877,#883,#884,#890));
#877 = ORIENTED_EDGE('',*,*,#878,.F.);
#878 = EDGE_CURVE('',#787,#827,#879,.T.);
#879 = LINE('',#880,#881);
#880 = CARTESIAN_POINT('',(-3.25,2.1,0.));
#881 = VECTOR('',#882,1.);
#882 = DIRECTION('',(1.,0.,0.));
#883 = ORIENTED_EDGE('',*,*,#794,.T.);
#884 = ORIENTED_EDGE('',*,*,#885,.T.);
#885 = EDGE_CURVE('',#795,#835,#886,.T.);
#886 = LINE('',#887,#888);
#887 = CARTESIAN_POINT('',(-3.25,2.1,0.3));
#888 = VECTOR('',#889,1.);
#889 = DIRECTION('',(1.,0.,0.));
#890 = ORIENTED_EDGE('',*,*,#834,.F.);
#891 = PLANE('',#892);
#892 = AXIS2_PLACEMENT_3D('',#893,#894,#895);
#893 = CARTESIAN_POINT('',(-3.25,2.1,0.));
#894 = DIRECTION('',(0.,1.,0.));
#895 = DIRECTION('',(0.,0.,1.));
#896 = ADVANCED_FACE('',(#897),#903,.F.);
#897 = FACE_BOUND('',#898,.F.);
#898 = EDGE_LOOP('',(#899,#900,#901,#902));
#899 = ORIENTED_EDGE('',*,*,#786,.F.);
#900 = ORIENTED_EDGE('',*,*,#856,.T.);
#901 = ORIENTED_EDGE('',*,*,#826,.T.);
#902 = ORIENTED_EDGE('',*,*,#878,.F.);
#903 = PLANE('',#904);
#904 = AXIS2_PLACEMENT_3D('',#905,#906,#907);
#905 = CARTESIAN_POINT('',(-3.25,1.6,0.));
#906 = DIRECTION('',(0.,0.,1.));
#907 = DIRECTION('',(1.,0.,0.));
#908 = ADVANCED_FACE('',(#909),#915,.T.);
#909 = FACE_BOUND('',#910,.T.);
#910 = EDGE_LOOP('',(#911,#912,#913,#914));
#911 = ORIENTED_EDGE('',*,*,#802,.F.);
#912 = ORIENTED_EDGE('',*,*,#863,.T.);
#913 = ORIENTED_EDGE('',*,*,#842,.T.);
#914 = ORIENTED_EDGE('',*,*,#885,.F.);
#915 = PLANE('',#916);
#916 = AXIS2_PLACEMENT_3D('',#917,#918,#919);
#917 = CARTESIAN_POINT('',(-3.25,1.6,0.3));
#918 = DIRECTION('',(0.,0.,1.));
#919 = DIRECTION('',(1.,0.,0.));
#920 = ( GEOMETRIC_REPRESENTATION_CONTEXT(3)
GLOBAL_UNCERTAINTY_ASSIGNED_CONTEXT((#924)) GLOBAL_UNIT_ASSIGNED_CONTEXT
((#921,#922,#923)) REPRESENTATION_CONTEXT('Context #1',
  '3D Context with UNIT and UNCERTAINTY') );
#921 = ( LENGTH_UNIT() NAMED_UNIT(*) SI_UNIT(.MILLI.,.METRE.) );
#922 = ( NAMED_UNIT(*) PLANE_ANGLE_UNIT() SI_UNIT($,.RADIAN.) );
#923 = ( NAMED_UNIT(*) SI_UNIT($,.STERADIAN.) SOLID_ANGLE_UNIT() );
#924 = UNCERTAINTY_MEASURE_WITH_UNIT(LENGTH_MEASURE(1.E-07),#921,
  'distance_accuracy_value','confusion accuracy');
#925 = CONTEXT_DEPENDENT_SHAPE_REPRESENTATION(#926,#928);
#926 = ( REPRESENTATION_RELATIONSHIP('','',#769,#10)
REPRESENTATION_RELATIONSHIP_WITH_TRANSFORMATION(#927)
SHAPE_REPRESENTATION_RELATIONSHIP() );
#927 = ITEM_DEFINED_TRANSFORMATION('','',#11,#27);
#928 = PRODUCT_DEFINITION_SHAPE('Placement','Placement of an item',#929
  );
#929 = NEXT_ASSEMBLY_USAGE_OCCURRENCE('53','terminal_1_L','',#5,#764,$);
#930 = PRODUCT_RELATED_PRODUCT_CATEGORY('part',$,(#766));
#931 = SHAPE_DEFINITION_REPRESENTATION(#932,#938);
#932 = PRODUCT_DEFINITION_SHAPE('','',#933);
#933 = PRODUCT_DEFINITION('design','',#934,#937);
#934 = PRODUCT_DEFINITION_FORMATION('','',#935);
#935 = PRODUCT('terminal_1_R','terminal_1_R','',(#936));
#936 = PRODUCT_CONTEXT('',#2,'mechanical');
#937 = PRODUCT_DEFINITION_CONTEXT('part definition',#2,'design');
#938 = ADVANCED_BREP_SHAPE_REPRESENTATION('',(#11,#939),#1089);
#939 = MANIFOLD_SOLID_BREP('',#940);
#940 = CLOSED_SHELL('',(#941,#981,#1021,#1043,#1065,#1077));
#941 = ADVANCED_FACE('',(#942),#976,.F.);
#942 = FACE_BOUND('',#943,.F.);
#943 = EDGE_LOOP('',(#944,#954,#962,#970));
#944 = ORIENTED_EDGE('',*,*,#945,.F.);
#945 = EDGE_CURVE('',#946,#948,#950,.T.);
#946 = VERTEX_POINT('',#947);
#947 = CARTESIAN_POINT('',(2.5,1.6,0.));
#948 = VERTEX_POINT('',#949);
#949 = CARTESIAN_POINT('',(2.5,1.6,0.3));
#950 = LINE('',#951,#952);
#951 = CARTESIAN_POINT('',(2.5,1.6,0.));
#952 = VECTOR('',#953,1.);
#953 = DIRECTION('',(0.,0.,1.));
#954 = ORIENTED_EDGE('',*,*,#955,.T.);
#955 = EDGE_CURVE('',#946,#956,#958,.T.);
#956 = VERTEX_POINT('',#957);
#957 = CARTESIAN_POINT('',(2.5,2.1,0.));
#958 = LINE('',#959,#960);
#959 = CARTESIAN_POINT('',(2.5,1.6,0.));
#960 = VECTOR('',#961,1.);
#961 = DIRECTION('',(0.,1.,0.));
#962 = ORIENTED_EDGE('',*,*,#963,.T.);
#963 = EDGE_CURVE('',#956,#964,#966,.T.);
#964 = VERTEX_POINT('',#965);
#965 = CARTESIAN_POINT('',(2.5,2.1,0.3));
#966 = LINE('',#967,#968);
#967 = CARTESIAN_POINT('',(2.5,2.1,0.));
#968 = VECTOR('',#969,1.);
#969 = DIRECTION('',(0.,0.,1.));
#970 = ORIENTED_EDGE('',*,*,#971,.F.);
#971 = EDGE_CURVE('',#948,#964,#972,.T.);
#972 = LINE('',#973,#974);
#973 = CARTESIAN_POINT('',(2.5,1.6,0.3));
#974 = VECTOR('',#975,1.);
#975 = DIRECTION('',(0.,1.,0.));
#976 = PLANE('',#977);
#977 = AXIS2_PLACEMENT_3D('',#978,#979,#980);
#978 = CARTESIAN_POINT('',(2.5,1.6,0.));
#979 = DIRECTION('',(1.,0.,0.));
#980 = DIRECTION('',(0.,0.,1.));
#981 = ADVANCED_FACE('',(#982),#1016,.T.);
#982 = FACE_BOUND('',#983,.T.);
#983 = EDGE_LOOP('',(#984,#994,#1002,#1010));
#984 = ORIENTED_EDGE('',*,*,#985,.F.);
#985 = EDGE_CURVE('',#986,#988,#990,.T.);
#986 = VERTEX_POINT('',#987);
#987 = CARTESIAN_POINT('',(3.25,1.6,0.));
#988 = VERTEX_POINT('',#989);
#989 = CARTESIAN_POINT('',(3.25,1.6,0.3));
#990 = LINE('',#991,#992);
#991 = CARTESIAN_POINT('',(3.25,1.6,0.));
#992 = VECTOR('',#993,1.);
#993 = DIRECTION('',(0.,0.,1.));
#994 = ORIENTED_EDGE('',*,*,#995,.T.);
#995 = EDGE_CURVE('',#986,#996,#998,.T.);
#996 = VERTEX_POINT('',#997);
#997 = CARTESIAN_POINT('',(3.25,2.1,0.));
#998 = LINE('',#999,#1000);
#999 = CARTESIAN_POINT('',(3.25,1.6,0.));
#1000 = VECTOR('',#1001,1.);
#1001 = DIRECTION('',(0.,1.,0.));
#1002 = ORIENTED_EDGE('',*,*,#1003,.T.);
#1003 = EDGE_CURVE('',#996,#1004,#1006,.T.);
#1004 = VERTEX_POINT('',#1005);
#1005 = CARTESIAN_POINT('',(3.25,2.1,0.3));
#1006 = LINE('',#1007,#1008);
#1007 = CARTESIAN_POINT('',(3.25,2.1,0.));
#1008 = VECTOR('',#1009,1.);
#1009 = DIRECTION('',(0.,0.,1.));
#1010 = ORIENTED_EDGE('',*,*,#1011,.F.);
#1011 = EDGE_CURVE('',#988,#1004,#1012,.T.);
#1012 = LINE('',#1013,#1014);
#1013 = CARTESIAN_POINT('',(3.25,1.6,0.3));
#1014 = VECTOR('',#1015,1.);
#1015 = DIRECTION('',(0.,1.,0.));
#1016 = PLANE('',#1017);
#1017 = AXIS2_PLACEMENT_3D('',#1018,#1019,#1020);
#1018 = CARTESIAN_POINT('',(3.25,1.6,0.));
#1019 = DIRECTION('',(1.,0.,0.));
#1020 = DIRECTION('',(0.,0.,1.));
#1021 = ADVANCED_FACE('',(#1022),#1038,.F.);
#1022 = FACE_BOUND('',#1023,.F.);
#1023 = EDGE_LOOP('',(#1024,#1030,#1031,#1037));
#1024 = ORIENTED_EDGE('',*,*,#1025,.F.);
#1025 = EDGE_CURVE('',#946,#986,#1026,.T.);
#1026 = LINE('',#1027,#1028);
#1027 = CARTESIAN_POINT('',(2.5,1.6,0.));
#1028 = VECTOR('',#1029,1.);
#1029 = DIRECTION('',(1.,0.,0.));
#1030 = ORIENTED_EDGE('',*,*,#945,.T.);
#1031 = ORIENTED_EDGE('',*,*,#1032,.T.);
#1032 = EDGE_CURVE('',#948,#988,#1033,.T.);
#1033 = LINE('',#1034,#1035);
#1034 = CARTESIAN_POINT('',(2.5,1.6,0.3));
#1035 = VECTOR('',#1036,1.);
#1036 = DIRECTION('',(1.,0.,0.));
#1037 = ORIENTED_EDGE('',*,*,#985,.F.);
#1038 = PLANE('',#1039);
#1039 = AXIS2_PLACEMENT_3D('',#1040,#1041,#1042);
#1040 = CARTESIAN_POINT('',(2.5,1.6,0.));
#1041 = DIRECTION('',(0.,1.,0.));
#1042 = DIRECTION('',(0.,0.,1.));
#1043 = ADVANCED_FACE('',(#1044),#1060,.T.);
#1044 = FACE_BOUND('',#1045,.T.);
#1045 = EDGE_LOOP('',(#1046,#1052,#1053,#1059));
#1046 = ORIENTED_EDGE('',*,*,#1047,.F.);
#1047 = EDGE_CURVE('',#956,#996,#1048,.T.);
#1048 = LINE('',#1049,#1050);
#1049 = CARTESIAN_POINT('',(2.5,2.1,0.));
#1050 = VECTOR('',#1051,1.);
#1051 = DIRECTION('',(1.,0.,0.));
#1052 = ORIENTED_EDGE('',*,*,#963,.T.);
#1053 = ORIENTED_EDGE('',*,*,#1054,.T.);
#1054 = EDGE_CURVE('',#964,#1004,#1055,.T.);
#1055 = LINE('',#1056,#1057);
#1056 = CARTESIAN_POINT('',(2.5,2.1,0.3));
#1057 = VECTOR('',#1058,1.);
#1058 = DIRECTION('',(1.,0.,0.));
#1059 = ORIENTED_EDGE('',*,*,#1003,.F.);
#1060 = PLANE('',#1061);
#1061 = AXIS2_PLACEMENT_3D('',#1062,#1063,#1064);
#1062 = CARTESIAN_POINT('',(2.5,2.1,0.));
#1063 = DIRECTION('',(0.,1.,0.));
#1064 = DIRECTION('',(0.,0.,1.));
#1065 = ADVANCED_FACE('',(#1066),#1072,.F.);
#1066 = FACE_BOUND('',#1067,.F.);
#1067 = EDGE_LOOP('',(#1068,#1069,#1070,#1071));
#1068 = ORIENTED_EDGE('',*,*,#955,.F.);
#1069 = ORIENTED_EDGE('',*,*,#1025,.T.);
#1070 = ORIENTED_EDGE('',*,*,#995,.T.);
#1071 = ORIENTED_EDGE('',*,*,#1047,.F.);
#1072 = PLANE('',#1073);
#1073 = AXIS2_PLACEMENT_3D('',#1074,#1075,#1076);
#1074 = CARTESIAN_POINT('',(2.5,1.6,0.));
#1075 = DIRECTION('',(0.,0.,1.));
#1076 = DIRECTION('',(1.,0.,0.));
#1077 = ADVANCED_FACE('',(#1078),#1084,.T.);
#1078 = FACE_BOUND('',#1079,.T.);
#1079 = EDGE_LOOP('',(#1080,#1081,#1082,#1083));
#1080 = ORIENTED_EDGE('',*,*,#971,.F.);
#1081 = ORIENTED_EDGE('',*,*,#1032,.T.);
#1082 = ORIENTED_EDGE('',*,*,#1011,.T.);
#1083 = ORIENTED_EDGE('',*,*,#1054,.F.);
#1084 = PLANE('',#1085);
#1085 = AXIS2_PLACEMENT_3D('',#1086,#1087,#1088);
#1086 = CARTESIAN_POINT('',(2.5,1.6,0.3));
#1087 = DIRECTION('',(0.,0.,1.));
#1088 = DIRECTION('',(1.,0.,0.));
#1089 = ( GEOMETRIC_REPRESENTATION_CONTEXT(3)
GLOBAL_UNCERTAINTY_ASSIGNED_CONTEXT((#1093))
GLOBAL_UNIT_ASSIGNED_CONTEXT((#1090,#1091,#1092)) REPRESENTATION_CONTEXT
('Context #1','3D Context with UNIT and UNCERTAINTY') );
#1090 = ( LENGTH_UNIT() NAMED_UNIT(*) SI_UNIT(.MILLI.,.METRE.) );
#1091 = ( NAMED_UNIT(*) PLANE_ANGLE_UNIT() SI_UNIT($,.RADIAN.) );
#1092 = ( NAMED_UNIT(*) SI_UNIT($,.STERADIAN.) SOLID_ANGLE_UNIT() );
#1093 = UNCERTAINTY_MEASURE_WITH_UNIT(LENGTH_MEASURE(1.E-07),#1090,
  'distance_accuracy_value','confusion accuracy');
#1094 = CONTEXT_DEPENDENT_SHAPE_REPRESENTATION(#1095,#1097);
#1095 = ( REPRESENTATION_RELATIONSHIP('','',#938,#10)
REPRESENTATION_RELATIONSHIP_WITH_TRANSFORMATION(#1096)
SHAPE_REPRESENTATION_RELATIONSHIP() );
#1096 = ITEM_DEFINED_TRANSFORMATION('','',#11,#31);
#1097 = PRODUCT_DEFINITION_SHAPE('Placement','Placement of an item',
  #1098);
#1098 = NEXT_ASSEMBLY_USAGE_OCCURRENCE('54','terminal_1_R','',#5,#933,$
  );
#1099 = PRODUCT_RELATED_PRODUCT_CATEGORY('part',$,(#935));
#1100 = SHAPE_DEFINITION_REPRESENTATION(#1101,#1107);
#1101 = PRODUCT_DEFINITION_SHAPE('','',#1102);
#1102 = PRODUCT_DEFINITION('design','',#1103,#1106);
#1103 = PRODUCT_DEFINITION_FORMATION('','',#1104);
#1104 = PRODUCT('terminal_2_L','terminal_2_L','',(#1105));
#1105 = PRODUCT_CONTEXT('',#2,'mechanical');
#1106 = PRODUCT_DEFINITION_CONTEXT('part definition',#2,'design');
#1107 = ADVANCED_BREP_SHAPE_REPRESENTATION('',(#11,#1108),#1258);
#1108 = MANIFOLD_SOLID_BREP('',#1109);
#1109 = CLOSED_SHELL('',(#1110,#1150,#1190,#1212,#1234,#1246));
#1110 = ADVANCED_FACE('',(#1111),#1145,.F.);
#1111 = FACE_BOUND('',#1112,.F.);
#1112 = EDGE_LOOP('',(#1113,#1123,#1131,#1139));
#1113 = ORIENTED_EDGE('',*,*,#1114,.F.);
#1114 = EDGE_CURVE('',#1115,#1117,#1119,.T.);
#1115 = VERTEX_POINT('',#1116);
#1116 = CARTESIAN_POINT('',(-3.25,-2.1,0.));
#1117 = VERTEX_POINT('',#1118);
#1118 = CARTESIAN_POINT('',(-3.25,-2.1,0.3));
#1119 = LINE('',#1120,#1121);
#1120 = CARTESIAN_POINT('',(-3.25,-2.1,0.));
#1121 = VECTOR('',#1122,1.);
#1122 = DIRECTION('',(0.,0.,1.));
#1123 = ORIENTED_EDGE('',*,*,#1124,.T.);
#1124 = EDGE_CURVE('',#1115,#1125,#1127,.T.);
#1125 = VERTEX_POINT('',#1126);
#1126 = CARTESIAN_POINT('',(-3.25,-1.6,0.));
#1127 = LINE('',#1128,#1129);
#1128 = CARTESIAN_POINT('',(-3.25,-2.1,0.));
#1129 = VECTOR('',#1130,1.);
#1130 = DIRECTION('',(0.,1.,0.));
#1131 = ORIENTED_EDGE('',*,*,#1132,.T.);
#1132 = EDGE_CURVE('',#1125,#1133,#1135,.T.);
#1133 = VERTEX_POINT('',#1134);
#1134 = CARTESIAN_POINT('',(-3.25,-1.6,0.3));
#1135 = LINE('',#1136,#1137);
#1136 = CARTESIAN_POINT('',(-3.25,-1.6,0.));
#1137 = VECTOR('',#1138,1.);
#1138 = DIRECTION('',(0.,0.,1.));
#1139 = ORIENTED_EDGE('',*,*,#1140,.F.);
#1140 = EDGE_CURVE('',#1117,#1133,#1141,.T.);
#1141 = LINE('',#1142,#1143);
#1142 = CARTESIAN_POINT('',(-3.25,-2.1,0.3));
#1143 = VECTOR('',#1144,1.);
#1144 = DIRECTION('',(0.,1.,0.));
#1145 = PLANE('',#1146);
#1146 = AXIS2_PLACEMENT_3D('',#1147,#1148,#1149);
#1147 = CARTESIAN_POINT('',(-3.25,-2.1,0.));
#1148 = DIRECTION('',(1.,0.,0.));
#1149 = DIRECTION('',(0.,0.,1.));
#1150 = ADVANCED_FACE('',(#1151),#1185,.T.);
#1151 = FACE_BOUND('',#1152,.T.);
#1152 = EDGE_LOOP('',(#1153,#1163,#1171,#1179));
#1153 = ORIENTED_EDGE('',*,*,#1154,.F.);
#1154 = EDGE_CURVE('',#1155,#1157,#1159,.T.);
#1155 = VERTEX_POINT('',#1156);
#1156 = CARTESIAN_POINT('',(-2.5,-2.1,0.));
#1157 = VERTEX_POINT('',#1158);
#1158 = CARTESIAN_POINT('',(-2.5,-2.1,0.3));
#1159 = LINE('',#1160,#1161);
#1160 = CARTESIAN_POINT('',(-2.5,-2.1,0.));
#1161 = VECTOR('',#1162,1.);
#1162 = DIRECTION('',(0.,0.,1.));
#1163 = ORIENTED_EDGE('',*,*,#1164,.T.);
#1164 = EDGE_CURVE('',#1155,#1165,#1167,.T.);
#1165 = VERTEX_POINT('',#1166);
#1166 = CARTESIAN_POINT('',(-2.5,-1.6,0.));
#1167 = LINE('',#1168,#1169);
#1168 = CARTESIAN_POINT('',(-2.5,-2.1,0.));
#1169 = VECTOR('',#1170,1.);
#1170 = DIRECTION('',(0.,1.,0.));
#1171 = ORIENTED_EDGE('',*,*,#1172,.T.);
#1172 = EDGE_CURVE('',#1165,#1173,#1175,.T.);
#1173 = VERTEX_POINT('',#1174);
#1174 = CARTESIAN_POINT('',(-2.5,-1.6,0.3));
#1175 = LINE('',#1176,#1177);
#1176 = CARTESIAN_POINT('',(-2.5,-1.6,0.));
#1177 = VECTOR('',#1178,1.);
#1178 = DIRECTION('',(0.,0.,1.));
#1179 = ORIENTED_EDGE('',*,*,#1180,.F.);
#1180 = EDGE_CURVE('',#1157,#1173,#1181,.T.);
#1181 = LINE('',#1182,#1183);
#1182 = CARTESIAN_POINT('',(-2.5,-2.1,0.3));
#1183 = VECTOR('',#1184,1.);
#1184 = DIRECTION('',(0.,1.,0.));
#1185 = PLANE('',#1186);
#1186 = AXIS2_PLACEMENT_3D('',#1187,#1188,#1189);
#1187 = CARTESIAN_POINT('',(-2.5,-2.1,0.));
#1188 = DIRECTION('',(1.,0.,0.));
#1189 = DIRECTION('',(0.,0.,1.));
#1190 = ADVANCED_FACE('',(#1191),#1207,.F.);
#1191 = FACE_BOUND('',#1192,.F.);
#1192 = EDGE_LOOP('',(#1193,#1199,#1200,#1206));
#1193 = ORIENTED_EDGE('',*,*,#1194,.F.);
#1194 = EDGE_CURVE('',#1115,#1155,#1195,.T.);
#1195 = LINE('',#1196,#1197);
#1196 = CARTESIAN_POINT('',(-3.25,-2.1,0.));
#1197 = VECTOR('',#1198,1.);
#1198 = DIRECTION('',(1.,0.,0.));
#1199 = ORIENTED_EDGE('',*,*,#1114,.T.);
#1200 = ORIENTED_EDGE('',*,*,#1201,.T.);
#1201 = EDGE_CURVE('',#1117,#1157,#1202,.T.);
#1202 = LINE('',#1203,#1204);
#1203 = CARTESIAN_POINT('',(-3.25,-2.1,0.3));
#1204 = VECTOR('',#1205,1.);
#1205 = DIRECTION('',(1.,0.,0.));
#1206 = ORIENTED_EDGE('',*,*,#1154,.F.);
#1207 = PLANE('',#1208);
#1208 = AXIS2_PLACEMENT_3D('',#1209,#1210,#1211);
#1209 = CARTESIAN_POINT('',(-3.25,-2.1,0.));
#1210 = DIRECTION('',(0.,1.,0.));
#1211 = DIRECTION('',(0.,0.,1.));
#1212 = ADVANCED_FACE('',(#1213),#1229,.T.);
#1213 = FACE_BOUND('',#1214,.T.);
#1214 = EDGE_LOOP('',(#1215,#1221,#1222,#1228));
#1215 = ORIENTED_EDGE('',*,*,#1216,.F.);
#1216 = EDGE_CURVE('',#1125,#1165,#1217,.T.);
#1217 = LINE('',#1218,#1219);
#1218 = CARTESIAN_POINT('',(-3.25,-1.6,0.));
#1219 = VECTOR('',#1220,1.);
#1220 = DIRECTION('',(1.,0.,0.));
#1221 = ORIENTED_EDGE('',*,*,#1132,.T.);
#1222 = ORIENTED_EDGE('',*,*,#1223,.T.);
#1223 = EDGE_CURVE('',#1133,#1173,#1224,.T.);
#1224 = LINE('',#1225,#1226);
#1225 = CARTESIAN_POINT('',(-3.25,-1.6,0.3));
#1226 = VECTOR('',#1227,1.);
#1227 = DIRECTION('',(1.,0.,0.));
#1228 = ORIENTED_EDGE('',*,*,#1172,.F.);
#1229 = PLANE('',#1230);
#1230 = AXIS2_PLACEMENT_3D('',#1231,#1232,#1233);
#1231 = CARTESIAN_POINT('',(-3.25,-1.6,0.));
#1232 = DIRECTION('',(0.,1.,0.));
#1233 = DIRECTION('',(0.,0.,1.));
#1234 = ADVANCED_FACE('',(#1235),#1241,.F.);
#1235 = FACE_BOUND('',#1236,.F.);
#1236 = EDGE_LOOP('',(#1237,#1238,#1239,#1240));
#1237 = ORIENTED_EDGE('',*,*,#1124,.F.);
#1238 = ORIENTED_EDGE('',*,*,#1194,.T.);
#1239 = ORIENTED_EDGE('',*,*,#1164,.T.);
#1240 = ORIENTED_EDGE('',*,*,#1216,.F.);
#1241 = PLANE('',#1242);
#1242 = AXIS2_PLACEMENT_3D('',#1243,#1244,#1245);
#1243 = CARTESIAN_POINT('',(-3.25,-2.1,0.));
#1244 = DIRECTION('',(0.,0.,1.));
#1245 = DIRECTION('',(1.,0.,0.));
#1246 = ADVANCED_FACE('',(#1247),#1253,.T.);
#1247 = FACE_BOUND('',#1248,.T.);
#1248 = EDGE_LOOP('',(#1249,#1250,#1251,#1252));
#1249 = ORIENTED_EDGE('',*,*,#1140,.F.);
#1250 = ORIENTED_EDGE('',*,*,#1201,.T.);
#1251 = ORIENTED_EDGE('',*,*,#1180,.T.);
#1252 = ORIENTED_EDGE('',*,*,#1223,.F.);
#1253 = PLANE('',#1254);
#1254 = AXIS2_PLACEMENT_3D('',#1255,#1256,#1257);
#1255 = CARTESIAN_POINT('',(-3.25,-2.1,0.3));
#1256 = DIRECTION('',(0.,0.,1.));
#1257 = DIRECTION('',(1.,0.,0.));
#1258 = ( GEOMETRIC_REPRESENTATION_CONTEXT(3)
GLOBAL_UNCERTAINTY_ASSIGNED_CONTEXT((#1262))
GLOBAL_UNIT_ASSIGNED_CONTEXT((#1259,#1260,#1261)) REPRESENTATION_CONTEXT
('Context #1','3D Context with UNIT and UNCERTAINTY') );
#1259 = ( LENGTH_UNIT() NAMED_UNIT(*) SI_UNIT(.MILLI.,.METRE.) );
#1260 = ( NAMED_UNIT(*) PLANE_ANGLE_UNIT() SI_UNIT($,.RADIAN.) );
#1261 = ( NAMED_UNIT(*) SI_UNIT($,.STERADIAN.) SOLID_ANGLE_UNIT() );
#1262 = UNCERTAINTY_MEASURE_WITH_UNIT(LENGTH_MEASURE(1.E-07),#1259,
  'distance_accuracy_value','confusion accuracy');
#1263 = CONTEXT_DEPENDENT_SHAPE_REPRESENTATION(#1264,#1266);
#1264 = ( REPRESENTATION_RELATIONSHIP('','',#1107,#10)
REPRESENTATION_RELATIONSHIP_WITH_TRANSFORMATION(#1265)
SHAPE_REPRESENTATION_RELATIONSHIP() );
#1265 = ITEM_DEFINED_TRANSFORMATION('','',#11,#35);
#1266 = PRODUCT_DEFINITION_SHAPE('Placement','Placement of an item',
  #1267);
#1267 = NEXT_ASSEMBLY_USAGE_OCCURRENCE('55','terminal_2_L','',#5,#1102,$
  );
#1268 = PRODUCT_RELATED_PRODUCT_CATEGORY('part',$,(#1104));
#1269 = SHAPE_DEFINITION_REPRESENTATION(#1270,#1276);
#1270 = PRODUCT_DEFINITION_SHAPE('','',#1271);
#1271 = PRODUCT_DEFINITION('design','',#1272,#1275);
#1272 = PRODUCT_DEFINITION_FORMATION('','',#1273);
#1273 = PRODUCT('terminal_2_R','terminal_2_R','',(#1274));
#1274 = PRODUCT_CONTEXT('',#2,'mechanical');
#1275 = PRODUCT_DEFINITION_CONTEXT('part definition',#2,'design');
#1276 = ADVANCED_BREP_SHAPE_REPRESENTATION('',(#11,#1277),#1427);
#1277 = MANIFOLD_SOLID_BREP('',#1278);
#1278 = CLOSED_SHELL('',(#1279,#1319,#1359,#1381,#1403,#1415));
#1279 = ADVANCED_FACE('',(#1280),#1314,.F.);
#1280 = FACE_BOUND('',#1281,.F.);
#1281 = EDGE_LOOP('',(#1282,#1292,#1300,#1308));
#1282 = ORIENTED_EDGE('',*,*,#1283,.F.);
#1283 = EDGE_CURVE('',#1284,#1286,#1288,.T.);
#1284 = VERTEX_POINT('',#1285);
#1285 = CARTESIAN_POINT('',(2.5,-2.1,0.));
#1286 = VERTEX_POINT('',#1287);
#1287 = CARTESIAN_POINT('',(2.5,-2.1,0.3));
#1288 = LINE('',#1289,#1290);
#1289 = CARTESIAN_POINT('',(2.5,-2.1,0.));
#1290 = VECTOR('',#1291,1.);
#1291 = DIRECTION('',(0.,0.,1.));
#1292 = ORIENTED_EDGE('',*,*,#1293,.T.);
#1293 = EDGE_CURVE('',#1284,#1294,#1296,.T.);
#1294 = VERTEX_POINT('',#1295);
#1295 = CARTESIAN_POINT('',(2.5,-1.6,0.));
#1296 = LINE('',#1297,#1298);
#1297 = CARTESIAN_POINT('',(2.5,-2.1,0.));
#1298 = VECTOR('',#1299,1.);
#1299 = DIRECTION('',(0.,1.,0.));
#1300 = ORIENTED_EDGE('',*,*,#1301,.T.);
#1301 = EDGE_CURVE('',#1294,#1302,#1304,.T.);
#1302 = VERTEX_POINT('',#1303);
#1303 = CARTESIAN_POINT('',(2.5,-1.6,0.3));
#1304 = LINE('',#1305,#1306);
#1305 = CARTESIAN_POINT('',(2.5,-1.6,0.));
#1306 = VECTOR('',#1307,1.);
#1307 = DIRECTION('',(0.,0.,1.));
#1308 = ORIENTED_EDGE('',*,*,#1309,.F.);
#1309 = EDGE_CURVE('',#1286,#1302,#1310,.T.);
#1310 = LINE('',#1311,#1312);
#1311 = CARTESIAN_POINT('',(2.5,-2.1,0.3));
#1312 = VECTOR('',#1313,1.);
#1313 = DIRECTION('',(0.,1.,0.));
#1314 = PLANE('',#1315);
#1315 = AXIS2_PLACEMENT_3D('',#1316,#1317,#1318);
#1316 = CARTESIAN_POINT('',(2.5,-2.1,0.));
#1317 = DIRECTION('',(1.,0.,0.));
#1318 = DIRECTION('',(0.,0.,1.));
#1319 = ADVANCED_FACE('',(#1320),#1354,.T.);
#1320 = FACE_BOUND('',#1321,.T.);
#1321 = EDGE_LOOP('',(#1322,#1332,#1340,#1348));
#1322 = ORIENTED_EDGE('',*,*,#1323,.F.);
#1323 = EDGE_CURVE('',#1324,#1326,#1328,.T.);
#1324 = VERTEX_POINT('',#1325);
#1325 = CARTESIAN_POINT('',(3.25,-2.1,0.));
#1326 = VERTEX_POINT('',#1327);
#1327 = CARTESIAN_POINT('',(3.25,-2.1,0.3));
#1328 = LINE('',#1329,#1330);
#1329 = CARTESIAN_POINT('',(3.25,-2.1,0.));
#1330 = VECTOR('',#1331,1.);
#1331 = DIRECTION('',(0.,0.,1.));
#1332 = ORIENTED_EDGE('',*,*,#1333,.T.);
#1333 = EDGE_CURVE('',#1324,#1334,#1336,.T.);
#1334 = VERTEX_POINT('',#1335);
#1335 = CARTESIAN_POINT('',(3.25,-1.6,0.));
#1336 = LINE('',#1337,#1338);
#1337 = CARTESIAN_POINT('',(3.25,-2.1,0.));
#1338 = VECTOR('',#1339,1.);
#1339 = DIRECTION('',(0.,1.,0.));
#1340 = ORIENTED_EDGE('',*,*,#1341,.T.);
#1341 = EDGE_CURVE('',#1334,#1342,#1344,.T.);
#1342 = VERTEX_POINT('',#1343);
#1343 = CARTESIAN_POINT('',(3.25,-1.6,0.3));
#1344 = LINE('',#1345,#1346);
#1345 = CARTESIAN_POINT('',(3.25,-1.6,0.));
#1346 = VECTOR('',#1347,1.);
#1347 = DIRECTION('',(0.,0.,1.));
#1348 = ORIENTED_EDGE('',*,*,#1349,.F.);
#1349 = EDGE_CURVE('',#1326,#1342,#1350,.T.);
#1350 = LINE('',#1351,#1352);
#1351 = CARTESIAN_POINT('',(3.25,-2.1,0.3));
#1352 = VECTOR('',#1353,1.);
#1353 = DIRECTION('',(0.,1.,0.));
#1354 = PLANE('',#1355);
#1355 = AXIS2_PLACEMENT_3D('',#1356,#1357,#1358);
#1356 = CARTESIAN_POINT('',(3.25,-2.1,0.));
#1357 = DIRECTION('',(1.,0.,0.));
#1358 = DIRECTION('',(0.,0.,1.));
#1359 = ADVANCED_FACE('',(#1360),#1376,.F.);
#1360 = FACE_BOUND('',#1361,.F.);
#1361 = EDGE_LOOP('',(#1362,#1368,#1369,#1375));
#1362 = ORIENTED_EDGE('',*,*,#1363,.F.);
#1363 = EDGE_CURVE('',#1284,#1324,#1364,.T.);
#1364 = LINE('',#1365,#1366);
#1365 = CARTESIAN_POINT('',(2.5,-2.1,0.));
#1366 = VECTOR('',#1367,1.);
#1367 = DIRECTION('',(1.,0.,0.));
#1368 = ORIENTED_EDGE('',*,*,#1283,.T.);
#1369 = ORIENTED_EDGE('',*,*,#1370,.T.);
#1370 = EDGE_CURVE('',#1286,#1326,#1371,.T.);
#1371 = LINE('',#1372,#1373);
#1372 = CARTESIAN_POINT('',(2.5,-2.1,0.3));
#1373 = VECTOR('',#1374,1.);
#1374 = DIRECTION('',(1.,0.,0.));
#1375 = ORIENTED_EDGE('',*,*,#1323,.F.);
#1376 = PLANE('',#1377);
#1377 = AXIS2_PLACEMENT_3D('',#1378,#1379,#1380);
#1378 = CARTESIAN_POINT('',(2.5,-2.1,0.));
#1379 = DIRECTION('',(0.,1.,0.));
#1380 = DIRECTION('',(0.,0.,1.));
#1381 = ADVANCED_FACE('',(#1382),#1398,.T.);
#1382 = FACE_BOUND('',#1383,.T.);
#1383 = EDGE_LOOP('',(#1384,#1390,#1391,#1397));
#1384 = ORIENTED_EDGE('',*,*,#1385,.F.);
#1385 = EDGE_CURVE('',#1294,#1334,#1386,.T.);
#1386 = LINE('',#1387,#1388);
#1387 = CARTESIAN_POINT('',(2.5,-1.6,0.));
#1388 = VECTOR('',#1389,1.);
#1389 = DIRECTION('',(1.,0.,0.));
#1390 = ORIENTED_EDGE('',*,*,#1301,.T.);
#1391 = ORIENTED_EDGE('',*,*,#1392,.T.);
#1392 = EDGE_CURVE('',#1302,#1342,#1393,.T.);
#1393 = LINE('',#1394,#1395);
#1394 = CARTESIAN_POINT('',(2.5,-1.6,0.3));
#1395 = VECTOR('',#1396,1.);
#1396 = DIRECTION('',(1.,0.,0.));
#1397 = ORIENTED_EDGE('',*,*,#1341,.F.);
#1398 = PLANE('',#1399);
#1399 = AXIS2_PLACEMENT_3D('',#1400,#1401,#1402);
#1400 = CARTESIAN_POINT('',(2.5,-1.6,0.));
#1401 = DIRECTION('',(0.,1.,0.));
#1402 = DIRECTION('',(0.,0.,1.));
#1403 = ADVANCED_FACE('',(#1404),#1410,.F.);
#1404 = FACE_BOUND('',#1405,.F.);
#1405 = EDGE_LOOP('',(#1406,#1407,#1408,#1409));
#1406 = ORIENTED_EDGE('',*,*,#1293,.F.);
#1407 = ORIENTED_EDGE('',*,*,#1363,.T.);
#1408 = ORIENTED_EDGE('',*,*,#1333,.T.);
#1409 = ORIENTED_EDGE('',*,*,#1385,.F.);
#1410 = PLANE('',#1411);
#1411 = AXIS2_PLACEMENT_3D('',#1412,#1413,#1414);
#1412 = CARTESIAN_POINT('',(2.5,-2.1,0.));
#1413 = DIRECTION('',(0.,0.,1.));
#1414 = DIRECTION('',(1.,0.,0.));
#1415 = ADVANCED_FACE('',(#1416),#1422,.T.);
#1416 = FACE_BOUND('',#1417,.T.);
#1417 = EDGE_LOOP('',(#1418,#1419,#1420,#1421));
#1418 = ORIENTED_EDGE('',*,*,#1309,.F.);
#1419 = ORIENTED_EDGE('',*,*,#1370,.T.);
#1420 = ORIENTED_EDGE('',*,*,#1349,.T.);
#1421 = ORIENTED_EDGE('',*,*,#1392,.F.);
#1422 = PLANE('',#1423);
#1423 = AXIS2_PLACEMENT_3D('',#1424,#1425,#1426);
#1424 = CARTESIAN_POINT('',(2.5,-2.1,0.3));
#1425 = DIRECTION('',(0.,0.,1.));
#1426 = DIRECTION('',(1.,0.,0.));
#1427 = ( GEOMETRIC_REPRESENTATION_CONTEXT(3)
GLOBAL_UNCERTAINTY_ASSIGNED_CONTEXT((#1431))
GLOBAL_UNIT_ASSIGNED_CONTEXT((#1428,#1429,#1430)) REPRESENTATION_CONTEXT
('Context #1','3D Context with UNIT and UNCERTAINTY') );
#1428 = ( LENGTH_UNIT() NAMED_UNIT(*) SI_UNIT(.MILLI.,.METRE.) );
#1429 = ( NAMED_UNIT(*) PLANE_ANGLE_UNIT() SI_UNIT($,.RADIAN.) );
#1430 = ( NAMED_UNIT(*) SI_UNIT($,.STERADIAN.) SOLID_ANGLE_UNIT() );
#1431 = UNCERTAINTY_MEASURE_WITH_UNIT(LENGTH_MEASURE(1.E-07),#1428,
  'distance_accuracy_value','confusion accuracy');
#1432 = CONTEXT_DEPENDENT_SHAPE_REPRESENTATION(#1433,#1435);
#1433 = ( REPRESENTATION_RELATIONSHIP('','',#1276,#10)
REPRESENTATION_RELATIONSHIP_WITH_TRANSFORMATION(#1434)
SHAPE_REPRESENTATION_RELATIONSHIP() );
#1434 = ITEM_DEFINED_TRANSFORMATION('','',#11,#39);
#1435 = PRODUCT_DEFINITION_SHAPE('Placement','Placement of an item',
  #1436);
#1436 = NEXT_ASSEMBLY_USAGE_OCCURRENCE('56','terminal_2_R','',#5,#1271,$
  );
#1437 = PRODUCT_RELATED_PRODUCT_CATEGORY('part',$,(#1273));
#1438 = MECHANICAL_DESIGN_GEOMETRIC_PRESENTATION_REPRESENTATION('',(
    #1439),#1427);
#1439 = STYLED_ITEM('color',(#1440),#1277);
#1440 = PRESENTATION_STYLE_ASSIGNMENT((#1441));
#1441 = SURFACE_STYLE_USAGE(.BOTH.,#1442);
#1442 = SURFACE_SIDE_STYLE('',(#1443));
#1443 = SURFACE_STYLE_FILL_AREA(#1444);
#1444 = FILL_AREA_STYLE('',(#1445));
#1445 = FILL_AREA_STYLE_COLOUR('',#1446);
#1446 = COLOUR_RGB('',0.720000003324,0.729999995167,0.750000000934);
#1447 = MECHANICAL_DESIGN_GEOMETRIC_PRESENTATION_REPRESENTATION('',(
    #1448),#679);
#1448 = STYLED_ITEM('color',(#1449),#358);
#1449 = PRESENTATION_STYLE_ASSIGNMENT((#1450));
#1450 = SURFACE_STYLE_USAGE(.BOTH.,#1451);
#1451 = SURFACE_SIDE_STYLE('',(#1452));
#1452 = SURFACE_STYLE_FILL_AREA(#1453);
#1453 = FILL_AREA_STYLE('',(#1454));
#1454 = FILL_AREA_STYLE_COLOUR('',#1446);
#1455 = MECHANICAL_DESIGN_GEOMETRIC_PRESENTATION_REPRESENTATION('',(
    #1456),#1258);
#1456 = STYLED_ITEM('color',(#1457),#1108);
#1457 = PRESENTATION_STYLE_ASSIGNMENT((#1458));
#1458 = SURFACE_STYLE_USAGE(.BOTH.,#1459);
#1459 = SURFACE_SIDE_STYLE('',(#1460));
#1460 = SURFACE_STYLE_FILL_AREA(#1461);
#1461 = FILL_AREA_STYLE('',(#1462));
#1462 = FILL_AREA_STYLE_COLOUR('',#1446);
#1463 = MECHANICAL_DESIGN_GEOMETRIC_PRESENTATION_REPRESENTATION('',(
    #1464),#751);
#1464 = STYLED_ITEM('color',(#1465),#698);
#1465 = PRESENTATION_STYLE_ASSIGNMENT((#1466));
#1466 = SURFACE_STYLE_USAGE(.BOTH.,#1467);
#1467 = SURFACE_SIDE_STYLE('',(#1468));
#1468 = SURFACE_STYLE_FILL_AREA(#1469);
#1469 = FILL_AREA_STYLE('',(#1470));
#1470 = FILL_AREA_STYLE_COLOUR('',#1471);
#1471 = COLOUR_RGB('',0.819999987296,0.630000008194,0.210000004305);
#1472 = MECHANICAL_DESIGN_GEOMETRIC_PRESENTATION_REPRESENTATION('',(
    #1473),#920);
#1473 = STYLED_ITEM('color',(#1474),#770);
#1474 = PRESENTATION_STYLE_ASSIGNMENT((#1475));
#1475 = SURFACE_STYLE_USAGE(.BOTH.,#1476);
#1476 = SURFACE_SIDE_STYLE('',(#1477));
#1477 = SURFACE_STYLE_FILL_AREA(#1478);
#1478 = FILL_AREA_STYLE('',(#1479));
#1479 = FILL_AREA_STYLE_COLOUR('',#1446);
#1480 = MECHANICAL_DESIGN_GEOMETRIC_PRESENTATION_REPRESENTATION('',(
    #1481),#339);
#1481 = STYLED_ITEM('color',(#1482),#57);
#1482 = PRESENTATION_STYLE_ASSIGNMENT((#1483));
#1483 = SURFACE_STYLE_USAGE(.BOTH.,#1484);
#1484 = SURFACE_SIDE_STYLE('',(#1485));
#1485 = SURFACE_STYLE_FILL_AREA(#1486);
#1486 = FILL_AREA_STYLE('',(#1487));
#1487 = FILL_AREA_STYLE_COLOUR('',#1488);
#1488 = COLOUR_RGB('',8.999999692505E-02,8.999999692505E-02,
  9.999999991362E-02);
#1489 = MECHANICAL_DESIGN_GEOMETRIC_PRESENTATION_REPRESENTATION('',(
    #1490),#1089);
#1490 = STYLED_ITEM('color',(#1491),#939);
#1491 = PRESENTATION_STYLE_ASSIGNMENT((#1492));
#1492 = SURFACE_STYLE_USAGE(.BOTH.,#1493);
#1493 = SURFACE_SIDE_STYLE('',(#1494));
#1494 = SURFACE_STYLE_FILL_AREA(#1495);
#1495 = FILL_AREA_STYLE('',(#1496));
#1496 = FILL_AREA_STYLE_COLOUR('',#1446);
ENDSEC;
END-ISO-10303-21;
