ISO-10303-21;
HEADER;
FILE_DESCRIPTION(('Open CASCADE Model'),'2;1');
FILE_NAME('BatteryHolder_MYOUNG_BS-07-A1BJ001_CR2032.step','2026-09-30T00:00:00',('Author'),(
    'Open CASCADE'),'Open CASCADE STEP processor 7.8','Open CASCADE 7.8'
  ,'Unknown');
FILE_SCHEMA(('AUTOMOTIVE_DESIGN { 1 0 10303 214 1 1 1 1 }'));
ENDSEC;
DATA;
#1 = APPLICATION_PROTOCOL_DEFINITION('international standard',
  'automotive_design',2000,#2);
#2 = APPLICATION_CONTEXT(
  'core data for automotive mechanical design processes');
#3 = SHAPE_DEFINITION_REPRESENTATION(#4,#10);
#4 = PRODUCT_DEFINITION_SHAPE('','',#5);
#5 = PRODUCT_DEFINITION('design','',#6,#9);
#6 = PRODUCT_DEFINITION_FORMATION('','',#7);
#7 = PRODUCT('BatteryHolder_MYOUNG_BS-07-A1BJ001_CR2032',
  'BatteryHolder_MYOUNG_BS-07-A1BJ001_CR2032','',(#8));
#8 = PRODUCT_CONTEXT('',#2,'mechanical');
#9 = PRODUCT_DEFINITION_CONTEXT('part definition',#2,'design');
#10 = SHAPE_REPRESENTATION('',(#11,#15,#19,#23,#27,#31),#35);
#11 = AXIS2_PLACEMENT_3D('',#12,#13,#14);
#12 = CARTESIAN_POINT('',(0.,0.,0.));
#13 = DIRECTION('',(0.,0.,1.));
#14 = DIRECTION('',(1.,0.,-0.));
#15 = AXIS2_PLACEMENT_3D('',#16,#17,#18);
#16 = CARTESIAN_POINT('',(0.,0.,0.));
#17 = DIRECTION('',(0.,0.,1.));
#18 = DIRECTION('',(1.,0.,-0.));
#19 = AXIS2_PLACEMENT_3D('',#20,#21,#22);
#20 = CARTESIAN_POINT('',(0.,0.,0.));
#21 = DIRECTION('',(0.,0.,1.));
#22 = DIRECTION('',(1.,0.,-0.));
#23 = AXIS2_PLACEMENT_3D('',#24,#25,#26);
#24 = CARTESIAN_POINT('',(0.,0.,0.));
#25 = DIRECTION('',(0.,0.,1.));
#26 = DIRECTION('',(1.,0.,-0.));
#27 = AXIS2_PLACEMENT_3D('',#28,#29,#30);
#28 = CARTESIAN_POINT('',(0.,0.,0.));
#29 = DIRECTION('',(0.,0.,1.));
#30 = DIRECTION('',(1.,0.,-0.));
#31 = AXIS2_PLACEMENT_3D('',#32,#33,#34);
#32 = CARTESIAN_POINT('',(0.,0.,0.));
#33 = DIRECTION('',(0.,0.,1.));
#34 = DIRECTION('',(1.,0.,-0.));
#35 = ( GEOMETRIC_REPRESENTATION_CONTEXT(3)
GLOBAL_UNCERTAINTY_ASSIGNED_CONTEXT((#39)) GLOBAL_UNIT_ASSIGNED_CONTEXT(
(#36,#37,#38)) REPRESENTATION_CONTEXT('Context #1',
  '3D Context with UNIT and UNCERTAINTY') );
#36 = ( LENGTH_UNIT() NAMED_UNIT(*) SI_UNIT(.MILLI.,.METRE.) );
#37 = ( NAMED_UNIT(*) PLANE_ANGLE_UNIT() SI_UNIT($,.RADIAN.) );
#38 = ( NAMED_UNIT(*) SI_UNIT($,.STERADIAN.) SOLID_ANGLE_UNIT() );
#39 = UNCERTAINTY_MEASURE_WITH_UNIT(LENGTH_MEASURE(1.E-07),#36,
  'distance_accuracy_value','confusion accuracy');
#40 = PRODUCT_RELATED_PRODUCT_CATEGORY('part',$,(#7));
#41 = SHAPE_DEFINITION_REPRESENTATION(#42,#48);
#42 = PRODUCT_DEFINITION_SHAPE('','',#43);
#43 = PRODUCT_DEFINITION('design','',#44,#47);
#44 = PRODUCT_DEFINITION_FORMATION('','',#45);
#45 = PRODUCT('housing','housing','',(#46));
#46 = PRODUCT_CONTEXT('',#2,'mechanical');
#47 = PRODUCT_DEFINITION_CONTEXT('part definition',#2,'design');
#48 = ADVANCED_BREP_SHAPE_REPRESENTATION('',(#11,#49),#574);
#49 = MANIFOLD_SOLID_BREP('',#50);
#50 = CLOSED_SHELL('',(#51,#161,#202,#226,#251,#275,#339,#363,#403,#420,
    #444,#469,#486,#519,#536,#553,#562));
#51 = ADVANCED_FACE('',(#52),#156,.T.);
#52 = FACE_BOUND('',#53,.F.);
#53 = EDGE_LOOP('',(#54,#65,#73,#82,#90,#99,#107,#116,#124,#133,#141,
    #150));
#54 = ORIENTED_EDGE('',*,*,#55,.F.);
#55 = EDGE_CURVE('',#56,#58,#60,.T.);
#56 = VERTEX_POINT('',#57);
#57 = CARTESIAN_POINT('',(17.4,10.467091286504,4.1));
#58 = VERTEX_POINT('',#59);
#59 = CARTESIAN_POINT('',(17.4,-10.4670912865,4.1));
#60 = CIRCLE('',#61,11.6);
#61 = AXIS2_PLACEMENT_3D('',#62,#63,#64);
#62 = CARTESIAN_POINT('',(12.4,0.,4.1));
#63 = DIRECTION('',(0.,0.,-1.));
#64 = DIRECTION('',(0.431034482759,0.902335455733,0.));
#65 = ORIENTED_EDGE('',*,*,#66,.T.);
#66 = EDGE_CURVE('',#56,#67,#69,.T.);
#67 = VERTEX_POINT('',#68);
#68 = CARTESIAN_POINT('',(17.4,10.467091286504,1.8));
#69 = LINE('',#70,#71);
#70 = CARTESIAN_POINT('',(17.4,10.467091286504,1.));
#71 = VECTOR('',#72,1.);
#72 = DIRECTION('',(-0.,-0.,-1.));
#73 = ORIENTED_EDGE('',*,*,#74,.F.);
#74 = EDGE_CURVE('',#75,#67,#77,.T.);
#75 = VERTEX_POINT('',#76);
#76 = CARTESIAN_POINT('',(7.4,10.467091286504,1.8));
#77 = CIRCLE('',#78,11.6);
#78 = AXIS2_PLACEMENT_3D('',#79,#80,#81);
#79 = CARTESIAN_POINT('',(12.4,0.,1.8));
#80 = DIRECTION('',(0.,0.,-1.));
#81 = DIRECTION('',(1.,0.,0.));
#82 = ORIENTED_EDGE('',*,*,#83,.F.);
#83 = EDGE_CURVE('',#84,#75,#86,.T.);
#84 = VERTEX_POINT('',#85);
#85 = CARTESIAN_POINT('',(7.4,10.467091286504,4.1));
#86 = LINE('',#87,#88);
#87 = CARTESIAN_POINT('',(7.4,10.467091286504,1.));
#88 = VECTOR('',#89,1.);
#89 = DIRECTION('',(-0.,-0.,-1.));
#90 = ORIENTED_EDGE('',*,*,#91,.T.);
#91 = EDGE_CURVE('',#84,#92,#94,.T.);
#92 = VERTEX_POINT('',#93);
#93 = CARTESIAN_POINT('',(1.15,2.827985148476,4.1));
#94 = CIRCLE('',#95,11.6);
#95 = AXIS2_PLACEMENT_3D('',#96,#97,#98);
#96 = CARTESIAN_POINT('',(12.4,0.,4.1));
#97 = DIRECTION('',(0.,0.,1.));
#98 = DIRECTION('',(1.,0.,0.));
#99 = ORIENTED_EDGE('',*,*,#100,.T.);
#100 = EDGE_CURVE('',#92,#101,#103,.T.);
#101 = VERTEX_POINT('',#102);
#102 = CARTESIAN_POINT('',(1.15,2.827985148475,0.));
#103 = LINE('',#104,#105);
#104 = CARTESIAN_POINT('',(1.15,2.827985148476,0.));
#105 = VECTOR('',#106,1.);
#106 = DIRECTION('',(-0.,-0.,-1.));
#107 = ORIENTED_EDGE('',*,*,#108,.F.);
#108 = EDGE_CURVE('',#109,#101,#111,.T.);
#109 = VERTEX_POINT('',#110);
#110 = CARTESIAN_POINT('',(1.15,-2.827985148475,0.));
#111 = CIRCLE('',#112,11.6);
#112 = AXIS2_PLACEMENT_3D('',#113,#114,#115);
#113 = CARTESIAN_POINT('',(12.4,0.,0.));
#114 = DIRECTION('',(0.,0.,1.));
#115 = DIRECTION('',(-0.969827586207,-0.243791823144,0.));
#116 = ORIENTED_EDGE('',*,*,#117,.F.);
#117 = EDGE_CURVE('',#118,#109,#120,.T.);
#118 = VERTEX_POINT('',#119);
#119 = CARTESIAN_POINT('',(1.15,-2.827985148476,4.1));
#120 = LINE('',#121,#122);
#121 = CARTESIAN_POINT('',(1.15,-2.827985148476,0.));
#122 = VECTOR('',#123,1.);
#123 = DIRECTION('',(-0.,-0.,-1.));
#124 = ORIENTED_EDGE('',*,*,#125,.T.);
#125 = EDGE_CURVE('',#118,#126,#128,.T.);
#126 = VERTEX_POINT('',#127);
#127 = CARTESIAN_POINT('',(7.4,-10.4670912865,4.1));
#128 = CIRCLE('',#129,11.6);
#129 = AXIS2_PLACEMENT_3D('',#130,#131,#132);
#130 = CARTESIAN_POINT('',(12.4,0.,4.1));
#131 = DIRECTION('',(0.,0.,1.));
#132 = DIRECTION('',(1.,0.,0.));
#133 = ORIENTED_EDGE('',*,*,#134,.T.);
#134 = EDGE_CURVE('',#126,#135,#137,.T.);
#135 = VERTEX_POINT('',#136);
#136 = CARTESIAN_POINT('',(7.4,-10.4670912865,1.8));
#137 = LINE('',#138,#139);
#138 = CARTESIAN_POINT('',(7.4,-10.4670912865,1.));
#139 = VECTOR('',#140,1.);
#140 = DIRECTION('',(-0.,-0.,-1.));
#141 = ORIENTED_EDGE('',*,*,#142,.F.);
#142 = EDGE_CURVE('',#143,#135,#145,.T.);
#143 = VERTEX_POINT('',#144);
#144 = CARTESIAN_POINT('',(17.4,-10.4670912865,1.8));
#145 = CIRCLE('',#146,11.6);
#146 = AXIS2_PLACEMENT_3D('',#147,#148,#149);
#147 = CARTESIAN_POINT('',(12.4,0.,1.8));
#148 = DIRECTION('',(0.,0.,-1.));
#149 = DIRECTION('',(1.,0.,0.));
#150 = ORIENTED_EDGE('',*,*,#151,.F.);
#151 = EDGE_CURVE('',#58,#143,#152,.T.);
#152 = LINE('',#153,#154);
#153 = CARTESIAN_POINT('',(17.4,-10.4670912865,1.));
#154 = VECTOR('',#155,1.);
#155 = DIRECTION('',(-0.,-0.,-1.));
#156 = CYLINDRICAL_SURFACE('',#157,11.6);
#157 = AXIS2_PLACEMENT_3D('',#158,#159,#160);
#158 = CARTESIAN_POINT('',(12.4,0.,0.));
#159 = DIRECTION('',(-0.,-0.,-1.));
#160 = DIRECTION('',(1.,0.,0.));
#161 = ADVANCED_FACE('',(#162),#197,.T.);
#162 = FACE_BOUND('',#163,.T.);
#163 = EDGE_LOOP('',(#164,#172,#173,#181,#190));
#164 = ORIENTED_EDGE('',*,*,#165,.F.);
#165 = EDGE_CURVE('',#58,#166,#168,.T.);
#166 = VERTEX_POINT('',#167);
#167 = CARTESIAN_POINT('',(17.4,-8.890444308357,4.1));
#168 = LINE('',#169,#170);
#169 = CARTESIAN_POINT('',(17.4,-6.,4.1));
#170 = VECTOR('',#171,1.);
#171 = DIRECTION('',(0.,1.,0.));
#172 = ORIENTED_EDGE('',*,*,#55,.F.);
#173 = ORIENTED_EDGE('',*,*,#174,.F.);
#174 = EDGE_CURVE('',#175,#56,#177,.T.);
#175 = VERTEX_POINT('',#176);
#176 = CARTESIAN_POINT('',(17.4,8.890444308357,4.1));
#177 = LINE('',#178,#179);
#178 = CARTESIAN_POINT('',(17.4,-6.,4.1));
#179 = VECTOR('',#180,1.);
#180 = DIRECTION('',(0.,1.,0.));
#181 = ORIENTED_EDGE('',*,*,#182,.T.);
#182 = EDGE_CURVE('',#175,#183,#185,.T.);
#183 = VERTEX_POINT('',#184);
#184 = CARTESIAN_POINT('',(22.6,0.,4.1));
#185 = CIRCLE('',#186,10.2);
#186 = AXIS2_PLACEMENT_3D('',#187,#188,#189);
#187 = CARTESIAN_POINT('',(12.4,0.,4.1));
#188 = DIRECTION('',(0.,0.,-1.));
#189 = DIRECTION('',(1.,0.,0.));
#190 = ORIENTED_EDGE('',*,*,#191,.T.);
#191 = EDGE_CURVE('',#183,#166,#192,.T.);
#192 = CIRCLE('',#193,10.2);
#193 = AXIS2_PLACEMENT_3D('',#194,#195,#196);
#194 = CARTESIAN_POINT('',(12.4,0.,4.1));
#195 = DIRECTION('',(0.,0.,-1.));
#196 = DIRECTION('',(1.,0.,0.));
#197 = PLANE('',#198);
#198 = AXIS2_PLACEMENT_3D('',#199,#200,#201);
#199 = CARTESIAN_POINT('',(12.4,-4.735300956703E-16,4.1));
#200 = DIRECTION('',(0.,0.,1.));
#201 = DIRECTION('',(1.,0.,-0.));
#202 = ADVANCED_FACE('',(#203),#221,.F.);
#203 = FACE_BOUND('',#204,.F.);
#204 = EDGE_LOOP('',(#205,#206,#214,#220));
#205 = ORIENTED_EDGE('',*,*,#151,.T.);
#206 = ORIENTED_EDGE('',*,*,#207,.T.);
#207 = EDGE_CURVE('',#143,#208,#210,.T.);
#208 = VERTEX_POINT('',#209);
#209 = CARTESIAN_POINT('',(17.4,-8.890444308357,1.8));
#210 = LINE('',#211,#212);
#211 = CARTESIAN_POINT('',(17.4,-12.,1.8));
#212 = VECTOR('',#213,1.);
#213 = DIRECTION('',(0.,1.,0.));
#214 = ORIENTED_EDGE('',*,*,#215,.F.);
#215 = EDGE_CURVE('',#166,#208,#216,.T.);
#216 = LINE('',#217,#218);
#217 = CARTESIAN_POINT('',(17.4,-8.890444308357,0.9));
#218 = VECTOR('',#219,1.);
#219 = DIRECTION('',(-0.,-0.,-1.));
#220 = ORIENTED_EDGE('',*,*,#165,.F.);
#221 = PLANE('',#222);
#222 = AXIS2_PLACEMENT_3D('',#223,#224,#225);
#223 = CARTESIAN_POINT('',(17.4,-12.,1.8));
#224 = DIRECTION('',(1.,0.,0.));
#225 = DIRECTION('',(0.,0.,1.));
#226 = ADVANCED_FACE('',(#227),#246,.T.);
#227 = FACE_BOUND('',#228,.T.);
#228 = EDGE_LOOP('',(#229,#237,#238,#239));
#229 = ORIENTED_EDGE('',*,*,#230,.F.);
#230 = EDGE_CURVE('',#135,#231,#233,.T.);
#231 = VERTEX_POINT('',#232);
#232 = CARTESIAN_POINT('',(7.4,-8.890444308357,1.8));
#233 = LINE('',#234,#235);
#234 = CARTESIAN_POINT('',(7.4,-12.,1.8));
#235 = VECTOR('',#236,1.);
#236 = DIRECTION('',(0.,1.,0.));
#237 = ORIENTED_EDGE('',*,*,#142,.F.);
#238 = ORIENTED_EDGE('',*,*,#207,.T.);
#239 = ORIENTED_EDGE('',*,*,#240,.T.);
#240 = EDGE_CURVE('',#208,#231,#241,.T.);
#241 = CIRCLE('',#242,10.2);
#242 = AXIS2_PLACEMENT_3D('',#243,#244,#245);
#243 = CARTESIAN_POINT('',(12.4,0.,1.8));
#244 = DIRECTION('',(0.,0.,-1.));
#245 = DIRECTION('',(1.,0.,0.));
#246 = PLANE('',#247);
#247 = AXIS2_PLACEMENT_3D('',#248,#249,#250);
#248 = CARTESIAN_POINT('',(7.4,-12.,1.8));
#249 = DIRECTION('',(0.,0.,1.));
#250 = DIRECTION('',(1.,0.,0.));
#251 = ADVANCED_FACE('',(#252),#270,.T.);
#252 = FACE_BOUND('',#253,.T.);
#253 = EDGE_LOOP('',(#254,#255,#256,#264));
#254 = ORIENTED_EDGE('',*,*,#134,.T.);
#255 = ORIENTED_EDGE('',*,*,#230,.T.);
#256 = ORIENTED_EDGE('',*,*,#257,.F.);
#257 = EDGE_CURVE('',#258,#231,#260,.T.);
#258 = VERTEX_POINT('',#259);
#259 = CARTESIAN_POINT('',(7.4,-8.890444308357,4.1));
#260 = LINE('',#261,#262);
#261 = CARTESIAN_POINT('',(7.4,-8.890444308357,0.9));
#262 = VECTOR('',#263,1.);
#263 = DIRECTION('',(-0.,-0.,-1.));
#264 = ORIENTED_EDGE('',*,*,#265,.F.);
#265 = EDGE_CURVE('',#126,#258,#266,.T.);
#266 = LINE('',#267,#268);
#267 = CARTESIAN_POINT('',(7.4,-6.,4.1));
#268 = VECTOR('',#269,1.);
#269 = DIRECTION('',(0.,1.,0.));
#270 = PLANE('',#271);
#271 = AXIS2_PLACEMENT_3D('',#272,#273,#274);
#272 = CARTESIAN_POINT('',(7.4,-12.,1.8));
#273 = DIRECTION('',(1.,0.,0.));
#274 = DIRECTION('',(0.,0.,1.));
#275 = ADVANCED_FACE('',(#276),#334,.T.);
#276 = FACE_BOUND('',#277,.T.);
#277 = EDGE_LOOP('',(#278,#287,#293,#294,#302,#310,#318,#326,#332,#333)
  );
#278 = ORIENTED_EDGE('',*,*,#279,.T.);
#279 = EDGE_CURVE('',#258,#280,#282,.T.);
#280 = VERTEX_POINT('',#281);
#281 = CARTESIAN_POINT('',(7.4,8.890444308357,4.1));
#282 = CIRCLE('',#283,10.2);
#283 = AXIS2_PLACEMENT_3D('',#284,#285,#286);
#284 = CARTESIAN_POINT('',(12.4,0.,4.1));
#285 = DIRECTION('',(0.,0.,-1.));
#286 = DIRECTION('',(1.,0.,0.));
#287 = ORIENTED_EDGE('',*,*,#288,.T.);
#288 = EDGE_CURVE('',#280,#84,#289,.T.);
#289 = LINE('',#290,#291);
#290 = CARTESIAN_POINT('',(7.4,-6.,4.1));
#291 = VECTOR('',#292,1.);
#292 = DIRECTION('',(0.,1.,0.));
#293 = ORIENTED_EDGE('',*,*,#91,.T.);
#294 = ORIENTED_EDGE('',*,*,#295,.T.);
#295 = EDGE_CURVE('',#92,#296,#298,.T.);
#296 = VERTEX_POINT('',#297);
#297 = CARTESIAN_POINT('',(1.15,2.875,4.1));
#298 = LINE('',#299,#300);
#299 = CARTESIAN_POINT('',(1.15,-2.875,4.1));
#300 = VECTOR('',#301,1.);
#301 = DIRECTION('',(0.,1.,0.));
#302 = ORIENTED_EDGE('',*,*,#303,.F.);
#303 = EDGE_CURVE('',#304,#296,#306,.T.);
#304 = VERTEX_POINT('',#305);
#305 = CARTESIAN_POINT('',(-2.6,2.875,4.1));
#306 = LINE('',#307,#308);
#307 = CARTESIAN_POINT('',(-2.6,2.875,4.1));
#308 = VECTOR('',#309,1.);
#309 = DIRECTION('',(1.,0.,0.));
#310 = ORIENTED_EDGE('',*,*,#311,.F.);
#311 = EDGE_CURVE('',#312,#304,#314,.T.);
#312 = VERTEX_POINT('',#313);
#313 = CARTESIAN_POINT('',(-2.6,-2.875,4.1));
#314 = LINE('',#315,#316);
#315 = CARTESIAN_POINT('',(-2.6,-2.875,4.1));
#316 = VECTOR('',#317,1.);
#317 = DIRECTION('',(0.,1.,0.));
#318 = ORIENTED_EDGE('',*,*,#319,.T.);
#319 = EDGE_CURVE('',#312,#320,#322,.T.);
#320 = VERTEX_POINT('',#321);
#321 = CARTESIAN_POINT('',(1.15,-2.875,4.1));
#322 = LINE('',#323,#324);
#323 = CARTESIAN_POINT('',(-2.6,-2.875,4.1));
#324 = VECTOR('',#325,1.);
#325 = DIRECTION('',(1.,0.,0.));
#326 = ORIENTED_EDGE('',*,*,#327,.T.);
#327 = EDGE_CURVE('',#320,#118,#328,.T.);
#328 = LINE('',#329,#330);
#329 = CARTESIAN_POINT('',(1.15,-2.875,4.1));
#330 = VECTOR('',#331,1.);
#331 = DIRECTION('',(0.,1.,0.));
#332 = ORIENTED_EDGE('',*,*,#125,.T.);
#333 = ORIENTED_EDGE('',*,*,#265,.T.);
#334 = PLANE('',#335);
#335 = AXIS2_PLACEMENT_3D('',#336,#337,#338);
#336 = CARTESIAN_POINT('',(12.4,-4.735300956703E-16,4.1));
#337 = DIRECTION('',(0.,0.,1.));
#338 = DIRECTION('',(1.,0.,-0.));
#339 = ADVANCED_FACE('',(#340),#358,.T.);
#340 = FACE_BOUND('',#341,.T.);
#341 = EDGE_LOOP('',(#342,#343,#351,#357));
#342 = ORIENTED_EDGE('',*,*,#327,.F.);
#343 = ORIENTED_EDGE('',*,*,#344,.F.);
#344 = EDGE_CURVE('',#345,#320,#347,.T.);
#345 = VERTEX_POINT('',#346);
#346 = CARTESIAN_POINT('',(1.15,-2.875,0.));
#347 = LINE('',#348,#349);
#348 = CARTESIAN_POINT('',(1.15,-2.875,0.));
#349 = VECTOR('',#350,1.);
#350 = DIRECTION('',(0.,0.,1.));
#351 = ORIENTED_EDGE('',*,*,#352,.T.);
#352 = EDGE_CURVE('',#345,#109,#353,.T.);
#353 = LINE('',#354,#355);
#354 = CARTESIAN_POINT('',(1.15,-2.875,0.));
#355 = VECTOR('',#356,1.);
#356 = DIRECTION('',(0.,1.,0.));
#357 = ORIENTED_EDGE('',*,*,#117,.F.);
#358 = PLANE('',#359);
#359 = AXIS2_PLACEMENT_3D('',#360,#361,#362);
#360 = CARTESIAN_POINT('',(1.15,-2.875,0.));
#361 = DIRECTION('',(1.,0.,0.));
#362 = DIRECTION('',(0.,0.,1.));
#363 = ADVANCED_FACE('',(#364),#398,.F.);
#364 = FACE_BOUND('',#365,.F.);
#365 = EDGE_LOOP('',(#366,#367,#375,#383,#391,#397));
#366 = ORIENTED_EDGE('',*,*,#108,.T.);
#367 = ORIENTED_EDGE('',*,*,#368,.T.);
#368 = EDGE_CURVE('',#101,#369,#371,.T.);
#369 = VERTEX_POINT('',#370);
#370 = CARTESIAN_POINT('',(1.15,2.875,0.));
#371 = LINE('',#372,#373);
#372 = CARTESIAN_POINT('',(1.15,-2.875,0.));
#373 = VECTOR('',#374,1.);
#374 = DIRECTION('',(0.,1.,0.));
#375 = ORIENTED_EDGE('',*,*,#376,.F.);
#376 = EDGE_CURVE('',#377,#369,#379,.T.);
#377 = VERTEX_POINT('',#378);
#378 = CARTESIAN_POINT('',(-2.6,2.875,0.));
#379 = LINE('',#380,#381);
#380 = CARTESIAN_POINT('',(-2.6,2.875,0.));
#381 = VECTOR('',#382,1.);
#382 = DIRECTION('',(1.,0.,0.));
#383 = ORIENTED_EDGE('',*,*,#384,.F.);
#384 = EDGE_CURVE('',#385,#377,#387,.T.);
#385 = VERTEX_POINT('',#386);
#386 = CARTESIAN_POINT('',(-2.6,-2.875,0.));
#387 = LINE('',#388,#389);
#388 = CARTESIAN_POINT('',(-2.6,-2.875,0.));
#389 = VECTOR('',#390,1.);
#390 = DIRECTION('',(0.,1.,0.));
#391 = ORIENTED_EDGE('',*,*,#392,.T.);
#392 = EDGE_CURVE('',#385,#345,#393,.T.);
#393 = LINE('',#394,#395);
#394 = CARTESIAN_POINT('',(-2.6,-2.875,0.));
#395 = VECTOR('',#396,1.);
#396 = DIRECTION('',(1.,0.,0.));
#397 = ORIENTED_EDGE('',*,*,#352,.T.);
#398 = PLANE('',#399);
#399 = AXIS2_PLACEMENT_3D('',#400,#401,#402);
#400 = CARTESIAN_POINT('',(12.4,-4.735300956703E-16,0.));
#401 = DIRECTION('',(0.,0.,1.));
#402 = DIRECTION('',(1.,0.,-0.));
#403 = ADVANCED_FACE('',(#404),#415,.T.);
#404 = FACE_BOUND('',#405,.T.);
#405 = EDGE_LOOP('',(#406,#407,#408,#409));
#406 = ORIENTED_EDGE('',*,*,#295,.F.);
#407 = ORIENTED_EDGE('',*,*,#100,.T.);
#408 = ORIENTED_EDGE('',*,*,#368,.T.);
#409 = ORIENTED_EDGE('',*,*,#410,.T.);
#410 = EDGE_CURVE('',#369,#296,#411,.T.);
#411 = LINE('',#412,#413);
#412 = CARTESIAN_POINT('',(1.15,2.875,0.));
#413 = VECTOR('',#414,1.);
#414 = DIRECTION('',(0.,0.,1.));
#415 = PLANE('',#416);
#416 = AXIS2_PLACEMENT_3D('',#417,#418,#419);
#417 = CARTESIAN_POINT('',(1.15,-2.875,0.));
#418 = DIRECTION('',(1.,0.,0.));
#419 = DIRECTION('',(0.,0.,1.));
#420 = ADVANCED_FACE('',(#421),#439,.T.);
#421 = FACE_BOUND('',#422,.T.);
#422 = EDGE_LOOP('',(#423,#431,#432,#433));
#423 = ORIENTED_EDGE('',*,*,#424,.T.);
#424 = EDGE_CURVE('',#425,#75,#427,.T.);
#425 = VERTEX_POINT('',#426);
#426 = CARTESIAN_POINT('',(7.4,8.890444308357,1.8));
#427 = LINE('',#428,#429);
#428 = CARTESIAN_POINT('',(7.4,-12.,1.8));
#429 = VECTOR('',#430,1.);
#430 = DIRECTION('',(0.,1.,0.));
#431 = ORIENTED_EDGE('',*,*,#83,.F.);
#432 = ORIENTED_EDGE('',*,*,#288,.F.);
#433 = ORIENTED_EDGE('',*,*,#434,.T.);
#434 = EDGE_CURVE('',#280,#425,#435,.T.);
#435 = LINE('',#436,#437);
#436 = CARTESIAN_POINT('',(7.4,8.890444308357,0.9));
#437 = VECTOR('',#438,1.);
#438 = DIRECTION('',(-0.,-0.,-1.));
#439 = PLANE('',#440);
#440 = AXIS2_PLACEMENT_3D('',#441,#442,#443);
#441 = CARTESIAN_POINT('',(7.4,-12.,1.8));
#442 = DIRECTION('',(1.,0.,0.));
#443 = DIRECTION('',(0.,0.,1.));
#444 = ADVANCED_FACE('',(#445),#464,.T.);
#445 = FACE_BOUND('',#446,.T.);
#446 = EDGE_LOOP('',(#447,#448,#457,#463));
#447 = ORIENTED_EDGE('',*,*,#424,.F.);
#448 = ORIENTED_EDGE('',*,*,#449,.T.);
#449 = EDGE_CURVE('',#425,#450,#452,.T.);
#450 = VERTEX_POINT('',#451);
#451 = CARTESIAN_POINT('',(17.4,8.890444308357,1.8));
#452 = CIRCLE('',#453,10.2);
#453 = AXIS2_PLACEMENT_3D('',#454,#455,#456);
#454 = CARTESIAN_POINT('',(12.4,0.,1.8));
#455 = DIRECTION('',(0.,0.,-1.));
#456 = DIRECTION('',(1.,0.,0.));
#457 = ORIENTED_EDGE('',*,*,#458,.T.);
#458 = EDGE_CURVE('',#450,#67,#459,.T.);
#459 = LINE('',#460,#461);
#460 = CARTESIAN_POINT('',(17.4,-12.,1.8));
#461 = VECTOR('',#462,1.);
#462 = DIRECTION('',(0.,1.,0.));
#463 = ORIENTED_EDGE('',*,*,#74,.F.);
#464 = PLANE('',#465);
#465 = AXIS2_PLACEMENT_3D('',#466,#467,#468);
#466 = CARTESIAN_POINT('',(7.4,-12.,1.8));
#467 = DIRECTION('',(0.,0.,1.));
#468 = DIRECTION('',(1.,0.,0.));
#469 = ADVANCED_FACE('',(#470),#481,.F.);
#470 = FACE_BOUND('',#471,.F.);
#471 = EDGE_LOOP('',(#472,#473,#474,#475));
#472 = ORIENTED_EDGE('',*,*,#458,.T.);
#473 = ORIENTED_EDGE('',*,*,#66,.F.);
#474 = ORIENTED_EDGE('',*,*,#174,.F.);
#475 = ORIENTED_EDGE('',*,*,#476,.T.);
#476 = EDGE_CURVE('',#175,#450,#477,.T.);
#477 = LINE('',#478,#479);
#478 = CARTESIAN_POINT('',(17.4,8.890444308357,0.9));
#479 = VECTOR('',#480,1.);
#480 = DIRECTION('',(-0.,-0.,-1.));
#481 = PLANE('',#482);
#482 = AXIS2_PLACEMENT_3D('',#483,#484,#485);
#483 = CARTESIAN_POINT('',(17.4,-12.,1.8));
#484 = DIRECTION('',(1.,0.,0.));
#485 = DIRECTION('',(0.,0.,1.));
#486 = ADVANCED_FACE('',(#487),#514,.F.);
#487 = FACE_BOUND('',#488,.T.);
#488 = EDGE_LOOP('',(#489,#497,#504,#505,#506,#507,#508,#509,#510,#511,
    #512,#513));
#489 = ORIENTED_EDGE('',*,*,#490,.F.);
#490 = EDGE_CURVE('',#491,#183,#493,.T.);
#491 = VERTEX_POINT('',#492);
#492 = CARTESIAN_POINT('',(22.6,0.,1.));
#493 = LINE('',#494,#495);
#494 = CARTESIAN_POINT('',(22.6,0.,0.9));
#495 = VECTOR('',#496,1.);
#496 = DIRECTION('',(0.,0.,1.));
#497 = ORIENTED_EDGE('',*,*,#498,.T.);
#498 = EDGE_CURVE('',#491,#491,#499,.T.);
#499 = CIRCLE('',#500,10.2);
#500 = AXIS2_PLACEMENT_3D('',#501,#502,#503);
#501 = CARTESIAN_POINT('',(12.4,0.,1.));
#502 = DIRECTION('',(0.,0.,-1.));
#503 = DIRECTION('',(1.,0.,0.));
#504 = ORIENTED_EDGE('',*,*,#490,.T.);
#505 = ORIENTED_EDGE('',*,*,#182,.F.);
#506 = ORIENTED_EDGE('',*,*,#476,.T.);
#507 = ORIENTED_EDGE('',*,*,#449,.F.);
#508 = ORIENTED_EDGE('',*,*,#434,.F.);
#509 = ORIENTED_EDGE('',*,*,#279,.F.);
#510 = ORIENTED_EDGE('',*,*,#257,.T.);
#511 = ORIENTED_EDGE('',*,*,#240,.F.);
#512 = ORIENTED_EDGE('',*,*,#215,.F.);
#513 = ORIENTED_EDGE('',*,*,#191,.F.);
#514 = CYLINDRICAL_SURFACE('',#515,10.2);
#515 = AXIS2_PLACEMENT_3D('',#516,#517,#518);
#516 = CARTESIAN_POINT('',(12.4,0.,0.9));
#517 = DIRECTION('',(-0.,-0.,-1.));
#518 = DIRECTION('',(1.,0.,0.));
#519 = ADVANCED_FACE('',(#520),#531,.F.);
#520 = FACE_BOUND('',#521,.F.);
#521 = EDGE_LOOP('',(#522,#523,#529,#530));
#522 = ORIENTED_EDGE('',*,*,#392,.F.);
#523 = ORIENTED_EDGE('',*,*,#524,.T.);
#524 = EDGE_CURVE('',#385,#312,#525,.T.);
#525 = LINE('',#526,#527);
#526 = CARTESIAN_POINT('',(-2.6,-2.875,0.));
#527 = VECTOR('',#528,1.);
#528 = DIRECTION('',(0.,0.,1.));
#529 = ORIENTED_EDGE('',*,*,#319,.T.);
#530 = ORIENTED_EDGE('',*,*,#344,.F.);
#531 = PLANE('',#532);
#532 = AXIS2_PLACEMENT_3D('',#533,#534,#535);
#533 = CARTESIAN_POINT('',(-2.6,-2.875,0.));
#534 = DIRECTION('',(0.,1.,0.));
#535 = DIRECTION('',(0.,0.,1.));
#536 = ADVANCED_FACE('',(#537),#548,.T.);
#537 = FACE_BOUND('',#538,.T.);
#538 = EDGE_LOOP('',(#539,#540,#546,#547));
#539 = ORIENTED_EDGE('',*,*,#376,.F.);
#540 = ORIENTED_EDGE('',*,*,#541,.T.);
#541 = EDGE_CURVE('',#377,#304,#542,.T.);
#542 = LINE('',#543,#544);
#543 = CARTESIAN_POINT('',(-2.6,2.875,0.));
#544 = VECTOR('',#545,1.);
#545 = DIRECTION('',(0.,0.,1.));
#546 = ORIENTED_EDGE('',*,*,#303,.T.);
#547 = ORIENTED_EDGE('',*,*,#410,.F.);
#548 = PLANE('',#549);
#549 = AXIS2_PLACEMENT_3D('',#550,#551,#552);
#550 = CARTESIAN_POINT('',(-2.6,2.875,0.));
#551 = DIRECTION('',(0.,1.,0.));
#552 = DIRECTION('',(0.,0.,1.));
#553 = ADVANCED_FACE('',(#554),#557,.T.);
#554 = FACE_BOUND('',#555,.T.);
#555 = EDGE_LOOP('',(#556));
#556 = ORIENTED_EDGE('',*,*,#498,.F.);
#557 = PLANE('',#558);
#558 = AXIS2_PLACEMENT_3D('',#559,#560,#561);
#559 = CARTESIAN_POINT('',(12.4,-4.735300956703E-16,1.));
#560 = DIRECTION('',(0.,0.,1.));
#561 = DIRECTION('',(1.,0.,-0.));
#562 = ADVANCED_FACE('',(#563),#569,.F.);
#563 = FACE_BOUND('',#564,.F.);
#564 = EDGE_LOOP('',(#565,#566,#567,#568));
#565 = ORIENTED_EDGE('',*,*,#524,.F.);
#566 = ORIENTED_EDGE('',*,*,#384,.T.);
#567 = ORIENTED_EDGE('',*,*,#541,.T.);
#568 = ORIENTED_EDGE('',*,*,#311,.F.);
#569 = PLANE('',#570);
#570 = AXIS2_PLACEMENT_3D('',#571,#572,#573);
#571 = CARTESIAN_POINT('',(-2.6,-2.875,0.));
#572 = DIRECTION('',(1.,0.,0.));
#573 = DIRECTION('',(0.,0.,1.));
#574 = ( GEOMETRIC_REPRESENTATION_CONTEXT(3)
GLOBAL_UNCERTAINTY_ASSIGNED_CONTEXT((#578)) GLOBAL_UNIT_ASSIGNED_CONTEXT
((#575,#576,#577)) REPRESENTATION_CONTEXT('Context #1',
  '3D Context with UNIT and UNCERTAINTY') );
#575 = ( LENGTH_UNIT() NAMED_UNIT(*) SI_UNIT(.MILLI.,.METRE.) );
#576 = ( NAMED_UNIT(*) PLANE_ANGLE_UNIT() SI_UNIT($,.RADIAN.) );
#577 = ( NAMED_UNIT(*) SI_UNIT($,.STERADIAN.) SOLID_ANGLE_UNIT() );
#578 = UNCERTAINTY_MEASURE_WITH_UNIT(LENGTH_MEASURE(1.E-07),#575,
  'distance_accuracy_value','confusion accuracy');
#579 = CONTEXT_DEPENDENT_SHAPE_REPRESENTATION(#580,#582);
#580 = ( REPRESENTATION_RELATIONSHIP('','',#48,#10)
REPRESENTATION_RELATIONSHIP_WITH_TRANSFORMATION(#581)
SHAPE_REPRESENTATION_RELATIONSHIP() );
#581 = ITEM_DEFINED_TRANSFORMATION('','',#11,#15);
#582 = PRODUCT_DEFINITION_SHAPE('Placement','Placement of an item',#583
  );
#583 = NEXT_ASSEMBLY_USAGE_OCCURRENCE('45','housing','',#5,#43,$);
#584 = PRODUCT_RELATED_PRODUCT_CATEGORY('part',$,(#45));
#585 = SHAPE_DEFINITION_REPRESENTATION(#586,#592);
#586 = PRODUCT_DEFINITION_SHAPE('','',#587);
#587 = PRODUCT_DEFINITION('design','',#588,#591);
#588 = PRODUCT_DEFINITION_FORMATION('','',#589);
#589 = PRODUCT('positive_tail','positive_tail','',(#590));
#590 = PRODUCT_CONTEXT('',#2,'mechanical');
#591 = PRODUCT_DEFINITION_CONTEXT('part definition',#2,'design');
#592 = ADVANCED_BREP_SHAPE_REPRESENTATION('',(#11,#593),#743);
#593 = MANIFOLD_SOLID_BREP('',#594);
#594 = CLOSED_SHELL('',(#595,#635,#675,#697,#719,#731));
#595 = ADVANCED_FACE('',(#596),#630,.F.);
#596 = FACE_BOUND('',#597,.F.);
#597 = EDGE_LOOP('',(#598,#608,#616,#624));
#598 = ORIENTED_EDGE('',*,*,#599,.F.);
#599 = EDGE_CURVE('',#600,#602,#604,.T.);
#600 = VERTEX_POINT('',#601);
#601 = CARTESIAN_POINT('',(-0.4,-0.25,-3.1));
#602 = VERTEX_POINT('',#603);
#603 = CARTESIAN_POINT('',(-0.4,-0.25,0.6));
#604 = LINE('',#605,#606);
#605 = CARTESIAN_POINT('',(-0.4,-0.25,-3.1));
#606 = VECTOR('',#607,1.);
#607 = DIRECTION('',(0.,0.,1.));
#608 = ORIENTED_EDGE('',*,*,#609,.T.);
#609 = EDGE_CURVE('',#600,#610,#612,.T.);
#610 = VERTEX_POINT('',#611);
#611 = CARTESIAN_POINT('',(-0.4,0.25,-3.1));
#612 = LINE('',#613,#614);
#613 = CARTESIAN_POINT('',(-0.4,-0.25,-3.1));
#614 = VECTOR('',#615,1.);
#615 = DIRECTION('',(0.,1.,0.));
#616 = ORIENTED_EDGE('',*,*,#617,.T.);
#617 = EDGE_CURVE('',#610,#618,#620,.T.);
#618 = VERTEX_POINT('',#619);
#619 = CARTESIAN_POINT('',(-0.4,0.25,0.6));
#620 = LINE('',#621,#622);
#621 = CARTESIAN_POINT('',(-0.4,0.25,-3.1));
#622 = VECTOR('',#623,1.);
#623 = DIRECTION('',(0.,0.,1.));
#624 = ORIENTED_EDGE('',*,*,#625,.F.);
#625 = EDGE_CURVE('',#602,#618,#626,.T.);
#626 = LINE('',#627,#628);
#627 = CARTESIAN_POINT('',(-0.4,-0.25,0.6));
#628 = VECTOR('',#629,1.);
#629 = DIRECTION('',(0.,1.,0.));
#630 = PLANE('',#631);
#631 = AXIS2_PLACEMENT_3D('',#632,#633,#634);
#632 = CARTESIAN_POINT('',(-0.4,-0.25,-3.1));
#633 = DIRECTION('',(1.,0.,0.));
#634 = DIRECTION('',(0.,0.,1.));
#635 = ADVANCED_FACE('',(#636),#670,.T.);
#636 = FACE_BOUND('',#637,.T.);
#637 = EDGE_LOOP('',(#638,#648,#656,#664));
#638 = ORIENTED_EDGE('',*,*,#639,.F.);
#639 = EDGE_CURVE('',#640,#642,#644,.T.);
#640 = VERTEX_POINT('',#641);
#641 = CARTESIAN_POINT('',(0.4,-0.25,-3.1));
#642 = VERTEX_POINT('',#643);
#643 = CARTESIAN_POINT('',(0.4,-0.25,0.6));
#644 = LINE('',#645,#646);
#645 = CARTESIAN_POINT('',(0.4,-0.25,-3.1));
#646 = VECTOR('',#647,1.);
#647 = DIRECTION('',(0.,0.,1.));
#648 = ORIENTED_EDGE('',*,*,#649,.T.);
#649 = EDGE_CURVE('',#640,#650,#652,.T.);
#650 = VERTEX_POINT('',#651);
#651 = CARTESIAN_POINT('',(0.4,0.25,-3.1));
#652 = LINE('',#653,#654);
#653 = CARTESIAN_POINT('',(0.4,-0.25,-3.1));
#654 = VECTOR('',#655,1.);
#655 = DIRECTION('',(0.,1.,0.));
#656 = ORIENTED_EDGE('',*,*,#657,.T.);
#657 = EDGE_CURVE('',#650,#658,#660,.T.);
#658 = VERTEX_POINT('',#659);
#659 = CARTESIAN_POINT('',(0.4,0.25,0.6));
#660 = LINE('',#661,#662);
#661 = CARTESIAN_POINT('',(0.4,0.25,-3.1));
#662 = VECTOR('',#663,1.);
#663 = DIRECTION('',(0.,0.,1.));
#664 = ORIENTED_EDGE('',*,*,#665,.F.);
#665 = EDGE_CURVE('',#642,#658,#666,.T.);
#666 = LINE('',#667,#668);
#667 = CARTESIAN_POINT('',(0.4,-0.25,0.6));
#668 = VECTOR('',#669,1.);
#669 = DIRECTION('',(0.,1.,0.));
#670 = PLANE('',#671);
#671 = AXIS2_PLACEMENT_3D('',#672,#673,#674);
#672 = CARTESIAN_POINT('',(0.4,-0.25,-3.1));
#673 = DIRECTION('',(1.,0.,0.));
#674 = DIRECTION('',(0.,0.,1.));
#675 = ADVANCED_FACE('',(#676),#692,.F.);
#676 = FACE_BOUND('',#677,.F.);
#677 = EDGE_LOOP('',(#678,#684,#685,#691));
#678 = ORIENTED_EDGE('',*,*,#679,.F.);
#679 = EDGE_CURVE('',#600,#640,#680,.T.);
#680 = LINE('',#681,#682);
#681 = CARTESIAN_POINT('',(-0.4,-0.25,-3.1));
#682 = VECTOR('',#683,1.);
#683 = DIRECTION('',(1.,0.,0.));
#684 = ORIENTED_EDGE('',*,*,#599,.T.);
#685 = ORIENTED_EDGE('',*,*,#686,.T.);
#686 = EDGE_CURVE('',#602,#642,#687,.T.);
#687 = LINE('',#688,#689);
#688 = CARTESIAN_POINT('',(-0.4,-0.25,0.6));
#689 = VECTOR('',#690,1.);
#690 = DIRECTION('',(1.,0.,0.));
#691 = ORIENTED_EDGE('',*,*,#639,.F.);
#692 = PLANE('',#693);
#693 = AXIS2_PLACEMENT_3D('',#694,#695,#696);
#694 = CARTESIAN_POINT('',(-0.4,-0.25,-3.1));
#695 = DIRECTION('',(0.,1.,0.));
#696 = DIRECTION('',(0.,0.,1.));
#697 = ADVANCED_FACE('',(#698),#714,.T.);
#698 = FACE_BOUND('',#699,.T.);
#699 = EDGE_LOOP('',(#700,#706,#707,#713));
#700 = ORIENTED_EDGE('',*,*,#701,.F.);
#701 = EDGE_CURVE('',#610,#650,#702,.T.);
#702 = LINE('',#703,#704);
#703 = CARTESIAN_POINT('',(-0.4,0.25,-3.1));
#704 = VECTOR('',#705,1.);
#705 = DIRECTION('',(1.,0.,0.));
#706 = ORIENTED_EDGE('',*,*,#617,.T.);
#707 = ORIENTED_EDGE('',*,*,#708,.T.);
#708 = EDGE_CURVE('',#618,#658,#709,.T.);
#709 = LINE('',#710,#711);
#710 = CARTESIAN_POINT('',(-0.4,0.25,0.6));
#711 = VECTOR('',#712,1.);
#712 = DIRECTION('',(1.,0.,0.));
#713 = ORIENTED_EDGE('',*,*,#657,.F.);
#714 = PLANE('',#715);
#715 = AXIS2_PLACEMENT_3D('',#716,#717,#718);
#716 = CARTESIAN_POINT('',(-0.4,0.25,-3.1));
#717 = DIRECTION('',(0.,1.,0.));
#718 = DIRECTION('',(0.,0.,1.));
#719 = ADVANCED_FACE('',(#720),#726,.F.);
#720 = FACE_BOUND('',#721,.F.);
#721 = EDGE_LOOP('',(#722,#723,#724,#725));
#722 = ORIENTED_EDGE('',*,*,#609,.F.);
#723 = ORIENTED_EDGE('',*,*,#679,.T.);
#724 = ORIENTED_EDGE('',*,*,#649,.T.);
#725 = ORIENTED_EDGE('',*,*,#701,.F.);
#726 = PLANE('',#727);
#727 = AXIS2_PLACEMENT_3D('',#728,#729,#730);
#728 = CARTESIAN_POINT('',(-0.4,-0.25,-3.1));
#729 = DIRECTION('',(0.,0.,1.));
#730 = DIRECTION('',(1.,0.,0.));
#731 = ADVANCED_FACE('',(#732),#738,.T.);
#732 = FACE_BOUND('',#733,.T.);
#733 = EDGE_LOOP('',(#734,#735,#736,#737));
#734 = ORIENTED_EDGE('',*,*,#625,.F.);
#735 = ORIENTED_EDGE('',*,*,#686,.T.);
#736 = ORIENTED_EDGE('',*,*,#665,.T.);
#737 = ORIENTED_EDGE('',*,*,#708,.F.);
#738 = PLANE('',#739);
#739 = AXIS2_PLACEMENT_3D('',#740,#741,#742);
#740 = CARTESIAN_POINT('',(-0.4,-0.25,0.6));
#741 = DIRECTION('',(0.,0.,1.));
#742 = DIRECTION('',(1.,0.,0.));
#743 = ( GEOMETRIC_REPRESENTATION_CONTEXT(3)
GLOBAL_UNCERTAINTY_ASSIGNED_CONTEXT((#747)) GLOBAL_UNIT_ASSIGNED_CONTEXT
((#744,#745,#746)) REPRESENTATION_CONTEXT('Context #1',
  '3D Context with UNIT and UNCERTAINTY') );
#744 = ( LENGTH_UNIT() NAMED_UNIT(*) SI_UNIT(.MILLI.,.METRE.) );
#745 = ( NAMED_UNIT(*) PLANE_ANGLE_UNIT() SI_UNIT($,.RADIAN.) );
#746 = ( NAMED_UNIT(*) SI_UNIT($,.STERADIAN.) SOLID_ANGLE_UNIT() );
#747 = UNCERTAINTY_MEASURE_WITH_UNIT(LENGTH_MEASURE(1.E-07),#744,
  'distance_accuracy_value','confusion accuracy');
#748 = CONTEXT_DEPENDENT_SHAPE_REPRESENTATION(#749,#751);
#749 = ( REPRESENTATION_RELATIONSHIP('','',#592,#10)
REPRESENTATION_RELATIONSHIP_WITH_TRANSFORMATION(#750)
SHAPE_REPRESENTATION_RELATIONSHIP() );
#750 = ITEM_DEFINED_TRANSFORMATION('','',#11,#19);
#751 = PRODUCT_DEFINITION_SHAPE('Placement','Placement of an item',#752
  );
#752 = NEXT_ASSEMBLY_USAGE_OCCURRENCE('46','positive_tail','',#5,#587,$
  );
#753 = PRODUCT_RELATED_PRODUCT_CATEGORY('part',$,(#589));
#754 = SHAPE_DEFINITION_REPRESENTATION(#755,#761);
#755 = PRODUCT_DEFINITION_SHAPE('','',#756);
#756 = PRODUCT_DEFINITION('design','',#757,#760);
#757 = PRODUCT_DEFINITION_FORMATION('','',#758);
#758 = PRODUCT('negative_tail','negative_tail','',(#759));
#759 = PRODUCT_CONTEXT('',#2,'mechanical');
#760 = PRODUCT_DEFINITION_CONTEXT('part definition',#2,'design');
#761 = ADVANCED_BREP_SHAPE_REPRESENTATION('',(#11,#762),#912);
#762 = MANIFOLD_SOLID_BREP('',#763);
#763 = CLOSED_SHELL('',(#764,#804,#844,#866,#888,#900));
#764 = ADVANCED_FACE('',(#765),#799,.F.);
#765 = FACE_BOUND('',#766,.F.);
#766 = EDGE_LOOP('',(#767,#777,#785,#793));
#767 = ORIENTED_EDGE('',*,*,#768,.F.);
#768 = EDGE_CURVE('',#769,#771,#773,.T.);
#769 = VERTEX_POINT('',#770);
#770 = CARTESIAN_POINT('',(20.4,-0.25,-3.1));
#771 = VERTEX_POINT('',#772);
#772 = CARTESIAN_POINT('',(20.4,-0.25,0.6));
#773 = LINE('',#774,#775);
#774 = CARTESIAN_POINT('',(20.4,-0.25,-3.1));
#775 = VECTOR('',#776,1.);
#776 = DIRECTION('',(0.,0.,1.));
#777 = ORIENTED_EDGE('',*,*,#778,.T.);
#778 = EDGE_CURVE('',#769,#779,#781,.T.);
#779 = VERTEX_POINT('',#780);
#780 = CARTESIAN_POINT('',(20.4,0.25,-3.1));
#781 = LINE('',#782,#783);
#782 = CARTESIAN_POINT('',(20.4,-0.25,-3.1));
#783 = VECTOR('',#784,1.);
#784 = DIRECTION('',(0.,1.,0.));
#785 = ORIENTED_EDGE('',*,*,#786,.T.);
#786 = EDGE_CURVE('',#779,#787,#789,.T.);
#787 = VERTEX_POINT('',#788);
#788 = CARTESIAN_POINT('',(20.4,0.25,0.6));
#789 = LINE('',#790,#791);
#790 = CARTESIAN_POINT('',(20.4,0.25,-3.1));
#791 = VECTOR('',#792,1.);
#792 = DIRECTION('',(0.,0.,1.));
#793 = ORIENTED_EDGE('',*,*,#794,.F.);
#794 = EDGE_CURVE('',#771,#787,#795,.T.);
#795 = LINE('',#796,#797);
#796 = CARTESIAN_POINT('',(20.4,-0.25,0.6));
#797 = VECTOR('',#798,1.);
#798 = DIRECTION('',(0.,1.,0.));
#799 = PLANE('',#800);
#800 = AXIS2_PLACEMENT_3D('',#801,#802,#803);
#801 = CARTESIAN_POINT('',(20.4,-0.25,-3.1));
#802 = DIRECTION('',(1.,0.,0.));
#803 = DIRECTION('',(0.,0.,1.));
#804 = ADVANCED_FACE('',(#805),#839,.T.);
#805 = FACE_BOUND('',#806,.T.);
#806 = EDGE_LOOP('',(#807,#817,#825,#833));
#807 = ORIENTED_EDGE('',*,*,#808,.F.);
#808 = EDGE_CURVE('',#809,#811,#813,.T.);
#809 = VERTEX_POINT('',#810);
#810 = CARTESIAN_POINT('',(21.2,-0.25,-3.1));
#811 = VERTEX_POINT('',#812);
#812 = CARTESIAN_POINT('',(21.2,-0.25,0.6));
#813 = LINE('',#814,#815);
#814 = CARTESIAN_POINT('',(21.2,-0.25,-3.1));
#815 = VECTOR('',#816,1.);
#816 = DIRECTION('',(0.,0.,1.));
#817 = ORIENTED_EDGE('',*,*,#818,.T.);
#818 = EDGE_CURVE('',#809,#819,#821,.T.);
#819 = VERTEX_POINT('',#820);
#820 = CARTESIAN_POINT('',(21.2,0.25,-3.1));
#821 = LINE('',#822,#823);
#822 = CARTESIAN_POINT('',(21.2,-0.25,-3.1));
#823 = VECTOR('',#824,1.);
#824 = DIRECTION('',(0.,1.,0.));
#825 = ORIENTED_EDGE('',*,*,#826,.T.);
#826 = EDGE_CURVE('',#819,#827,#829,.T.);
#827 = VERTEX_POINT('',#828);
#828 = CARTESIAN_POINT('',(21.2,0.25,0.6));
#829 = LINE('',#830,#831);
#830 = CARTESIAN_POINT('',(21.2,0.25,-3.1));
#831 = VECTOR('',#832,1.);
#832 = DIRECTION('',(0.,0.,1.));
#833 = ORIENTED_EDGE('',*,*,#834,.F.);
#834 = EDGE_CURVE('',#811,#827,#835,.T.);
#835 = LINE('',#836,#837);
#836 = CARTESIAN_POINT('',(21.2,-0.25,0.6));
#837 = VECTOR('',#838,1.);
#838 = DIRECTION('',(0.,1.,0.));
#839 = PLANE('',#840);
#840 = AXIS2_PLACEMENT_3D('',#841,#842,#843);
#841 = CARTESIAN_POINT('',(21.2,-0.25,-3.1));
#842 = DIRECTION('',(1.,0.,0.));
#843 = DIRECTION('',(0.,0.,1.));
#844 = ADVANCED_FACE('',(#845),#861,.F.);
#845 = FACE_BOUND('',#846,.F.);
#846 = EDGE_LOOP('',(#847,#853,#854,#860));
#847 = ORIENTED_EDGE('',*,*,#848,.F.);
#848 = EDGE_CURVE('',#769,#809,#849,.T.);
#849 = LINE('',#850,#851);
#850 = CARTESIAN_POINT('',(20.4,-0.25,-3.1));
#851 = VECTOR('',#852,1.);
#852 = DIRECTION('',(1.,0.,0.));
#853 = ORIENTED_EDGE('',*,*,#768,.T.);
#854 = ORIENTED_EDGE('',*,*,#855,.T.);
#855 = EDGE_CURVE('',#771,#811,#856,.T.);
#856 = LINE('',#857,#858);
#857 = CARTESIAN_POINT('',(20.4,-0.25,0.6));
#858 = VECTOR('',#859,1.);
#859 = DIRECTION('',(1.,0.,0.));
#860 = ORIENTED_EDGE('',*,*,#808,.F.);
#861 = PLANE('',#862);
#862 = AXIS2_PLACEMENT_3D('',#863,#864,#865);
#863 = CARTESIAN_POINT('',(20.4,-0.25,-3.1));
#864 = DIRECTION('',(0.,1.,0.));
#865 = DIRECTION('',(0.,0.,1.));
#866 = ADVANCED_FACE('',(#867),#883,.T.);
#867 = FACE_BOUND('',#868,.T.);
#868 = EDGE_LOOP('',(#869,#875,#876,#882));
#869 = ORIENTED_EDGE('',*,*,#870,.F.);
#870 = EDGE_CURVE('',#779,#819,#871,.T.);
#871 = LINE('',#872,#873);
#872 = CARTESIAN_POINT('',(20.4,0.25,-3.1));
#873 = VECTOR('',#874,1.);
#874 = DIRECTION('',(1.,0.,0.));
#875 = ORIENTED_EDGE('',*,*,#786,.T.);
#876 = ORIENTED_EDGE('',*,*,#877,.T.);
#877 = EDGE_CURVE('',#787,#827,#878,.T.);
#878 = LINE('',#879,#880);
#879 = CARTESIAN_POINT('',(20.4,0.25,0.6));
#880 = VECTOR('',#881,1.);
#881 = DIRECTION('',(1.,0.,0.));
#882 = ORIENTED_EDGE('',*,*,#826,.F.);
#883 = PLANE('',#884);
#884 = AXIS2_PLACEMENT_3D('',#885,#886,#887);
#885 = CARTESIAN_POINT('',(20.4,0.25,-3.1));
#886 = DIRECTION('',(0.,1.,0.));
#887 = DIRECTION('',(0.,0.,1.));
#888 = ADVANCED_FACE('',(#889),#895,.F.);
#889 = FACE_BOUND('',#890,.F.);
#890 = EDGE_LOOP('',(#891,#892,#893,#894));
#891 = ORIENTED_EDGE('',*,*,#778,.F.);
#892 = ORIENTED_EDGE('',*,*,#848,.T.);
#893 = ORIENTED_EDGE('',*,*,#818,.T.);
#894 = ORIENTED_EDGE('',*,*,#870,.F.);
#895 = PLANE('',#896);
#896 = AXIS2_PLACEMENT_3D('',#897,#898,#899);
#897 = CARTESIAN_POINT('',(20.4,-0.25,-3.1));
#898 = DIRECTION('',(0.,0.,1.));
#899 = DIRECTION('',(1.,0.,0.));
#900 = ADVANCED_FACE('',(#901),#907,.T.);
#901 = FACE_BOUND('',#902,.T.);
#902 = EDGE_LOOP('',(#903,#904,#905,#906));
#903 = ORIENTED_EDGE('',*,*,#794,.F.);
#904 = ORIENTED_EDGE('',*,*,#855,.T.);
#905 = ORIENTED_EDGE('',*,*,#834,.T.);
#906 = ORIENTED_EDGE('',*,*,#877,.F.);
#907 = PLANE('',#908);
#908 = AXIS2_PLACEMENT_3D('',#909,#910,#911);
#909 = CARTESIAN_POINT('',(20.4,-0.25,0.6));
#910 = DIRECTION('',(0.,0.,1.));
#911 = DIRECTION('',(1.,0.,0.));
#912 = ( GEOMETRIC_REPRESENTATION_CONTEXT(3)
GLOBAL_UNCERTAINTY_ASSIGNED_CONTEXT((#916)) GLOBAL_UNIT_ASSIGNED_CONTEXT
((#913,#914,#915)) REPRESENTATION_CONTEXT('Context #1',
  '3D Context with UNIT and UNCERTAINTY') );
#913 = ( LENGTH_UNIT() NAMED_UNIT(*) SI_UNIT(.MILLI.,.METRE.) );
#914 = ( NAMED_UNIT(*) PLANE_ANGLE_UNIT() SI_UNIT($,.RADIAN.) );
#915 = ( NAMED_UNIT(*) SI_UNIT($,.STERADIAN.) SOLID_ANGLE_UNIT() );
#916 = UNCERTAINTY_MEASURE_WITH_UNIT(LENGTH_MEASURE(1.E-07),#913,
  'distance_accuracy_value','confusion accuracy');
#917 = CONTEXT_DEPENDENT_SHAPE_REPRESENTATION(#918,#920);
#918 = ( REPRESENTATION_RELATIONSHIP('','',#761,#10)
REPRESENTATION_RELATIONSHIP_WITH_TRANSFORMATION(#919)
SHAPE_REPRESENTATION_RELATIONSHIP() );
#919 = ITEM_DEFINED_TRANSFORMATION('','',#11,#23);
#920 = PRODUCT_DEFINITION_SHAPE('Placement','Placement of an item',#921
  );
#921 = NEXT_ASSEMBLY_USAGE_OCCURRENCE('47','negative_tail','',#5,#756,$
  );
#922 = PRODUCT_RELATED_PRODUCT_CATEGORY('part',$,(#758));
#923 = SHAPE_DEFINITION_REPRESENTATION(#924,#930);
#924 = PRODUCT_DEFINITION_SHAPE('','',#925);
#925 = PRODUCT_DEFINITION('design','',#926,#929);
#926 = PRODUCT_DEFINITION_FORMATION('','',#927);
#927 = PRODUCT('positive_spring','positive_spring','',(#928));
#928 = PRODUCT_CONTEXT('',#2,'mechanical');
#929 = PRODUCT_DEFINITION_CONTEXT('part definition',#2,'design');
#930 = ADVANCED_BREP_SHAPE_REPRESENTATION('',(#11,#931),#1081);
#931 = MANIFOLD_SOLID_BREP('',#932);
#932 = CLOSED_SHELL('',(#933,#973,#1013,#1035,#1057,#1069));
#933 = ADVANCED_FACE('',(#934),#968,.F.);
#934 = FACE_BOUND('',#935,.F.);
#935 = EDGE_LOOP('',(#936,#946,#954,#962));
#936 = ORIENTED_EDGE('',*,*,#937,.F.);
#937 = EDGE_CURVE('',#938,#940,#942,.T.);
#938 = VERTEX_POINT('',#939);
#939 = CARTESIAN_POINT('',(0.,-1.55,3.4));
#940 = VERTEX_POINT('',#941);
#941 = CARTESIAN_POINT('',(0.,-1.55,3.9));
#942 = LINE('',#943,#944);
#943 = CARTESIAN_POINT('',(0.,-1.55,3.4));
#944 = VECTOR('',#945,1.);
#945 = DIRECTION('',(0.,0.,1.));
#946 = ORIENTED_EDGE('',*,*,#947,.T.);
#947 = EDGE_CURVE('',#938,#948,#950,.T.);
#948 = VERTEX_POINT('',#949);
#949 = CARTESIAN_POINT('',(0.,1.55,3.4));
#950 = LINE('',#951,#952);
#951 = CARTESIAN_POINT('',(0.,-1.55,3.4));
#952 = VECTOR('',#953,1.);
#953 = DIRECTION('',(0.,1.,0.));
#954 = ORIENTED_EDGE('',*,*,#955,.T.);
#955 = EDGE_CURVE('',#948,#956,#958,.T.);
#956 = VERTEX_POINT('',#957);
#957 = CARTESIAN_POINT('',(0.,1.55,3.9));
#958 = LINE('',#959,#960);
#959 = CARTESIAN_POINT('',(0.,1.55,3.4));
#960 = VECTOR('',#961,1.);
#961 = DIRECTION('',(0.,0.,1.));
#962 = ORIENTED_EDGE('',*,*,#963,.F.);
#963 = EDGE_CURVE('',#940,#956,#964,.T.);
#964 = LINE('',#965,#966);
#965 = CARTESIAN_POINT('',(0.,-1.55,3.9));
#966 = VECTOR('',#967,1.);
#967 = DIRECTION('',(0.,1.,0.));
#968 = PLANE('',#969);
#969 = AXIS2_PLACEMENT_3D('',#970,#971,#972);
#970 = CARTESIAN_POINT('',(0.,-1.55,3.4));
#971 = DIRECTION('',(1.,0.,0.));
#972 = DIRECTION('',(0.,0.,1.));
#973 = ADVANCED_FACE('',(#974),#1008,.T.);
#974 = FACE_BOUND('',#975,.T.);
#975 = EDGE_LOOP('',(#976,#986,#994,#1002));
#976 = ORIENTED_EDGE('',*,*,#977,.F.);
#977 = EDGE_CURVE('',#978,#980,#982,.T.);
#978 = VERTEX_POINT('',#979);
#979 = CARTESIAN_POINT('',(18.,-1.55,3.4));
#980 = VERTEX_POINT('',#981);
#981 = CARTESIAN_POINT('',(18.,-1.55,3.9));
#982 = LINE('',#983,#984);
#983 = CARTESIAN_POINT('',(18.,-1.55,3.4));
#984 = VECTOR('',#985,1.);
#985 = DIRECTION('',(0.,0.,1.));
#986 = ORIENTED_EDGE('',*,*,#987,.T.);
#987 = EDGE_CURVE('',#978,#988,#990,.T.);
#988 = VERTEX_POINT('',#989);
#989 = CARTESIAN_POINT('',(18.,1.55,3.4));
#990 = LINE('',#991,#992);
#991 = CARTESIAN_POINT('',(18.,-1.55,3.4));
#992 = VECTOR('',#993,1.);
#993 = DIRECTION('',(0.,1.,0.));
#994 = ORIENTED_EDGE('',*,*,#995,.T.);
#995 = EDGE_CURVE('',#988,#996,#998,.T.);
#996 = VERTEX_POINT('',#997);
#997 = CARTESIAN_POINT('',(18.,1.55,3.9));
#998 = LINE('',#999,#1000);
#999 = CARTESIAN_POINT('',(18.,1.55,3.4));
#1000 = VECTOR('',#1001,1.);
#1001 = DIRECTION('',(0.,0.,1.));
#1002 = ORIENTED_EDGE('',*,*,#1003,.F.);
#1003 = EDGE_CURVE('',#980,#996,#1004,.T.);
#1004 = LINE('',#1005,#1006);
#1005 = CARTESIAN_POINT('',(18.,-1.55,3.9));
#1006 = VECTOR('',#1007,1.);
#1007 = DIRECTION('',(0.,1.,0.));
#1008 = PLANE('',#1009);
#1009 = AXIS2_PLACEMENT_3D('',#1010,#1011,#1012);
#1010 = CARTESIAN_POINT('',(18.,-1.55,3.4));
#1011 = DIRECTION('',(1.,0.,0.));
#1012 = DIRECTION('',(0.,0.,1.));
#1013 = ADVANCED_FACE('',(#1014),#1030,.F.);
#1014 = FACE_BOUND('',#1015,.F.);
#1015 = EDGE_LOOP('',(#1016,#1022,#1023,#1029));
#1016 = ORIENTED_EDGE('',*,*,#1017,.F.);
#1017 = EDGE_CURVE('',#938,#978,#1018,.T.);
#1018 = LINE('',#1019,#1020);
#1019 = CARTESIAN_POINT('',(0.,-1.55,3.4));
#1020 = VECTOR('',#1021,1.);
#1021 = DIRECTION('',(1.,0.,0.));
#1022 = ORIENTED_EDGE('',*,*,#937,.T.);
#1023 = ORIENTED_EDGE('',*,*,#1024,.T.);
#1024 = EDGE_CURVE('',#940,#980,#1025,.T.);
#1025 = LINE('',#1026,#1027);
#1026 = CARTESIAN_POINT('',(0.,-1.55,3.9));
#1027 = VECTOR('',#1028,1.);
#1028 = DIRECTION('',(1.,0.,0.));
#1029 = ORIENTED_EDGE('',*,*,#977,.F.);
#1030 = PLANE('',#1031);
#1031 = AXIS2_PLACEMENT_3D('',#1032,#1033,#1034);
#1032 = CARTESIAN_POINT('',(0.,-1.55,3.4));
#1033 = DIRECTION('',(0.,1.,0.));
#1034 = DIRECTION('',(0.,0.,1.));
#1035 = ADVANCED_FACE('',(#1036),#1052,.T.);
#1036 = FACE_BOUND('',#1037,.T.);
#1037 = EDGE_LOOP('',(#1038,#1044,#1045,#1051));
#1038 = ORIENTED_EDGE('',*,*,#1039,.F.);
#1039 = EDGE_CURVE('',#948,#988,#1040,.T.);
#1040 = LINE('',#1041,#1042);
#1041 = CARTESIAN_POINT('',(0.,1.55,3.4));
#1042 = VECTOR('',#1043,1.);
#1043 = DIRECTION('',(1.,0.,0.));
#1044 = ORIENTED_EDGE('',*,*,#955,.T.);
#1045 = ORIENTED_EDGE('',*,*,#1046,.T.);
#1046 = EDGE_CURVE('',#956,#996,#1047,.T.);
#1047 = LINE('',#1048,#1049);
#1048 = CARTESIAN_POINT('',(0.,1.55,3.9));
#1049 = VECTOR('',#1050,1.);
#1050 = DIRECTION('',(1.,0.,0.));
#1051 = ORIENTED_EDGE('',*,*,#995,.F.);
#1052 = PLANE('',#1053);
#1053 = AXIS2_PLACEMENT_3D('',#1054,#1055,#1056);
#1054 = CARTESIAN_POINT('',(0.,1.55,3.4));
#1055 = DIRECTION('',(0.,1.,0.));
#1056 = DIRECTION('',(0.,0.,1.));
#1057 = ADVANCED_FACE('',(#1058),#1064,.F.);
#1058 = FACE_BOUND('',#1059,.F.);
#1059 = EDGE_LOOP('',(#1060,#1061,#1062,#1063));
#1060 = ORIENTED_EDGE('',*,*,#947,.F.);
#1061 = ORIENTED_EDGE('',*,*,#1017,.T.);
#1062 = ORIENTED_EDGE('',*,*,#987,.T.);
#1063 = ORIENTED_EDGE('',*,*,#1039,.F.);
#1064 = PLANE('',#1065);
#1065 = AXIS2_PLACEMENT_3D('',#1066,#1067,#1068);
#1066 = CARTESIAN_POINT('',(0.,-1.55,3.4));
#1067 = DIRECTION('',(0.,0.,1.));
#1068 = DIRECTION('',(1.,0.,0.));
#1069 = ADVANCED_FACE('',(#1070),#1076,.T.);
#1070 = FACE_BOUND('',#1071,.T.);
#1071 = EDGE_LOOP('',(#1072,#1073,#1074,#1075));
#1072 = ORIENTED_EDGE('',*,*,#963,.F.);
#1073 = ORIENTED_EDGE('',*,*,#1024,.T.);
#1074 = ORIENTED_EDGE('',*,*,#1003,.T.);
#1075 = ORIENTED_EDGE('',*,*,#1046,.F.);
#1076 = PLANE('',#1077);
#1077 = AXIS2_PLACEMENT_3D('',#1078,#1079,#1080);
#1078 = CARTESIAN_POINT('',(0.,-1.55,3.9));
#1079 = DIRECTION('',(0.,0.,1.));
#1080 = DIRECTION('',(1.,0.,0.));
#1081 = ( GEOMETRIC_REPRESENTATION_CONTEXT(3)
GLOBAL_UNCERTAINTY_ASSIGNED_CONTEXT((#1085))
GLOBAL_UNIT_ASSIGNED_CONTEXT((#1082,#1083,#1084)) REPRESENTATION_CONTEXT
('Context #1','3D Context with UNIT and UNCERTAINTY') );
#1082 = ( LENGTH_UNIT() NAMED_UNIT(*) SI_UNIT(.MILLI.,.METRE.) );
#1083 = ( NAMED_UNIT(*) PLANE_ANGLE_UNIT() SI_UNIT($,.RADIAN.) );
#1084 = ( NAMED_UNIT(*) SI_UNIT($,.STERADIAN.) SOLID_ANGLE_UNIT() );
#1085 = UNCERTAINTY_MEASURE_WITH_UNIT(LENGTH_MEASURE(1.E-07),#1082,
  'distance_accuracy_value','confusion accuracy');
#1086 = CONTEXT_DEPENDENT_SHAPE_REPRESENTATION(#1087,#1089);
#1087 = ( REPRESENTATION_RELATIONSHIP('','',#930,#10)
REPRESENTATION_RELATIONSHIP_WITH_TRANSFORMATION(#1088)
SHAPE_REPRESENTATION_RELATIONSHIP() );
#1088 = ITEM_DEFINED_TRANSFORMATION('','',#11,#27);
#1089 = PRODUCT_DEFINITION_SHAPE('Placement','Placement of an item',
  #1090);
#1090 = NEXT_ASSEMBLY_USAGE_OCCURRENCE('48','positive_spring','',#5,#925
  ,$);
#1091 = PRODUCT_RELATED_PRODUCT_CATEGORY('part',$,(#927));
#1092 = SHAPE_DEFINITION_REPRESENTATION(#1093,#1099);
#1093 = PRODUCT_DEFINITION_SHAPE('','',#1094);
#1094 = PRODUCT_DEFINITION('design','',#1095,#1098);
#1095 = PRODUCT_DEFINITION_FORMATION('','',#1096);
#1096 = PRODUCT('negative_contact','negative_contact','',(#1097));
#1097 = PRODUCT_CONTEXT('',#2,'mechanical');
#1098 = PRODUCT_DEFINITION_CONTEXT('part definition',#2,'design');
#1099 = ADVANCED_BREP_SHAPE_REPRESENTATION('',(#11,#1100),#1250);
#1100 = MANIFOLD_SOLID_BREP('',#1101);
#1101 = CLOSED_SHELL('',(#1102,#1142,#1182,#1204,#1226,#1238));
#1102 = ADVANCED_FACE('',(#1103),#1137,.F.);
#1103 = FACE_BOUND('',#1104,.F.);
#1104 = EDGE_LOOP('',(#1105,#1115,#1123,#1131));
#1105 = ORIENTED_EDGE('',*,*,#1106,.F.);
#1106 = EDGE_CURVE('',#1107,#1109,#1111,.T.);
#1107 = VERTEX_POINT('',#1108);
#1108 = CARTESIAN_POINT('',(10.4,-2.5,1.));
#1109 = VERTEX_POINT('',#1110);
#1110 = CARTESIAN_POINT('',(10.4,-2.5,1.3));
#1111 = LINE('',#1112,#1113);
#1112 = CARTESIAN_POINT('',(10.4,-2.5,1.));
#1113 = VECTOR('',#1114,1.);
#1114 = DIRECTION('',(0.,0.,1.));
#1115 = ORIENTED_EDGE('',*,*,#1116,.T.);
#1116 = EDGE_CURVE('',#1107,#1117,#1119,.T.);
#1117 = VERTEX_POINT('',#1118);
#1118 = CARTESIAN_POINT('',(10.4,2.5,1.));
#1119 = LINE('',#1120,#1121);
#1120 = CARTESIAN_POINT('',(10.4,-2.5,1.));
#1121 = VECTOR('',#1122,1.);
#1122 = DIRECTION('',(0.,1.,0.));
#1123 = ORIENTED_EDGE('',*,*,#1124,.T.);
#1124 = EDGE_CURVE('',#1117,#1125,#1127,.T.);
#1125 = VERTEX_POINT('',#1126);
#1126 = CARTESIAN_POINT('',(10.4,2.5,1.3));
#1127 = LINE('',#1128,#1129);
#1128 = CARTESIAN_POINT('',(10.4,2.5,1.));
#1129 = VECTOR('',#1130,1.);
#1130 = DIRECTION('',(0.,0.,1.));
#1131 = ORIENTED_EDGE('',*,*,#1132,.F.);
#1132 = EDGE_CURVE('',#1109,#1125,#1133,.T.);
#1133 = LINE('',#1134,#1135);
#1134 = CARTESIAN_POINT('',(10.4,-2.5,1.3));
#1135 = VECTOR('',#1136,1.);
#1136 = DIRECTION('',(0.,1.,0.));
#1137 = PLANE('',#1138);
#1138 = AXIS2_PLACEMENT_3D('',#1139,#1140,#1141);
#1139 = CARTESIAN_POINT('',(10.4,-2.5,1.));
#1140 = DIRECTION('',(1.,0.,0.));
#1141 = DIRECTION('',(0.,0.,1.));
#1142 = ADVANCED_FACE('',(#1143),#1177,.T.);
#1143 = FACE_BOUND('',#1144,.T.);
#1144 = EDGE_LOOP('',(#1145,#1155,#1163,#1171));
#1145 = ORIENTED_EDGE('',*,*,#1146,.F.);
#1146 = EDGE_CURVE('',#1147,#1149,#1151,.T.);
#1147 = VERTEX_POINT('',#1148);
#1148 = CARTESIAN_POINT('',(21.4,-2.5,1.));
#1149 = VERTEX_POINT('',#1150);
#1150 = CARTESIAN_POINT('',(21.4,-2.5,1.3));
#1151 = LINE('',#1152,#1153);
#1152 = CARTESIAN_POINT('',(21.4,-2.5,1.));
#1153 = VECTOR('',#1154,1.);
#1154 = DIRECTION('',(0.,0.,1.));
#1155 = ORIENTED_EDGE('',*,*,#1156,.T.);
#1156 = EDGE_CURVE('',#1147,#1157,#1159,.T.);
#1157 = VERTEX_POINT('',#1158);
#1158 = CARTESIAN_POINT('',(21.4,2.5,1.));
#1159 = LINE('',#1160,#1161);
#1160 = CARTESIAN_POINT('',(21.4,-2.5,1.));
#1161 = VECTOR('',#1162,1.);
#1162 = DIRECTION('',(0.,1.,0.));
#1163 = ORIENTED_EDGE('',*,*,#1164,.T.);
#1164 = EDGE_CURVE('',#1157,#1165,#1167,.T.);
#1165 = VERTEX_POINT('',#1166);
#1166 = CARTESIAN_POINT('',(21.4,2.5,1.3));
#1167 = LINE('',#1168,#1169);
#1168 = CARTESIAN_POINT('',(21.4,2.5,1.));
#1169 = VECTOR('',#1170,1.);
#1170 = DIRECTION('',(0.,0.,1.));
#1171 = ORIENTED_EDGE('',*,*,#1172,.F.);
#1172 = EDGE_CURVE('',#1149,#1165,#1173,.T.);
#1173 = LINE('',#1174,#1175);
#1174 = CARTESIAN_POINT('',(21.4,-2.5,1.3));
#1175 = VECTOR('',#1176,1.);
#1176 = DIRECTION('',(0.,1.,0.));
#1177 = PLANE('',#1178);
#1178 = AXIS2_PLACEMENT_3D('',#1179,#1180,#1181);
#1179 = CARTESIAN_POINT('',(21.4,-2.5,1.));
#1180 = DIRECTION('',(1.,0.,0.));
#1181 = DIRECTION('',(0.,0.,1.));
#1182 = ADVANCED_FACE('',(#1183),#1199,.F.);
#1183 = FACE_BOUND('',#1184,.F.);
#1184 = EDGE_LOOP('',(#1185,#1191,#1192,#1198));
#1185 = ORIENTED_EDGE('',*,*,#1186,.F.);
#1186 = EDGE_CURVE('',#1107,#1147,#1187,.T.);
#1187 = LINE('',#1188,#1189);
#1188 = CARTESIAN_POINT('',(10.4,-2.5,1.));
#1189 = VECTOR('',#1190,1.);
#1190 = DIRECTION('',(1.,0.,0.));
#1191 = ORIENTED_EDGE('',*,*,#1106,.T.);
#1192 = ORIENTED_EDGE('',*,*,#1193,.T.);
#1193 = EDGE_CURVE('',#1109,#1149,#1194,.T.);
#1194 = LINE('',#1195,#1196);
#1195 = CARTESIAN_POINT('',(10.4,-2.5,1.3));
#1196 = VECTOR('',#1197,1.);
#1197 = DIRECTION('',(1.,0.,0.));
#1198 = ORIENTED_EDGE('',*,*,#1146,.F.);
#1199 = PLANE('',#1200);
#1200 = AXIS2_PLACEMENT_3D('',#1201,#1202,#1203);
#1201 = CARTESIAN_POINT('',(10.4,-2.5,1.));
#1202 = DIRECTION('',(0.,1.,0.));
#1203 = DIRECTION('',(0.,0.,1.));
#1204 = ADVANCED_FACE('',(#1205),#1221,.T.);
#1205 = FACE_BOUND('',#1206,.T.);
#1206 = EDGE_LOOP('',(#1207,#1213,#1214,#1220));
#1207 = ORIENTED_EDGE('',*,*,#1208,.F.);
#1208 = EDGE_CURVE('',#1117,#1157,#1209,.T.);
#1209 = LINE('',#1210,#1211);
#1210 = CARTESIAN_POINT('',(10.4,2.5,1.));
#1211 = VECTOR('',#1212,1.);
#1212 = DIRECTION('',(1.,0.,0.));
#1213 = ORIENTED_EDGE('',*,*,#1124,.T.);
#1214 = ORIENTED_EDGE('',*,*,#1215,.T.);
#1215 = EDGE_CURVE('',#1125,#1165,#1216,.T.);
#1216 = LINE('',#1217,#1218);
#1217 = CARTESIAN_POINT('',(10.4,2.5,1.3));
#1218 = VECTOR('',#1219,1.);
#1219 = DIRECTION('',(1.,0.,0.));
#1220 = ORIENTED_EDGE('',*,*,#1164,.F.);
#1221 = PLANE('',#1222);
#1222 = AXIS2_PLACEMENT_3D('',#1223,#1224,#1225);
#1223 = CARTESIAN_POINT('',(10.4,2.5,1.));
#1224 = DIRECTION('',(0.,1.,0.));
#1225 = DIRECTION('',(0.,0.,1.));
#1226 = ADVANCED_FACE('',(#1227),#1233,.F.);
#1227 = FACE_BOUND('',#1228,.F.);
#1228 = EDGE_LOOP('',(#1229,#1230,#1231,#1232));
#1229 = ORIENTED_EDGE('',*,*,#1116,.F.);
#1230 = ORIENTED_EDGE('',*,*,#1186,.T.);
#1231 = ORIENTED_EDGE('',*,*,#1156,.T.);
#1232 = ORIENTED_EDGE('',*,*,#1208,.F.);
#1233 = PLANE('',#1234);
#1234 = AXIS2_PLACEMENT_3D('',#1235,#1236,#1237);
#1235 = CARTESIAN_POINT('',(10.4,-2.5,1.));
#1236 = DIRECTION('',(0.,0.,1.));
#1237 = DIRECTION('',(1.,0.,0.));
#1238 = ADVANCED_FACE('',(#1239),#1245,.T.);
#1239 = FACE_BOUND('',#1240,.T.);
#1240 = EDGE_LOOP('',(#1241,#1242,#1243,#1244));
#1241 = ORIENTED_EDGE('',*,*,#1132,.F.);
#1242 = ORIENTED_EDGE('',*,*,#1193,.T.);
#1243 = ORIENTED_EDGE('',*,*,#1172,.T.);
#1244 = ORIENTED_EDGE('',*,*,#1215,.F.);
#1245 = PLANE('',#1246);
#1246 = AXIS2_PLACEMENT_3D('',#1247,#1248,#1249);
#1247 = CARTESIAN_POINT('',(10.4,-2.5,1.3));
#1248 = DIRECTION('',(0.,0.,1.));
#1249 = DIRECTION('',(1.,0.,0.));
#1250 = ( GEOMETRIC_REPRESENTATION_CONTEXT(3)
GLOBAL_UNCERTAINTY_ASSIGNED_CONTEXT((#1254))
GLOBAL_UNIT_ASSIGNED_CONTEXT((#1251,#1252,#1253)) REPRESENTATION_CONTEXT
('Context #1','3D Context with UNIT and UNCERTAINTY') );
#1251 = ( LENGTH_UNIT() NAMED_UNIT(*) SI_UNIT(.MILLI.,.METRE.) );
#1252 = ( NAMED_UNIT(*) PLANE_ANGLE_UNIT() SI_UNIT($,.RADIAN.) );
#1253 = ( NAMED_UNIT(*) SI_UNIT($,.STERADIAN.) SOLID_ANGLE_UNIT() );
#1254 = UNCERTAINTY_MEASURE_WITH_UNIT(LENGTH_MEASURE(1.E-07),#1251,
  'distance_accuracy_value','confusion accuracy');
#1255 = CONTEXT_DEPENDENT_SHAPE_REPRESENTATION(#1256,#1258);
#1256 = ( REPRESENTATION_RELATIONSHIP('','',#1099,#10)
REPRESENTATION_RELATIONSHIP_WITH_TRANSFORMATION(#1257)
SHAPE_REPRESENTATION_RELATIONSHIP() );
#1257 = ITEM_DEFINED_TRANSFORMATION('','',#11,#31);
#1258 = PRODUCT_DEFINITION_SHAPE('Placement','Placement of an item',
  #1259);
#1259 = NEXT_ASSEMBLY_USAGE_OCCURRENCE('49','negative_contact','',#5,
  #1094,$);
#1260 = PRODUCT_RELATED_PRODUCT_CATEGORY('part',$,(#1096));
#1261 = MECHANICAL_DESIGN_GEOMETRIC_PRESENTATION_REPRESENTATION('',(
    #1262),#743);
#1262 = STYLED_ITEM('color',(#1263),#593);
#1263 = PRESENTATION_STYLE_ASSIGNMENT((#1264));
#1264 = SURFACE_STYLE_USAGE(.BOTH.,#1265);
#1265 = SURFACE_SIDE_STYLE('',(#1266));
#1266 = SURFACE_STYLE_FILL_AREA(#1267);
#1267 = FILL_AREA_STYLE('',(#1268));
#1268 = FILL_AREA_STYLE_COLOUR('',#1269);
#1269 = COLOUR_RGB('',0.720000003324,0.729999995167,0.750000000934);
#1270 = MECHANICAL_DESIGN_GEOMETRIC_PRESENTATION_REPRESENTATION('',(
    #1271),#912);
#1271 = STYLED_ITEM('color',(#1272),#762);
#1272 = PRESENTATION_STYLE_ASSIGNMENT((#1273));
#1273 = SURFACE_STYLE_USAGE(.BOTH.,#1274);
#1274 = SURFACE_SIDE_STYLE('',(#1275));
#1275 = SURFACE_STYLE_FILL_AREA(#1276);
#1276 = FILL_AREA_STYLE('',(#1277));
#1277 = FILL_AREA_STYLE_COLOUR('',#1269);
#1278 = MECHANICAL_DESIGN_GEOMETRIC_PRESENTATION_REPRESENTATION('',(
    #1279),#1250);
#1279 = STYLED_ITEM('color',(#1280),#1100);
#1280 = PRESENTATION_STYLE_ASSIGNMENT((#1281));
#1281 = SURFACE_STYLE_USAGE(.BOTH.,#1282);
#1282 = SURFACE_SIDE_STYLE('',(#1283));
#1283 = SURFACE_STYLE_FILL_AREA(#1284);
#1284 = FILL_AREA_STYLE('',(#1285));
#1285 = FILL_AREA_STYLE_COLOUR('',#1269);
#1286 = MECHANICAL_DESIGN_GEOMETRIC_PRESENTATION_REPRESENTATION('',(
    #1287),#1081);
#1287 = STYLED_ITEM('color',(#1288),#931);
#1288 = PRESENTATION_STYLE_ASSIGNMENT((#1289));
#1289 = SURFACE_STYLE_USAGE(.BOTH.,#1290);
#1290 = SURFACE_SIDE_STYLE('',(#1291));
#1291 = SURFACE_STYLE_FILL_AREA(#1292);
#1292 = FILL_AREA_STYLE('',(#1293));
#1293 = FILL_AREA_STYLE_COLOUR('',#1269);
#1294 = MECHANICAL_DESIGN_GEOMETRIC_PRESENTATION_REPRESENTATION('',(
    #1295),#574);
#1295 = STYLED_ITEM('color',(#1296),#49);
#1296 = PRESENTATION_STYLE_ASSIGNMENT((#1297));
#1297 = SURFACE_STYLE_USAGE(.BOTH.,#1298);
#1298 = SURFACE_SIDE_STYLE('',(#1299));
#1299 = SURFACE_STYLE_FILL_AREA(#1300);
#1300 = FILL_AREA_STYLE('',(#1301));
#1301 = FILL_AREA_STYLE_COLOUR('',#1302);
#1302 = COLOUR_RGB('',8.999999692505E-02,8.999999692505E-02,
  9.999999991362E-02);
ENDSEC;
END-ISO-10303-21;
