ISO-10303-21;
HEADER;
FILE_DESCRIPTION(('Open CASCADE Model'),'2;1');
FILE_NAME('AMASS_XT60PW-M_1x02_P7.20mm_Horizontal.step','2026-09-30T00:00:00',('Author'),(
    'Open CASCADE'),'Open CASCADE STEP processor 7.8','Open CASCADE 7.8'
  ,'Unknown');
FILE_SCHEMA(('AUTOMOTIVE_DESIGN { 1 0 10303 214 1 1 1 1 }'));
ENDSEC;
DATA;
#1 = APPLICATION_PROTOCOL_DEFINITION('international standard',
  'automotive_design',2000,#2);
#2 = APPLICATION_CONTEXT(
  'core data for automotive mechanical design processes');
#3 = SHAPE_DEFINITION_REPRESENTATION(#4,#10);
#4 = PRODUCT_DEFINITION_SHAPE('','',#5);
#5 = PRODUCT_DEFINITION('design','',#6,#9);
#6 = PRODUCT_DEFINITION_FORMATION('','',#7);
#7 = PRODUCT('AMASS_XT60PW-M_1x02_P7.20mm_Horizontal',
  'AMASS_XT60PW-M_1x02_P7.20mm_Horizontal','',(#8));
#8 = PRODUCT_CONTEXT('',#2,'mechanical');
#9 = PRODUCT_DEFINITION_CONTEXT('part definition',#2,'design');
#10 = SHAPE_REPRESENTATION('',(#11,#15,#19,#23,#27,#31),#35);
#11 = AXIS2_PLACEMENT_3D('',#12,#13,#14);
#12 = CARTESIAN_POINT('',(0.,0.,0.));
#13 = DIRECTION('',(0.,0.,1.));
#14 = DIRECTION('',(1.,0.,-0.));
#15 = AXIS2_PLACEMENT_3D('',#16,#17,#18);
#16 = CARTESIAN_POINT('',(0.,0.,0.));
#17 = DIRECTION('',(0.,0.,1.));
#18 = DIRECTION('',(1.,0.,-0.));
#19 = AXIS2_PLACEMENT_3D('',#20,#21,#22);
#20 = CARTESIAN_POINT('',(0.,0.,0.));
#21 = DIRECTION('',(0.,0.,1.));
#22 = DIRECTION('',(1.,0.,-0.));
#23 = AXIS2_PLACEMENT_3D('',#24,#25,#26);
#24 = CARTESIAN_POINT('',(0.,0.,0.));
#25 = DIRECTION('',(0.,0.,1.));
#26 = DIRECTION('',(1.,0.,-0.));
#27 = AXIS2_PLACEMENT_3D('',#28,#29,#30);
#28 = CARTESIAN_POINT('',(0.,0.,0.));
#29 = DIRECTION('',(0.,0.,1.));
#30 = DIRECTION('',(1.,0.,-0.));
#31 = AXIS2_PLACEMENT_3D('',#32,#33,#34);
#32 = CARTESIAN_POINT('',(0.,0.,0.));
#33 = DIRECTION('',(0.,0.,1.));
#34 = DIRECTION('',(1.,0.,-0.));
#35 = ( GEOMETRIC_REPRESENTATION_CONTEXT(3)
GLOBAL_UNCERTAINTY_ASSIGNED_CONTEXT((#39)) GLOBAL_UNIT_ASSIGNED_CONTEXT(
(#36,#37,#38)) REPRESENTATION_CONTEXT('Context #1',
  '3D Context with UNIT and UNCERTAINTY') );
#36 = ( LENGTH_UNIT() NAMED_UNIT(*) SI_UNIT(.MILLI.,.METRE.) );
#37 = ( NAMED_UNIT(*) PLANE_ANGLE_UNIT() SI_UNIT($,.RADIAN.) );
#38 = ( NAMED_UNIT(*) SI_UNIT($,.STERADIAN.) SOLID_ANGLE_UNIT() );
#39 = UNCERTAINTY_MEASURE_WITH_UNIT(LENGTH_MEASURE(1.E-07),#36,
  'distance_accuracy_value','confusion accuracy');
#40 = PRODUCT_RELATED_PRODUCT_CATEGORY('part',$,(#7));
#41 = SHAPE_DEFINITION_REPRESENTATION(#42,#48);
#42 = PRODUCT_DEFINITION_SHAPE('','',#43);
#43 = PRODUCT_DEFINITION('design','',#44,#47);
#44 = PRODUCT_DEFINITION_FORMATION('','',#45);
#45 = PRODUCT('contact_1','contact_1','',(#46));
#46 = PRODUCT_CONTEXT('',#2,'mechanical');
#47 = PRODUCT_DEFINITION_CONTEXT('part definition',#2,'design');
#48 = ADVANCED_BREP_SHAPE_REPRESENTATION('',(#11,#49),#259);
#49 = MANIFOLD_SOLID_BREP('',#50);
#50 = CLOSED_SHELL('',(#51,#172,#181,#213,#223,#250));
#51 = ADVANCED_FACE('',(#52),#167,.T.);
#52 = FACE_BOUND('',#53,.F.);
#53 = EDGE_LOOP('',(#54,#63,#71,#143,#151,#160,#166));
#54 = ORIENTED_EDGE('',*,*,#55,.F.);
#55 = EDGE_CURVE('',#56,#56,#58,.T.);
#56 = VERTEX_POINT('',#57);
#57 = CARTESIAN_POINT('',(1.35,0.,-3.));
#58 = CIRCLE('',#59,1.35);
#59 = AXIS2_PLACEMENT_3D('',#60,#61,#62);
#60 = CARTESIAN_POINT('',(0.,0.,-3.));
#61 = DIRECTION('',(0.,0.,1.));
#62 = DIRECTION('',(1.,0.,0.));
#63 = ORIENTED_EDGE('',*,*,#64,.T.);
#64 = EDGE_CURVE('',#56,#65,#67,.T.);
#65 = VERTEX_POINT('',#66);
#66 = CARTESIAN_POINT('',(1.35,0.,3.086447127434));
#67 = LINE('',#68,#69);
#68 = CARTESIAN_POINT('',(1.35,0.,-3.));
#69 = VECTOR('',#70,1.);
#70 = DIRECTION('',(0.,0.,1.));
#71 = ORIENTED_EDGE('',*,*,#72,.T.);
#72 = EDGE_CURVE('',#65,#73,#75,.T.);
#73 = VERTEX_POINT('',#74);
#74 = CARTESIAN_POINT('',(-1.35,0.,3.086447127434));
#75 = B_SPLINE_CURVE_WITH_KNOTS('',6,(#76,#77,#78,#79,#80,#81,#82,#83,
    #84,#85,#86,#87,#88,#89,#90,#91,#92,#93,#94,#95,#96,#97,#98,#99,#100
    ,#101,#102,#103,#104,#105,#106,#107,#108,#109,#110,#111,#112,#113,
    #114,#115,#116,#117,#118,#119,#120,#121,#122,#123,#124,#125,#126,
    #127,#128,#129,#130,#131,#132,#133,#134,#135,#136,#137,#138,#139,
    #140,#141,#142),.UNSPECIFIED.,.F.,.F.,(7,5,5,5,5,5,5,5,5,5,5,5,5,7),
  (0.,9.106915636956E-02,0.215157060764,0.325789338084,0.375923363393,
    0.421831229909,0.49990353757,0.579556397914,0.624675408095,
    0.675472710222,0.785449616759,0.907981897764,0.960283217825,1.),
  .UNSPECIFIED.);
#76 = CARTESIAN_POINT('',(1.35,-3.306546634329E-16,3.086447127434));
#77 = CARTESIAN_POINT('',(1.35,6.35235049386E-02,3.086447127434));
#78 = CARTESIAN_POINT('',(1.346413151322,0.126789410693,3.082098735971)
  );
#79 = CARTESIAN_POINT('',(1.339293814975,0.189534118133,3.073467371786)
  );
#80 = CARTESIAN_POINT('',(1.328724511588,0.251460551615,3.0608686128));
#81 = CARTESIAN_POINT('',(1.314841659343,0.312170390545,3.044871065294)
  );
#82 = CARTESIAN_POINT('',(1.27502215335,0.451439172699,3.000837440736));
#83 = CARTESIAN_POINT('',(1.246427054641,0.528884253694,2.970414331425)
  );
#84 = CARTESIAN_POINT('',(1.212550129878,0.60347253776,2.936336048961));
#85 = CARTESIAN_POINT('',(1.173567905436,0.675141807788,2.899846759409)
  );
#86 = CARTESIAN_POINT('',(1.129594494027,0.74377907476,2.86194091122));
#87 = CARTESIAN_POINT('',(1.036843708551,0.86762534077,2.789133624927));
#88 = CARTESIAN_POINT('',(0.989072153852,0.923525963756,2.754327254084)
  );
#89 = CARTESIAN_POINT('',(0.937196443429,0.976837085855,2.719624205052)
  );
#90 = CARTESIAN_POINT('',(0.881114107226,1.027349192675,2.685568036665)
  );
#91 = CARTESIAN_POINT('',(0.820705644605,1.07473969271,2.652708843249));
#92 = CARTESIAN_POINT('',(0.726489859049,1.138406735559,2.607588720205)
  );
#93 = CARTESIAN_POINT('',(0.696201232161,1.157525562503,2.593890232911)
  );
#94 = CARTESIAN_POINT('',(0.665007808898,1.175858195828,2.580626454862)
  );
#95 = CARTESIAN_POINT('',(0.632915517267,1.193350878614,2.567860910715)
  );
#96 = CARTESIAN_POINT('',(0.599933021,1.209946924968,2.55565789807));
#97 = CARTESIAN_POINT('',(0.535064831582,1.239908123901,2.533482851758)
  );
#98 = CARTESIAN_POINT('',(0.503317727311,1.25342919202,2.523408264401));
#99 = CARTESIAN_POINT('',(0.470860587754,1.26609394985,2.513916442258));
#100 = CARTESIAN_POINT('',(0.437726384932,1.277848935591,2.505062057678)
  );
#101 = CARTESIAN_POINT('',(0.403950881871,1.288643200184,2.496896738496)
  );
#102 = CARTESIAN_POINT('',(0.311107941108,1.315069156737,2.476837346762)
  );
#103 = CARTESIAN_POINT('',(0.250826765614,1.328812013599,2.466322889243)
  );
#104 = CARTESIAN_POINT('',(0.189135497563,1.339340670645,2.458223232163)
  );
#105 = CARTESIAN_POINT('',(0.126467917288,1.346441322802,2.452745087811)
  );
#106 = CARTESIAN_POINT('',(6.32725463745E-02,1.35,2.45));
#107 = CARTESIAN_POINT('',(-6.455348190584E-02,1.35,2.45));
#108 = CARTESIAN_POINT('',(-0.129018973952,1.346295760164,2.45285734389)
  );
#109 = CARTESIAN_POINT('',(-0.192922335907,1.338906719359,2.458558032242
    ));
#110 = CARTESIAN_POINT('',(-0.255791926796,1.327955908066,2.466981487062
    ));
#111 = CARTESIAN_POINT('',(-0.317172315799,1.313672851989,2.477905449428
    ));
#112 = CARTESIAN_POINT('',(-0.410322062882,1.286610348763,2.498434388632
    ));
#113 = CARTESIAN_POINT('',(-0.443417460149,1.27585638881,2.506563600966)
  );
#114 = CARTESIAN_POINT('',(-0.475888555178,1.264180787797,2.515352101807
    ));
#115 = CARTESIAN_POINT('',(-0.507702328499,1.25163192749,2.524750768722)
  );
#116 = CARTESIAN_POINT('',(-0.538828370946,1.238260379423,2.534707769158
    ));
#117 = CARTESIAN_POINT('',(-0.603476602874,1.208197705588,2.556945857276
    ));
#118 = CARTESIAN_POINT('',(-0.636810702264,1.191299085503,2.569362955874
    ));
#119 = CARTESIAN_POINT('',(-0.669229941997,1.173484798334,2.582352306231
    ));
#120 = CARTESIAN_POINT('',(-0.700725910579,1.154813421616,2.595847230184
    ));
#121 = CARTESIAN_POINT('',(-0.731293024843,1.135340356726,2.609781921415
    ));
#122 = CARTESIAN_POINT('',(-0.825089834585,1.071335758555,2.655071775542
    ));
#123 = CARTESIAN_POINT('',(-0.88488089999,1.024043016503,2.687807969349)
  );
#124 = CARTESIAN_POINT('',(-0.940402307191,0.973682232891,2.721700742498
    ));
#125 = CARTESIAN_POINT('',(-0.991771872939,0.920565852566,2.756210973043
    ));
#126 = CARTESIAN_POINT('',(-1.039089708473,0.864896223633,2.790804823144
    ));
#127 = CARTESIAN_POINT('',(-1.130661687,0.742041032383,2.862885201034));
#128 = CARTESIAN_POINT('',(-1.173987458468,0.674215647052,2.900280606407
    ));
#129 = CARTESIAN_POINT('',(-1.212445082914,0.603435535627,2.936281959688
    ));
#130 = CARTESIAN_POINT('',(-1.245925339721,0.529808114638,2.96993050867)
  );
#131 = CARTESIAN_POINT('',(-1.274257846931,0.453392760577,3.000030888715
    ));
#132 = CARTESIAN_POINT('',(-1.306864409301,0.340358564922,3.036034123888
    ));
#133 = CARTESIAN_POINT('',(-1.315619406309,0.306036289016,3.045916874954
    ));
#134 = CARTESIAN_POINT('',(-1.323330645783,0.271270961325,3.054788693174
    ));
#135 = CARTESIAN_POINT('',(-1.329965357472,0.236117450388,3.062539255263
    ));
#136 = CARTESIAN_POINT('',(-1.335497345801,0.200620099808,3.069073952992
    ));
#137 = CARTESIAN_POINT('',(-1.343246480733,0.137620744112,3.078297754051
    ));
#138 = CARTESIAN_POINT('',(-1.345939285134,0.11026237949,3.081532113463)
  );
#139 = CARTESIAN_POINT('',(-1.347967459744,8.278085183628E-02,
    3.083982938333));
#140 = CARTESIAN_POINT('',(-1.349322471386,5.52174578944E-02,
    3.085625515419));
#141 = CARTESIAN_POINT('',(-1.350000012272,2.761132278423E-02,
    3.086447142312));
#142 = CARTESIAN_POINT('',(-1.35,-6.000000004589E-07,3.086447127434));
#143 = ORIENTED_EDGE('',*,*,#144,.F.);
#144 = EDGE_CURVE('',#145,#73,#147,.T.);
#145 = VERTEX_POINT('',#146);
#146 = CARTESIAN_POINT('',(-1.35,1.653273178849E-16,4.2));
#147 = LINE('',#148,#149);
#148 = CARTESIAN_POINT('',(-1.35,0.,-3.));
#149 = VECTOR('',#150,1.);
#150 = DIRECTION('',(-0.,-0.,-1.));
#151 = ORIENTED_EDGE('',*,*,#152,.T.);
#152 = EDGE_CURVE('',#145,#153,#155,.T.);
#153 = VERTEX_POINT('',#154);
#154 = CARTESIAN_POINT('',(1.35,0.,4.2));
#155 = CIRCLE('',#156,1.35);
#156 = AXIS2_PLACEMENT_3D('',#157,#158,#159);
#157 = CARTESIAN_POINT('',(0.,0.,4.2));
#158 = DIRECTION('',(0.,0.,1.));
#159 = DIRECTION('',(1.,0.,0.));
#160 = ORIENTED_EDGE('',*,*,#161,.F.);
#161 = EDGE_CURVE('',#65,#153,#162,.T.);
#162 = LINE('',#163,#164);
#163 = CARTESIAN_POINT('',(1.35,0.,-3.));
#164 = VECTOR('',#165,1.);
#165 = DIRECTION('',(0.,0.,1.));
#166 = ORIENTED_EDGE('',*,*,#64,.F.);
#167 = CYLINDRICAL_SURFACE('',#168,1.35);
#168 = AXIS2_PLACEMENT_3D('',#169,#170,#171);
#169 = CARTESIAN_POINT('',(0.,0.,-3.));
#170 = DIRECTION('',(-0.,-0.,-1.));
#171 = DIRECTION('',(1.,0.,0.));
#172 = ADVANCED_FACE('',(#173),#176,.F.);
#173 = FACE_BOUND('',#174,.F.);
#174 = EDGE_LOOP('',(#175));
#175 = ORIENTED_EDGE('',*,*,#55,.T.);
#176 = PLANE('',#177);
#177 = AXIS2_PLACEMENT_3D('',#178,#179,#180);
#178 = CARTESIAN_POINT('',(3.165370677175E-17,-5.510910596163E-17,-3.));
#179 = DIRECTION('',(0.,0.,1.));
#180 = DIRECTION('',(1.,0.,-0.));
#181 = ADVANCED_FACE('',(#182),#208,.F.);
#182 = FACE_BOUND('',#183,.F.);
#183 = EDGE_LOOP('',(#184,#193,#200,#201,#207));
#184 = ORIENTED_EDGE('',*,*,#185,.T.);
#185 = EDGE_CURVE('',#73,#186,#188,.T.);
#186 = VERTEX_POINT('',#187);
#187 = CARTESIAN_POINT('',(-4.286263797016E-16,0.,5.95));
#188 = CIRCLE('',#189,1.75);
#189 = AXIS2_PLACEMENT_3D('',#190,#191,#192);
#190 = CARTESIAN_POINT('',(0.,0.,4.2));
#191 = DIRECTION('',(0.,1.,0.));
#192 = DIRECTION('',(0.,-0.,1.));
#193 = ORIENTED_EDGE('',*,*,#194,.T.);
#194 = EDGE_CURVE('',#186,#65,#195,.T.);
#195 = CIRCLE('',#196,1.75);
#196 = AXIS2_PLACEMENT_3D('',#197,#198,#199);
#197 = CARTESIAN_POINT('',(0.,0.,4.2));
#198 = DIRECTION('',(0.,1.,0.));
#199 = DIRECTION('',(0.,-0.,1.));
#200 = ORIENTED_EDGE('',*,*,#161,.T.);
#201 = ORIENTED_EDGE('',*,*,#202,.T.);
#202 = EDGE_CURVE('',#153,#145,#203,.T.);
#203 = LINE('',#204,#205);
#204 = CARTESIAN_POINT('',(1.582685338587E-17,0.,4.2));
#205 = VECTOR('',#206,1.);
#206 = DIRECTION('',(-1.,0.,0.));
#207 = ORIENTED_EDGE('',*,*,#144,.T.);
#208 = PLANE('',#209);
#209 = AXIS2_PLACEMENT_3D('',#210,#211,#212);
#210 = CARTESIAN_POINT('',(0.,0.,4.2));
#211 = DIRECTION('',(0.,1.,0.));
#212 = DIRECTION('',(0.,-0.,1.));
#213 = ADVANCED_FACE('',(#214),#218,.T.);
#214 = FACE_BOUND('',#215,.T.);
#215 = EDGE_LOOP('',(#216,#217));
#216 = ORIENTED_EDGE('',*,*,#152,.T.);
#217 = ORIENTED_EDGE('',*,*,#202,.T.);
#218 = PLANE('',#219);
#219 = AXIS2_PLACEMENT_3D('',#220,#221,#222);
#220 = CARTESIAN_POINT('',(3.165370677175E-17,-5.510910596163E-17,4.2));
#221 = DIRECTION('',(0.,0.,1.));
#222 = DIRECTION('',(1.,0.,-0.));
#223 = ADVANCED_FACE('',(#224),#245,.T.);
#224 = FACE_BOUND('',#225,.T.);
#225 = EDGE_LOOP('',(#226,#234,#241,#242,#243,#244));
#226 = ORIENTED_EDGE('',*,*,#227,.T.);
#227 = EDGE_CURVE('',#186,#228,#230,.T.);
#228 = VERTEX_POINT('',#229);
#229 = CARTESIAN_POINT('',(-4.286263797016E-16,15.,5.95));
#230 = LINE('',#231,#232);
#231 = CARTESIAN_POINT('',(-4.286263797016E-16,0.,5.95));
#232 = VECTOR('',#233,1.);
#233 = DIRECTION('',(0.,1.,0.));
#234 = ORIENTED_EDGE('',*,*,#235,.F.);
#235 = EDGE_CURVE('',#228,#228,#236,.T.);
#236 = CIRCLE('',#237,1.75);
#237 = AXIS2_PLACEMENT_3D('',#238,#239,#240);
#238 = CARTESIAN_POINT('',(0.,15.,4.2));
#239 = DIRECTION('',(0.,1.,0.));
#240 = DIRECTION('',(0.,-0.,1.));
#241 = ORIENTED_EDGE('',*,*,#227,.F.);
#242 = ORIENTED_EDGE('',*,*,#194,.T.);
#243 = ORIENTED_EDGE('',*,*,#72,.T.);
#244 = ORIENTED_EDGE('',*,*,#185,.T.);
#245 = CYLINDRICAL_SURFACE('',#246,1.75);
#246 = AXIS2_PLACEMENT_3D('',#247,#248,#249);
#247 = CARTESIAN_POINT('',(0.,0.,4.2));
#248 = DIRECTION('',(0.,1.,0.));
#249 = DIRECTION('',(0.,-0.,1.));
#250 = ADVANCED_FACE('',(#251),#254,.T.);
#251 = FACE_BOUND('',#252,.T.);
#252 = EDGE_LOOP('',(#253));
#253 = ORIENTED_EDGE('',*,*,#235,.T.);
#254 = PLANE('',#255);
#255 = AXIS2_PLACEMENT_3D('',#256,#257,#258);
#256 = CARTESIAN_POINT('',(0.,15.,4.2));
#257 = DIRECTION('',(0.,1.,0.));
#258 = DIRECTION('',(0.,-0.,1.));
#259 = ( GEOMETRIC_REPRESENTATION_CONTEXT(3)
GLOBAL_UNCERTAINTY_ASSIGNED_CONTEXT((#263)) GLOBAL_UNIT_ASSIGNED_CONTEXT
((#260,#261,#262)) REPRESENTATION_CONTEXT('Context #1',
  '3D Context with UNIT and UNCERTAINTY') );
#260 = ( LENGTH_UNIT() NAMED_UNIT(*) SI_UNIT(.MILLI.,.METRE.) );
#261 = ( NAMED_UNIT(*) PLANE_ANGLE_UNIT() SI_UNIT($,.RADIAN.) );
#262 = ( NAMED_UNIT(*) SI_UNIT($,.STERADIAN.) SOLID_ANGLE_UNIT() );
#263 = UNCERTAINTY_MEASURE_WITH_UNIT(LENGTH_MEASURE(1.E-07),#260,
  'distance_accuracy_value','confusion accuracy');
#264 = CONTEXT_DEPENDENT_SHAPE_REPRESENTATION(#265,#267);
#265 = ( REPRESENTATION_RELATIONSHIP('','',#48,#10)
REPRESENTATION_RELATIONSHIP_WITH_TRANSFORMATION(#266)
SHAPE_REPRESENTATION_RELATIONSHIP() );
#266 = ITEM_DEFINED_TRANSFORMATION('','',#11,#15);
#267 = PRODUCT_DEFINITION_SHAPE('Placement','Placement of an item',#268
  );
#268 = NEXT_ASSEMBLY_USAGE_OCCURRENCE('1','contact_1','',#5,#43,$);
#269 = PRODUCT_RELATED_PRODUCT_CATEGORY('part',$,(#45));
#270 = SHAPE_DEFINITION_REPRESENTATION(#271,#277);
#271 = PRODUCT_DEFINITION_SHAPE('','',#272);
#272 = PRODUCT_DEFINITION('design','',#273,#276);
#273 = PRODUCT_DEFINITION_FORMATION('','',#274);
#274 = PRODUCT('contact_2','contact_2','',(#275));
#275 = PRODUCT_CONTEXT('',#2,'mechanical');
#276 = PRODUCT_DEFINITION_CONTEXT('part definition',#2,'design');
#277 = ADVANCED_BREP_SHAPE_REPRESENTATION('',(#11,#278),#488);
#278 = MANIFOLD_SOLID_BREP('',#279);
#279 = CLOSED_SHELL('',(#280,#401,#410,#442,#452,#479));
#280 = ADVANCED_FACE('',(#281),#396,.T.);
#281 = FACE_BOUND('',#282,.F.);
#282 = EDGE_LOOP('',(#283,#292,#300,#372,#380,#389,#395));
#283 = ORIENTED_EDGE('',*,*,#284,.F.);
#284 = EDGE_CURVE('',#285,#285,#287,.T.);
#285 = VERTEX_POINT('',#286);
#286 = CARTESIAN_POINT('',(8.55,0.,-3.));
#287 = CIRCLE('',#288,1.35);
#288 = AXIS2_PLACEMENT_3D('',#289,#290,#291);
#289 = CARTESIAN_POINT('',(7.2,0.,-3.));
#290 = DIRECTION('',(0.,0.,1.));
#291 = DIRECTION('',(1.,0.,0.));
#292 = ORIENTED_EDGE('',*,*,#293,.T.);
#293 = EDGE_CURVE('',#285,#294,#296,.T.);
#294 = VERTEX_POINT('',#295);
#295 = CARTESIAN_POINT('',(8.55,0.,3.086447127434));
#296 = LINE('',#297,#298);
#297 = CARTESIAN_POINT('',(8.55,0.,-3.));
#298 = VECTOR('',#299,1.);
#299 = DIRECTION('',(0.,0.,1.));
#300 = ORIENTED_EDGE('',*,*,#301,.T.);
#301 = EDGE_CURVE('',#294,#302,#304,.T.);
#302 = VERTEX_POINT('',#303);
#303 = CARTESIAN_POINT('',(5.85,0.,3.086447127434));
#304 = B_SPLINE_CURVE_WITH_KNOTS('',6,(#305,#306,#307,#308,#309,#310,
    #311,#312,#313,#314,#315,#316,#317,#318,#319,#320,#321,#322,#323,
    #324,#325,#326,#327,#328,#329,#330,#331,#332,#333,#334,#335,#336,
    #337,#338,#339,#340,#341,#342,#343,#344,#345,#346,#347,#348,#349,
    #350,#351,#352,#353,#354,#355,#356,#357,#358,#359,#360,#361,#362,
    #363,#364,#365,#366,#367,#368,#369,#370,#371),.UNSPECIFIED.,.F.,.F.,
  (7,5,5,5,5,5,5,5,5,5,5,5,5,7),(0.,9.106912921356E-02,0.215156996606,
    0.325789240937,0.375923243807,0.421831093477,0.499903393338,
    0.579556245825,0.624675262541,0.675472583016,0.785449529098,
    0.907981854162,0.960283193029,1.),.UNSPECIFIED.);
#305 = CARTESIAN_POINT('',(8.55,-3.306546634329E-16,3.086447127434));
#306 = CARTESIAN_POINT('',(8.55,6.352350493861E-02,3.086447127434));
#307 = CARTESIAN_POINT('',(8.546413151321,0.126789410693,3.082098735971)
  );
#308 = CARTESIAN_POINT('',(8.539293814975,0.189534118133,3.073467371786)
  );
#309 = CARTESIAN_POINT('',(8.528724511588,0.251460551615,3.0608686128));
#310 = CARTESIAN_POINT('',(8.514841659343,0.312170390545,3.044871065294)
  );
#311 = CARTESIAN_POINT('',(8.47502215335,0.451439172699,3.000837440736)
  );
#312 = CARTESIAN_POINT('',(8.446427054641,0.528884253694,2.970414331425)
  );
#313 = CARTESIAN_POINT('',(8.412550129878,0.60347253776,2.936336048961)
  );
#314 = CARTESIAN_POINT('',(8.373567905436,0.675141807788,2.899846759409)
  );
#315 = CARTESIAN_POINT('',(8.329594494027,0.74377907476,2.86194091122));
#316 = CARTESIAN_POINT('',(8.236843708551,0.86762534077,2.789133624927)
  );
#317 = CARTESIAN_POINT('',(8.189072153852,0.923525963756,2.754327254084)
  );
#318 = CARTESIAN_POINT('',(8.137196443429,0.976837085855,2.719624205052)
  );
#319 = CARTESIAN_POINT('',(8.081114107226,1.027349192675,2.685568036665)
  );
#320 = CARTESIAN_POINT('',(8.020705644605,1.07473969271,2.652708843249)
  );
#321 = CARTESIAN_POINT('',(7.926489863438,1.138406732593,2.607588722307)
  );
#322 = CARTESIAN_POINT('',(7.896201230439,1.157525563064,2.593890232471)
  );
#323 = CARTESIAN_POINT('',(7.865007803999,1.175858198585,2.580626452869)
  );
#324 = CARTESIAN_POINT('',(7.83291551639,1.193350879535,2.567860910084)
  );
#325 = CARTESIAN_POINT('',(7.799933026446,1.209946922452,2.555657899932)
  );
#326 = CARTESIAN_POINT('',(7.735064824094,1.239908127359,2.533482849199)
  );
#327 = CARTESIAN_POINT('',(7.703317730181,1.253429191525,2.523408264794)
  );
#328 = CARTESIAN_POINT('',(7.670860596044,1.266093946779,2.513916444555)
  );
#329 = CARTESIAN_POINT('',(7.637726386448,1.277848934419,2.505062058532)
  );
#330 = CARTESIAN_POINT('',(7.603950872691,1.288643202797,2.496896736512)
  );
#331 = CARTESIAN_POINT('',(7.511107941108,1.315069156737,2.476837346762)
  );
#332 = CARTESIAN_POINT('',(7.450826765614,1.328812013599,2.466322889243)
  );
#333 = CARTESIAN_POINT('',(7.389135497563,1.339340670645,2.458223232163)
  );
#334 = CARTESIAN_POINT('',(7.326467917288,1.346441322802,2.452745087811)
  );
#335 = CARTESIAN_POINT('',(7.263272546374,1.35,2.45));
#336 = CARTESIAN_POINT('',(7.135446518012,1.35,2.45));
#337 = CARTESIAN_POINT('',(7.070981026069,1.346295760155,2.452857343897)
  );
#338 = CARTESIAN_POINT('',(7.00707766417,1.338906719369,2.458558032234)
  );
#339 = CARTESIAN_POINT('',(6.944208073226,1.327955908081,2.466981487051)
  );
#340 = CARTESIAN_POINT('',(6.882827684134,1.31367285197,2.477905449443)
  );
#341 = CARTESIAN_POINT('',(6.789677928954,1.286610346392,2.498434390432)
  );
#342 = CARTESIAN_POINT('',(6.756582541181,1.275856389843,2.506563600214)
  );
#343 = CARTESIAN_POINT('',(6.724111452174,1.264180790556,2.515352099745)
  );
#344 = CARTESIAN_POINT('',(6.692297674056,1.251631927953,2.524750768356)
  );
#345 = CARTESIAN_POINT('',(6.661171622421,1.238260376339,2.53470777144)
  );
#346 = CARTESIAN_POINT('',(6.596523397186,1.208197705616,2.556945857256)
  );
#347 = CARTESIAN_POINT('',(6.563189297727,1.191299085493,2.569362955881)
  );
#348 = CARTESIAN_POINT('',(6.530770057949,1.173484798304,2.582352306254)
  );
#349 = CARTESIAN_POINT('',(6.499274089402,1.15481342161,2.595847230189)
  );
#350 = CARTESIAN_POINT('',(6.468706975205,1.135340356759,2.609781921392)
  );
#351 = CARTESIAN_POINT('',(6.374910165415,1.071335758555,2.655071775542)
  );
#352 = CARTESIAN_POINT('',(6.31511910001,1.024043016503,2.687807969349)
  );
#353 = CARTESIAN_POINT('',(6.259597692809,0.973682232891,2.721700742498)
  );
#354 = CARTESIAN_POINT('',(6.208228127061,0.920565852566,2.756210973043)
  );
#355 = CARTESIAN_POINT('',(6.160910291527,0.864896223633,2.790804823144)
  );
#356 = CARTESIAN_POINT('',(6.069338313,0.742041032383,2.862885201034));
#357 = CARTESIAN_POINT('',(6.026012541532,0.674215647052,2.900280606407)
  );
#358 = CARTESIAN_POINT('',(5.987554917086,0.603435535627,2.936281959688)
  );
#359 = CARTESIAN_POINT('',(5.954074660278,0.529808114638,2.96993050867)
  );
#360 = CARTESIAN_POINT('',(5.925742153069,0.453392760577,3.000030888715)
  );
#361 = CARTESIAN_POINT('',(5.893135590699,0.340358564922,3.036034123888)
  );
#362 = CARTESIAN_POINT('',(5.884380593691,0.306036289017,3.045916874954)
  );
#363 = CARTESIAN_POINT('',(5.876669354217,0.271270961325,3.054788693174)
  );
#364 = CARTESIAN_POINT('',(5.870034642528,0.236117450388,3.062539255264)
  );
#365 = CARTESIAN_POINT('',(5.864502654199,0.200620099808,3.069073952992)
  );
#366 = CARTESIAN_POINT('',(5.856753518382,0.137620736912,3.078297755105)
  );
#367 = CARTESIAN_POINT('',(5.85406071463,0.110262381454,3.081532113743)
  );
#368 = CARTESIAN_POINT('',(5.8520325407,8.27808590936E-02,3.083982937803
    ));
#369 = CARTESIAN_POINT('',(5.850677529087,5.521745983846E-02,
    3.085625514855));
#370 = CARTESIAN_POINT('',(5.849999987728,2.76113155608E-02,
    3.086447142312));
#371 = CARTESIAN_POINT('',(5.85,-6.000000004589E-07,3.086447127434));
#372 = ORIENTED_EDGE('',*,*,#373,.F.);
#373 = EDGE_CURVE('',#374,#302,#376,.T.);
#374 = VERTEX_POINT('',#375);
#375 = CARTESIAN_POINT('',(5.85,1.653273178849E-16,4.2));
#376 = LINE('',#377,#378);
#377 = CARTESIAN_POINT('',(5.85,0.,-3.));
#378 = VECTOR('',#379,1.);
#379 = DIRECTION('',(-0.,-0.,-1.));
#380 = ORIENTED_EDGE('',*,*,#381,.T.);
#381 = EDGE_CURVE('',#374,#382,#384,.T.);
#382 = VERTEX_POINT('',#383);
#383 = CARTESIAN_POINT('',(8.55,0.,4.2));
#384 = CIRCLE('',#385,1.35);
#385 = AXIS2_PLACEMENT_3D('',#386,#387,#388);
#386 = CARTESIAN_POINT('',(7.2,0.,4.2));
#387 = DIRECTION('',(0.,0.,1.));
#388 = DIRECTION('',(1.,0.,0.));
#389 = ORIENTED_EDGE('',*,*,#390,.F.);
#390 = EDGE_CURVE('',#294,#382,#391,.T.);
#391 = LINE('',#392,#393);
#392 = CARTESIAN_POINT('',(8.55,0.,-3.));
#393 = VECTOR('',#394,1.);
#394 = DIRECTION('',(0.,0.,1.));
#395 = ORIENTED_EDGE('',*,*,#293,.F.);
#396 = CYLINDRICAL_SURFACE('',#397,1.35);
#397 = AXIS2_PLACEMENT_3D('',#398,#399,#400);
#398 = CARTESIAN_POINT('',(7.2,0.,-3.));
#399 = DIRECTION('',(-0.,-0.,-1.));
#400 = DIRECTION('',(1.,0.,0.));
#401 = ADVANCED_FACE('',(#402),#405,.F.);
#402 = FACE_BOUND('',#403,.F.);
#403 = EDGE_LOOP('',(#404));
#404 = ORIENTED_EDGE('',*,*,#284,.T.);
#405 = PLANE('',#406);
#406 = AXIS2_PLACEMENT_3D('',#407,#408,#409);
#407 = CARTESIAN_POINT('',(7.2,-5.510910596163E-17,-3.));
#408 = DIRECTION('',(0.,0.,1.));
#409 = DIRECTION('',(1.,0.,-0.));
#410 = ADVANCED_FACE('',(#411),#437,.F.);
#411 = FACE_BOUND('',#412,.F.);
#412 = EDGE_LOOP('',(#413,#422,#429,#430,#436));
#413 = ORIENTED_EDGE('',*,*,#414,.T.);
#414 = EDGE_CURVE('',#302,#415,#417,.T.);
#415 = VERTEX_POINT('',#416);
#416 = CARTESIAN_POINT('',(7.2,0.,5.95));
#417 = CIRCLE('',#418,1.75);
#418 = AXIS2_PLACEMENT_3D('',#419,#420,#421);
#419 = CARTESIAN_POINT('',(7.2,0.,4.2));
#420 = DIRECTION('',(0.,1.,0.));
#421 = DIRECTION('',(0.,-0.,1.));
#422 = ORIENTED_EDGE('',*,*,#423,.T.);
#423 = EDGE_CURVE('',#415,#294,#424,.T.);
#424 = CIRCLE('',#425,1.75);
#425 = AXIS2_PLACEMENT_3D('',#426,#427,#428);
#426 = CARTESIAN_POINT('',(7.2,0.,4.2));
#427 = DIRECTION('',(0.,1.,0.));
#428 = DIRECTION('',(0.,-0.,1.));
#429 = ORIENTED_EDGE('',*,*,#390,.T.);
#430 = ORIENTED_EDGE('',*,*,#431,.T.);
#431 = EDGE_CURVE('',#382,#374,#432,.T.);
#432 = LINE('',#433,#434);
#433 = CARTESIAN_POINT('',(7.2,0.,4.2));
#434 = VECTOR('',#435,1.);
#435 = DIRECTION('',(-1.,0.,0.));
#436 = ORIENTED_EDGE('',*,*,#373,.T.);
#437 = PLANE('',#438);
#438 = AXIS2_PLACEMENT_3D('',#439,#440,#441);
#439 = CARTESIAN_POINT('',(7.2,0.,4.2));
#440 = DIRECTION('',(0.,1.,0.));
#441 = DIRECTION('',(0.,-0.,1.));
#442 = ADVANCED_FACE('',(#443),#447,.T.);
#443 = FACE_BOUND('',#444,.T.);
#444 = EDGE_LOOP('',(#445,#446));
#445 = ORIENTED_EDGE('',*,*,#381,.T.);
#446 = ORIENTED_EDGE('',*,*,#431,.T.);
#447 = PLANE('',#448);
#448 = AXIS2_PLACEMENT_3D('',#449,#450,#451);
#449 = CARTESIAN_POINT('',(7.2,-5.510910596163E-17,4.2));
#450 = DIRECTION('',(0.,0.,1.));
#451 = DIRECTION('',(1.,0.,-0.));
#452 = ADVANCED_FACE('',(#453),#474,.T.);
#453 = FACE_BOUND('',#454,.T.);
#454 = EDGE_LOOP('',(#455,#463,#470,#471,#472,#473));
#455 = ORIENTED_EDGE('',*,*,#456,.T.);
#456 = EDGE_CURVE('',#415,#457,#459,.T.);
#457 = VERTEX_POINT('',#458);
#458 = CARTESIAN_POINT('',(7.2,15.,5.95));
#459 = LINE('',#460,#461);
#460 = CARTESIAN_POINT('',(7.2,0.,5.95));
#461 = VECTOR('',#462,1.);
#462 = DIRECTION('',(0.,1.,0.));
#463 = ORIENTED_EDGE('',*,*,#464,.F.);
#464 = EDGE_CURVE('',#457,#457,#465,.T.);
#465 = CIRCLE('',#466,1.75);
#466 = AXIS2_PLACEMENT_3D('',#467,#468,#469);
#467 = CARTESIAN_POINT('',(7.2,15.,4.2));
#468 = DIRECTION('',(0.,1.,0.));
#469 = DIRECTION('',(0.,-0.,1.));
#470 = ORIENTED_EDGE('',*,*,#456,.F.);
#471 = ORIENTED_EDGE('',*,*,#423,.T.);
#472 = ORIENTED_EDGE('',*,*,#301,.T.);
#473 = ORIENTED_EDGE('',*,*,#414,.T.);
#474 = CYLINDRICAL_SURFACE('',#475,1.75);
#475 = AXIS2_PLACEMENT_3D('',#476,#477,#478);
#476 = CARTESIAN_POINT('',(7.2,0.,4.2));
#477 = DIRECTION('',(0.,1.,0.));
#478 = DIRECTION('',(0.,-0.,1.));
#479 = ADVANCED_FACE('',(#480),#483,.T.);
#480 = FACE_BOUND('',#481,.T.);
#481 = EDGE_LOOP('',(#482));
#482 = ORIENTED_EDGE('',*,*,#464,.T.);
#483 = PLANE('',#484);
#484 = AXIS2_PLACEMENT_3D('',#485,#486,#487);
#485 = CARTESIAN_POINT('',(7.2,15.,4.2));
#486 = DIRECTION('',(0.,1.,0.));
#487 = DIRECTION('',(0.,-0.,1.));
#488 = ( GEOMETRIC_REPRESENTATION_CONTEXT(3)
GLOBAL_UNCERTAINTY_ASSIGNED_CONTEXT((#492)) GLOBAL_UNIT_ASSIGNED_CONTEXT
((#489,#490,#491)) REPRESENTATION_CONTEXT('Context #1',
  '3D Context with UNIT and UNCERTAINTY') );
#489 = ( LENGTH_UNIT() NAMED_UNIT(*) SI_UNIT(.MILLI.,.METRE.) );
#490 = ( NAMED_UNIT(*) PLANE_ANGLE_UNIT() SI_UNIT($,.RADIAN.) );
#491 = ( NAMED_UNIT(*) SI_UNIT($,.STERADIAN.) SOLID_ANGLE_UNIT() );
#492 = UNCERTAINTY_MEASURE_WITH_UNIT(LENGTH_MEASURE(1.E-07),#489,
  'distance_accuracy_value','confusion accuracy');
#493 = CONTEXT_DEPENDENT_SHAPE_REPRESENTATION(#494,#496);
#494 = ( REPRESENTATION_RELATIONSHIP('','',#277,#10)
REPRESENTATION_RELATIONSHIP_WITH_TRANSFORMATION(#495)
SHAPE_REPRESENTATION_RELATIONSHIP() );
#495 = ITEM_DEFINED_TRANSFORMATION('','',#11,#19);
#496 = PRODUCT_DEFINITION_SHAPE('Placement','Placement of an item',#497
  );
#497 = NEXT_ASSEMBLY_USAGE_OCCURRENCE('2','contact_2','',#5,#272,$);
#498 = PRODUCT_RELATED_PRODUCT_CATEGORY('part',$,(#274));
#499 = SHAPE_DEFINITION_REPRESENTATION(#500,#506);
#500 = PRODUCT_DEFINITION_SHAPE('','',#501);
#501 = PRODUCT_DEFINITION('design','',#502,#505);
#502 = PRODUCT_DEFINITION_FORMATION('','',#503);
#503 = PRODUCT('mounting_tab_1','mounting_tab_1','',(#504));
#504 = PRODUCT_CONTEXT('',#2,'mechanical');
#505 = PRODUCT_DEFINITION_CONTEXT('part definition',#2,'design');
#506 = ADVANCED_BREP_SHAPE_REPRESENTATION('',(#11,#507),#657);
#507 = MANIFOLD_SOLID_BREP('',#508);
#508 = CLOSED_SHELL('',(#509,#549,#589,#611,#633,#645));
#509 = ADVANCED_FACE('',(#510),#544,.F.);
#510 = FACE_BOUND('',#511,.F.);
#511 = EDGE_LOOP('',(#512,#522,#530,#538));
#512 = ORIENTED_EDGE('',*,*,#513,.F.);
#513 = EDGE_CURVE('',#514,#516,#518,.T.);
#514 = VERTEX_POINT('',#515);
#515 = CARTESIAN_POINT('',(-3.5,5.1,-3.5));
#516 = VERTEX_POINT('',#517);
#517 = CARTESIAN_POINT('',(-3.5,5.1,0.4));
#518 = LINE('',#519,#520);
#519 = CARTESIAN_POINT('',(-3.5,5.1,-3.5));
#520 = VECTOR('',#521,1.);
#521 = DIRECTION('',(0.,0.,1.));
#522 = ORIENTED_EDGE('',*,*,#523,.T.);
#523 = EDGE_CURVE('',#514,#524,#526,.T.);
#524 = VERTEX_POINT('',#525);
#525 = CARTESIAN_POINT('',(-3.5,6.9,-3.5));
#526 = LINE('',#527,#528);
#527 = CARTESIAN_POINT('',(-3.5,5.1,-3.5));
#528 = VECTOR('',#529,1.);
#529 = DIRECTION('',(0.,1.,0.));
#530 = ORIENTED_EDGE('',*,*,#531,.T.);
#531 = EDGE_CURVE('',#524,#532,#534,.T.);
#532 = VERTEX_POINT('',#533);
#533 = CARTESIAN_POINT('',(-3.5,6.9,0.4));
#534 = LINE('',#535,#536);
#535 = CARTESIAN_POINT('',(-3.5,6.9,-3.5));
#536 = VECTOR('',#537,1.);
#537 = DIRECTION('',(0.,0.,1.));
#538 = ORIENTED_EDGE('',*,*,#539,.F.);
#539 = EDGE_CURVE('',#516,#532,#540,.T.);
#540 = LINE('',#541,#542);
#541 = CARTESIAN_POINT('',(-3.5,5.1,0.4));
#542 = VECTOR('',#543,1.);
#543 = DIRECTION('',(0.,1.,0.));
#544 = PLANE('',#545);
#545 = AXIS2_PLACEMENT_3D('',#546,#547,#548);
#546 = CARTESIAN_POINT('',(-3.5,5.1,-3.5));
#547 = DIRECTION('',(1.,0.,0.));
#548 = DIRECTION('',(0.,0.,1.));
#549 = ADVANCED_FACE('',(#550),#584,.T.);
#550 = FACE_BOUND('',#551,.T.);
#551 = EDGE_LOOP('',(#552,#562,#570,#578));
#552 = ORIENTED_EDGE('',*,*,#553,.F.);
#553 = EDGE_CURVE('',#554,#556,#558,.T.);
#554 = VERTEX_POINT('',#555);
#555 = CARTESIAN_POINT('',(-2.8,5.1,-3.5));
#556 = VERTEX_POINT('',#557);
#557 = CARTESIAN_POINT('',(-2.8,5.1,0.4));
#558 = LINE('',#559,#560);
#559 = CARTESIAN_POINT('',(-2.8,5.1,-3.5));
#560 = VECTOR('',#561,1.);
#561 = DIRECTION('',(0.,0.,1.));
#562 = ORIENTED_EDGE('',*,*,#563,.T.);
#563 = EDGE_CURVE('',#554,#564,#566,.T.);
#564 = VERTEX_POINT('',#565);
#565 = CARTESIAN_POINT('',(-2.8,6.9,-3.5));
#566 = LINE('',#567,#568);
#567 = CARTESIAN_POINT('',(-2.8,5.1,-3.5));
#568 = VECTOR('',#569,1.);
#569 = DIRECTION('',(0.,1.,0.));
#570 = ORIENTED_EDGE('',*,*,#571,.T.);
#571 = EDGE_CURVE('',#564,#572,#574,.T.);
#572 = VERTEX_POINT('',#573);
#573 = CARTESIAN_POINT('',(-2.8,6.9,0.4));
#574 = LINE('',#575,#576);
#575 = CARTESIAN_POINT('',(-2.8,6.9,-3.5));
#576 = VECTOR('',#577,1.);
#577 = DIRECTION('',(0.,0.,1.));
#578 = ORIENTED_EDGE('',*,*,#579,.F.);
#579 = EDGE_CURVE('',#556,#572,#580,.T.);
#580 = LINE('',#581,#582);
#581 = CARTESIAN_POINT('',(-2.8,5.1,0.4));
#582 = VECTOR('',#583,1.);
#583 = DIRECTION('',(0.,1.,0.));
#584 = PLANE('',#585);
#585 = AXIS2_PLACEMENT_3D('',#586,#587,#588);
#586 = CARTESIAN_POINT('',(-2.8,5.1,-3.5));
#587 = DIRECTION('',(1.,0.,0.));
#588 = DIRECTION('',(0.,0.,1.));
#589 = ADVANCED_FACE('',(#590),#606,.F.);
#590 = FACE_BOUND('',#591,.F.);
#591 = EDGE_LOOP('',(#592,#598,#599,#605));
#592 = ORIENTED_EDGE('',*,*,#593,.F.);
#593 = EDGE_CURVE('',#514,#554,#594,.T.);
#594 = LINE('',#595,#596);
#595 = CARTESIAN_POINT('',(-3.5,5.1,-3.5));
#596 = VECTOR('',#597,1.);
#597 = DIRECTION('',(1.,0.,0.));
#598 = ORIENTED_EDGE('',*,*,#513,.T.);
#599 = ORIENTED_EDGE('',*,*,#600,.T.);
#600 = EDGE_CURVE('',#516,#556,#601,.T.);
#601 = LINE('',#602,#603);
#602 = CARTESIAN_POINT('',(-3.5,5.1,0.4));
#603 = VECTOR('',#604,1.);
#604 = DIRECTION('',(1.,0.,0.));
#605 = ORIENTED_EDGE('',*,*,#553,.F.);
#606 = PLANE('',#607);
#607 = AXIS2_PLACEMENT_3D('',#608,#609,#610);
#608 = CARTESIAN_POINT('',(-3.5,5.1,-3.5));
#609 = DIRECTION('',(0.,1.,0.));
#610 = DIRECTION('',(0.,0.,1.));
#611 = ADVANCED_FACE('',(#612),#628,.T.);
#612 = FACE_BOUND('',#613,.T.);
#613 = EDGE_LOOP('',(#614,#620,#621,#627));
#614 = ORIENTED_EDGE('',*,*,#615,.F.);
#615 = EDGE_CURVE('',#524,#564,#616,.T.);
#616 = LINE('',#617,#618);
#617 = CARTESIAN_POINT('',(-3.5,6.9,-3.5));
#618 = VECTOR('',#619,1.);
#619 = DIRECTION('',(1.,0.,0.));
#620 = ORIENTED_EDGE('',*,*,#531,.T.);
#621 = ORIENTED_EDGE('',*,*,#622,.T.);
#622 = EDGE_CURVE('',#532,#572,#623,.T.);
#623 = LINE('',#624,#625);
#624 = CARTESIAN_POINT('',(-3.5,6.9,0.4));
#625 = VECTOR('',#626,1.);
#626 = DIRECTION('',(1.,0.,0.));
#627 = ORIENTED_EDGE('',*,*,#571,.F.);
#628 = PLANE('',#629);
#629 = AXIS2_PLACEMENT_3D('',#630,#631,#632);
#630 = CARTESIAN_POINT('',(-3.5,6.9,-3.5));
#631 = DIRECTION('',(0.,1.,0.));
#632 = DIRECTION('',(0.,0.,1.));
#633 = ADVANCED_FACE('',(#634),#640,.F.);
#634 = FACE_BOUND('',#635,.F.);
#635 = EDGE_LOOP('',(#636,#637,#638,#639));
#636 = ORIENTED_EDGE('',*,*,#523,.F.);
#637 = ORIENTED_EDGE('',*,*,#593,.T.);
#638 = ORIENTED_EDGE('',*,*,#563,.T.);
#639 = ORIENTED_EDGE('',*,*,#615,.F.);
#640 = PLANE('',#641);
#641 = AXIS2_PLACEMENT_3D('',#642,#643,#644);
#642 = CARTESIAN_POINT('',(-3.5,5.1,-3.5));
#643 = DIRECTION('',(0.,0.,1.));
#644 = DIRECTION('',(1.,0.,0.));
#645 = ADVANCED_FACE('',(#646),#652,.T.);
#646 = FACE_BOUND('',#647,.T.);
#647 = EDGE_LOOP('',(#648,#649,#650,#651));
#648 = ORIENTED_EDGE('',*,*,#539,.F.);
#649 = ORIENTED_EDGE('',*,*,#600,.T.);
#650 = ORIENTED_EDGE('',*,*,#579,.T.);
#651 = ORIENTED_EDGE('',*,*,#622,.F.);
#652 = PLANE('',#653);
#653 = AXIS2_PLACEMENT_3D('',#654,#655,#656);
#654 = CARTESIAN_POINT('',(-3.5,5.1,0.4));
#655 = DIRECTION('',(0.,0.,1.));
#656 = DIRECTION('',(1.,0.,0.));
#657 = ( GEOMETRIC_REPRESENTATION_CONTEXT(3)
GLOBAL_UNCERTAINTY_ASSIGNED_CONTEXT((#661)) GLOBAL_UNIT_ASSIGNED_CONTEXT
((#658,#659,#660)) REPRESENTATION_CONTEXT('Context #1',
  '3D Context with UNIT and UNCERTAINTY') );
#658 = ( LENGTH_UNIT() NAMED_UNIT(*) SI_UNIT(.MILLI.,.METRE.) );
#659 = ( NAMED_UNIT(*) PLANE_ANGLE_UNIT() SI_UNIT($,.RADIAN.) );
#660 = ( NAMED_UNIT(*) SI_UNIT($,.STERADIAN.) SOLID_ANGLE_UNIT() );
#661 = UNCERTAINTY_MEASURE_WITH_UNIT(LENGTH_MEASURE(1.E-07),#658,
  'distance_accuracy_value','confusion accuracy');
#662 = CONTEXT_DEPENDENT_SHAPE_REPRESENTATION(#663,#665);
#663 = ( REPRESENTATION_RELATIONSHIP('','',#506,#10)
REPRESENTATION_RELATIONSHIP_WITH_TRANSFORMATION(#664)
SHAPE_REPRESENTATION_RELATIONSHIP() );
#664 = ITEM_DEFINED_TRANSFORMATION('','',#11,#23);
#665 = PRODUCT_DEFINITION_SHAPE('Placement','Placement of an item',#666
  );
#666 = NEXT_ASSEMBLY_USAGE_OCCURRENCE('3','mounting_tab_1','',#5,#501,$
  );
#667 = PRODUCT_RELATED_PRODUCT_CATEGORY('part',$,(#503));
#668 = SHAPE_DEFINITION_REPRESENTATION(#669,#675);
#669 = PRODUCT_DEFINITION_SHAPE('','',#670);
#670 = PRODUCT_DEFINITION('design','',#671,#674);
#671 = PRODUCT_DEFINITION_FORMATION('','',#672);
#672 = PRODUCT('mounting_tab_2','mounting_tab_2','',(#673));
#673 = PRODUCT_CONTEXT('',#2,'mechanical');
#674 = PRODUCT_DEFINITION_CONTEXT('part definition',#2,'design');
#675 = ADVANCED_BREP_SHAPE_REPRESENTATION('',(#11,#676),#826);
#676 = MANIFOLD_SOLID_BREP('',#677);
#677 = CLOSED_SHELL('',(#678,#718,#758,#780,#802,#814));
#678 = ADVANCED_FACE('',(#679),#713,.F.);
#679 = FACE_BOUND('',#680,.F.);
#680 = EDGE_LOOP('',(#681,#691,#699,#707));
#681 = ORIENTED_EDGE('',*,*,#682,.F.);
#682 = EDGE_CURVE('',#683,#685,#687,.T.);
#683 = VERTEX_POINT('',#684);
#684 = CARTESIAN_POINT('',(10.,5.1,-3.5));
#685 = VERTEX_POINT('',#686);
#686 = CARTESIAN_POINT('',(10.,5.1,0.4));
#687 = LINE('',#688,#689);
#688 = CARTESIAN_POINT('',(10.,5.1,-3.5));
#689 = VECTOR('',#690,1.);
#690 = DIRECTION('',(0.,0.,1.));
#691 = ORIENTED_EDGE('',*,*,#692,.T.);
#692 = EDGE_CURVE('',#683,#693,#695,.T.);
#693 = VERTEX_POINT('',#694);
#694 = CARTESIAN_POINT('',(10.,6.9,-3.5));
#695 = LINE('',#696,#697);
#696 = CARTESIAN_POINT('',(10.,5.1,-3.5));
#697 = VECTOR('',#698,1.);
#698 = DIRECTION('',(0.,1.,0.));
#699 = ORIENTED_EDGE('',*,*,#700,.T.);
#700 = EDGE_CURVE('',#693,#701,#703,.T.);
#701 = VERTEX_POINT('',#702);
#702 = CARTESIAN_POINT('',(10.,6.9,0.4));
#703 = LINE('',#704,#705);
#704 = CARTESIAN_POINT('',(10.,6.9,-3.5));
#705 = VECTOR('',#706,1.);
#706 = DIRECTION('',(0.,0.,1.));
#707 = ORIENTED_EDGE('',*,*,#708,.F.);
#708 = EDGE_CURVE('',#685,#701,#709,.T.);
#709 = LINE('',#710,#711);
#710 = CARTESIAN_POINT('',(10.,5.1,0.4));
#711 = VECTOR('',#712,1.);
#712 = DIRECTION('',(0.,1.,0.));
#713 = PLANE('',#714);
#714 = AXIS2_PLACEMENT_3D('',#715,#716,#717);
#715 = CARTESIAN_POINT('',(10.,5.1,-3.5));
#716 = DIRECTION('',(1.,0.,0.));
#717 = DIRECTION('',(0.,0.,1.));
#718 = ADVANCED_FACE('',(#719),#753,.T.);
#719 = FACE_BOUND('',#720,.T.);
#720 = EDGE_LOOP('',(#721,#731,#739,#747));
#721 = ORIENTED_EDGE('',*,*,#722,.F.);
#722 = EDGE_CURVE('',#723,#725,#727,.T.);
#723 = VERTEX_POINT('',#724);
#724 = CARTESIAN_POINT('',(10.7,5.1,-3.5));
#725 = VERTEX_POINT('',#726);
#726 = CARTESIAN_POINT('',(10.7,5.1,0.4));
#727 = LINE('',#728,#729);
#728 = CARTESIAN_POINT('',(10.7,5.1,-3.5));
#729 = VECTOR('',#730,1.);
#730 = DIRECTION('',(0.,0.,1.));
#731 = ORIENTED_EDGE('',*,*,#732,.T.);
#732 = EDGE_CURVE('',#723,#733,#735,.T.);
#733 = VERTEX_POINT('',#734);
#734 = CARTESIAN_POINT('',(10.7,6.9,-3.5));
#735 = LINE('',#736,#737);
#736 = CARTESIAN_POINT('',(10.7,5.1,-3.5));
#737 = VECTOR('',#738,1.);
#738 = DIRECTION('',(0.,1.,0.));
#739 = ORIENTED_EDGE('',*,*,#740,.T.);
#740 = EDGE_CURVE('',#733,#741,#743,.T.);
#741 = VERTEX_POINT('',#742);
#742 = CARTESIAN_POINT('',(10.7,6.9,0.4));
#743 = LINE('',#744,#745);
#744 = CARTESIAN_POINT('',(10.7,6.9,-3.5));
#745 = VECTOR('',#746,1.);
#746 = DIRECTION('',(0.,0.,1.));
#747 = ORIENTED_EDGE('',*,*,#748,.F.);
#748 = EDGE_CURVE('',#725,#741,#749,.T.);
#749 = LINE('',#750,#751);
#750 = CARTESIAN_POINT('',(10.7,5.1,0.4));
#751 = VECTOR('',#752,1.);
#752 = DIRECTION('',(0.,1.,0.));
#753 = PLANE('',#754);
#754 = AXIS2_PLACEMENT_3D('',#755,#756,#757);
#755 = CARTESIAN_POINT('',(10.7,5.1,-3.5));
#756 = DIRECTION('',(1.,0.,0.));
#757 = DIRECTION('',(0.,0.,1.));
#758 = ADVANCED_FACE('',(#759),#775,.F.);
#759 = FACE_BOUND('',#760,.F.);
#760 = EDGE_LOOP('',(#761,#767,#768,#774));
#761 = ORIENTED_EDGE('',*,*,#762,.F.);
#762 = EDGE_CURVE('',#683,#723,#763,.T.);
#763 = LINE('',#764,#765);
#764 = CARTESIAN_POINT('',(10.,5.1,-3.5));
#765 = VECTOR('',#766,1.);
#766 = DIRECTION('',(1.,0.,0.));
#767 = ORIENTED_EDGE('',*,*,#682,.T.);
#768 = ORIENTED_EDGE('',*,*,#769,.T.);
#769 = EDGE_CURVE('',#685,#725,#770,.T.);
#770 = LINE('',#771,#772);
#771 = CARTESIAN_POINT('',(10.,5.1,0.4));
#772 = VECTOR('',#773,1.);
#773 = DIRECTION('',(1.,0.,0.));
#774 = ORIENTED_EDGE('',*,*,#722,.F.);
#775 = PLANE('',#776);
#776 = AXIS2_PLACEMENT_3D('',#777,#778,#779);
#777 = CARTESIAN_POINT('',(10.,5.1,-3.5));
#778 = DIRECTION('',(0.,1.,0.));
#779 = DIRECTION('',(0.,0.,1.));
#780 = ADVANCED_FACE('',(#781),#797,.T.);
#781 = FACE_BOUND('',#782,.T.);
#782 = EDGE_LOOP('',(#783,#789,#790,#796));
#783 = ORIENTED_EDGE('',*,*,#784,.F.);
#784 = EDGE_CURVE('',#693,#733,#785,.T.);
#785 = LINE('',#786,#787);
#786 = CARTESIAN_POINT('',(10.,6.9,-3.5));
#787 = VECTOR('',#788,1.);
#788 = DIRECTION('',(1.,0.,0.));
#789 = ORIENTED_EDGE('',*,*,#700,.T.);
#790 = ORIENTED_EDGE('',*,*,#791,.T.);
#791 = EDGE_CURVE('',#701,#741,#792,.T.);
#792 = LINE('',#793,#794);
#793 = CARTESIAN_POINT('',(10.,6.9,0.4));
#794 = VECTOR('',#795,1.);
#795 = DIRECTION('',(1.,0.,0.));
#796 = ORIENTED_EDGE('',*,*,#740,.F.);
#797 = PLANE('',#798);
#798 = AXIS2_PLACEMENT_3D('',#799,#800,#801);
#799 = CARTESIAN_POINT('',(10.,6.9,-3.5));
#800 = DIRECTION('',(0.,1.,0.));
#801 = DIRECTION('',(0.,0.,1.));
#802 = ADVANCED_FACE('',(#803),#809,.F.);
#803 = FACE_BOUND('',#804,.F.);
#804 = EDGE_LOOP('',(#805,#806,#807,#808));
#805 = ORIENTED_EDGE('',*,*,#692,.F.);
#806 = ORIENTED_EDGE('',*,*,#762,.T.);
#807 = ORIENTED_EDGE('',*,*,#732,.T.);
#808 = ORIENTED_EDGE('',*,*,#784,.F.);
#809 = PLANE('',#810);
#810 = AXIS2_PLACEMENT_3D('',#811,#812,#813);
#811 = CARTESIAN_POINT('',(10.,5.1,-3.5));
#812 = DIRECTION('',(0.,0.,1.));
#813 = DIRECTION('',(1.,0.,0.));
#814 = ADVANCED_FACE('',(#815),#821,.T.);
#815 = FACE_BOUND('',#816,.T.);
#816 = EDGE_LOOP('',(#817,#818,#819,#820));
#817 = ORIENTED_EDGE('',*,*,#708,.F.);
#818 = ORIENTED_EDGE('',*,*,#769,.T.);
#819 = ORIENTED_EDGE('',*,*,#748,.T.);
#820 = ORIENTED_EDGE('',*,*,#791,.F.);
#821 = PLANE('',#822);
#822 = AXIS2_PLACEMENT_3D('',#823,#824,#825);
#823 = CARTESIAN_POINT('',(10.,5.1,0.4));
#824 = DIRECTION('',(0.,0.,1.));
#825 = DIRECTION('',(1.,0.,0.));
#826 = ( GEOMETRIC_REPRESENTATION_CONTEXT(3)
GLOBAL_UNCERTAINTY_ASSIGNED_CONTEXT((#830)) GLOBAL_UNIT_ASSIGNED_CONTEXT
((#827,#828,#829)) REPRESENTATION_CONTEXT('Context #1',
  '3D Context with UNIT and UNCERTAINTY') );
#827 = ( LENGTH_UNIT() NAMED_UNIT(*) SI_UNIT(.MILLI.,.METRE.) );
#828 = ( NAMED_UNIT(*) PLANE_ANGLE_UNIT() SI_UNIT($,.RADIAN.) );
#829 = ( NAMED_UNIT(*) SI_UNIT($,.STERADIAN.) SOLID_ANGLE_UNIT() );
#830 = UNCERTAINTY_MEASURE_WITH_UNIT(LENGTH_MEASURE(1.E-07),#827,
  'distance_accuracy_value','confusion accuracy');
#831 = CONTEXT_DEPENDENT_SHAPE_REPRESENTATION(#832,#834);
#832 = ( REPRESENTATION_RELATIONSHIP('','',#675,#10)
REPRESENTATION_RELATIONSHIP_WITH_TRANSFORMATION(#833)
SHAPE_REPRESENTATION_RELATIONSHIP() );
#833 = ITEM_DEFINED_TRANSFORMATION('','',#11,#27);
#834 = PRODUCT_DEFINITION_SHAPE('Placement','Placement of an item',#835
  );
#835 = NEXT_ASSEMBLY_USAGE_OCCURRENCE('4','mounting_tab_2','',#5,#670,$
  );
#836 = PRODUCT_RELATED_PRODUCT_CATEGORY('part',$,(#672));
#837 = SHAPE_DEFINITION_REPRESENTATION(#838,#844);
#838 = PRODUCT_DEFINITION_SHAPE('','',#839);
#839 = PRODUCT_DEFINITION('design','',#840,#843);
#840 = PRODUCT_DEFINITION_FORMATION('','',#841);
#841 = PRODUCT('housing','housing','',(#842));
#842 = PRODUCT_CONTEXT('',#2,'mechanical');
#843 = PRODUCT_DEFINITION_CONTEXT('part definition',#2,'design');
#844 = ADVANCED_BREP_SHAPE_REPRESENTATION('',(#11,#845),#1151);
#845 = MANIFOLD_SOLID_BREP('',#846);
#846 = CLOSED_SHELL('',(#847,#887,#918,#949,#1004,#1037,#1054,#1071,
    #1083,#1108,#1133,#1142));
#847 = ADVANCED_FACE('',(#848),#882,.F.);
#848 = FACE_BOUND('',#849,.F.);
#849 = EDGE_LOOP('',(#850,#860,#868,#876));
#850 = ORIENTED_EDGE('',*,*,#851,.T.);
#851 = EDGE_CURVE('',#852,#854,#856,.T.);
#852 = VERTEX_POINT('',#853);
#853 = CARTESIAN_POINT('',(-4.15,16.35,2.));
#854 = VERTEX_POINT('',#855);
#855 = CARTESIAN_POINT('',(-4.15,-1.85,2.));
#856 = LINE('',#857,#858);
#857 = CARTESIAN_POINT('',(-4.15,16.35,2.));
#858 = VECTOR('',#859,1.);
#859 = DIRECTION('',(0.,-1.,0.));
#860 = ORIENTED_EDGE('',*,*,#861,.T.);
#861 = EDGE_CURVE('',#854,#862,#864,.T.);
#862 = VERTEX_POINT('',#863);
#863 = CARTESIAN_POINT('',(-2.15,-1.85,0.));
#864 = LINE('',#865,#866);
#865 = CARTESIAN_POINT('',(-4.15,-1.85,2.));
#866 = VECTOR('',#867,1.);
#867 = DIRECTION('',(0.707106781187,0.,-0.707106781187));
#868 = ORIENTED_EDGE('',*,*,#869,.F.);
#869 = EDGE_CURVE('',#870,#862,#872,.T.);
#870 = VERTEX_POINT('',#871);
#871 = CARTESIAN_POINT('',(-2.15,16.35,0.));
#872 = LINE('',#873,#874);
#873 = CARTESIAN_POINT('',(-2.15,16.35,0.));
#874 = VECTOR('',#875,1.);
#875 = DIRECTION('',(0.,-1.,0.));
#876 = ORIENTED_EDGE('',*,*,#877,.F.);
#877 = EDGE_CURVE('',#852,#870,#878,.T.);
#878 = LINE('',#879,#880);
#879 = CARTESIAN_POINT('',(-4.15,16.35,2.));
#880 = VECTOR('',#881,1.);
#881 = DIRECTION('',(0.707106781187,0.,-0.707106781187));
#882 = PLANE('',#883);
#883 = AXIS2_PLACEMENT_3D('',#884,#885,#886);
#884 = CARTESIAN_POINT('',(-4.15,16.35,2.));
#885 = DIRECTION('',(0.707106781187,0.,0.707106781187));
#886 = DIRECTION('',(0.707106781187,0.,-0.707106781187));
#887 = ADVANCED_FACE('',(#888),#913,.F.);
#888 = FACE_BOUND('',#889,.F.);
#889 = EDGE_LOOP('',(#890,#900,#906,#907));
#890 = ORIENTED_EDGE('',*,*,#891,.T.);
#891 = EDGE_CURVE('',#892,#894,#896,.T.);
#892 = VERTEX_POINT('',#893);
#893 = CARTESIAN_POINT('',(-4.15,16.35,8.4));
#894 = VERTEX_POINT('',#895);
#895 = CARTESIAN_POINT('',(-4.15,-1.85,8.4));
#896 = LINE('',#897,#898);
#897 = CARTESIAN_POINT('',(-4.15,16.35,8.4));
#898 = VECTOR('',#899,1.);
#899 = DIRECTION('',(0.,-1.,0.));
#900 = ORIENTED_EDGE('',*,*,#901,.T.);
#901 = EDGE_CURVE('',#894,#854,#902,.T.);
#902 = LINE('',#903,#904);
#903 = CARTESIAN_POINT('',(-4.15,-1.85,8.4));
#904 = VECTOR('',#905,1.);
#905 = DIRECTION('',(0.,0.,-1.));
#906 = ORIENTED_EDGE('',*,*,#851,.F.);
#907 = ORIENTED_EDGE('',*,*,#908,.F.);
#908 = EDGE_CURVE('',#892,#852,#909,.T.);
#909 = LINE('',#910,#911);
#910 = CARTESIAN_POINT('',(-4.15,16.35,8.4));
#911 = VECTOR('',#912,1.);
#912 = DIRECTION('',(0.,0.,-1.));
#913 = PLANE('',#914);
#914 = AXIS2_PLACEMENT_3D('',#915,#916,#917);
#915 = CARTESIAN_POINT('',(-4.15,16.35,8.4));
#916 = DIRECTION('',(1.,0.,0.));
#917 = DIRECTION('',(0.,0.,-1.));
#918 = ADVANCED_FACE('',(#919),#944,.F.);
#919 = FACE_BOUND('',#920,.F.);
#920 = EDGE_LOOP('',(#921,#922,#930,#938));
#921 = ORIENTED_EDGE('',*,*,#869,.T.);
#922 = ORIENTED_EDGE('',*,*,#923,.T.);
#923 = EDGE_CURVE('',#862,#924,#926,.T.);
#924 = VERTEX_POINT('',#925);
#925 = CARTESIAN_POINT('',(9.35,-1.85,0.));
#926 = LINE('',#927,#928);
#927 = CARTESIAN_POINT('',(-2.15,-1.85,0.));
#928 = VECTOR('',#929,1.);
#929 = DIRECTION('',(1.,0.,0.));
#930 = ORIENTED_EDGE('',*,*,#931,.F.);
#931 = EDGE_CURVE('',#932,#924,#934,.T.);
#932 = VERTEX_POINT('',#933);
#933 = CARTESIAN_POINT('',(9.35,16.35,0.));
#934 = LINE('',#935,#936);
#935 = CARTESIAN_POINT('',(9.35,16.35,0.));
#936 = VECTOR('',#937,1.);
#937 = DIRECTION('',(0.,-1.,0.));
#938 = ORIENTED_EDGE('',*,*,#939,.F.);
#939 = EDGE_CURVE('',#870,#932,#940,.T.);
#940 = LINE('',#941,#942);
#941 = CARTESIAN_POINT('',(-2.15,16.35,0.));
#942 = VECTOR('',#943,1.);
#943 = DIRECTION('',(1.,0.,0.));
#944 = PLANE('',#945);
#945 = AXIS2_PLACEMENT_3D('',#946,#947,#948);
#946 = CARTESIAN_POINT('',(-2.15,16.35,0.));
#947 = DIRECTION('',(-0.,0.,1.));
#948 = DIRECTION('',(1.,0.,0.));
#949 = ADVANCED_FACE('',(#950,#977,#988),#999,.F.);
#950 = FACE_BOUND('',#951,.F.);
#951 = EDGE_LOOP('',(#952,#953,#954,#962,#970,#976));
#952 = ORIENTED_EDGE('',*,*,#877,.T.);
#953 = ORIENTED_EDGE('',*,*,#939,.T.);
#954 = ORIENTED_EDGE('',*,*,#955,.T.);
#955 = EDGE_CURVE('',#932,#956,#958,.T.);
#956 = VERTEX_POINT('',#957);
#957 = CARTESIAN_POINT('',(11.35,16.35,2.));
#958 = LINE('',#959,#960);
#959 = CARTESIAN_POINT('',(9.35,16.35,0.));
#960 = VECTOR('',#961,1.);
#961 = DIRECTION('',(0.707106781187,0.,0.707106781187));
#962 = ORIENTED_EDGE('',*,*,#963,.T.);
#963 = EDGE_CURVE('',#956,#964,#966,.T.);
#964 = VERTEX_POINT('',#965);
#965 = CARTESIAN_POINT('',(11.35,16.35,8.4));
#966 = LINE('',#967,#968);
#967 = CARTESIAN_POINT('',(11.35,16.35,2.));
#968 = VECTOR('',#969,1.);
#969 = DIRECTION('',(0.,0.,1.));
#970 = ORIENTED_EDGE('',*,*,#971,.T.);
#971 = EDGE_CURVE('',#964,#892,#972,.T.);
#972 = LINE('',#973,#974);
#973 = CARTESIAN_POINT('',(11.35,16.35,8.4));
#974 = VECTOR('',#975,1.);
#975 = DIRECTION('',(-1.,0.,0.));
#976 = ORIENTED_EDGE('',*,*,#908,.T.);
#977 = FACE_BOUND('',#978,.F.);
#978 = EDGE_LOOP('',(#979));
#979 = ORIENTED_EDGE('',*,*,#980,.T.);
#980 = EDGE_CURVE('',#981,#981,#983,.T.);
#981 = VERTEX_POINT('',#982);
#982 = CARTESIAN_POINT('',(-7.347880794884E-16,16.35,7.2));
#983 = CIRCLE('',#984,3.);
#984 = AXIS2_PLACEMENT_3D('',#985,#986,#987);
#985 = CARTESIAN_POINT('',(0.,16.35,4.2));
#986 = DIRECTION('',(0.,1.,0.));
#987 = DIRECTION('',(0.,-0.,1.));
#988 = FACE_BOUND('',#989,.F.);
#989 = EDGE_LOOP('',(#990));
#990 = ORIENTED_EDGE('',*,*,#991,.T.);
#991 = EDGE_CURVE('',#992,#992,#994,.T.);
#992 = VERTEX_POINT('',#993);
#993 = CARTESIAN_POINT('',(7.2,16.35,7.2));
#994 = CIRCLE('',#995,3.);
#995 = AXIS2_PLACEMENT_3D('',#996,#997,#998);
#996 = CARTESIAN_POINT('',(7.2,16.35,4.2));
#997 = DIRECTION('',(0.,1.,0.));
#998 = DIRECTION('',(0.,-0.,1.));
#999 = PLANE('',#1000);
#1000 = AXIS2_PLACEMENT_3D('',#1001,#1002,#1003);
#1001 = CARTESIAN_POINT('',(3.6,16.35,4.452944612896));
#1002 = DIRECTION('',(-0.,-1.,-0.));
#1003 = DIRECTION('',(0.,0.,-1.));
#1004 = ADVANCED_FACE('',(#1005),#1032,.T.);
#1005 = FACE_BOUND('',#1006,.T.);
#1006 = EDGE_LOOP('',(#1007,#1008,#1009,#1017,#1025,#1031));
#1007 = ORIENTED_EDGE('',*,*,#861,.T.);
#1008 = ORIENTED_EDGE('',*,*,#923,.T.);
#1009 = ORIENTED_EDGE('',*,*,#1010,.T.);
#1010 = EDGE_CURVE('',#924,#1011,#1013,.T.);
#1011 = VERTEX_POINT('',#1012);
#1012 = CARTESIAN_POINT('',(11.35,-1.85,2.));
#1013 = LINE('',#1014,#1015);
#1014 = CARTESIAN_POINT('',(9.35,-1.85,0.));
#1015 = VECTOR('',#1016,1.);
#1016 = DIRECTION('',(0.707106781187,0.,0.707106781187));
#1017 = ORIENTED_EDGE('',*,*,#1018,.T.);
#1018 = EDGE_CURVE('',#1011,#1019,#1021,.T.);
#1019 = VERTEX_POINT('',#1020);
#1020 = CARTESIAN_POINT('',(11.35,-1.85,8.4));
#1021 = LINE('',#1022,#1023);
#1022 = CARTESIAN_POINT('',(11.35,-1.85,2.));
#1023 = VECTOR('',#1024,1.);
#1024 = DIRECTION('',(0.,0.,1.));
#1025 = ORIENTED_EDGE('',*,*,#1026,.T.);
#1026 = EDGE_CURVE('',#1019,#894,#1027,.T.);
#1027 = LINE('',#1028,#1029);
#1028 = CARTESIAN_POINT('',(11.35,-1.85,8.4));
#1029 = VECTOR('',#1030,1.);
#1030 = DIRECTION('',(-1.,0.,0.));
#1031 = ORIENTED_EDGE('',*,*,#901,.T.);
#1032 = PLANE('',#1033);
#1033 = AXIS2_PLACEMENT_3D('',#1034,#1035,#1036);
#1034 = CARTESIAN_POINT('',(3.6,-1.85,4.452944612896));
#1035 = DIRECTION('',(-0.,-1.,-0.));
#1036 = DIRECTION('',(0.,0.,-1.));
#1037 = ADVANCED_FACE('',(#1038),#1049,.F.);
#1038 = FACE_BOUND('',#1039,.F.);
#1039 = EDGE_LOOP('',(#1040,#1046,#1047,#1048));
#1040 = ORIENTED_EDGE('',*,*,#1041,.T.);
#1041 = EDGE_CURVE('',#964,#1019,#1042,.T.);
#1042 = LINE('',#1043,#1044);
#1043 = CARTESIAN_POINT('',(11.35,16.35,8.4));
#1044 = VECTOR('',#1045,1.);
#1045 = DIRECTION('',(0.,-1.,0.));
#1046 = ORIENTED_EDGE('',*,*,#1026,.T.);
#1047 = ORIENTED_EDGE('',*,*,#891,.F.);
#1048 = ORIENTED_EDGE('',*,*,#971,.F.);
#1049 = PLANE('',#1050);
#1050 = AXIS2_PLACEMENT_3D('',#1051,#1052,#1053);
#1051 = CARTESIAN_POINT('',(11.35,16.35,8.4));
#1052 = DIRECTION('',(-0.,-0.,-1.));
#1053 = DIRECTION('',(-1.,0.,0.));
#1054 = ADVANCED_FACE('',(#1055),#1066,.F.);
#1055 = FACE_BOUND('',#1056,.F.);
#1056 = EDGE_LOOP('',(#1057,#1058,#1059,#1065));
#1057 = ORIENTED_EDGE('',*,*,#931,.T.);
#1058 = ORIENTED_EDGE('',*,*,#1010,.T.);
#1059 = ORIENTED_EDGE('',*,*,#1060,.F.);
#1060 = EDGE_CURVE('',#956,#1011,#1061,.T.);
#1061 = LINE('',#1062,#1063);
#1062 = CARTESIAN_POINT('',(11.35,16.35,2.));
#1063 = VECTOR('',#1064,1.);
#1064 = DIRECTION('',(0.,-1.,0.));
#1065 = ORIENTED_EDGE('',*,*,#955,.F.);
#1066 = PLANE('',#1067);
#1067 = AXIS2_PLACEMENT_3D('',#1068,#1069,#1070);
#1068 = CARTESIAN_POINT('',(9.35,16.35,0.));
#1069 = DIRECTION('',(-0.707106781187,0.,0.707106781187));
#1070 = DIRECTION('',(0.707106781187,0.,0.707106781187));
#1071 = ADVANCED_FACE('',(#1072),#1078,.F.);
#1072 = FACE_BOUND('',#1073,.F.);
#1073 = EDGE_LOOP('',(#1074,#1075,#1076,#1077));
#1074 = ORIENTED_EDGE('',*,*,#1060,.T.);
#1075 = ORIENTED_EDGE('',*,*,#1018,.T.);
#1076 = ORIENTED_EDGE('',*,*,#1041,.F.);
#1077 = ORIENTED_EDGE('',*,*,#963,.F.);
#1078 = PLANE('',#1079);
#1079 = AXIS2_PLACEMENT_3D('',#1080,#1081,#1082);
#1080 = CARTESIAN_POINT('',(11.35,16.35,2.));
#1081 = DIRECTION('',(-1.,0.,0.));
#1082 = DIRECTION('',(0.,0.,1.));
#1083 = ADVANCED_FACE('',(#1084),#1103,.F.);
#1084 = FACE_BOUND('',#1085,.F.);
#1085 = EDGE_LOOP('',(#1086,#1087,#1095,#1102));
#1086 = ORIENTED_EDGE('',*,*,#980,.F.);
#1087 = ORIENTED_EDGE('',*,*,#1088,.F.);
#1088 = EDGE_CURVE('',#1089,#981,#1091,.T.);
#1089 = VERTEX_POINT('',#1090);
#1090 = CARTESIAN_POINT('',(-7.347880794884E-16,8.,7.2));
#1091 = LINE('',#1092,#1093);
#1092 = CARTESIAN_POINT('',(-7.347880794884E-16,8.,7.2));
#1093 = VECTOR('',#1094,1.);
#1094 = DIRECTION('',(0.,1.,0.));
#1095 = ORIENTED_EDGE('',*,*,#1096,.T.);
#1096 = EDGE_CURVE('',#1089,#1089,#1097,.T.);
#1097 = CIRCLE('',#1098,3.);
#1098 = AXIS2_PLACEMENT_3D('',#1099,#1100,#1101);
#1099 = CARTESIAN_POINT('',(0.,8.,4.2));
#1100 = DIRECTION('',(0.,1.,0.));
#1101 = DIRECTION('',(0.,-0.,1.));
#1102 = ORIENTED_EDGE('',*,*,#1088,.T.);
#1103 = CYLINDRICAL_SURFACE('',#1104,3.);
#1104 = AXIS2_PLACEMENT_3D('',#1105,#1106,#1107);
#1105 = CARTESIAN_POINT('',(0.,8.,4.2));
#1106 = DIRECTION('',(0.,1.,0.));
#1107 = DIRECTION('',(0.,-0.,1.));
#1108 = ADVANCED_FACE('',(#1109),#1128,.F.);
#1109 = FACE_BOUND('',#1110,.F.);
#1110 = EDGE_LOOP('',(#1111,#1112,#1120,#1127));
#1111 = ORIENTED_EDGE('',*,*,#991,.F.);
#1112 = ORIENTED_EDGE('',*,*,#1113,.F.);
#1113 = EDGE_CURVE('',#1114,#992,#1116,.T.);
#1114 = VERTEX_POINT('',#1115);
#1115 = CARTESIAN_POINT('',(7.2,8.,7.2));
#1116 = LINE('',#1117,#1118);
#1117 = CARTESIAN_POINT('',(7.2,8.,7.2));
#1118 = VECTOR('',#1119,1.);
#1119 = DIRECTION('',(0.,1.,0.));
#1120 = ORIENTED_EDGE('',*,*,#1121,.T.);
#1121 = EDGE_CURVE('',#1114,#1114,#1122,.T.);
#1122 = CIRCLE('',#1123,3.);
#1123 = AXIS2_PLACEMENT_3D('',#1124,#1125,#1126);
#1124 = CARTESIAN_POINT('',(7.2,8.,4.2));
#1125 = DIRECTION('',(0.,1.,0.));
#1126 = DIRECTION('',(0.,-0.,1.));
#1127 = ORIENTED_EDGE('',*,*,#1113,.T.);
#1128 = CYLINDRICAL_SURFACE('',#1129,3.);
#1129 = AXIS2_PLACEMENT_3D('',#1130,#1131,#1132);
#1130 = CARTESIAN_POINT('',(7.2,8.,4.2));
#1131 = DIRECTION('',(0.,1.,0.));
#1132 = DIRECTION('',(0.,-0.,1.));
#1133 = ADVANCED_FACE('',(#1134),#1137,.T.);
#1134 = FACE_BOUND('',#1135,.F.);
#1135 = EDGE_LOOP('',(#1136));
#1136 = ORIENTED_EDGE('',*,*,#1096,.F.);
#1137 = PLANE('',#1138);
#1138 = AXIS2_PLACEMENT_3D('',#1139,#1140,#1141);
#1139 = CARTESIAN_POINT('',(0.,8.,4.2));
#1140 = DIRECTION('',(0.,1.,0.));
#1141 = DIRECTION('',(0.,-0.,1.));
#1142 = ADVANCED_FACE('',(#1143),#1146,.T.);
#1143 = FACE_BOUND('',#1144,.F.);
#1144 = EDGE_LOOP('',(#1145));
#1145 = ORIENTED_EDGE('',*,*,#1121,.F.);
#1146 = PLANE('',#1147);
#1147 = AXIS2_PLACEMENT_3D('',#1148,#1149,#1150);
#1148 = CARTESIAN_POINT('',(7.2,8.,4.2));
#1149 = DIRECTION('',(0.,1.,0.));
#1150 = DIRECTION('',(0.,-0.,1.));
#1151 = ( GEOMETRIC_REPRESENTATION_CONTEXT(3)
GLOBAL_UNCERTAINTY_ASSIGNED_CONTEXT((#1155))
GLOBAL_UNIT_ASSIGNED_CONTEXT((#1152,#1153,#1154)) REPRESENTATION_CONTEXT
('Context #1','3D Context with UNIT and UNCERTAINTY') );
#1152 = ( LENGTH_UNIT() NAMED_UNIT(*) SI_UNIT(.MILLI.,.METRE.) );
#1153 = ( NAMED_UNIT(*) PLANE_ANGLE_UNIT() SI_UNIT($,.RADIAN.) );
#1154 = ( NAMED_UNIT(*) SI_UNIT($,.STERADIAN.) SOLID_ANGLE_UNIT() );
#1155 = UNCERTAINTY_MEASURE_WITH_UNIT(LENGTH_MEASURE(1.E-07),#1152,
  'distance_accuracy_value','confusion accuracy');
#1156 = CONTEXT_DEPENDENT_SHAPE_REPRESENTATION(#1157,#1159);
#1157 = ( REPRESENTATION_RELATIONSHIP('','',#844,#10)
REPRESENTATION_RELATIONSHIP_WITH_TRANSFORMATION(#1158)
SHAPE_REPRESENTATION_RELATIONSHIP() );
#1158 = ITEM_DEFINED_TRANSFORMATION('','',#11,#31);
#1159 = PRODUCT_DEFINITION_SHAPE('Placement','Placement of an item',
  #1160);
#1160 = NEXT_ASSEMBLY_USAGE_OCCURRENCE('5','housing','',#5,#839,$);
#1161 = PRODUCT_RELATED_PRODUCT_CATEGORY('part',$,(#841));
#1162 = MECHANICAL_DESIGN_GEOMETRIC_PRESENTATION_REPRESENTATION('',(
    #1163),#259);
#1163 = STYLED_ITEM('color',(#1164),#49);
#1164 = PRESENTATION_STYLE_ASSIGNMENT((#1165));
#1165 = SURFACE_STYLE_USAGE(.BOTH.,#1166);
#1166 = SURFACE_SIDE_STYLE('',(#1167));
#1167 = SURFACE_STYLE_FILL_AREA(#1168);
#1168 = FILL_AREA_STYLE('',(#1169));
#1169 = FILL_AREA_STYLE_COLOUR('',#1170);
#1170 = COLOUR_RGB('',0.819999987296,0.630000008194,0.210000004305);
#1171 = MECHANICAL_DESIGN_GEOMETRIC_PRESENTATION_REPRESENTATION('',(
    #1172),#657);
#1172 = STYLED_ITEM('color',(#1173),#507);
#1173 = PRESENTATION_STYLE_ASSIGNMENT((#1174));
#1174 = SURFACE_STYLE_USAGE(.BOTH.,#1175);
#1175 = SURFACE_SIDE_STYLE('',(#1176));
#1176 = SURFACE_STYLE_FILL_AREA(#1177);
#1177 = FILL_AREA_STYLE('',(#1178));
#1178 = FILL_AREA_STYLE_COLOUR('',#1179);
#1179 = COLOUR_RGB('',0.720000003324,0.729999995167,0.750000000934);
#1180 = MECHANICAL_DESIGN_GEOMETRIC_PRESENTATION_REPRESENTATION('',(
    #1181),#1151);
#1181 = STYLED_ITEM('color',(#1182),#845);
#1182 = PRESENTATION_STYLE_ASSIGNMENT((#1183));
#1183 = SURFACE_STYLE_USAGE(.BOTH.,#1184);
#1184 = SURFACE_SIDE_STYLE('',(#1185));
#1185 = SURFACE_STYLE_FILL_AREA(#1186);
#1186 = FILL_AREA_STYLE('',(#1187));
#1187 = FILL_AREA_STYLE_COLOUR('',#1188);
#1188 = COLOUR_RGB('',0.950000001282,0.720000003324,7.999999887273E-02);
#1189 = MECHANICAL_DESIGN_GEOMETRIC_PRESENTATION_REPRESENTATION('',(
    #1190),#826);
#1190 = STYLED_ITEM('color',(#1191),#676);
#1191 = PRESENTATION_STYLE_ASSIGNMENT((#1192));
#1192 = SURFACE_STYLE_USAGE(.BOTH.,#1193);
#1193 = SURFACE_SIDE_STYLE('',(#1194));
#1194 = SURFACE_STYLE_FILL_AREA(#1195);
#1195 = FILL_AREA_STYLE('',(#1196));
#1196 = FILL_AREA_STYLE_COLOUR('',#1179);
#1197 = MECHANICAL_DESIGN_GEOMETRIC_PRESENTATION_REPRESENTATION('',(
    #1198),#488);
#1198 = STYLED_ITEM('color',(#1199),#278);
#1199 = PRESENTATION_STYLE_ASSIGNMENT((#1200));
#1200 = SURFACE_STYLE_USAGE(.BOTH.,#1201);
#1201 = SURFACE_SIDE_STYLE('',(#1202));
#1202 = SURFACE_STYLE_FILL_AREA(#1203);
#1203 = FILL_AREA_STYLE('',(#1204));
#1204 = FILL_AREA_STYLE_COLOUR('',#1170);
ENDSEC;
END-ISO-10303-21;
