ISO-10303-21;
HEADER;
FILE_DESCRIPTION(('Open CASCADE Model'),'2;1');
FILE_NAME('TerminalBlock_KANGNEX_WJ500V-5.08_1x02_P5.08mm_Horizontal.step','2026-09-30T00:00:00',('Author'),(
    'Open CASCADE'),'Open CASCADE STEP processor 7.8','Open CASCADE 7.8'
  ,'Unknown');
FILE_SCHEMA(('AUTOMOTIVE_DESIGN { 1 0 10303 214 1 1 1 1 }'));
ENDSEC;
DATA;
#1 = APPLICATION_PROTOCOL_DEFINITION('international standard',
  'automotive_design',2000,#2);
#2 = APPLICATION_CONTEXT(
  'core data for automotive mechanical design processes');
#3 = SHAPE_DEFINITION_REPRESENTATION(#4,#10);
#4 = PRODUCT_DEFINITION_SHAPE('','',#5);
#5 = PRODUCT_DEFINITION('design','',#6,#9);
#6 = PRODUCT_DEFINITION_FORMATION('','',#7);
#7 = PRODUCT('TerminalBlock_KANGNEX_WJ500V-5.08_1x02_P5.08mm_Horizontal'
  ,'TerminalBlock_KANGNEX_WJ500V-5.08_1x02_P5.08mm_Horizontal','',(#8));
#8 = PRODUCT_CONTEXT('',#2,'mechanical');
#9 = PRODUCT_DEFINITION_CONTEXT('part definition',#2,'design');
#10 = SHAPE_REPRESENTATION('',(#11,#15,#19,#23,#27,#31,#35,#39),#43);
#11 = AXIS2_PLACEMENT_3D('',#12,#13,#14);
#12 = CARTESIAN_POINT('',(0.,0.,0.));
#13 = DIRECTION('',(0.,0.,1.));
#14 = DIRECTION('',(1.,0.,-0.));
#15 = AXIS2_PLACEMENT_3D('',#16,#17,#18);
#16 = CARTESIAN_POINT('',(0.,0.,0.));
#17 = DIRECTION('',(0.,0.,1.));
#18 = DIRECTION('',(1.,0.,-0.));
#19 = AXIS2_PLACEMENT_3D('',#20,#21,#22);
#20 = CARTESIAN_POINT('',(0.,0.,0.));
#21 = DIRECTION('',(0.,0.,1.));
#22 = DIRECTION('',(1.,0.,-0.));
#23 = AXIS2_PLACEMENT_3D('',#24,#25,#26);
#24 = CARTESIAN_POINT('',(0.,0.,0.));
#25 = DIRECTION('',(0.,0.,1.));
#26 = DIRECTION('',(1.,0.,-0.));
#27 = AXIS2_PLACEMENT_3D('',#28,#29,#30);
#28 = CARTESIAN_POINT('',(0.,0.,0.));
#29 = DIRECTION('',(0.,0.,1.));
#30 = DIRECTION('',(1.,0.,-0.));
#31 = AXIS2_PLACEMENT_3D('',#32,#33,#34);
#32 = CARTESIAN_POINT('',(0.,0.,0.));
#33 = DIRECTION('',(0.,0.,1.));
#34 = DIRECTION('',(1.,0.,-0.));
#35 = AXIS2_PLACEMENT_3D('',#36,#37,#38);
#36 = CARTESIAN_POINT('',(0.,0.,0.));
#37 = DIRECTION('',(0.,0.,1.));
#38 = DIRECTION('',(1.,0.,-0.));
#39 = AXIS2_PLACEMENT_3D('',#40,#41,#42);
#40 = CARTESIAN_POINT('',(0.,0.,0.));
#41 = DIRECTION('',(0.,0.,1.));
#42 = DIRECTION('',(1.,0.,-0.));
#43 = ( GEOMETRIC_REPRESENTATION_CONTEXT(3)
GLOBAL_UNCERTAINTY_ASSIGNED_CONTEXT((#47)) GLOBAL_UNIT_ASSIGNED_CONTEXT(
(#44,#45,#46)) REPRESENTATION_CONTEXT('Context #1',
  '3D Context with UNIT and UNCERTAINTY') );
#44 = ( LENGTH_UNIT() NAMED_UNIT(*) SI_UNIT(.MILLI.,.METRE.) );
#45 = ( NAMED_UNIT(*) PLANE_ANGLE_UNIT() SI_UNIT($,.RADIAN.) );
#46 = ( NAMED_UNIT(*) SI_UNIT($,.STERADIAN.) SOLID_ANGLE_UNIT() );
#47 = UNCERTAINTY_MEASURE_WITH_UNIT(LENGTH_MEASURE(1.E-07),#44,
  'distance_accuracy_value','confusion accuracy');
#48 = PRODUCT_RELATED_PRODUCT_CATEGORY('part',$,(#7));
#49 = SHAPE_DEFINITION_REPRESENTATION(#50,#56);
#50 = PRODUCT_DEFINITION_SHAPE('','',#51);
#51 = PRODUCT_DEFINITION('design','',#52,#55);
#52 = PRODUCT_DEFINITION_FORMATION('','',#53);
#53 = PRODUCT('screw_1','screw_1','',(#54));
#54 = PRODUCT_CONTEXT('',#2,'mechanical');
#55 = PRODUCT_DEFINITION_CONTEXT('part definition',#2,'design');
#56 = ADVANCED_BREP_SHAPE_REPRESENTATION('',(#11,#57),#246);
#57 = MANIFOLD_SOLID_BREP('',#58);
#58 = CLOSED_SHELL('',(#59,#160,#169,#192,#209,#219,#236));
#59 = ADVANCED_FACE('',(#60),#155,.T.);
#60 = FACE_BOUND('',#61,.F.);
#61 = EDGE_LOOP('',(#62,#71,#79,#88,#96,#105,#113,#122,#130,#139,#147,
    #154));
#62 = ORIENTED_EDGE('',*,*,#63,.F.);
#63 = EDGE_CURVE('',#64,#64,#66,.T.);
#64 = VERTEX_POINT('',#65);
#65 = CARTESIAN_POINT('',(1.65,0.1,12.92));
#66 = CIRCLE('',#67,1.65);
#67 = AXIS2_PLACEMENT_3D('',#68,#69,#70);
#68 = CARTESIAN_POINT('',(0.,0.1,12.92));
#69 = DIRECTION('',(0.,0.,1.));
#70 = DIRECTION('',(1.,0.,0.));
#71 = ORIENTED_EDGE('',*,*,#72,.T.);
#72 = EDGE_CURVE('',#64,#73,#75,.T.);
#73 = VERTEX_POINT('',#74);
#74 = CARTESIAN_POINT('',(1.65,0.1,13.37));
#75 = LINE('',#76,#77);
#76 = CARTESIAN_POINT('',(1.65,0.1,12.92));
#77 = VECTOR('',#78,1.);
#78 = DIRECTION('',(0.,0.,1.));
#79 = ORIENTED_EDGE('',*,*,#80,.F.);
#80 = EDGE_CURVE('',#81,#73,#83,.T.);
#81 = VERTEX_POINT('',#82);
#82 = CARTESIAN_POINT('',(1.64015243194,0.28,13.37));
#83 = CIRCLE('',#84,1.65);
#84 = AXIS2_PLACEMENT_3D('',#85,#86,#87);
#85 = CARTESIAN_POINT('',(0.,0.1,13.37));
#86 = DIRECTION('',(0.,0.,-1.));
#87 = DIRECTION('',(1.,0.,0.));
#88 = ORIENTED_EDGE('',*,*,#89,.F.);
#89 = EDGE_CURVE('',#90,#81,#92,.T.);
#90 = VERTEX_POINT('',#91);
#91 = CARTESIAN_POINT('',(1.64015243194,0.28,13.67));
#92 = LINE('',#93,#94);
#93 = CARTESIAN_POINT('',(1.64015243194,0.28,12.92));
#94 = VECTOR('',#95,1.);
#95 = DIRECTION('',(-0.,-0.,-1.));
#96 = ORIENTED_EDGE('',*,*,#97,.T.);
#97 = EDGE_CURVE('',#90,#98,#100,.T.);
#98 = VERTEX_POINT('',#99);
#99 = CARTESIAN_POINT('',(-1.64015243194,0.28,13.67));
#100 = CIRCLE('',#101,1.65);
#101 = AXIS2_PLACEMENT_3D('',#102,#103,#104);
#102 = CARTESIAN_POINT('',(0.,0.1,13.67));
#103 = DIRECTION('',(0.,0.,1.));
#104 = DIRECTION('',(1.,0.,0.));
#105 = ORIENTED_EDGE('',*,*,#106,.T.);
#106 = EDGE_CURVE('',#98,#107,#109,.T.);
#107 = VERTEX_POINT('',#108);
#108 = CARTESIAN_POINT('',(-1.64015243194,0.28,13.37));
#109 = LINE('',#110,#111);
#110 = CARTESIAN_POINT('',(-1.64015243194,0.28,12.92));
#111 = VECTOR('',#112,1.);
#112 = DIRECTION('',(-0.,-0.,-1.));
#113 = ORIENTED_EDGE('',*,*,#114,.F.);
#114 = EDGE_CURVE('',#115,#107,#117,.T.);
#115 = VERTEX_POINT('',#116);
#116 = CARTESIAN_POINT('',(-1.64015243194,-8.E-02,13.37));
#117 = CIRCLE('',#118,1.65);
#118 = AXIS2_PLACEMENT_3D('',#119,#120,#121);
#119 = CARTESIAN_POINT('',(0.,0.1,13.37));
#120 = DIRECTION('',(0.,0.,-1.));
#121 = DIRECTION('',(1.,0.,0.));
#122 = ORIENTED_EDGE('',*,*,#123,.F.);
#123 = EDGE_CURVE('',#124,#115,#126,.T.);
#124 = VERTEX_POINT('',#125);
#125 = CARTESIAN_POINT('',(-1.64015243194,-8.E-02,13.67));
#126 = LINE('',#127,#128);
#127 = CARTESIAN_POINT('',(-1.64015243194,-8.E-02,12.92));
#128 = VECTOR('',#129,1.);
#129 = DIRECTION('',(-0.,-0.,-1.));
#130 = ORIENTED_EDGE('',*,*,#131,.T.);
#131 = EDGE_CURVE('',#124,#132,#134,.T.);
#132 = VERTEX_POINT('',#133);
#133 = CARTESIAN_POINT('',(1.64015243194,-8.E-02,13.67));
#134 = CIRCLE('',#135,1.65);
#135 = AXIS2_PLACEMENT_3D('',#136,#137,#138);
#136 = CARTESIAN_POINT('',(0.,0.1,13.67));
#137 = DIRECTION('',(0.,0.,1.));
#138 = DIRECTION('',(1.,0.,0.));
#139 = ORIENTED_EDGE('',*,*,#140,.T.);
#140 = EDGE_CURVE('',#132,#141,#143,.T.);
#141 = VERTEX_POINT('',#142);
#142 = CARTESIAN_POINT('',(1.64015243194,-8.E-02,13.37));
#143 = LINE('',#144,#145);
#144 = CARTESIAN_POINT('',(1.64015243194,-8.E-02,12.92));
#145 = VECTOR('',#146,1.);
#146 = DIRECTION('',(-0.,-0.,-1.));
#147 = ORIENTED_EDGE('',*,*,#148,.F.);
#148 = EDGE_CURVE('',#73,#141,#149,.T.);
#149 = CIRCLE('',#150,1.65);
#150 = AXIS2_PLACEMENT_3D('',#151,#152,#153);
#151 = CARTESIAN_POINT('',(0.,0.1,13.37));
#152 = DIRECTION('',(0.,0.,-1.));
#153 = DIRECTION('',(1.,0.,0.));
#154 = ORIENTED_EDGE('',*,*,#72,.F.);
#155 = CYLINDRICAL_SURFACE('',#156,1.65);
#156 = AXIS2_PLACEMENT_3D('',#157,#158,#159);
#157 = CARTESIAN_POINT('',(0.,0.1,12.92));
#158 = DIRECTION('',(-0.,-0.,-1.));
#159 = DIRECTION('',(1.,0.,0.));
#160 = ADVANCED_FACE('',(#161),#164,.F.);
#161 = FACE_BOUND('',#162,.F.);
#162 = EDGE_LOOP('',(#163));
#163 = ORIENTED_EDGE('',*,*,#63,.T.);
#164 = PLANE('',#165);
#165 = AXIS2_PLACEMENT_3D('',#166,#167,#168);
#166 = CARTESIAN_POINT('',(-1.035939494348E-16,0.1,12.92));
#167 = DIRECTION('',(0.,0.,1.));
#168 = DIRECTION('',(1.,0.,-0.));
#169 = ADVANCED_FACE('',(#170),#187,.T.);
#170 = FACE_BOUND('',#171,.T.);
#171 = EDGE_LOOP('',(#172,#178,#179,#185,#186));
#172 = ORIENTED_EDGE('',*,*,#173,.F.);
#173 = EDGE_CURVE('',#107,#81,#174,.T.);
#174 = LINE('',#175,#176);
#175 = CARTESIAN_POINT('',(-1.75,0.28,13.37));
#176 = VECTOR('',#177,1.);
#177 = DIRECTION('',(1.,0.,0.));
#178 = ORIENTED_EDGE('',*,*,#114,.F.);
#179 = ORIENTED_EDGE('',*,*,#180,.T.);
#180 = EDGE_CURVE('',#115,#141,#181,.T.);
#181 = LINE('',#182,#183);
#182 = CARTESIAN_POINT('',(-1.75,-8.E-02,13.37));
#183 = VECTOR('',#184,1.);
#184 = DIRECTION('',(1.,0.,0.));
#185 = ORIENTED_EDGE('',*,*,#148,.F.);
#186 = ORIENTED_EDGE('',*,*,#80,.F.);
#187 = PLANE('',#188);
#188 = AXIS2_PLACEMENT_3D('',#189,#190,#191);
#189 = CARTESIAN_POINT('',(-1.75,-8.E-02,13.37));
#190 = DIRECTION('',(0.,0.,1.));
#191 = DIRECTION('',(1.,0.,0.));
#192 = ADVANCED_FACE('',(#193),#204,.T.);
#193 = FACE_BOUND('',#194,.T.);
#194 = EDGE_LOOP('',(#195,#196,#197,#203));
#195 = ORIENTED_EDGE('',*,*,#180,.F.);
#196 = ORIENTED_EDGE('',*,*,#123,.F.);
#197 = ORIENTED_EDGE('',*,*,#198,.F.);
#198 = EDGE_CURVE('',#132,#124,#199,.T.);
#199 = LINE('',#200,#201);
#200 = CARTESIAN_POINT('',(-0.875,-8.E-02,13.67));
#201 = VECTOR('',#202,1.);
#202 = DIRECTION('',(-1.,0.,0.));
#203 = ORIENTED_EDGE('',*,*,#140,.T.);
#204 = PLANE('',#205);
#205 = AXIS2_PLACEMENT_3D('',#206,#207,#208);
#206 = CARTESIAN_POINT('',(-1.75,-8.E-02,13.37));
#207 = DIRECTION('',(0.,1.,0.));
#208 = DIRECTION('',(0.,0.,1.));
#209 = ADVANCED_FACE('',(#210),#214,.T.);
#210 = FACE_BOUND('',#211,.T.);
#211 = EDGE_LOOP('',(#212,#213));
#212 = ORIENTED_EDGE('',*,*,#131,.T.);
#213 = ORIENTED_EDGE('',*,*,#198,.T.);
#214 = PLANE('',#215);
#215 = AXIS2_PLACEMENT_3D('',#216,#217,#218);
#216 = CARTESIAN_POINT('',(-1.035939494348E-16,0.1,13.67));
#217 = DIRECTION('',(0.,0.,1.));
#218 = DIRECTION('',(1.,0.,-0.));
#219 = ADVANCED_FACE('',(#220),#231,.F.);
#220 = FACE_BOUND('',#221,.F.);
#221 = EDGE_LOOP('',(#222,#223,#224,#230));
#222 = ORIENTED_EDGE('',*,*,#173,.F.);
#223 = ORIENTED_EDGE('',*,*,#106,.F.);
#224 = ORIENTED_EDGE('',*,*,#225,.F.);
#225 = EDGE_CURVE('',#90,#98,#226,.T.);
#226 = LINE('',#227,#228);
#227 = CARTESIAN_POINT('',(-0.875,0.28,13.67));
#228 = VECTOR('',#229,1.);
#229 = DIRECTION('',(-1.,0.,0.));
#230 = ORIENTED_EDGE('',*,*,#89,.T.);
#231 = PLANE('',#232);
#232 = AXIS2_PLACEMENT_3D('',#233,#234,#235);
#233 = CARTESIAN_POINT('',(-1.75,0.28,13.37));
#234 = DIRECTION('',(0.,1.,0.));
#235 = DIRECTION('',(0.,0.,1.));
#236 = ADVANCED_FACE('',(#237),#241,.T.);
#237 = FACE_BOUND('',#238,.T.);
#238 = EDGE_LOOP('',(#239,#240));
#239 = ORIENTED_EDGE('',*,*,#225,.F.);
#240 = ORIENTED_EDGE('',*,*,#97,.T.);
#241 = PLANE('',#242);
#242 = AXIS2_PLACEMENT_3D('',#243,#244,#245);
#243 = CARTESIAN_POINT('',(-1.035939494348E-16,0.1,13.67));
#244 = DIRECTION('',(0.,0.,1.));
#245 = DIRECTION('',(1.,0.,-0.));
#246 = ( GEOMETRIC_REPRESENTATION_CONTEXT(3)
GLOBAL_UNCERTAINTY_ASSIGNED_CONTEXT((#250)) GLOBAL_UNIT_ASSIGNED_CONTEXT
((#247,#248,#249)) REPRESENTATION_CONTEXT('Context #1',
  '3D Context with UNIT and UNCERTAINTY') );
#247 = ( LENGTH_UNIT() NAMED_UNIT(*) SI_UNIT(.MILLI.,.METRE.) );
#248 = ( NAMED_UNIT(*) PLANE_ANGLE_UNIT() SI_UNIT($,.RADIAN.) );
#249 = ( NAMED_UNIT(*) SI_UNIT($,.STERADIAN.) SOLID_ANGLE_UNIT() );
#250 = UNCERTAINTY_MEASURE_WITH_UNIT(LENGTH_MEASURE(1.E-07),#247,
  'distance_accuracy_value','confusion accuracy');
#251 = CONTEXT_DEPENDENT_SHAPE_REPRESENTATION(#252,#254);
#252 = ( REPRESENTATION_RELATIONSHIP('','',#56,#10)
REPRESENTATION_RELATIONSHIP_WITH_TRANSFORMATION(#253)
SHAPE_REPRESENTATION_RELATIONSHIP() );
#253 = ITEM_DEFINED_TRANSFORMATION('','',#11,#15);
#254 = PRODUCT_DEFINITION_SHAPE('Placement','Placement of an item',#255
  );
#255 = NEXT_ASSEMBLY_USAGE_OCCURRENCE('26','screw_1','',#5,#51,$);
#256 = PRODUCT_RELATED_PRODUCT_CATEGORY('part',$,(#53));
#257 = SHAPE_DEFINITION_REPRESENTATION(#258,#264);
#258 = PRODUCT_DEFINITION_SHAPE('','',#259);
#259 = PRODUCT_DEFINITION('design','',#260,#263);
#260 = PRODUCT_DEFINITION_FORMATION('','',#261);
#261 = PRODUCT('pin_1','pin_1','',(#262));
#262 = PRODUCT_CONTEXT('',#2,'mechanical');
#263 = PRODUCT_DEFINITION_CONTEXT('part definition',#2,'design');
#264 = ADVANCED_BREP_SHAPE_REPRESENTATION('',(#11,#265),#415);
#265 = MANIFOLD_SOLID_BREP('',#266);
#266 = CLOSED_SHELL('',(#267,#307,#347,#369,#391,#403));
#267 = ADVANCED_FACE('',(#268),#302,.F.);
#268 = FACE_BOUND('',#269,.F.);
#269 = EDGE_LOOP('',(#270,#280,#288,#296));
#270 = ORIENTED_EDGE('',*,*,#271,.F.);
#271 = EDGE_CURVE('',#272,#274,#276,.T.);
#272 = VERTEX_POINT('',#273);
#273 = CARTESIAN_POINT('',(-0.45,-0.4,-4.2));
#274 = VERTEX_POINT('',#275);
#275 = CARTESIAN_POINT('',(-0.45,-0.4,0.7));
#276 = LINE('',#277,#278);
#277 = CARTESIAN_POINT('',(-0.45,-0.4,-4.2));
#278 = VECTOR('',#279,1.);
#279 = DIRECTION('',(0.,0.,1.));
#280 = ORIENTED_EDGE('',*,*,#281,.T.);
#281 = EDGE_CURVE('',#272,#282,#284,.T.);
#282 = VERTEX_POINT('',#283);
#283 = CARTESIAN_POINT('',(-0.45,0.4,-4.2));
#284 = LINE('',#285,#286);
#285 = CARTESIAN_POINT('',(-0.45,-0.4,-4.2));
#286 = VECTOR('',#287,1.);
#287 = DIRECTION('',(0.,1.,0.));
#288 = ORIENTED_EDGE('',*,*,#289,.T.);
#289 = EDGE_CURVE('',#282,#290,#292,.T.);
#290 = VERTEX_POINT('',#291);
#291 = CARTESIAN_POINT('',(-0.45,0.4,0.7));
#292 = LINE('',#293,#294);
#293 = CARTESIAN_POINT('',(-0.45,0.4,-4.2));
#294 = VECTOR('',#295,1.);
#295 = DIRECTION('',(0.,0.,1.));
#296 = ORIENTED_EDGE('',*,*,#297,.F.);
#297 = EDGE_CURVE('',#274,#290,#298,.T.);
#298 = LINE('',#299,#300);
#299 = CARTESIAN_POINT('',(-0.45,-0.4,0.7));
#300 = VECTOR('',#301,1.);
#301 = DIRECTION('',(0.,1.,0.));
#302 = PLANE('',#303);
#303 = AXIS2_PLACEMENT_3D('',#304,#305,#306);
#304 = CARTESIAN_POINT('',(-0.45,-0.4,-4.2));
#305 = DIRECTION('',(1.,0.,0.));
#306 = DIRECTION('',(0.,0.,1.));
#307 = ADVANCED_FACE('',(#308),#342,.T.);
#308 = FACE_BOUND('',#309,.T.);
#309 = EDGE_LOOP('',(#310,#320,#328,#336));
#310 = ORIENTED_EDGE('',*,*,#311,.F.);
#311 = EDGE_CURVE('',#312,#314,#316,.T.);
#312 = VERTEX_POINT('',#313);
#313 = CARTESIAN_POINT('',(0.45,-0.4,-4.2));
#314 = VERTEX_POINT('',#315);
#315 = CARTESIAN_POINT('',(0.45,-0.4,0.7));
#316 = LINE('',#317,#318);
#317 = CARTESIAN_POINT('',(0.45,-0.4,-4.2));
#318 = VECTOR('',#319,1.);
#319 = DIRECTION('',(0.,0.,1.));
#320 = ORIENTED_EDGE('',*,*,#321,.T.);
#321 = EDGE_CURVE('',#312,#322,#324,.T.);
#322 = VERTEX_POINT('',#323);
#323 = CARTESIAN_POINT('',(0.45,0.4,-4.2));
#324 = LINE('',#325,#326);
#325 = CARTESIAN_POINT('',(0.45,-0.4,-4.2));
#326 = VECTOR('',#327,1.);
#327 = DIRECTION('',(0.,1.,0.));
#328 = ORIENTED_EDGE('',*,*,#329,.T.);
#329 = EDGE_CURVE('',#322,#330,#332,.T.);
#330 = VERTEX_POINT('',#331);
#331 = CARTESIAN_POINT('',(0.45,0.4,0.7));
#332 = LINE('',#333,#334);
#333 = CARTESIAN_POINT('',(0.45,0.4,-4.2));
#334 = VECTOR('',#335,1.);
#335 = DIRECTION('',(0.,0.,1.));
#336 = ORIENTED_EDGE('',*,*,#337,.F.);
#337 = EDGE_CURVE('',#314,#330,#338,.T.);
#338 = LINE('',#339,#340);
#339 = CARTESIAN_POINT('',(0.45,-0.4,0.7));
#340 = VECTOR('',#341,1.);
#341 = DIRECTION('',(0.,1.,0.));
#342 = PLANE('',#343);
#343 = AXIS2_PLACEMENT_3D('',#344,#345,#346);
#344 = CARTESIAN_POINT('',(0.45,-0.4,-4.2));
#345 = DIRECTION('',(1.,0.,0.));
#346 = DIRECTION('',(0.,0.,1.));
#347 = ADVANCED_FACE('',(#348),#364,.F.);
#348 = FACE_BOUND('',#349,.F.);
#349 = EDGE_LOOP('',(#350,#356,#357,#363));
#350 = ORIENTED_EDGE('',*,*,#351,.F.);
#351 = EDGE_CURVE('',#272,#312,#352,.T.);
#352 = LINE('',#353,#354);
#353 = CARTESIAN_POINT('',(-0.45,-0.4,-4.2));
#354 = VECTOR('',#355,1.);
#355 = DIRECTION('',(1.,0.,0.));
#356 = ORIENTED_EDGE('',*,*,#271,.T.);
#357 = ORIENTED_EDGE('',*,*,#358,.T.);
#358 = EDGE_CURVE('',#274,#314,#359,.T.);
#359 = LINE('',#360,#361);
#360 = CARTESIAN_POINT('',(-0.45,-0.4,0.7));
#361 = VECTOR('',#362,1.);
#362 = DIRECTION('',(1.,0.,0.));
#363 = ORIENTED_EDGE('',*,*,#311,.F.);
#364 = PLANE('',#365);
#365 = AXIS2_PLACEMENT_3D('',#366,#367,#368);
#366 = CARTESIAN_POINT('',(-0.45,-0.4,-4.2));
#367 = DIRECTION('',(0.,1.,0.));
#368 = DIRECTION('',(0.,0.,1.));
#369 = ADVANCED_FACE('',(#370),#386,.T.);
#370 = FACE_BOUND('',#371,.T.);
#371 = EDGE_LOOP('',(#372,#378,#379,#385));
#372 = ORIENTED_EDGE('',*,*,#373,.F.);
#373 = EDGE_CURVE('',#282,#322,#374,.T.);
#374 = LINE('',#375,#376);
#375 = CARTESIAN_POINT('',(-0.45,0.4,-4.2));
#376 = VECTOR('',#377,1.);
#377 = DIRECTION('',(1.,0.,0.));
#378 = ORIENTED_EDGE('',*,*,#289,.T.);
#379 = ORIENTED_EDGE('',*,*,#380,.T.);
#380 = EDGE_CURVE('',#290,#330,#381,.T.);
#381 = LINE('',#382,#383);
#382 = CARTESIAN_POINT('',(-0.45,0.4,0.7));
#383 = VECTOR('',#384,1.);
#384 = DIRECTION('',(1.,0.,0.));
#385 = ORIENTED_EDGE('',*,*,#329,.F.);
#386 = PLANE('',#387);
#387 = AXIS2_PLACEMENT_3D('',#388,#389,#390);
#388 = CARTESIAN_POINT('',(-0.45,0.4,-4.2));
#389 = DIRECTION('',(0.,1.,0.));
#390 = DIRECTION('',(0.,0.,1.));
#391 = ADVANCED_FACE('',(#392),#398,.F.);
#392 = FACE_BOUND('',#393,.F.);
#393 = EDGE_LOOP('',(#394,#395,#396,#397));
#394 = ORIENTED_EDGE('',*,*,#281,.F.);
#395 = ORIENTED_EDGE('',*,*,#351,.T.);
#396 = ORIENTED_EDGE('',*,*,#321,.T.);
#397 = ORIENTED_EDGE('',*,*,#373,.F.);
#398 = PLANE('',#399);
#399 = AXIS2_PLACEMENT_3D('',#400,#401,#402);
#400 = CARTESIAN_POINT('',(-0.45,-0.4,-4.2));
#401 = DIRECTION('',(0.,0.,1.));
#402 = DIRECTION('',(1.,0.,0.));
#403 = ADVANCED_FACE('',(#404),#410,.T.);
#404 = FACE_BOUND('',#405,.T.);
#405 = EDGE_LOOP('',(#406,#407,#408,#409));
#406 = ORIENTED_EDGE('',*,*,#297,.F.);
#407 = ORIENTED_EDGE('',*,*,#358,.T.);
#408 = ORIENTED_EDGE('',*,*,#337,.T.);
#409 = ORIENTED_EDGE('',*,*,#380,.F.);
#410 = PLANE('',#411);
#411 = AXIS2_PLACEMENT_3D('',#412,#413,#414);
#412 = CARTESIAN_POINT('',(-0.45,-0.4,0.7));
#413 = DIRECTION('',(0.,0.,1.));
#414 = DIRECTION('',(1.,0.,0.));
#415 = ( GEOMETRIC_REPRESENTATION_CONTEXT(3)
GLOBAL_UNCERTAINTY_ASSIGNED_CONTEXT((#419)) GLOBAL_UNIT_ASSIGNED_CONTEXT
((#416,#417,#418)) REPRESENTATION_CONTEXT('Context #1',
  '3D Context with UNIT and UNCERTAINTY') );
#416 = ( LENGTH_UNIT() NAMED_UNIT(*) SI_UNIT(.MILLI.,.METRE.) );
#417 = ( NAMED_UNIT(*) PLANE_ANGLE_UNIT() SI_UNIT($,.RADIAN.) );
#418 = ( NAMED_UNIT(*) SI_UNIT($,.STERADIAN.) SOLID_ANGLE_UNIT() );
#419 = UNCERTAINTY_MEASURE_WITH_UNIT(LENGTH_MEASURE(1.E-07),#416,
  'distance_accuracy_value','confusion accuracy');
#420 = CONTEXT_DEPENDENT_SHAPE_REPRESENTATION(#421,#423);
#421 = ( REPRESENTATION_RELATIONSHIP('','',#264,#10)
REPRESENTATION_RELATIONSHIP_WITH_TRANSFORMATION(#422)
SHAPE_REPRESENTATION_RELATIONSHIP() );
#422 = ITEM_DEFINED_TRANSFORMATION('','',#11,#19);
#423 = PRODUCT_DEFINITION_SHAPE('Placement','Placement of an item',#424
  );
#424 = NEXT_ASSEMBLY_USAGE_OCCURRENCE('27','pin_1','',#5,#259,$);
#425 = PRODUCT_RELATED_PRODUCT_CATEGORY('part',$,(#261));
#426 = SHAPE_DEFINITION_REPRESENTATION(#427,#433);
#427 = PRODUCT_DEFINITION_SHAPE('','',#428);
#428 = PRODUCT_DEFINITION('design','',#429,#432);
#429 = PRODUCT_DEFINITION_FORMATION('','',#430);
#430 = PRODUCT('cage_1','cage_1','',(#431));
#431 = PRODUCT_CONTEXT('',#2,'mechanical');
#432 = PRODUCT_DEFINITION_CONTEXT('part definition',#2,'design');
#433 = ADVANCED_BREP_SHAPE_REPRESENTATION('',(#11,#434),#584);
#434 = MANIFOLD_SOLID_BREP('',#435);
#435 = CLOSED_SHELL('',(#436,#476,#516,#538,#560,#572));
#436 = ADVANCED_FACE('',(#437),#471,.F.);
#437 = FACE_BOUND('',#438,.F.);
#438 = EDGE_LOOP('',(#439,#449,#457,#465));
#439 = ORIENTED_EDGE('',*,*,#440,.F.);
#440 = EDGE_CURVE('',#441,#443,#445,.T.);
#441 = VERTEX_POINT('',#442);
#442 = CARTESIAN_POINT('',(-1.2192,-3.8,2.6733));
#443 = VERTEX_POINT('',#444);
#444 = CARTESIAN_POINT('',(-1.2192,-3.8,6.0501));
#445 = LINE('',#446,#447);
#446 = CARTESIAN_POINT('',(-1.2192,-3.8,2.6733));
#447 = VECTOR('',#448,1.);
#448 = DIRECTION('',(0.,0.,1.));
#449 = ORIENTED_EDGE('',*,*,#450,.T.);
#450 = EDGE_CURVE('',#441,#451,#453,.T.);
#451 = VERTEX_POINT('',#452);
#452 = CARTESIAN_POINT('',(-1.2192,-3.6,2.6733));
#453 = LINE('',#454,#455);
#454 = CARTESIAN_POINT('',(-1.2192,-3.8,2.6733));
#455 = VECTOR('',#456,1.);
#456 = DIRECTION('',(0.,1.,0.));
#457 = ORIENTED_EDGE('',*,*,#458,.T.);
#458 = EDGE_CURVE('',#451,#459,#461,.T.);
#459 = VERTEX_POINT('',#460);
#460 = CARTESIAN_POINT('',(-1.2192,-3.6,6.0501));
#461 = LINE('',#462,#463);
#462 = CARTESIAN_POINT('',(-1.2192,-3.6,2.6733));
#463 = VECTOR('',#464,1.);
#464 = DIRECTION('',(0.,0.,1.));
#465 = ORIENTED_EDGE('',*,*,#466,.F.);
#466 = EDGE_CURVE('',#443,#459,#467,.T.);
#467 = LINE('',#468,#469);
#468 = CARTESIAN_POINT('',(-1.2192,-3.8,6.0501));
#469 = VECTOR('',#470,1.);
#470 = DIRECTION('',(0.,1.,0.));
#471 = PLANE('',#472);
#472 = AXIS2_PLACEMENT_3D('',#473,#474,#475);
#473 = CARTESIAN_POINT('',(-1.2192,-3.8,2.6733));
#474 = DIRECTION('',(1.,0.,0.));
#475 = DIRECTION('',(0.,0.,1.));
#476 = ADVANCED_FACE('',(#477),#511,.T.);
#477 = FACE_BOUND('',#478,.T.);
#478 = EDGE_LOOP('',(#479,#489,#497,#505));
#479 = ORIENTED_EDGE('',*,*,#480,.F.);
#480 = EDGE_CURVE('',#481,#483,#485,.T.);
#481 = VERTEX_POINT('',#482);
#482 = CARTESIAN_POINT('',(1.2192,-3.8,2.6733));
#483 = VERTEX_POINT('',#484);
#484 = CARTESIAN_POINT('',(1.2192,-3.8,6.0501));
#485 = LINE('',#486,#487);
#486 = CARTESIAN_POINT('',(1.2192,-3.8,2.6733));
#487 = VECTOR('',#488,1.);
#488 = DIRECTION('',(0.,0.,1.));
#489 = ORIENTED_EDGE('',*,*,#490,.T.);
#490 = EDGE_CURVE('',#481,#491,#493,.T.);
#491 = VERTEX_POINT('',#492);
#492 = CARTESIAN_POINT('',(1.2192,-3.6,2.6733));
#493 = LINE('',#494,#495);
#494 = CARTESIAN_POINT('',(1.2192,-3.8,2.6733));
#495 = VECTOR('',#496,1.);
#496 = DIRECTION('',(0.,1.,0.));
#497 = ORIENTED_EDGE('',*,*,#498,.T.);
#498 = EDGE_CURVE('',#491,#499,#501,.T.);
#499 = VERTEX_POINT('',#500);
#500 = CARTESIAN_POINT('',(1.2192,-3.6,6.0501));
#501 = LINE('',#502,#503);
#502 = CARTESIAN_POINT('',(1.2192,-3.6,2.6733));
#503 = VECTOR('',#504,1.);
#504 = DIRECTION('',(0.,0.,1.));
#505 = ORIENTED_EDGE('',*,*,#506,.F.);
#506 = EDGE_CURVE('',#483,#499,#507,.T.);
#507 = LINE('',#508,#509);
#508 = CARTESIAN_POINT('',(1.2192,-3.8,6.0501));
#509 = VECTOR('',#510,1.);
#510 = DIRECTION('',(0.,1.,0.));
#511 = PLANE('',#512);
#512 = AXIS2_PLACEMENT_3D('',#513,#514,#515);
#513 = CARTESIAN_POINT('',(1.2192,-3.8,2.6733));
#514 = DIRECTION('',(1.,0.,0.));
#515 = DIRECTION('',(0.,0.,1.));
#516 = ADVANCED_FACE('',(#517),#533,.F.);
#517 = FACE_BOUND('',#518,.F.);
#518 = EDGE_LOOP('',(#519,#525,#526,#532));
#519 = ORIENTED_EDGE('',*,*,#520,.F.);
#520 = EDGE_CURVE('',#441,#481,#521,.T.);
#521 = LINE('',#522,#523);
#522 = CARTESIAN_POINT('',(-1.2192,-3.8,2.6733));
#523 = VECTOR('',#524,1.);
#524 = DIRECTION('',(1.,0.,0.));
#525 = ORIENTED_EDGE('',*,*,#440,.T.);
#526 = ORIENTED_EDGE('',*,*,#527,.T.);
#527 = EDGE_CURVE('',#443,#483,#528,.T.);
#528 = LINE('',#529,#530);
#529 = CARTESIAN_POINT('',(-1.2192,-3.8,6.0501));
#530 = VECTOR('',#531,1.);
#531 = DIRECTION('',(1.,0.,0.));
#532 = ORIENTED_EDGE('',*,*,#480,.F.);
#533 = PLANE('',#534);
#534 = AXIS2_PLACEMENT_3D('',#535,#536,#537);
#535 = CARTESIAN_POINT('',(-1.2192,-3.8,2.6733));
#536 = DIRECTION('',(0.,1.,0.));
#537 = DIRECTION('',(0.,0.,1.));
#538 = ADVANCED_FACE('',(#539),#555,.T.);
#539 = FACE_BOUND('',#540,.T.);
#540 = EDGE_LOOP('',(#541,#547,#548,#554));
#541 = ORIENTED_EDGE('',*,*,#542,.F.);
#542 = EDGE_CURVE('',#451,#491,#543,.T.);
#543 = LINE('',#544,#545);
#544 = CARTESIAN_POINT('',(-1.2192,-3.6,2.6733));
#545 = VECTOR('',#546,1.);
#546 = DIRECTION('',(1.,0.,0.));
#547 = ORIENTED_EDGE('',*,*,#458,.T.);
#548 = ORIENTED_EDGE('',*,*,#549,.T.);
#549 = EDGE_CURVE('',#459,#499,#550,.T.);
#550 = LINE('',#551,#552);
#551 = CARTESIAN_POINT('',(-1.2192,-3.6,6.0501));
#552 = VECTOR('',#553,1.);
#553 = DIRECTION('',(1.,0.,0.));
#554 = ORIENTED_EDGE('',*,*,#498,.F.);
#555 = PLANE('',#556);
#556 = AXIS2_PLACEMENT_3D('',#557,#558,#559);
#557 = CARTESIAN_POINT('',(-1.2192,-3.6,2.6733));
#558 = DIRECTION('',(0.,1.,0.));
#559 = DIRECTION('',(0.,0.,1.));
#560 = ADVANCED_FACE('',(#561),#567,.F.);
#561 = FACE_BOUND('',#562,.F.);
#562 = EDGE_LOOP('',(#563,#564,#565,#566));
#563 = ORIENTED_EDGE('',*,*,#450,.F.);
#564 = ORIENTED_EDGE('',*,*,#520,.T.);
#565 = ORIENTED_EDGE('',*,*,#490,.T.);
#566 = ORIENTED_EDGE('',*,*,#542,.F.);
#567 = PLANE('',#568);
#568 = AXIS2_PLACEMENT_3D('',#569,#570,#571);
#569 = CARTESIAN_POINT('',(-1.2192,-3.8,2.6733));
#570 = DIRECTION('',(0.,0.,1.));
#571 = DIRECTION('',(1.,0.,0.));
#572 = ADVANCED_FACE('',(#573),#579,.T.);
#573 = FACE_BOUND('',#574,.T.);
#574 = EDGE_LOOP('',(#575,#576,#577,#578));
#575 = ORIENTED_EDGE('',*,*,#466,.F.);
#576 = ORIENTED_EDGE('',*,*,#527,.T.);
#577 = ORIENTED_EDGE('',*,*,#506,.T.);
#578 = ORIENTED_EDGE('',*,*,#549,.F.);
#579 = PLANE('',#580);
#580 = AXIS2_PLACEMENT_3D('',#581,#582,#583);
#581 = CARTESIAN_POINT('',(-1.2192,-3.8,6.0501));
#582 = DIRECTION('',(0.,0.,1.));
#583 = DIRECTION('',(1.,0.,0.));
#584 = ( GEOMETRIC_REPRESENTATION_CONTEXT(3)
GLOBAL_UNCERTAINTY_ASSIGNED_CONTEXT((#588)) GLOBAL_UNIT_ASSIGNED_CONTEXT
((#585,#586,#587)) REPRESENTATION_CONTEXT('Context #1',
  '3D Context with UNIT and UNCERTAINTY') );
#585 = ( LENGTH_UNIT() NAMED_UNIT(*) SI_UNIT(.MILLI.,.METRE.) );
#586 = ( NAMED_UNIT(*) PLANE_ANGLE_UNIT() SI_UNIT($,.RADIAN.) );
#587 = ( NAMED_UNIT(*) SI_UNIT($,.STERADIAN.) SOLID_ANGLE_UNIT() );
#588 = UNCERTAINTY_MEASURE_WITH_UNIT(LENGTH_MEASURE(1.E-07),#585,
  'distance_accuracy_value','confusion accuracy');
#589 = CONTEXT_DEPENDENT_SHAPE_REPRESENTATION(#590,#592);
#590 = ( REPRESENTATION_RELATIONSHIP('','',#433,#10)
REPRESENTATION_RELATIONSHIP_WITH_TRANSFORMATION(#591)
SHAPE_REPRESENTATION_RELATIONSHIP() );
#591 = ITEM_DEFINED_TRANSFORMATION('','',#11,#23);
#592 = PRODUCT_DEFINITION_SHAPE('Placement','Placement of an item',#593
  );
#593 = NEXT_ASSEMBLY_USAGE_OCCURRENCE('28','cage_1','',#5,#428,$);
#594 = PRODUCT_RELATED_PRODUCT_CATEGORY('part',$,(#430));
#595 = SHAPE_DEFINITION_REPRESENTATION(#596,#602);
#596 = PRODUCT_DEFINITION_SHAPE('','',#597);
#597 = PRODUCT_DEFINITION('design','',#598,#601);
#598 = PRODUCT_DEFINITION_FORMATION('','',#599);
#599 = PRODUCT('screw_2','screw_2','',(#600));
#600 = PRODUCT_CONTEXT('',#2,'mechanical');
#601 = PRODUCT_DEFINITION_CONTEXT('part definition',#2,'design');
#602 = ADVANCED_BREP_SHAPE_REPRESENTATION('',(#11,#603),#792);
#603 = MANIFOLD_SOLID_BREP('',#604);
#604 = CLOSED_SHELL('',(#605,#706,#715,#738,#755,#765,#782));
#605 = ADVANCED_FACE('',(#606),#701,.T.);
#606 = FACE_BOUND('',#607,.F.);
#607 = EDGE_LOOP('',(#608,#617,#625,#634,#642,#651,#659,#668,#676,#685,
    #693,#700));
#608 = ORIENTED_EDGE('',*,*,#609,.F.);
#609 = EDGE_CURVE('',#610,#610,#612,.T.);
#610 = VERTEX_POINT('',#611);
#611 = CARTESIAN_POINT('',(6.73,0.1,12.92));
#612 = CIRCLE('',#613,1.65);
#613 = AXIS2_PLACEMENT_3D('',#614,#615,#616);
#614 = CARTESIAN_POINT('',(5.08,0.1,12.92));
#615 = DIRECTION('',(0.,0.,1.));
#616 = DIRECTION('',(1.,0.,0.));
#617 = ORIENTED_EDGE('',*,*,#618,.T.);
#618 = EDGE_CURVE('',#610,#619,#621,.T.);
#619 = VERTEX_POINT('',#620);
#620 = CARTESIAN_POINT('',(6.73,0.1,13.37));
#621 = LINE('',#622,#623);
#622 = CARTESIAN_POINT('',(6.73,0.1,12.92));
#623 = VECTOR('',#624,1.);
#624 = DIRECTION('',(0.,0.,1.));
#625 = ORIENTED_EDGE('',*,*,#626,.F.);
#626 = EDGE_CURVE('',#627,#619,#629,.T.);
#627 = VERTEX_POINT('',#628);
#628 = CARTESIAN_POINT('',(6.72015243194,0.28,13.37));
#629 = CIRCLE('',#630,1.65);
#630 = AXIS2_PLACEMENT_3D('',#631,#632,#633);
#631 = CARTESIAN_POINT('',(5.08,0.1,13.37));
#632 = DIRECTION('',(0.,0.,-1.));
#633 = DIRECTION('',(1.,0.,0.));
#634 = ORIENTED_EDGE('',*,*,#635,.F.);
#635 = EDGE_CURVE('',#636,#627,#638,.T.);
#636 = VERTEX_POINT('',#637);
#637 = CARTESIAN_POINT('',(6.72015243194,0.28,13.67));
#638 = LINE('',#639,#640);
#639 = CARTESIAN_POINT('',(6.72015243194,0.28,12.92));
#640 = VECTOR('',#641,1.);
#641 = DIRECTION('',(-0.,-0.,-1.));
#642 = ORIENTED_EDGE('',*,*,#643,.T.);
#643 = EDGE_CURVE('',#636,#644,#646,.T.);
#644 = VERTEX_POINT('',#645);
#645 = CARTESIAN_POINT('',(3.43984756806,0.28,13.67));
#646 = CIRCLE('',#647,1.65);
#647 = AXIS2_PLACEMENT_3D('',#648,#649,#650);
#648 = CARTESIAN_POINT('',(5.08,0.1,13.67));
#649 = DIRECTION('',(0.,0.,1.));
#650 = DIRECTION('',(1.,0.,0.));
#651 = ORIENTED_EDGE('',*,*,#652,.T.);
#652 = EDGE_CURVE('',#644,#653,#655,.T.);
#653 = VERTEX_POINT('',#654);
#654 = CARTESIAN_POINT('',(3.43984756806,0.28,13.37));
#655 = LINE('',#656,#657);
#656 = CARTESIAN_POINT('',(3.43984756806,0.28,12.92));
#657 = VECTOR('',#658,1.);
#658 = DIRECTION('',(-0.,-0.,-1.));
#659 = ORIENTED_EDGE('',*,*,#660,.F.);
#660 = EDGE_CURVE('',#661,#653,#663,.T.);
#661 = VERTEX_POINT('',#662);
#662 = CARTESIAN_POINT('',(3.43984756806,-8.E-02,13.37));
#663 = CIRCLE('',#664,1.65);
#664 = AXIS2_PLACEMENT_3D('',#665,#666,#667);
#665 = CARTESIAN_POINT('',(5.08,0.1,13.37));
#666 = DIRECTION('',(0.,0.,-1.));
#667 = DIRECTION('',(1.,0.,0.));
#668 = ORIENTED_EDGE('',*,*,#669,.F.);
#669 = EDGE_CURVE('',#670,#661,#672,.T.);
#670 = VERTEX_POINT('',#671);
#671 = CARTESIAN_POINT('',(3.43984756806,-8.E-02,13.67));
#672 = LINE('',#673,#674);
#673 = CARTESIAN_POINT('',(3.43984756806,-8.E-02,12.92));
#674 = VECTOR('',#675,1.);
#675 = DIRECTION('',(-0.,-0.,-1.));
#676 = ORIENTED_EDGE('',*,*,#677,.T.);
#677 = EDGE_CURVE('',#670,#678,#680,.T.);
#678 = VERTEX_POINT('',#679);
#679 = CARTESIAN_POINT('',(6.72015243194,-8.E-02,13.67));
#680 = CIRCLE('',#681,1.65);
#681 = AXIS2_PLACEMENT_3D('',#682,#683,#684);
#682 = CARTESIAN_POINT('',(5.08,0.1,13.67));
#683 = DIRECTION('',(0.,0.,1.));
#684 = DIRECTION('',(1.,0.,0.));
#685 = ORIENTED_EDGE('',*,*,#686,.T.);
#686 = EDGE_CURVE('',#678,#687,#689,.T.);
#687 = VERTEX_POINT('',#688);
#688 = CARTESIAN_POINT('',(6.72015243194,-8.E-02,13.37));
#689 = LINE('',#690,#691);
#690 = CARTESIAN_POINT('',(6.72015243194,-8.E-02,12.92));
#691 = VECTOR('',#692,1.);
#692 = DIRECTION('',(-0.,-0.,-1.));
#693 = ORIENTED_EDGE('',*,*,#694,.F.);
#694 = EDGE_CURVE('',#619,#687,#695,.T.);
#695 = CIRCLE('',#696,1.65);
#696 = AXIS2_PLACEMENT_3D('',#697,#698,#699);
#697 = CARTESIAN_POINT('',(5.08,0.1,13.37));
#698 = DIRECTION('',(0.,0.,-1.));
#699 = DIRECTION('',(1.,0.,0.));
#700 = ORIENTED_EDGE('',*,*,#618,.F.);
#701 = CYLINDRICAL_SURFACE('',#702,1.65);
#702 = AXIS2_PLACEMENT_3D('',#703,#704,#705);
#703 = CARTESIAN_POINT('',(5.08,0.1,12.92));
#704 = DIRECTION('',(-0.,-0.,-1.));
#705 = DIRECTION('',(1.,0.,0.));
#706 = ADVANCED_FACE('',(#707),#710,.F.);
#707 = FACE_BOUND('',#708,.F.);
#708 = EDGE_LOOP('',(#709));
#709 = ORIENTED_EDGE('',*,*,#609,.T.);
#710 = PLANE('',#711);
#711 = AXIS2_PLACEMENT_3D('',#712,#713,#714);
#712 = CARTESIAN_POINT('',(5.08,0.1,12.92));
#713 = DIRECTION('',(0.,0.,1.));
#714 = DIRECTION('',(1.,0.,-0.));
#715 = ADVANCED_FACE('',(#716),#733,.T.);
#716 = FACE_BOUND('',#717,.T.);
#717 = EDGE_LOOP('',(#718,#724,#725,#731,#732));
#718 = ORIENTED_EDGE('',*,*,#719,.F.);
#719 = EDGE_CURVE('',#653,#627,#720,.T.);
#720 = LINE('',#721,#722);
#721 = CARTESIAN_POINT('',(3.33,0.28,13.37));
#722 = VECTOR('',#723,1.);
#723 = DIRECTION('',(1.,0.,0.));
#724 = ORIENTED_EDGE('',*,*,#660,.F.);
#725 = ORIENTED_EDGE('',*,*,#726,.T.);
#726 = EDGE_CURVE('',#661,#687,#727,.T.);
#727 = LINE('',#728,#729);
#728 = CARTESIAN_POINT('',(3.33,-8.E-02,13.37));
#729 = VECTOR('',#730,1.);
#730 = DIRECTION('',(1.,0.,0.));
#731 = ORIENTED_EDGE('',*,*,#694,.F.);
#732 = ORIENTED_EDGE('',*,*,#626,.F.);
#733 = PLANE('',#734);
#734 = AXIS2_PLACEMENT_3D('',#735,#736,#737);
#735 = CARTESIAN_POINT('',(3.33,-8.E-02,13.37));
#736 = DIRECTION('',(0.,0.,1.));
#737 = DIRECTION('',(1.,0.,0.));
#738 = ADVANCED_FACE('',(#739),#750,.T.);
#739 = FACE_BOUND('',#740,.T.);
#740 = EDGE_LOOP('',(#741,#742,#743,#749));
#741 = ORIENTED_EDGE('',*,*,#726,.F.);
#742 = ORIENTED_EDGE('',*,*,#669,.F.);
#743 = ORIENTED_EDGE('',*,*,#744,.F.);
#744 = EDGE_CURVE('',#678,#670,#745,.T.);
#745 = LINE('',#746,#747);
#746 = CARTESIAN_POINT('',(4.205,-8.E-02,13.67));
#747 = VECTOR('',#748,1.);
#748 = DIRECTION('',(-1.,0.,0.));
#749 = ORIENTED_EDGE('',*,*,#686,.T.);
#750 = PLANE('',#751);
#751 = AXIS2_PLACEMENT_3D('',#752,#753,#754);
#752 = CARTESIAN_POINT('',(3.33,-8.E-02,13.37));
#753 = DIRECTION('',(0.,1.,0.));
#754 = DIRECTION('',(0.,0.,1.));
#755 = ADVANCED_FACE('',(#756),#760,.T.);
#756 = FACE_BOUND('',#757,.T.);
#757 = EDGE_LOOP('',(#758,#759));
#758 = ORIENTED_EDGE('',*,*,#677,.T.);
#759 = ORIENTED_EDGE('',*,*,#744,.T.);
#760 = PLANE('',#761);
#761 = AXIS2_PLACEMENT_3D('',#762,#763,#764);
#762 = CARTESIAN_POINT('',(5.08,0.1,13.67));
#763 = DIRECTION('',(0.,0.,1.));
#764 = DIRECTION('',(1.,0.,-0.));
#765 = ADVANCED_FACE('',(#766),#777,.F.);
#766 = FACE_BOUND('',#767,.F.);
#767 = EDGE_LOOP('',(#768,#769,#770,#776));
#768 = ORIENTED_EDGE('',*,*,#719,.F.);
#769 = ORIENTED_EDGE('',*,*,#652,.F.);
#770 = ORIENTED_EDGE('',*,*,#771,.F.);
#771 = EDGE_CURVE('',#636,#644,#772,.T.);
#772 = LINE('',#773,#774);
#773 = CARTESIAN_POINT('',(4.205,0.28,13.67));
#774 = VECTOR('',#775,1.);
#775 = DIRECTION('',(-1.,0.,0.));
#776 = ORIENTED_EDGE('',*,*,#635,.T.);
#777 = PLANE('',#778);
#778 = AXIS2_PLACEMENT_3D('',#779,#780,#781);
#779 = CARTESIAN_POINT('',(3.33,0.28,13.37));
#780 = DIRECTION('',(0.,1.,0.));
#781 = DIRECTION('',(0.,0.,1.));
#782 = ADVANCED_FACE('',(#783),#787,.T.);
#783 = FACE_BOUND('',#784,.T.);
#784 = EDGE_LOOP('',(#785,#786));
#785 = ORIENTED_EDGE('',*,*,#771,.F.);
#786 = ORIENTED_EDGE('',*,*,#643,.T.);
#787 = PLANE('',#788);
#788 = AXIS2_PLACEMENT_3D('',#789,#790,#791);
#789 = CARTESIAN_POINT('',(5.08,0.1,13.67));
#790 = DIRECTION('',(0.,0.,1.));
#791 = DIRECTION('',(1.,0.,-0.));
#792 = ( GEOMETRIC_REPRESENTATION_CONTEXT(3)
GLOBAL_UNCERTAINTY_ASSIGNED_CONTEXT((#796)) GLOBAL_UNIT_ASSIGNED_CONTEXT
((#793,#794,#795)) REPRESENTATION_CONTEXT('Context #1',
  '3D Context with UNIT and UNCERTAINTY') );
#793 = ( LENGTH_UNIT() NAMED_UNIT(*) SI_UNIT(.MILLI.,.METRE.) );
#794 = ( NAMED_UNIT(*) PLANE_ANGLE_UNIT() SI_UNIT($,.RADIAN.) );
#795 = ( NAMED_UNIT(*) SI_UNIT($,.STERADIAN.) SOLID_ANGLE_UNIT() );
#796 = UNCERTAINTY_MEASURE_WITH_UNIT(LENGTH_MEASURE(1.E-07),#793,
  'distance_accuracy_value','confusion accuracy');
#797 = CONTEXT_DEPENDENT_SHAPE_REPRESENTATION(#798,#800);
#798 = ( REPRESENTATION_RELATIONSHIP('','',#602,#10)
REPRESENTATION_RELATIONSHIP_WITH_TRANSFORMATION(#799)
SHAPE_REPRESENTATION_RELATIONSHIP() );
#799 = ITEM_DEFINED_TRANSFORMATION('','',#11,#27);
#800 = PRODUCT_DEFINITION_SHAPE('Placement','Placement of an item',#801
  );
#801 = NEXT_ASSEMBLY_USAGE_OCCURRENCE('29','screw_2','',#5,#597,$);
#802 = PRODUCT_RELATED_PRODUCT_CATEGORY('part',$,(#599));
#803 = SHAPE_DEFINITION_REPRESENTATION(#804,#810);
#804 = PRODUCT_DEFINITION_SHAPE('','',#805);
#805 = PRODUCT_DEFINITION('design','',#806,#809);
#806 = PRODUCT_DEFINITION_FORMATION('','',#807);
#807 = PRODUCT('pin_2','pin_2','',(#808));
#808 = PRODUCT_CONTEXT('',#2,'mechanical');
#809 = PRODUCT_DEFINITION_CONTEXT('part definition',#2,'design');
#810 = ADVANCED_BREP_SHAPE_REPRESENTATION('',(#11,#811),#961);
#811 = MANIFOLD_SOLID_BREP('',#812);
#812 = CLOSED_SHELL('',(#813,#853,#893,#915,#937,#949));
#813 = ADVANCED_FACE('',(#814),#848,.F.);
#814 = FACE_BOUND('',#815,.F.);
#815 = EDGE_LOOP('',(#816,#826,#834,#842));
#816 = ORIENTED_EDGE('',*,*,#817,.F.);
#817 = EDGE_CURVE('',#818,#820,#822,.T.);
#818 = VERTEX_POINT('',#819);
#819 = CARTESIAN_POINT('',(4.63,-0.4,-4.2));
#820 = VERTEX_POINT('',#821);
#821 = CARTESIAN_POINT('',(4.63,-0.4,0.7));
#822 = LINE('',#823,#824);
#823 = CARTESIAN_POINT('',(4.63,-0.4,-4.2));
#824 = VECTOR('',#825,1.);
#825 = DIRECTION('',(0.,0.,1.));
#826 = ORIENTED_EDGE('',*,*,#827,.T.);
#827 = EDGE_CURVE('',#818,#828,#830,.T.);
#828 = VERTEX_POINT('',#829);
#829 = CARTESIAN_POINT('',(4.63,0.4,-4.2));
#830 = LINE('',#831,#832);
#831 = CARTESIAN_POINT('',(4.63,-0.4,-4.2));
#832 = VECTOR('',#833,1.);
#833 = DIRECTION('',(0.,1.,0.));
#834 = ORIENTED_EDGE('',*,*,#835,.T.);
#835 = EDGE_CURVE('',#828,#836,#838,.T.);
#836 = VERTEX_POINT('',#837);
#837 = CARTESIAN_POINT('',(4.63,0.4,0.7));
#838 = LINE('',#839,#840);
#839 = CARTESIAN_POINT('',(4.63,0.4,-4.2));
#840 = VECTOR('',#841,1.);
#841 = DIRECTION('',(0.,0.,1.));
#842 = ORIENTED_EDGE('',*,*,#843,.F.);
#843 = EDGE_CURVE('',#820,#836,#844,.T.);
#844 = LINE('',#845,#846);
#845 = CARTESIAN_POINT('',(4.63,-0.4,0.7));
#846 = VECTOR('',#847,1.);
#847 = DIRECTION('',(0.,1.,0.));
#848 = PLANE('',#849);
#849 = AXIS2_PLACEMENT_3D('',#850,#851,#852);
#850 = CARTESIAN_POINT('',(4.63,-0.4,-4.2));
#851 = DIRECTION('',(1.,0.,0.));
#852 = DIRECTION('',(0.,0.,1.));
#853 = ADVANCED_FACE('',(#854),#888,.T.);
#854 = FACE_BOUND('',#855,.T.);
#855 = EDGE_LOOP('',(#856,#866,#874,#882));
#856 = ORIENTED_EDGE('',*,*,#857,.F.);
#857 = EDGE_CURVE('',#858,#860,#862,.T.);
#858 = VERTEX_POINT('',#859);
#859 = CARTESIAN_POINT('',(5.53,-0.4,-4.2));
#860 = VERTEX_POINT('',#861);
#861 = CARTESIAN_POINT('',(5.53,-0.4,0.7));
#862 = LINE('',#863,#864);
#863 = CARTESIAN_POINT('',(5.53,-0.4,-4.2));
#864 = VECTOR('',#865,1.);
#865 = DIRECTION('',(0.,0.,1.));
#866 = ORIENTED_EDGE('',*,*,#867,.T.);
#867 = EDGE_CURVE('',#858,#868,#870,.T.);
#868 = VERTEX_POINT('',#869);
#869 = CARTESIAN_POINT('',(5.53,0.4,-4.2));
#870 = LINE('',#871,#872);
#871 = CARTESIAN_POINT('',(5.53,-0.4,-4.2));
#872 = VECTOR('',#873,1.);
#873 = DIRECTION('',(0.,1.,0.));
#874 = ORIENTED_EDGE('',*,*,#875,.T.);
#875 = EDGE_CURVE('',#868,#876,#878,.T.);
#876 = VERTEX_POINT('',#877);
#877 = CARTESIAN_POINT('',(5.53,0.4,0.7));
#878 = LINE('',#879,#880);
#879 = CARTESIAN_POINT('',(5.53,0.4,-4.2));
#880 = VECTOR('',#881,1.);
#881 = DIRECTION('',(0.,0.,1.));
#882 = ORIENTED_EDGE('',*,*,#883,.F.);
#883 = EDGE_CURVE('',#860,#876,#884,.T.);
#884 = LINE('',#885,#886);
#885 = CARTESIAN_POINT('',(5.53,-0.4,0.7));
#886 = VECTOR('',#887,1.);
#887 = DIRECTION('',(0.,1.,0.));
#888 = PLANE('',#889);
#889 = AXIS2_PLACEMENT_3D('',#890,#891,#892);
#890 = CARTESIAN_POINT('',(5.53,-0.4,-4.2));
#891 = DIRECTION('',(1.,0.,0.));
#892 = DIRECTION('',(0.,0.,1.));
#893 = ADVANCED_FACE('',(#894),#910,.F.);
#894 = FACE_BOUND('',#895,.F.);
#895 = EDGE_LOOP('',(#896,#902,#903,#909));
#896 = ORIENTED_EDGE('',*,*,#897,.F.);
#897 = EDGE_CURVE('',#818,#858,#898,.T.);
#898 = LINE('',#899,#900);
#899 = CARTESIAN_POINT('',(4.63,-0.4,-4.2));
#900 = VECTOR('',#901,1.);
#901 = DIRECTION('',(1.,0.,0.));
#902 = ORIENTED_EDGE('',*,*,#817,.T.);
#903 = ORIENTED_EDGE('',*,*,#904,.T.);
#904 = EDGE_CURVE('',#820,#860,#905,.T.);
#905 = LINE('',#906,#907);
#906 = CARTESIAN_POINT('',(4.63,-0.4,0.7));
#907 = VECTOR('',#908,1.);
#908 = DIRECTION('',(1.,0.,0.));
#909 = ORIENTED_EDGE('',*,*,#857,.F.);
#910 = PLANE('',#911);
#911 = AXIS2_PLACEMENT_3D('',#912,#913,#914);
#912 = CARTESIAN_POINT('',(4.63,-0.4,-4.2));
#913 = DIRECTION('',(0.,1.,0.));
#914 = DIRECTION('',(0.,0.,1.));
#915 = ADVANCED_FACE('',(#916),#932,.T.);
#916 = FACE_BOUND('',#917,.T.);
#917 = EDGE_LOOP('',(#918,#924,#925,#931));
#918 = ORIENTED_EDGE('',*,*,#919,.F.);
#919 = EDGE_CURVE('',#828,#868,#920,.T.);
#920 = LINE('',#921,#922);
#921 = CARTESIAN_POINT('',(4.63,0.4,-4.2));
#922 = VECTOR('',#923,1.);
#923 = DIRECTION('',(1.,0.,0.));
#924 = ORIENTED_EDGE('',*,*,#835,.T.);
#925 = ORIENTED_EDGE('',*,*,#926,.T.);
#926 = EDGE_CURVE('',#836,#876,#927,.T.);
#927 = LINE('',#928,#929);
#928 = CARTESIAN_POINT('',(4.63,0.4,0.7));
#929 = VECTOR('',#930,1.);
#930 = DIRECTION('',(1.,0.,0.));
#931 = ORIENTED_EDGE('',*,*,#875,.F.);
#932 = PLANE('',#933);
#933 = AXIS2_PLACEMENT_3D('',#934,#935,#936);
#934 = CARTESIAN_POINT('',(4.63,0.4,-4.2));
#935 = DIRECTION('',(0.,1.,0.));
#936 = DIRECTION('',(0.,0.,1.));
#937 = ADVANCED_FACE('',(#938),#944,.F.);
#938 = FACE_BOUND('',#939,.F.);
#939 = EDGE_LOOP('',(#940,#941,#942,#943));
#940 = ORIENTED_EDGE('',*,*,#827,.F.);
#941 = ORIENTED_EDGE('',*,*,#897,.T.);
#942 = ORIENTED_EDGE('',*,*,#867,.T.);
#943 = ORIENTED_EDGE('',*,*,#919,.F.);
#944 = PLANE('',#945);
#945 = AXIS2_PLACEMENT_3D('',#946,#947,#948);
#946 = CARTESIAN_POINT('',(4.63,-0.4,-4.2));
#947 = DIRECTION('',(0.,0.,1.));
#948 = DIRECTION('',(1.,0.,0.));
#949 = ADVANCED_FACE('',(#950),#956,.T.);
#950 = FACE_BOUND('',#951,.T.);
#951 = EDGE_LOOP('',(#952,#953,#954,#955));
#952 = ORIENTED_EDGE('',*,*,#843,.F.);
#953 = ORIENTED_EDGE('',*,*,#904,.T.);
#954 = ORIENTED_EDGE('',*,*,#883,.T.);
#955 = ORIENTED_EDGE('',*,*,#926,.F.);
#956 = PLANE('',#957);
#957 = AXIS2_PLACEMENT_3D('',#958,#959,#960);
#958 = CARTESIAN_POINT('',(4.63,-0.4,0.7));
#959 = DIRECTION('',(0.,0.,1.));
#960 = DIRECTION('',(1.,0.,0.));
#961 = ( GEOMETRIC_REPRESENTATION_CONTEXT(3)
GLOBAL_UNCERTAINTY_ASSIGNED_CONTEXT((#965)) GLOBAL_UNIT_ASSIGNED_CONTEXT
((#962,#963,#964)) REPRESENTATION_CONTEXT('Context #1',
  '3D Context with UNIT and UNCERTAINTY') );
#962 = ( LENGTH_UNIT() NAMED_UNIT(*) SI_UNIT(.MILLI.,.METRE.) );
#963 = ( NAMED_UNIT(*) PLANE_ANGLE_UNIT() SI_UNIT($,.RADIAN.) );
#964 = ( NAMED_UNIT(*) SI_UNIT($,.STERADIAN.) SOLID_ANGLE_UNIT() );
#965 = UNCERTAINTY_MEASURE_WITH_UNIT(LENGTH_MEASURE(1.E-07),#962,
  'distance_accuracy_value','confusion accuracy');
#966 = CONTEXT_DEPENDENT_SHAPE_REPRESENTATION(#967,#969);
#967 = ( REPRESENTATION_RELATIONSHIP('','',#810,#10)
REPRESENTATION_RELATIONSHIP_WITH_TRANSFORMATION(#968)
SHAPE_REPRESENTATION_RELATIONSHIP() );
#968 = ITEM_DEFINED_TRANSFORMATION('','',#11,#31);
#969 = PRODUCT_DEFINITION_SHAPE('Placement','Placement of an item',#970
  );
#970 = NEXT_ASSEMBLY_USAGE_OCCURRENCE('30','pin_2','',#5,#805,$);
#971 = PRODUCT_RELATED_PRODUCT_CATEGORY('part',$,(#807));
#972 = SHAPE_DEFINITION_REPRESENTATION(#973,#979);
#973 = PRODUCT_DEFINITION_SHAPE('','',#974);
#974 = PRODUCT_DEFINITION('design','',#975,#978);
#975 = PRODUCT_DEFINITION_FORMATION('','',#976);
#976 = PRODUCT('cage_2','cage_2','',(#977));
#977 = PRODUCT_CONTEXT('',#2,'mechanical');
#978 = PRODUCT_DEFINITION_CONTEXT('part definition',#2,'design');
#979 = ADVANCED_BREP_SHAPE_REPRESENTATION('',(#11,#980),#1130);
#980 = MANIFOLD_SOLID_BREP('',#981);
#981 = CLOSED_SHELL('',(#982,#1022,#1062,#1084,#1106,#1118));
#982 = ADVANCED_FACE('',(#983),#1017,.F.);
#983 = FACE_BOUND('',#984,.F.);
#984 = EDGE_LOOP('',(#985,#995,#1003,#1011));
#985 = ORIENTED_EDGE('',*,*,#986,.F.);
#986 = EDGE_CURVE('',#987,#989,#991,.T.);
#987 = VERTEX_POINT('',#988);
#988 = CARTESIAN_POINT('',(3.8608,-3.8,2.6733));
#989 = VERTEX_POINT('',#990);
#990 = CARTESIAN_POINT('',(3.8608,-3.8,6.0501));
#991 = LINE('',#992,#993);
#992 = CARTESIAN_POINT('',(3.8608,-3.8,2.6733));
#993 = VECTOR('',#994,1.);
#994 = DIRECTION('',(0.,0.,1.));
#995 = ORIENTED_EDGE('',*,*,#996,.T.);
#996 = EDGE_CURVE('',#987,#997,#999,.T.);
#997 = VERTEX_POINT('',#998);
#998 = CARTESIAN_POINT('',(3.8608,-3.6,2.6733));
#999 = LINE('',#1000,#1001);
#1000 = CARTESIAN_POINT('',(3.8608,-3.8,2.6733));
#1001 = VECTOR('',#1002,1.);
#1002 = DIRECTION('',(0.,1.,0.));
#1003 = ORIENTED_EDGE('',*,*,#1004,.T.);
#1004 = EDGE_CURVE('',#997,#1005,#1007,.T.);
#1005 = VERTEX_POINT('',#1006);
#1006 = CARTESIAN_POINT('',(3.8608,-3.6,6.0501));
#1007 = LINE('',#1008,#1009);
#1008 = CARTESIAN_POINT('',(3.8608,-3.6,2.6733));
#1009 = VECTOR('',#1010,1.);
#1010 = DIRECTION('',(0.,0.,1.));
#1011 = ORIENTED_EDGE('',*,*,#1012,.F.);
#1012 = EDGE_CURVE('',#989,#1005,#1013,.T.);
#1013 = LINE('',#1014,#1015);
#1014 = CARTESIAN_POINT('',(3.8608,-3.8,6.0501));
#1015 = VECTOR('',#1016,1.);
#1016 = DIRECTION('',(0.,1.,0.));
#1017 = PLANE('',#1018);
#1018 = AXIS2_PLACEMENT_3D('',#1019,#1020,#1021);
#1019 = CARTESIAN_POINT('',(3.8608,-3.8,2.6733));
#1020 = DIRECTION('',(1.,0.,0.));
#1021 = DIRECTION('',(0.,0.,1.));
#1022 = ADVANCED_FACE('',(#1023),#1057,.T.);
#1023 = FACE_BOUND('',#1024,.T.);
#1024 = EDGE_LOOP('',(#1025,#1035,#1043,#1051));
#1025 = ORIENTED_EDGE('',*,*,#1026,.F.);
#1026 = EDGE_CURVE('',#1027,#1029,#1031,.T.);
#1027 = VERTEX_POINT('',#1028);
#1028 = CARTESIAN_POINT('',(6.2992,-3.8,2.6733));
#1029 = VERTEX_POINT('',#1030);
#1030 = CARTESIAN_POINT('',(6.2992,-3.8,6.0501));
#1031 = LINE('',#1032,#1033);
#1032 = CARTESIAN_POINT('',(6.2992,-3.8,2.6733));
#1033 = VECTOR('',#1034,1.);
#1034 = DIRECTION('',(0.,0.,1.));
#1035 = ORIENTED_EDGE('',*,*,#1036,.T.);
#1036 = EDGE_CURVE('',#1027,#1037,#1039,.T.);
#1037 = VERTEX_POINT('',#1038);
#1038 = CARTESIAN_POINT('',(6.2992,-3.6,2.6733));
#1039 = LINE('',#1040,#1041);
#1040 = CARTESIAN_POINT('',(6.2992,-3.8,2.6733));
#1041 = VECTOR('',#1042,1.);
#1042 = DIRECTION('',(0.,1.,0.));
#1043 = ORIENTED_EDGE('',*,*,#1044,.T.);
#1044 = EDGE_CURVE('',#1037,#1045,#1047,.T.);
#1045 = VERTEX_POINT('',#1046);
#1046 = CARTESIAN_POINT('',(6.2992,-3.6,6.0501));
#1047 = LINE('',#1048,#1049);
#1048 = CARTESIAN_POINT('',(6.2992,-3.6,2.6733));
#1049 = VECTOR('',#1050,1.);
#1050 = DIRECTION('',(0.,0.,1.));
#1051 = ORIENTED_EDGE('',*,*,#1052,.F.);
#1052 = EDGE_CURVE('',#1029,#1045,#1053,.T.);
#1053 = LINE('',#1054,#1055);
#1054 = CARTESIAN_POINT('',(6.2992,-3.8,6.0501));
#1055 = VECTOR('',#1056,1.);
#1056 = DIRECTION('',(0.,1.,0.));
#1057 = PLANE('',#1058);
#1058 = AXIS2_PLACEMENT_3D('',#1059,#1060,#1061);
#1059 = CARTESIAN_POINT('',(6.2992,-3.8,2.6733));
#1060 = DIRECTION('',(1.,0.,0.));
#1061 = DIRECTION('',(0.,0.,1.));
#1062 = ADVANCED_FACE('',(#1063),#1079,.F.);
#1063 = FACE_BOUND('',#1064,.F.);
#1064 = EDGE_LOOP('',(#1065,#1071,#1072,#1078));
#1065 = ORIENTED_EDGE('',*,*,#1066,.F.);
#1066 = EDGE_CURVE('',#987,#1027,#1067,.T.);
#1067 = LINE('',#1068,#1069);
#1068 = CARTESIAN_POINT('',(3.8608,-3.8,2.6733));
#1069 = VECTOR('',#1070,1.);
#1070 = DIRECTION('',(1.,0.,0.));
#1071 = ORIENTED_EDGE('',*,*,#986,.T.);
#1072 = ORIENTED_EDGE('',*,*,#1073,.T.);
#1073 = EDGE_CURVE('',#989,#1029,#1074,.T.);
#1074 = LINE('',#1075,#1076);
#1075 = CARTESIAN_POINT('',(3.8608,-3.8,6.0501));
#1076 = VECTOR('',#1077,1.);
#1077 = DIRECTION('',(1.,0.,0.));
#1078 = ORIENTED_EDGE('',*,*,#1026,.F.);
#1079 = PLANE('',#1080);
#1080 = AXIS2_PLACEMENT_3D('',#1081,#1082,#1083);
#1081 = CARTESIAN_POINT('',(3.8608,-3.8,2.6733));
#1082 = DIRECTION('',(0.,1.,0.));
#1083 = DIRECTION('',(0.,0.,1.));
#1084 = ADVANCED_FACE('',(#1085),#1101,.T.);
#1085 = FACE_BOUND('',#1086,.T.);
#1086 = EDGE_LOOP('',(#1087,#1093,#1094,#1100));
#1087 = ORIENTED_EDGE('',*,*,#1088,.F.);
#1088 = EDGE_CURVE('',#997,#1037,#1089,.T.);
#1089 = LINE('',#1090,#1091);
#1090 = CARTESIAN_POINT('',(3.8608,-3.6,2.6733));
#1091 = VECTOR('',#1092,1.);
#1092 = DIRECTION('',(1.,0.,0.));
#1093 = ORIENTED_EDGE('',*,*,#1004,.T.);
#1094 = ORIENTED_EDGE('',*,*,#1095,.T.);
#1095 = EDGE_CURVE('',#1005,#1045,#1096,.T.);
#1096 = LINE('',#1097,#1098);
#1097 = CARTESIAN_POINT('',(3.8608,-3.6,6.0501));
#1098 = VECTOR('',#1099,1.);
#1099 = DIRECTION('',(1.,0.,0.));
#1100 = ORIENTED_EDGE('',*,*,#1044,.F.);
#1101 = PLANE('',#1102);
#1102 = AXIS2_PLACEMENT_3D('',#1103,#1104,#1105);
#1103 = CARTESIAN_POINT('',(3.8608,-3.6,2.6733));
#1104 = DIRECTION('',(0.,1.,0.));
#1105 = DIRECTION('',(0.,0.,1.));
#1106 = ADVANCED_FACE('',(#1107),#1113,.F.);
#1107 = FACE_BOUND('',#1108,.F.);
#1108 = EDGE_LOOP('',(#1109,#1110,#1111,#1112));
#1109 = ORIENTED_EDGE('',*,*,#996,.F.);
#1110 = ORIENTED_EDGE('',*,*,#1066,.T.);
#1111 = ORIENTED_EDGE('',*,*,#1036,.T.);
#1112 = ORIENTED_EDGE('',*,*,#1088,.F.);
#1113 = PLANE('',#1114);
#1114 = AXIS2_PLACEMENT_3D('',#1115,#1116,#1117);
#1115 = CARTESIAN_POINT('',(3.8608,-3.8,2.6733));
#1116 = DIRECTION('',(0.,0.,1.));
#1117 = DIRECTION('',(1.,0.,0.));
#1118 = ADVANCED_FACE('',(#1119),#1125,.T.);
#1119 = FACE_BOUND('',#1120,.T.);
#1120 = EDGE_LOOP('',(#1121,#1122,#1123,#1124));
#1121 = ORIENTED_EDGE('',*,*,#1012,.F.);
#1122 = ORIENTED_EDGE('',*,*,#1073,.T.);
#1123 = ORIENTED_EDGE('',*,*,#1052,.T.);
#1124 = ORIENTED_EDGE('',*,*,#1095,.F.);
#1125 = PLANE('',#1126);
#1126 = AXIS2_PLACEMENT_3D('',#1127,#1128,#1129);
#1127 = CARTESIAN_POINT('',(3.8608,-3.8,6.0501));
#1128 = DIRECTION('',(0.,0.,1.));
#1129 = DIRECTION('',(1.,0.,0.));
#1130 = ( GEOMETRIC_REPRESENTATION_CONTEXT(3)
GLOBAL_UNCERTAINTY_ASSIGNED_CONTEXT((#1134))
GLOBAL_UNIT_ASSIGNED_CONTEXT((#1131,#1132,#1133)) REPRESENTATION_CONTEXT
('Context #1','3D Context with UNIT and UNCERTAINTY') );
#1131 = ( LENGTH_UNIT() NAMED_UNIT(*) SI_UNIT(.MILLI.,.METRE.) );
#1132 = ( NAMED_UNIT(*) PLANE_ANGLE_UNIT() SI_UNIT($,.RADIAN.) );
#1133 = ( NAMED_UNIT(*) SI_UNIT($,.STERADIAN.) SOLID_ANGLE_UNIT() );
#1134 = UNCERTAINTY_MEASURE_WITH_UNIT(LENGTH_MEASURE(1.E-07),#1131,
  'distance_accuracy_value','confusion accuracy');
#1135 = CONTEXT_DEPENDENT_SHAPE_REPRESENTATION(#1136,#1138);
#1136 = ( REPRESENTATION_RELATIONSHIP('','',#979,#10)
REPRESENTATION_RELATIONSHIP_WITH_TRANSFORMATION(#1137)
SHAPE_REPRESENTATION_RELATIONSHIP() );
#1137 = ITEM_DEFINED_TRANSFORMATION('','',#11,#35);
#1138 = PRODUCT_DEFINITION_SHAPE('Placement','Placement of an item',
  #1139);
#1139 = NEXT_ASSEMBLY_USAGE_OCCURRENCE('31','cage_2','',#5,#974,$);
#1140 = PRODUCT_RELATED_PRODUCT_CATEGORY('part',$,(#976));
#1141 = SHAPE_DEFINITION_REPRESENTATION(#1142,#1148);
#1142 = PRODUCT_DEFINITION_SHAPE('','',#1143);
#1143 = PRODUCT_DEFINITION('design','',#1144,#1147);
#1144 = PRODUCT_DEFINITION_FORMATION('','',#1145);
#1145 = PRODUCT('housing','housing','',(#1146));
#1146 = PRODUCT_CONTEXT('',#2,'mechanical');
#1147 = PRODUCT_DEFINITION_CONTEXT('part definition',#2,'design');
#1148 = ADVANCED_BREP_SHAPE_REPRESENTATION('',(#11,#1149),#2165);
#1149 = MANIFOLD_SOLID_BREP('',#1150);
#1150 = CLOSED_SHELL('',(#1151,#1191,#1290,#1321,#1370,#1483,#1500,#1531
    ,#1555,#1579,#1596,#1627,#1651,#1675,#1692,#1717,#1740,#1779,#1798,
    #1837,#1861,#1885,#1908,#1947,#1971,#2003,#2015,#2027,#2045,#2070,
    #2095,#2106,#2118,#2135,#2147,#2156));
#1151 = ADVANCED_FACE('',(#1152),#1186,.F.);
#1152 = FACE_BOUND('',#1153,.F.);
#1153 = EDGE_LOOP('',(#1154,#1164,#1172,#1180));
#1154 = ORIENTED_EDGE('',*,*,#1155,.T.);
#1155 = EDGE_CURVE('',#1156,#1158,#1160,.T.);
#1156 = VERTEX_POINT('',#1157);
#1157 = CARTESIAN_POINT('',(-2.54,-5.5,0.));
#1158 = VERTEX_POINT('',#1159);
#1159 = CARTESIAN_POINT('',(7.62,-5.5,0.));
#1160 = LINE('',#1161,#1162);
#1161 = CARTESIAN_POINT('',(-2.54,-5.5,0.));
#1162 = VECTOR('',#1163,1.);
#1163 = DIRECTION('',(1.,0.,0.));
#1164 = ORIENTED_EDGE('',*,*,#1165,.T.);
#1165 = EDGE_CURVE('',#1158,#1166,#1168,.T.);
#1166 = VERTEX_POINT('',#1167);
#1167 = CARTESIAN_POINT('',(7.62,4.5,0.));
#1168 = LINE('',#1169,#1170);
#1169 = CARTESIAN_POINT('',(7.62,-5.5,0.));
#1170 = VECTOR('',#1171,1.);
#1171 = DIRECTION('',(0.,1.,0.));
#1172 = ORIENTED_EDGE('',*,*,#1173,.F.);
#1173 = EDGE_CURVE('',#1174,#1166,#1176,.T.);
#1174 = VERTEX_POINT('',#1175);
#1175 = CARTESIAN_POINT('',(-2.54,4.5,0.));
#1176 = LINE('',#1177,#1178);
#1177 = CARTESIAN_POINT('',(-2.54,4.5,0.));
#1178 = VECTOR('',#1179,1.);
#1179 = DIRECTION('',(1.,0.,0.));
#1180 = ORIENTED_EDGE('',*,*,#1181,.F.);
#1181 = EDGE_CURVE('',#1156,#1174,#1182,.T.);
#1182 = LINE('',#1183,#1184);
#1183 = CARTESIAN_POINT('',(-2.54,-5.5,0.));
#1184 = VECTOR('',#1185,1.);
#1185 = DIRECTION('',(0.,1.,0.));
#1186 = PLANE('',#1187);
#1187 = AXIS2_PLACEMENT_3D('',#1188,#1189,#1190);
#1188 = CARTESIAN_POINT('',(-2.54,-5.5,0.));
#1189 = DIRECTION('',(0.,0.,1.));
#1190 = DIRECTION('',(0.,1.,0.));
#1191 = ADVANCED_FACE('',(#1192,#1217,#1251),#1285,.F.);
#1192 = FACE_BOUND('',#1193,.F.);
#1193 = EDGE_LOOP('',(#1194,#1204,#1210,#1211));
#1194 = ORIENTED_EDGE('',*,*,#1195,.T.);
#1195 = EDGE_CURVE('',#1196,#1198,#1200,.T.);
#1196 = VERTEX_POINT('',#1197);
#1197 = CARTESIAN_POINT('',(-2.54,-5.5,7.8792));
#1198 = VERTEX_POINT('',#1199);
#1199 = CARTESIAN_POINT('',(7.62,-5.5,7.8792));
#1200 = LINE('',#1201,#1202);
#1201 = CARTESIAN_POINT('',(-2.54,-5.5,7.8792));
#1202 = VECTOR('',#1203,1.);
#1203 = DIRECTION('',(1.,0.,0.));
#1204 = ORIENTED_EDGE('',*,*,#1205,.T.);
#1205 = EDGE_CURVE('',#1198,#1158,#1206,.T.);
#1206 = LINE('',#1207,#1208);
#1207 = CARTESIAN_POINT('',(7.62,-5.5,7.8792));
#1208 = VECTOR('',#1209,1.);
#1209 = DIRECTION('',(0.,0.,-1.));
#1210 = ORIENTED_EDGE('',*,*,#1155,.F.);
#1211 = ORIENTED_EDGE('',*,*,#1212,.F.);
#1212 = EDGE_CURVE('',#1196,#1156,#1213,.T.);
#1213 = LINE('',#1214,#1215);
#1214 = CARTESIAN_POINT('',(-2.54,-5.5,7.8792));
#1215 = VECTOR('',#1216,1.);
#1216 = DIRECTION('',(0.,0.,-1.));
#1217 = FACE_BOUND('',#1218,.F.);
#1218 = EDGE_LOOP('',(#1219,#1229,#1237,#1245));
#1219 = ORIENTED_EDGE('',*,*,#1220,.F.);
#1220 = EDGE_CURVE('',#1221,#1223,#1225,.T.);
#1221 = VERTEX_POINT('',#1222);
#1222 = CARTESIAN_POINT('',(3.5052,-5.5,7.1757));
#1223 = VERTEX_POINT('',#1224);
#1224 = CARTESIAN_POINT('',(6.6548,-5.5,7.1757));
#1225 = LINE('',#1226,#1227);
#1226 = CARTESIAN_POINT('',(0.4826,-5.5,7.1757));
#1227 = VECTOR('',#1228,1.);
#1228 = DIRECTION('',(1.,0.,-0.));
#1229 = ORIENTED_EDGE('',*,*,#1230,.T.);
#1230 = EDGE_CURVE('',#1221,#1231,#1233,.T.);
#1231 = VERTEX_POINT('',#1232);
#1232 = CARTESIAN_POINT('',(3.5052,-5.5,2.1105));
#1233 = LINE('',#1234,#1235);
#1234 = CARTESIAN_POINT('',(3.5052,-5.5,4.99485));
#1235 = VECTOR('',#1236,1.);
#1236 = DIRECTION('',(0.,0.,-1.));
#1237 = ORIENTED_EDGE('',*,*,#1238,.T.);
#1238 = EDGE_CURVE('',#1231,#1239,#1241,.T.);
#1239 = VERTEX_POINT('',#1240);
#1240 = CARTESIAN_POINT('',(6.6548,-5.5,2.1105));
#1241 = LINE('',#1242,#1243);
#1242 = CARTESIAN_POINT('',(0.4826,-5.5,2.1105));
#1243 = VECTOR('',#1244,1.);
#1244 = DIRECTION('',(1.,0.,-0.));
#1245 = ORIENTED_EDGE('',*,*,#1246,.F.);
#1246 = EDGE_CURVE('',#1223,#1239,#1247,.T.);
#1247 = LINE('',#1248,#1249);
#1248 = CARTESIAN_POINT('',(6.6548,-5.5,4.99485));
#1249 = VECTOR('',#1250,1.);
#1250 = DIRECTION('',(0.,0.,-1.));
#1251 = FACE_BOUND('',#1252,.F.);
#1252 = EDGE_LOOP('',(#1253,#1263,#1271,#1279));
#1253 = ORIENTED_EDGE('',*,*,#1254,.F.);
#1254 = EDGE_CURVE('',#1255,#1257,#1259,.T.);
#1255 = VERTEX_POINT('',#1256);
#1256 = CARTESIAN_POINT('',(-1.5748,-5.5,7.1757));
#1257 = VERTEX_POINT('',#1258);
#1258 = CARTESIAN_POINT('',(1.5748,-5.5,7.1757));
#1259 = LINE('',#1260,#1261);
#1260 = CARTESIAN_POINT('',(-2.0574,-5.5,7.1757));
#1261 = VECTOR('',#1262,1.);
#1262 = DIRECTION('',(1.,0.,-0.));
#1263 = ORIENTED_EDGE('',*,*,#1264,.T.);
#1264 = EDGE_CURVE('',#1255,#1265,#1267,.T.);
#1265 = VERTEX_POINT('',#1266);
#1266 = CARTESIAN_POINT('',(-1.5748,-5.5,2.1105));
#1267 = LINE('',#1268,#1269);
#1268 = CARTESIAN_POINT('',(-1.5748,-5.5,4.99485));
#1269 = VECTOR('',#1270,1.);
#1270 = DIRECTION('',(0.,0.,-1.));
#1271 = ORIENTED_EDGE('',*,*,#1272,.T.);
#1272 = EDGE_CURVE('',#1265,#1273,#1275,.T.);
#1273 = VERTEX_POINT('',#1274);
#1274 = CARTESIAN_POINT('',(1.5748,-5.5,2.1105));
#1275 = LINE('',#1276,#1277);
#1276 = CARTESIAN_POINT('',(-2.0574,-5.5,2.1105));
#1277 = VECTOR('',#1278,1.);
#1278 = DIRECTION('',(1.,0.,-0.));
#1279 = ORIENTED_EDGE('',*,*,#1280,.F.);
#1280 = EDGE_CURVE('',#1257,#1273,#1281,.T.);
#1281 = LINE('',#1282,#1283);
#1282 = CARTESIAN_POINT('',(1.5748,-5.5,4.99485));
#1283 = VECTOR('',#1284,1.);
#1284 = DIRECTION('',(0.,0.,-1.));
#1285 = PLANE('',#1286);
#1286 = AXIS2_PLACEMENT_3D('',#1287,#1288,#1289);
#1287 = CARTESIAN_POINT('',(-2.54,-5.5,7.8792));
#1288 = DIRECTION('',(-0.,1.,0.));
#1289 = DIRECTION('',(0.,0.,-1.));
#1290 = ADVANCED_FACE('',(#1291),#1316,.F.);
#1291 = FACE_BOUND('',#1292,.F.);
#1292 = EDGE_LOOP('',(#1293,#1294,#1302,#1310));
#1293 = ORIENTED_EDGE('',*,*,#1173,.T.);
#1294 = ORIENTED_EDGE('',*,*,#1295,.T.);
#1295 = EDGE_CURVE('',#1166,#1296,#1298,.T.);
#1296 = VERTEX_POINT('',#1297);
#1297 = CARTESIAN_POINT('',(7.62,4.5,9.0048));
#1298 = LINE('',#1299,#1300);
#1299 = CARTESIAN_POINT('',(7.62,4.5,0.));
#1300 = VECTOR('',#1301,1.);
#1301 = DIRECTION('',(0.,0.,1.));
#1302 = ORIENTED_EDGE('',*,*,#1303,.F.);
#1303 = EDGE_CURVE('',#1304,#1296,#1306,.T.);
#1304 = VERTEX_POINT('',#1305);
#1305 = CARTESIAN_POINT('',(-2.54,4.5,9.0048));
#1306 = LINE('',#1307,#1308);
#1307 = CARTESIAN_POINT('',(-2.54,4.5,9.0048));
#1308 = VECTOR('',#1309,1.);
#1309 = DIRECTION('',(1.,0.,0.));
#1310 = ORIENTED_EDGE('',*,*,#1311,.F.);
#1311 = EDGE_CURVE('',#1174,#1304,#1312,.T.);
#1312 = LINE('',#1313,#1314);
#1313 = CARTESIAN_POINT('',(-2.54,4.5,0.));
#1314 = VECTOR('',#1315,1.);
#1315 = DIRECTION('',(0.,0.,1.));
#1316 = PLANE('',#1317);
#1317 = AXIS2_PLACEMENT_3D('',#1318,#1319,#1320);
#1318 = CARTESIAN_POINT('',(-2.54,4.5,0.));
#1319 = DIRECTION('',(0.,-1.,0.));
#1320 = DIRECTION('',(0.,0.,1.));
#1321 = ADVANCED_FACE('',(#1322),#1365,.F.);
#1322 = FACE_BOUND('',#1323,.F.);
#1323 = EDGE_LOOP('',(#1324,#1325,#1326,#1334,#1342,#1350,#1358,#1364));
#1324 = ORIENTED_EDGE('',*,*,#1181,.T.);
#1325 = ORIENTED_EDGE('',*,*,#1311,.T.);
#1326 = ORIENTED_EDGE('',*,*,#1327,.T.);
#1327 = EDGE_CURVE('',#1304,#1328,#1330,.T.);
#1328 = VERTEX_POINT('',#1329);
#1329 = CARTESIAN_POINT('',(-2.54,3.75,9.0048));
#1330 = LINE('',#1331,#1332);
#1331 = CARTESIAN_POINT('',(-2.54,4.5,9.0048));
#1332 = VECTOR('',#1333,1.);
#1333 = DIRECTION('',(0.,-1.,0.));
#1334 = ORIENTED_EDGE('',*,*,#1335,.T.);
#1335 = EDGE_CURVE('',#1328,#1336,#1338,.T.);
#1336 = VERTEX_POINT('',#1337);
#1337 = CARTESIAN_POINT('',(-2.54,2.9,14.07));
#1338 = LINE('',#1339,#1340);
#1339 = CARTESIAN_POINT('',(-2.54,3.75,9.0048));
#1340 = VECTOR('',#1341,1.);
#1341 = DIRECTION('',(0.,-0.165497642314,0.986210185705));
#1342 = ORIENTED_EDGE('',*,*,#1343,.T.);
#1343 = EDGE_CURVE('',#1336,#1344,#1346,.T.);
#1344 = VERTEX_POINT('',#1345);
#1345 = CARTESIAN_POINT('',(-2.54,-4.2,14.07));
#1346 = LINE('',#1347,#1348);
#1347 = CARTESIAN_POINT('',(-2.54,2.9,14.07));
#1348 = VECTOR('',#1349,1.);
#1349 = DIRECTION('',(0.,-1.,0.));
#1350 = ORIENTED_EDGE('',*,*,#1351,.T.);
#1351 = EDGE_CURVE('',#1344,#1352,#1354,.T.);
#1352 = VERTEX_POINT('',#1353);
#1353 = CARTESIAN_POINT('',(-2.54,-5.05,8.442));
#1354 = LINE('',#1355,#1356);
#1355 = CARTESIAN_POINT('',(-2.54,-4.2,14.07));
#1356 = VECTOR('',#1357,1.);
#1357 = DIRECTION('',(0.,-0.149336959649,-0.988786363419));
#1358 = ORIENTED_EDGE('',*,*,#1359,.T.);
#1359 = EDGE_CURVE('',#1352,#1196,#1360,.T.);
#1360 = LINE('',#1361,#1362);
#1361 = CARTESIAN_POINT('',(-2.54,-5.05,8.442));
#1362 = VECTOR('',#1363,1.);
#1363 = DIRECTION('',(0.,-0.624491939617,-0.781031252482));
#1364 = ORIENTED_EDGE('',*,*,#1212,.T.);
#1365 = PLANE('',#1366);
#1366 = AXIS2_PLACEMENT_3D('',#1367,#1368,#1369);
#1367 = CARTESIAN_POINT('',(-2.54,-0.48363384737,6.642664243466));
#1368 = DIRECTION('',(1.,0.,0.));
#1369 = DIRECTION('',(-0.,0.,1.));
#1370 = ADVANCED_FACE('',(#1371),#1478,.T.);
#1371 = FACE_BOUND('',#1372,.T.);
#1372 = EDGE_LOOP('',(#1373,#1381,#1382,#1383,#1384,#1392,#1400,#1408,
    #1416,#1424,#1432,#1440,#1448,#1456,#1464,#1472));
#1373 = ORIENTED_EDGE('',*,*,#1374,.T.);
#1374 = EDGE_CURVE('',#1375,#1198,#1377,.T.);
#1375 = VERTEX_POINT('',#1376);
#1376 = CARTESIAN_POINT('',(7.62,-5.05,8.442));
#1377 = LINE('',#1378,#1379);
#1378 = CARTESIAN_POINT('',(7.62,-5.05,8.442));
#1379 = VECTOR('',#1380,1.);
#1380 = DIRECTION('',(0.,-0.624491939617,-0.781031252482));
#1381 = ORIENTED_EDGE('',*,*,#1205,.T.);
#1382 = ORIENTED_EDGE('',*,*,#1165,.T.);
#1383 = ORIENTED_EDGE('',*,*,#1295,.T.);
#1384 = ORIENTED_EDGE('',*,*,#1385,.T.);
#1385 = EDGE_CURVE('',#1296,#1386,#1388,.T.);
#1386 = VERTEX_POINT('',#1387);
#1387 = CARTESIAN_POINT('',(7.62,4.2,9.0048));
#1388 = LINE('',#1389,#1390);
#1389 = CARTESIAN_POINT('',(7.62,4.5,9.0048));
#1390 = VECTOR('',#1391,1.);
#1391 = DIRECTION('',(0.,-1.,0.));
#1392 = ORIENTED_EDGE('',*,*,#1393,.F.);
#1393 = EDGE_CURVE('',#1394,#1386,#1396,.T.);
#1394 = VERTEX_POINT('',#1395);
#1395 = CARTESIAN_POINT('',(7.62,4.2,5.628));
#1396 = LINE('',#1397,#1398);
#1397 = CARTESIAN_POINT('',(7.62,4.2,5.628));
#1398 = VECTOR('',#1399,1.);
#1399 = DIRECTION('',(0.,0.,1.));
#1400 = ORIENTED_EDGE('',*,*,#1401,.F.);
#1401 = EDGE_CURVE('',#1402,#1394,#1404,.T.);
#1402 = VERTEX_POINT('',#1403);
#1403 = CARTESIAN_POINT('',(7.62,3.7,5.628));
#1404 = LINE('',#1405,#1406);
#1405 = CARTESIAN_POINT('',(7.62,3.7,5.628));
#1406 = VECTOR('',#1407,1.);
#1407 = DIRECTION('',(0.,1.,0.));
#1408 = ORIENTED_EDGE('',*,*,#1409,.T.);
#1409 = EDGE_CURVE('',#1402,#1410,#1412,.T.);
#1410 = VERTEX_POINT('',#1411);
#1411 = CARTESIAN_POINT('',(7.62,3.7,9.302752941176));
#1412 = LINE('',#1413,#1414);
#1413 = CARTESIAN_POINT('',(7.62,3.7,5.628));
#1414 = VECTOR('',#1415,1.);
#1415 = DIRECTION('',(0.,0.,1.));
#1416 = ORIENTED_EDGE('',*,*,#1417,.T.);
#1417 = EDGE_CURVE('',#1410,#1418,#1420,.T.);
#1418 = VERTEX_POINT('',#1419);
#1419 = CARTESIAN_POINT('',(7.62,2.9,14.07));
#1420 = LINE('',#1421,#1422);
#1421 = CARTESIAN_POINT('',(7.62,3.75,9.0048));
#1422 = VECTOR('',#1423,1.);
#1423 = DIRECTION('',(0.,-0.165497642314,0.986210185705));
#1424 = ORIENTED_EDGE('',*,*,#1425,.T.);
#1425 = EDGE_CURVE('',#1418,#1426,#1428,.T.);
#1426 = VERTEX_POINT('',#1427);
#1427 = CARTESIAN_POINT('',(7.62,-4.2,14.07));
#1428 = LINE('',#1429,#1430);
#1429 = CARTESIAN_POINT('',(7.62,2.9,14.07));
#1430 = VECTOR('',#1431,1.);
#1431 = DIRECTION('',(0.,-1.,0.));
#1432 = ORIENTED_EDGE('',*,*,#1433,.T.);
#1433 = EDGE_CURVE('',#1426,#1434,#1436,.T.);
#1434 = VERTEX_POINT('',#1435);
#1435 = CARTESIAN_POINT('',(7.62,-4.8375,9.849));
#1436 = LINE('',#1437,#1438);
#1437 = CARTESIAN_POINT('',(7.62,-4.2,14.07));
#1438 = VECTOR('',#1439,1.);
#1439 = DIRECTION('',(0.,-0.149336959649,-0.988786363419));
#1440 = ORIENTED_EDGE('',*,*,#1441,.T.);
#1441 = EDGE_CURVE('',#1434,#1442,#1444,.T.);
#1442 = VERTEX_POINT('',#1443);
#1443 = CARTESIAN_POINT('',(7.62,-4.5,9.849));
#1444 = LINE('',#1445,#1446);
#1445 = CARTESIAN_POINT('',(7.62,-5.,9.849));
#1446 = VECTOR('',#1447,1.);
#1447 = DIRECTION('',(0.,1.,0.));
#1448 = ORIENTED_EDGE('',*,*,#1449,.F.);
#1449 = EDGE_CURVE('',#1450,#1442,#1452,.T.);
#1450 = VERTEX_POINT('',#1451);
#1451 = CARTESIAN_POINT('',(7.62,-4.5,5.628));
#1452 = LINE('',#1453,#1454);
#1453 = CARTESIAN_POINT('',(7.62,-4.5,5.628));
#1454 = VECTOR('',#1455,1.);
#1455 = DIRECTION('',(0.,0.,1.));
#1456 = ORIENTED_EDGE('',*,*,#1457,.F.);
#1457 = EDGE_CURVE('',#1458,#1450,#1460,.T.);
#1458 = VERTEX_POINT('',#1459);
#1459 = CARTESIAN_POINT('',(7.62,-5.,5.628));
#1460 = LINE('',#1461,#1462);
#1461 = CARTESIAN_POINT('',(7.62,-5.,5.628));
#1462 = VECTOR('',#1463,1.);
#1463 = DIRECTION('',(0.,1.,0.));
#1464 = ORIENTED_EDGE('',*,*,#1465,.T.);
#1465 = EDGE_CURVE('',#1458,#1466,#1468,.T.);
#1466 = VERTEX_POINT('',#1467);
#1467 = CARTESIAN_POINT('',(7.62,-5.,8.773058823529));
#1468 = LINE('',#1469,#1470);
#1469 = CARTESIAN_POINT('',(7.62,-5.,5.628));
#1470 = VECTOR('',#1471,1.);
#1471 = DIRECTION('',(0.,0.,1.));
#1472 = ORIENTED_EDGE('',*,*,#1473,.T.);
#1473 = EDGE_CURVE('',#1466,#1375,#1474,.T.);
#1474 = LINE('',#1475,#1476);
#1475 = CARTESIAN_POINT('',(7.62,-4.2,14.07));
#1476 = VECTOR('',#1477,1.);
#1477 = DIRECTION('',(0.,-0.149336959649,-0.988786363419));
#1478 = PLANE('',#1479);
#1479 = AXIS2_PLACEMENT_3D('',#1480,#1481,#1482);
#1480 = CARTESIAN_POINT('',(7.62,-0.48363384737,6.642664243466));
#1481 = DIRECTION('',(1.,0.,0.));
#1482 = DIRECTION('',(-0.,0.,1.));
#1483 = ADVANCED_FACE('',(#1484),#1495,.F.);
#1484 = FACE_BOUND('',#1485,.F.);
#1485 = EDGE_LOOP('',(#1486,#1492,#1493,#1494));
#1486 = ORIENTED_EDGE('',*,*,#1487,.T.);
#1487 = EDGE_CURVE('',#1352,#1375,#1488,.T.);
#1488 = LINE('',#1489,#1490);
#1489 = CARTESIAN_POINT('',(-2.54,-5.05,8.442));
#1490 = VECTOR('',#1491,1.);
#1491 = DIRECTION('',(1.,0.,0.));
#1492 = ORIENTED_EDGE('',*,*,#1374,.T.);
#1493 = ORIENTED_EDGE('',*,*,#1195,.F.);
#1494 = ORIENTED_EDGE('',*,*,#1359,.F.);
#1495 = PLANE('',#1496);
#1496 = AXIS2_PLACEMENT_3D('',#1497,#1498,#1499);
#1497 = CARTESIAN_POINT('',(-2.54,-5.05,8.442));
#1498 = DIRECTION('',(0.,0.781031252482,-0.624491939617));
#1499 = DIRECTION('',(0.,-0.624491939617,-0.781031252482));
#1500 = ADVANCED_FACE('',(#1501),#1526,.F.);
#1501 = FACE_BOUND('',#1502,.F.);
#1502 = EDGE_LOOP('',(#1503,#1511,#1512,#1520));
#1503 = ORIENTED_EDGE('',*,*,#1504,.F.);
#1504 = EDGE_CURVE('',#1221,#1505,#1507,.T.);
#1505 = VERTEX_POINT('',#1506);
#1506 = CARTESIAN_POINT('',(3.5052,-3.6,7.1757));
#1507 = LINE('',#1508,#1509);
#1508 = CARTESIAN_POINT('',(3.5052,-5.6,7.1757));
#1509 = VECTOR('',#1510,1.);
#1510 = DIRECTION('',(0.,1.,0.));
#1511 = ORIENTED_EDGE('',*,*,#1220,.T.);
#1512 = ORIENTED_EDGE('',*,*,#1513,.T.);
#1513 = EDGE_CURVE('',#1223,#1514,#1516,.T.);
#1514 = VERTEX_POINT('',#1515);
#1515 = CARTESIAN_POINT('',(6.6548,-3.6,7.1757));
#1516 = LINE('',#1517,#1518);
#1517 = CARTESIAN_POINT('',(6.6548,-5.6,7.1757));
#1518 = VECTOR('',#1519,1.);
#1519 = DIRECTION('',(0.,1.,0.));
#1520 = ORIENTED_EDGE('',*,*,#1521,.F.);
#1521 = EDGE_CURVE('',#1505,#1514,#1522,.T.);
#1522 = LINE('',#1523,#1524);
#1523 = CARTESIAN_POINT('',(3.5052,-3.6,7.1757));
#1524 = VECTOR('',#1525,1.);
#1525 = DIRECTION('',(1.,0.,0.));
#1526 = PLANE('',#1527);
#1527 = AXIS2_PLACEMENT_3D('',#1528,#1529,#1530);
#1528 = CARTESIAN_POINT('',(3.5052,-5.6,7.1757));
#1529 = DIRECTION('',(0.,0.,1.));
#1530 = DIRECTION('',(1.,0.,0.));
#1531 = ADVANCED_FACE('',(#1532),#1550,.F.);
#1532 = FACE_BOUND('',#1533,.F.);
#1533 = EDGE_LOOP('',(#1534,#1535,#1536,#1544));
#1534 = ORIENTED_EDGE('',*,*,#1513,.F.);
#1535 = ORIENTED_EDGE('',*,*,#1246,.T.);
#1536 = ORIENTED_EDGE('',*,*,#1537,.T.);
#1537 = EDGE_CURVE('',#1239,#1538,#1540,.T.);
#1538 = VERTEX_POINT('',#1539);
#1539 = CARTESIAN_POINT('',(6.6548,-3.6,2.1105));
#1540 = LINE('',#1541,#1542);
#1541 = CARTESIAN_POINT('',(6.6548,-5.6,2.1105));
#1542 = VECTOR('',#1543,1.);
#1543 = DIRECTION('',(0.,1.,0.));
#1544 = ORIENTED_EDGE('',*,*,#1545,.T.);
#1545 = EDGE_CURVE('',#1538,#1514,#1546,.T.);
#1546 = LINE('',#1547,#1548);
#1547 = CARTESIAN_POINT('',(6.6548,-3.6,2.1105));
#1548 = VECTOR('',#1549,1.);
#1549 = DIRECTION('',(0.,0.,1.));
#1550 = PLANE('',#1551);
#1551 = AXIS2_PLACEMENT_3D('',#1552,#1553,#1554);
#1552 = CARTESIAN_POINT('',(6.6548,-5.6,2.1105));
#1553 = DIRECTION('',(1.,0.,0.));
#1554 = DIRECTION('',(0.,0.,1.));
#1555 = ADVANCED_FACE('',(#1556),#1574,.T.);
#1556 = FACE_BOUND('',#1557,.T.);
#1557 = EDGE_LOOP('',(#1558,#1566,#1567,#1568));
#1558 = ORIENTED_EDGE('',*,*,#1559,.F.);
#1559 = EDGE_CURVE('',#1231,#1560,#1562,.T.);
#1560 = VERTEX_POINT('',#1561);
#1561 = CARTESIAN_POINT('',(3.5052,-3.6,2.1105));
#1562 = LINE('',#1563,#1564);
#1563 = CARTESIAN_POINT('',(3.5052,-5.6,2.1105));
#1564 = VECTOR('',#1565,1.);
#1565 = DIRECTION('',(0.,1.,0.));
#1566 = ORIENTED_EDGE('',*,*,#1238,.T.);
#1567 = ORIENTED_EDGE('',*,*,#1537,.T.);
#1568 = ORIENTED_EDGE('',*,*,#1569,.F.);
#1569 = EDGE_CURVE('',#1560,#1538,#1570,.T.);
#1570 = LINE('',#1571,#1572);
#1571 = CARTESIAN_POINT('',(3.5052,-3.6,2.1105));
#1572 = VECTOR('',#1573,1.);
#1573 = DIRECTION('',(1.,0.,0.));
#1574 = PLANE('',#1575);
#1575 = AXIS2_PLACEMENT_3D('',#1576,#1577,#1578);
#1576 = CARTESIAN_POINT('',(3.5052,-5.6,2.1105));
#1577 = DIRECTION('',(0.,0.,1.));
#1578 = DIRECTION('',(1.,0.,0.));
#1579 = ADVANCED_FACE('',(#1580),#1591,.T.);
#1580 = FACE_BOUND('',#1581,.T.);
#1581 = EDGE_LOOP('',(#1582,#1583,#1584,#1585));
#1582 = ORIENTED_EDGE('',*,*,#1504,.F.);
#1583 = ORIENTED_EDGE('',*,*,#1230,.T.);
#1584 = ORIENTED_EDGE('',*,*,#1559,.T.);
#1585 = ORIENTED_EDGE('',*,*,#1586,.T.);
#1586 = EDGE_CURVE('',#1560,#1505,#1587,.T.);
#1587 = LINE('',#1588,#1589);
#1588 = CARTESIAN_POINT('',(3.5052,-3.6,2.1105));
#1589 = VECTOR('',#1590,1.);
#1590 = DIRECTION('',(0.,0.,1.));
#1591 = PLANE('',#1592);
#1592 = AXIS2_PLACEMENT_3D('',#1593,#1594,#1595);
#1593 = CARTESIAN_POINT('',(3.5052,-5.6,2.1105));
#1594 = DIRECTION('',(1.,0.,0.));
#1595 = DIRECTION('',(0.,0.,1.));
#1596 = ADVANCED_FACE('',(#1597),#1622,.F.);
#1597 = FACE_BOUND('',#1598,.F.);
#1598 = EDGE_LOOP('',(#1599,#1607,#1608,#1616));
#1599 = ORIENTED_EDGE('',*,*,#1600,.F.);
#1600 = EDGE_CURVE('',#1255,#1601,#1603,.T.);
#1601 = VERTEX_POINT('',#1602);
#1602 = CARTESIAN_POINT('',(-1.5748,-3.6,7.1757));
#1603 = LINE('',#1604,#1605);
#1604 = CARTESIAN_POINT('',(-1.5748,-5.6,7.1757));
#1605 = VECTOR('',#1606,1.);
#1606 = DIRECTION('',(0.,1.,0.));
#1607 = ORIENTED_EDGE('',*,*,#1254,.T.);
#1608 = ORIENTED_EDGE('',*,*,#1609,.T.);
#1609 = EDGE_CURVE('',#1257,#1610,#1612,.T.);
#1610 = VERTEX_POINT('',#1611);
#1611 = CARTESIAN_POINT('',(1.5748,-3.6,7.1757));
#1612 = LINE('',#1613,#1614);
#1613 = CARTESIAN_POINT('',(1.5748,-5.6,7.1757));
#1614 = VECTOR('',#1615,1.);
#1615 = DIRECTION('',(0.,1.,0.));
#1616 = ORIENTED_EDGE('',*,*,#1617,.F.);
#1617 = EDGE_CURVE('',#1601,#1610,#1618,.T.);
#1618 = LINE('',#1619,#1620);
#1619 = CARTESIAN_POINT('',(-1.5748,-3.6,7.1757));
#1620 = VECTOR('',#1621,1.);
#1621 = DIRECTION('',(1.,0.,0.));
#1622 = PLANE('',#1623);
#1623 = AXIS2_PLACEMENT_3D('',#1624,#1625,#1626);
#1624 = CARTESIAN_POINT('',(-1.5748,-5.6,7.1757));
#1625 = DIRECTION('',(0.,0.,1.));
#1626 = DIRECTION('',(1.,0.,0.));
#1627 = ADVANCED_FACE('',(#1628),#1646,.T.);
#1628 = FACE_BOUND('',#1629,.T.);
#1629 = EDGE_LOOP('',(#1630,#1631,#1632,#1640));
#1630 = ORIENTED_EDGE('',*,*,#1600,.F.);
#1631 = ORIENTED_EDGE('',*,*,#1264,.T.);
#1632 = ORIENTED_EDGE('',*,*,#1633,.T.);
#1633 = EDGE_CURVE('',#1265,#1634,#1636,.T.);
#1634 = VERTEX_POINT('',#1635);
#1635 = CARTESIAN_POINT('',(-1.5748,-3.6,2.1105));
#1636 = LINE('',#1637,#1638);
#1637 = CARTESIAN_POINT('',(-1.5748,-5.6,2.1105));
#1638 = VECTOR('',#1639,1.);
#1639 = DIRECTION('',(0.,1.,0.));
#1640 = ORIENTED_EDGE('',*,*,#1641,.T.);
#1641 = EDGE_CURVE('',#1634,#1601,#1642,.T.);
#1642 = LINE('',#1643,#1644);
#1643 = CARTESIAN_POINT('',(-1.5748,-3.6,2.1105));
#1644 = VECTOR('',#1645,1.);
#1645 = DIRECTION('',(0.,0.,1.));
#1646 = PLANE('',#1647);
#1647 = AXIS2_PLACEMENT_3D('',#1648,#1649,#1650);
#1648 = CARTESIAN_POINT('',(-1.5748,-5.6,2.1105));
#1649 = DIRECTION('',(1.,0.,0.));
#1650 = DIRECTION('',(0.,0.,1.));
#1651 = ADVANCED_FACE('',(#1652),#1670,.F.);
#1652 = FACE_BOUND('',#1653,.F.);
#1653 = EDGE_LOOP('',(#1654,#1655,#1656,#1664));
#1654 = ORIENTED_EDGE('',*,*,#1609,.F.);
#1655 = ORIENTED_EDGE('',*,*,#1280,.T.);
#1656 = ORIENTED_EDGE('',*,*,#1657,.T.);
#1657 = EDGE_CURVE('',#1273,#1658,#1660,.T.);
#1658 = VERTEX_POINT('',#1659);
#1659 = CARTESIAN_POINT('',(1.5748,-3.6,2.1105));
#1660 = LINE('',#1661,#1662);
#1661 = CARTESIAN_POINT('',(1.5748,-5.6,2.1105));
#1662 = VECTOR('',#1663,1.);
#1663 = DIRECTION('',(0.,1.,0.));
#1664 = ORIENTED_EDGE('',*,*,#1665,.T.);
#1665 = EDGE_CURVE('',#1658,#1610,#1666,.T.);
#1666 = LINE('',#1667,#1668);
#1667 = CARTESIAN_POINT('',(1.5748,-3.6,2.1105));
#1668 = VECTOR('',#1669,1.);
#1669 = DIRECTION('',(0.,0.,1.));
#1670 = PLANE('',#1671);
#1671 = AXIS2_PLACEMENT_3D('',#1672,#1673,#1674);
#1672 = CARTESIAN_POINT('',(1.5748,-5.6,2.1105));
#1673 = DIRECTION('',(1.,0.,0.));
#1674 = DIRECTION('',(0.,0.,1.));
#1675 = ADVANCED_FACE('',(#1676),#1687,.T.);
#1676 = FACE_BOUND('',#1677,.T.);
#1677 = EDGE_LOOP('',(#1678,#1679,#1680,#1681));
#1678 = ORIENTED_EDGE('',*,*,#1633,.F.);
#1679 = ORIENTED_EDGE('',*,*,#1272,.T.);
#1680 = ORIENTED_EDGE('',*,*,#1657,.T.);
#1681 = ORIENTED_EDGE('',*,*,#1682,.F.);
#1682 = EDGE_CURVE('',#1634,#1658,#1683,.T.);
#1683 = LINE('',#1684,#1685);
#1684 = CARTESIAN_POINT('',(-1.5748,-3.6,2.1105));
#1685 = VECTOR('',#1686,1.);
#1686 = DIRECTION('',(1.,0.,0.));
#1687 = PLANE('',#1688);
#1688 = AXIS2_PLACEMENT_3D('',#1689,#1690,#1691);
#1689 = CARTESIAN_POINT('',(-1.5748,-5.6,2.1105));
#1690 = DIRECTION('',(0.,0.,1.));
#1691 = DIRECTION('',(1.,0.,0.));
#1692 = ADVANCED_FACE('',(#1693),#1712,.F.);
#1693 = FACE_BOUND('',#1694,.F.);
#1694 = EDGE_LOOP('',(#1695,#1696,#1697,#1705,#1711));
#1695 = ORIENTED_EDGE('',*,*,#1303,.T.);
#1696 = ORIENTED_EDGE('',*,*,#1385,.T.);
#1697 = ORIENTED_EDGE('',*,*,#1698,.T.);
#1698 = EDGE_CURVE('',#1386,#1699,#1701,.T.);
#1699 = VERTEX_POINT('',#1700);
#1700 = CARTESIAN_POINT('',(7.62,3.75,9.0048));
#1701 = LINE('',#1702,#1703);
#1702 = CARTESIAN_POINT('',(7.62,4.5,9.0048));
#1703 = VECTOR('',#1704,1.);
#1704 = DIRECTION('',(0.,-1.,0.));
#1705 = ORIENTED_EDGE('',*,*,#1706,.F.);
#1706 = EDGE_CURVE('',#1328,#1699,#1707,.T.);
#1707 = LINE('',#1708,#1709);
#1708 = CARTESIAN_POINT('',(-2.54,3.75,9.0048));
#1709 = VECTOR('',#1710,1.);
#1710 = DIRECTION('',(1.,0.,0.));
#1711 = ORIENTED_EDGE('',*,*,#1327,.F.);
#1712 = PLANE('',#1713);
#1713 = AXIS2_PLACEMENT_3D('',#1714,#1715,#1716);
#1714 = CARTESIAN_POINT('',(-2.54,4.5,9.0048));
#1715 = DIRECTION('',(0.,0.,-1.));
#1716 = DIRECTION('',(0.,-1.,0.));
#1717 = ADVANCED_FACE('',(#1718),#1735,.F.);
#1718 = FACE_BOUND('',#1719,.F.);
#1719 = EDGE_LOOP('',(#1720,#1721,#1727,#1728,#1734));
#1720 = ORIENTED_EDGE('',*,*,#1706,.T.);
#1721 = ORIENTED_EDGE('',*,*,#1722,.T.);
#1722 = EDGE_CURVE('',#1699,#1410,#1723,.T.);
#1723 = LINE('',#1724,#1725);
#1724 = CARTESIAN_POINT('',(7.62,3.75,9.0048));
#1725 = VECTOR('',#1726,1.);
#1726 = DIRECTION('',(0.,-0.165497642314,0.986210185705));
#1727 = ORIENTED_EDGE('',*,*,#1417,.T.);
#1728 = ORIENTED_EDGE('',*,*,#1729,.F.);
#1729 = EDGE_CURVE('',#1336,#1418,#1730,.T.);
#1730 = LINE('',#1731,#1732);
#1731 = CARTESIAN_POINT('',(-2.54,2.9,14.07));
#1732 = VECTOR('',#1733,1.);
#1733 = DIRECTION('',(1.,0.,0.));
#1734 = ORIENTED_EDGE('',*,*,#1335,.F.);
#1735 = PLANE('',#1736);
#1736 = AXIS2_PLACEMENT_3D('',#1737,#1738,#1739);
#1737 = CARTESIAN_POINT('',(-2.54,3.75,9.0048));
#1738 = DIRECTION('',(0.,-0.986210185705,-0.165497642314));
#1739 = DIRECTION('',(0.,-0.165497642314,0.986210185705));
#1740 = ADVANCED_FACE('',(#1741,#1752,#1763),#1774,.F.);
#1741 = FACE_BOUND('',#1742,.F.);
#1742 = EDGE_LOOP('',(#1743,#1744,#1745,#1751));
#1743 = ORIENTED_EDGE('',*,*,#1729,.T.);
#1744 = ORIENTED_EDGE('',*,*,#1425,.T.);
#1745 = ORIENTED_EDGE('',*,*,#1746,.F.);
#1746 = EDGE_CURVE('',#1344,#1426,#1747,.T.);
#1747 = LINE('',#1748,#1749);
#1748 = CARTESIAN_POINT('',(-2.54,-4.2,14.07));
#1749 = VECTOR('',#1750,1.);
#1750 = DIRECTION('',(1.,0.,0.));
#1751 = ORIENTED_EDGE('',*,*,#1343,.F.);
#1752 = FACE_BOUND('',#1753,.F.);
#1753 = EDGE_LOOP('',(#1754));
#1754 = ORIENTED_EDGE('',*,*,#1755,.F.);
#1755 = EDGE_CURVE('',#1756,#1756,#1758,.T.);
#1756 = VERTEX_POINT('',#1757);
#1757 = CARTESIAN_POINT('',(6.85,0.1,14.07));
#1758 = CIRCLE('',#1759,1.77);
#1759 = AXIS2_PLACEMENT_3D('',#1760,#1761,#1762);
#1760 = CARTESIAN_POINT('',(5.08,0.1,14.07));
#1761 = DIRECTION('',(0.,0.,-1.));
#1762 = DIRECTION('',(1.,0.,0.));
#1763 = FACE_BOUND('',#1764,.F.);
#1764 = EDGE_LOOP('',(#1765));
#1765 = ORIENTED_EDGE('',*,*,#1766,.F.);
#1766 = EDGE_CURVE('',#1767,#1767,#1769,.T.);
#1767 = VERTEX_POINT('',#1768);
#1768 = CARTESIAN_POINT('',(1.77,0.1,14.07));
#1769 = CIRCLE('',#1770,1.77);
#1770 = AXIS2_PLACEMENT_3D('',#1771,#1772,#1773);
#1771 = CARTESIAN_POINT('',(0.,0.1,14.07));
#1772 = DIRECTION('',(0.,0.,-1.));
#1773 = DIRECTION('',(1.,0.,0.));
#1774 = PLANE('',#1775);
#1775 = AXIS2_PLACEMENT_3D('',#1776,#1777,#1778);
#1776 = CARTESIAN_POINT('',(-2.54,2.9,14.07));
#1777 = DIRECTION('',(0.,0.,-1.));
#1778 = DIRECTION('',(0.,-1.,0.));
#1779 = ADVANCED_FACE('',(#1780),#1793,.F.);
#1780 = FACE_BOUND('',#1781,.F.);
#1781 = EDGE_LOOP('',(#1782,#1783,#1784,#1790,#1791,#1792));
#1782 = ORIENTED_EDGE('',*,*,#1746,.T.);
#1783 = ORIENTED_EDGE('',*,*,#1433,.T.);
#1784 = ORIENTED_EDGE('',*,*,#1785,.T.);
#1785 = EDGE_CURVE('',#1434,#1466,#1786,.T.);
#1786 = LINE('',#1787,#1788);
#1787 = CARTESIAN_POINT('',(7.62,-4.2,14.07));
#1788 = VECTOR('',#1789,1.);
#1789 = DIRECTION('',(0.,-0.149336959649,-0.988786363419));
#1790 = ORIENTED_EDGE('',*,*,#1473,.T.);
#1791 = ORIENTED_EDGE('',*,*,#1487,.F.);
#1792 = ORIENTED_EDGE('',*,*,#1351,.F.);
#1793 = PLANE('',#1794);
#1794 = AXIS2_PLACEMENT_3D('',#1795,#1796,#1797);
#1795 = CARTESIAN_POINT('',(-2.54,-4.2,14.07));
#1796 = DIRECTION('',(0.,0.988786363419,-0.149336959649));
#1797 = DIRECTION('',(0.,-0.149336959649,-0.988786363419));
#1798 = ADVANCED_FACE('',(#1799),#1832,.F.);
#1799 = FACE_BOUND('',#1800,.F.);
#1800 = EDGE_LOOP('',(#1801,#1809,#1810,#1818,#1826));
#1801 = ORIENTED_EDGE('',*,*,#1802,.F.);
#1802 = EDGE_CURVE('',#1458,#1803,#1805,.T.);
#1803 = VERTEX_POINT('',#1804);
#1804 = CARTESIAN_POINT('',(8.22,-5.,5.628));
#1805 = LINE('',#1806,#1807);
#1806 = CARTESIAN_POINT('',(7.62,-5.,5.628));
#1807 = VECTOR('',#1808,1.);
#1808 = DIRECTION('',(1.,0.,0.));
#1809 = ORIENTED_EDGE('',*,*,#1465,.T.);
#1810 = ORIENTED_EDGE('',*,*,#1811,.T.);
#1811 = EDGE_CURVE('',#1466,#1812,#1814,.T.);
#1812 = VERTEX_POINT('',#1813);
#1813 = CARTESIAN_POINT('',(7.62,-5.,9.849));
#1814 = LINE('',#1815,#1816);
#1815 = CARTESIAN_POINT('',(7.62,-5.,5.628));
#1816 = VECTOR('',#1817,1.);
#1817 = DIRECTION('',(0.,0.,1.));
#1818 = ORIENTED_EDGE('',*,*,#1819,.T.);
#1819 = EDGE_CURVE('',#1812,#1820,#1822,.T.);
#1820 = VERTEX_POINT('',#1821);
#1821 = CARTESIAN_POINT('',(8.22,-5.,9.849));
#1822 = LINE('',#1823,#1824);
#1823 = CARTESIAN_POINT('',(7.62,-5.,9.849));
#1824 = VECTOR('',#1825,1.);
#1825 = DIRECTION('',(1.,0.,0.));
#1826 = ORIENTED_EDGE('',*,*,#1827,.F.);
#1827 = EDGE_CURVE('',#1803,#1820,#1828,.T.);
#1828 = LINE('',#1829,#1830);
#1829 = CARTESIAN_POINT('',(8.22,-5.,5.628));
#1830 = VECTOR('',#1831,1.);
#1831 = DIRECTION('',(0.,0.,1.));
#1832 = PLANE('',#1833);
#1833 = AXIS2_PLACEMENT_3D('',#1834,#1835,#1836);
#1834 = CARTESIAN_POINT('',(7.62,-5.,5.628));
#1835 = DIRECTION('',(0.,1.,0.));
#1836 = DIRECTION('',(0.,0.,1.));
#1837 = ADVANCED_FACE('',(#1838),#1856,.F.);
#1838 = FACE_BOUND('',#1839,.F.);
#1839 = EDGE_LOOP('',(#1840,#1841,#1842,#1850));
#1840 = ORIENTED_EDGE('',*,*,#1457,.F.);
#1841 = ORIENTED_EDGE('',*,*,#1802,.T.);
#1842 = ORIENTED_EDGE('',*,*,#1843,.T.);
#1843 = EDGE_CURVE('',#1803,#1844,#1846,.T.);
#1844 = VERTEX_POINT('',#1845);
#1845 = CARTESIAN_POINT('',(8.22,-4.5,5.628));
#1846 = LINE('',#1847,#1848);
#1847 = CARTESIAN_POINT('',(8.22,-5.,5.628));
#1848 = VECTOR('',#1849,1.);
#1849 = DIRECTION('',(0.,1.,0.));
#1850 = ORIENTED_EDGE('',*,*,#1851,.F.);
#1851 = EDGE_CURVE('',#1450,#1844,#1852,.T.);
#1852 = LINE('',#1853,#1854);
#1853 = CARTESIAN_POINT('',(7.62,-4.5,5.628));
#1854 = VECTOR('',#1855,1.);
#1855 = DIRECTION('',(1.,0.,0.));
#1856 = PLANE('',#1857);
#1857 = AXIS2_PLACEMENT_3D('',#1858,#1859,#1860);
#1858 = CARTESIAN_POINT('',(7.62,-5.,5.628));
#1859 = DIRECTION('',(0.,0.,1.));
#1860 = DIRECTION('',(1.,0.,0.));
#1861 = ADVANCED_FACE('',(#1862),#1880,.T.);
#1862 = FACE_BOUND('',#1863,.T.);
#1863 = EDGE_LOOP('',(#1864,#1865,#1866,#1874));
#1864 = ORIENTED_EDGE('',*,*,#1851,.F.);
#1865 = ORIENTED_EDGE('',*,*,#1449,.T.);
#1866 = ORIENTED_EDGE('',*,*,#1867,.T.);
#1867 = EDGE_CURVE('',#1442,#1868,#1870,.T.);
#1868 = VERTEX_POINT('',#1869);
#1869 = CARTESIAN_POINT('',(8.22,-4.5,9.849));
#1870 = LINE('',#1871,#1872);
#1871 = CARTESIAN_POINT('',(7.62,-4.5,9.849));
#1872 = VECTOR('',#1873,1.);
#1873 = DIRECTION('',(1.,0.,0.));
#1874 = ORIENTED_EDGE('',*,*,#1875,.F.);
#1875 = EDGE_CURVE('',#1844,#1868,#1876,.T.);
#1876 = LINE('',#1877,#1878);
#1877 = CARTESIAN_POINT('',(8.22,-4.5,5.628));
#1878 = VECTOR('',#1879,1.);
#1879 = DIRECTION('',(0.,0.,1.));
#1880 = PLANE('',#1881);
#1881 = AXIS2_PLACEMENT_3D('',#1882,#1883,#1884);
#1882 = CARTESIAN_POINT('',(7.62,-4.5,5.628));
#1883 = DIRECTION('',(0.,1.,0.));
#1884 = DIRECTION('',(0.,0.,1.));
#1885 = ADVANCED_FACE('',(#1886),#1903,.T.);
#1886 = FACE_BOUND('',#1887,.T.);
#1887 = EDGE_LOOP('',(#1888,#1894,#1895,#1901,#1902));
#1888 = ORIENTED_EDGE('',*,*,#1889,.F.);
#1889 = EDGE_CURVE('',#1812,#1434,#1890,.T.);
#1890 = LINE('',#1891,#1892);
#1891 = CARTESIAN_POINT('',(7.62,-5.,9.849));
#1892 = VECTOR('',#1893,1.);
#1893 = DIRECTION('',(0.,1.,0.));
#1894 = ORIENTED_EDGE('',*,*,#1819,.T.);
#1895 = ORIENTED_EDGE('',*,*,#1896,.T.);
#1896 = EDGE_CURVE('',#1820,#1868,#1897,.T.);
#1897 = LINE('',#1898,#1899);
#1898 = CARTESIAN_POINT('',(8.22,-5.,9.849));
#1899 = VECTOR('',#1900,1.);
#1900 = DIRECTION('',(0.,1.,0.));
#1901 = ORIENTED_EDGE('',*,*,#1867,.F.);
#1902 = ORIENTED_EDGE('',*,*,#1441,.F.);
#1903 = PLANE('',#1904);
#1904 = AXIS2_PLACEMENT_3D('',#1905,#1906,#1907);
#1905 = CARTESIAN_POINT('',(7.62,-5.,9.849));
#1906 = DIRECTION('',(0.,0.,1.));
#1907 = DIRECTION('',(1.,0.,0.));
#1908 = ADVANCED_FACE('',(#1909),#1942,.F.);
#1909 = FACE_BOUND('',#1910,.F.);
#1910 = EDGE_LOOP('',(#1911,#1919,#1920,#1928,#1936));
#1911 = ORIENTED_EDGE('',*,*,#1912,.F.);
#1912 = EDGE_CURVE('',#1402,#1913,#1915,.T.);
#1913 = VERTEX_POINT('',#1914);
#1914 = CARTESIAN_POINT('',(8.22,3.7,5.628));
#1915 = LINE('',#1916,#1917);
#1916 = CARTESIAN_POINT('',(7.62,3.7,5.628));
#1917 = VECTOR('',#1918,1.);
#1918 = DIRECTION('',(1.,0.,0.));
#1919 = ORIENTED_EDGE('',*,*,#1409,.T.);
#1920 = ORIENTED_EDGE('',*,*,#1921,.T.);
#1921 = EDGE_CURVE('',#1410,#1922,#1924,.T.);
#1922 = VERTEX_POINT('',#1923);
#1923 = CARTESIAN_POINT('',(7.62,3.7,9.849));
#1924 = LINE('',#1925,#1926);
#1925 = CARTESIAN_POINT('',(7.62,3.7,5.628));
#1926 = VECTOR('',#1927,1.);
#1927 = DIRECTION('',(0.,0.,1.));
#1928 = ORIENTED_EDGE('',*,*,#1929,.T.);
#1929 = EDGE_CURVE('',#1922,#1930,#1932,.T.);
#1930 = VERTEX_POINT('',#1931);
#1931 = CARTESIAN_POINT('',(8.22,3.7,9.849));
#1932 = LINE('',#1933,#1934);
#1933 = CARTESIAN_POINT('',(7.62,3.7,9.849));
#1934 = VECTOR('',#1935,1.);
#1935 = DIRECTION('',(1.,0.,0.));
#1936 = ORIENTED_EDGE('',*,*,#1937,.F.);
#1937 = EDGE_CURVE('',#1913,#1930,#1938,.T.);
#1938 = LINE('',#1939,#1940);
#1939 = CARTESIAN_POINT('',(8.22,3.7,5.628));
#1940 = VECTOR('',#1941,1.);
#1941 = DIRECTION('',(0.,0.,1.));
#1942 = PLANE('',#1943);
#1943 = AXIS2_PLACEMENT_3D('',#1944,#1945,#1946);
#1944 = CARTESIAN_POINT('',(7.62,3.7,5.628));
#1945 = DIRECTION('',(0.,1.,0.));
#1946 = DIRECTION('',(0.,0.,1.));
#1947 = ADVANCED_FACE('',(#1948),#1966,.F.);
#1948 = FACE_BOUND('',#1949,.F.);
#1949 = EDGE_LOOP('',(#1950,#1951,#1952,#1960));
#1950 = ORIENTED_EDGE('',*,*,#1401,.F.);
#1951 = ORIENTED_EDGE('',*,*,#1912,.T.);
#1952 = ORIENTED_EDGE('',*,*,#1953,.T.);
#1953 = EDGE_CURVE('',#1913,#1954,#1956,.T.);
#1954 = VERTEX_POINT('',#1955);
#1955 = CARTESIAN_POINT('',(8.22,4.2,5.628));
#1956 = LINE('',#1957,#1958);
#1957 = CARTESIAN_POINT('',(8.22,3.7,5.628));
#1958 = VECTOR('',#1959,1.);
#1959 = DIRECTION('',(0.,1.,0.));
#1960 = ORIENTED_EDGE('',*,*,#1961,.F.);
#1961 = EDGE_CURVE('',#1394,#1954,#1962,.T.);
#1962 = LINE('',#1963,#1964);
#1963 = CARTESIAN_POINT('',(7.62,4.2,5.628));
#1964 = VECTOR('',#1965,1.);
#1965 = DIRECTION('',(1.,0.,0.));
#1966 = PLANE('',#1967);
#1967 = AXIS2_PLACEMENT_3D('',#1968,#1969,#1970);
#1968 = CARTESIAN_POINT('',(7.62,3.7,5.628));
#1969 = DIRECTION('',(0.,0.,1.));
#1970 = DIRECTION('',(1.,0.,0.));
#1971 = ADVANCED_FACE('',(#1972),#1998,.T.);
#1972 = FACE_BOUND('',#1973,.T.);
#1973 = EDGE_LOOP('',(#1974,#1975,#1976,#1984,#1992));
#1974 = ORIENTED_EDGE('',*,*,#1961,.F.);
#1975 = ORIENTED_EDGE('',*,*,#1393,.T.);
#1976 = ORIENTED_EDGE('',*,*,#1977,.T.);
#1977 = EDGE_CURVE('',#1386,#1978,#1980,.T.);
#1978 = VERTEX_POINT('',#1979);
#1979 = CARTESIAN_POINT('',(7.62,4.2,9.849));
#1980 = LINE('',#1981,#1982);
#1981 = CARTESIAN_POINT('',(7.62,4.2,5.628));
#1982 = VECTOR('',#1983,1.);
#1983 = DIRECTION('',(0.,0.,1.));
#1984 = ORIENTED_EDGE('',*,*,#1985,.T.);
#1985 = EDGE_CURVE('',#1978,#1986,#1988,.T.);
#1986 = VERTEX_POINT('',#1987);
#1987 = CARTESIAN_POINT('',(8.22,4.2,9.849));
#1988 = LINE('',#1989,#1990);
#1989 = CARTESIAN_POINT('',(7.62,4.2,9.849));
#1990 = VECTOR('',#1991,1.);
#1991 = DIRECTION('',(1.,0.,0.));
#1992 = ORIENTED_EDGE('',*,*,#1993,.F.);
#1993 = EDGE_CURVE('',#1954,#1986,#1994,.T.);
#1994 = LINE('',#1995,#1996);
#1995 = CARTESIAN_POINT('',(8.22,4.2,5.628));
#1996 = VECTOR('',#1997,1.);
#1997 = DIRECTION('',(0.,0.,1.));
#1998 = PLANE('',#1999);
#1999 = AXIS2_PLACEMENT_3D('',#2000,#2001,#2002);
#2000 = CARTESIAN_POINT('',(7.62,4.2,5.628));
#2001 = DIRECTION('',(0.,1.,0.));
#2002 = DIRECTION('',(0.,0.,1.));
#2003 = ADVANCED_FACE('',(#2004),#2010,.F.);
#2004 = FACE_BOUND('',#2005,.F.);
#2005 = EDGE_LOOP('',(#2006,#2007,#2008,#2009));
#2006 = ORIENTED_EDGE('',*,*,#1569,.F.);
#2007 = ORIENTED_EDGE('',*,*,#1586,.T.);
#2008 = ORIENTED_EDGE('',*,*,#1521,.T.);
#2009 = ORIENTED_EDGE('',*,*,#1545,.F.);
#2010 = PLANE('',#2011);
#2011 = AXIS2_PLACEMENT_3D('',#2012,#2013,#2014);
#2012 = CARTESIAN_POINT('',(3.5052,-3.6,2.1105));
#2013 = DIRECTION('',(0.,1.,0.));
#2014 = DIRECTION('',(0.,0.,1.));
#2015 = ADVANCED_FACE('',(#2016),#2022,.F.);
#2016 = FACE_BOUND('',#2017,.F.);
#2017 = EDGE_LOOP('',(#2018,#2019,#2020,#2021));
#2018 = ORIENTED_EDGE('',*,*,#1682,.F.);
#2019 = ORIENTED_EDGE('',*,*,#1641,.T.);
#2020 = ORIENTED_EDGE('',*,*,#1617,.T.);
#2021 = ORIENTED_EDGE('',*,*,#1665,.F.);
#2022 = PLANE('',#2023);
#2023 = AXIS2_PLACEMENT_3D('',#2024,#2025,#2026);
#2024 = CARTESIAN_POINT('',(-1.5748,-3.6,2.1105));
#2025 = DIRECTION('',(0.,1.,0.));
#2026 = DIRECTION('',(0.,0.,1.));
#2027 = ADVANCED_FACE('',(#2028),#2040,.F.);
#2028 = FACE_BOUND('',#2029,.F.);
#2029 = EDGE_LOOP('',(#2030,#2031,#2032,#2033,#2034));
#2030 = ORIENTED_EDGE('',*,*,#1921,.F.);
#2031 = ORIENTED_EDGE('',*,*,#1722,.F.);
#2032 = ORIENTED_EDGE('',*,*,#1698,.F.);
#2033 = ORIENTED_EDGE('',*,*,#1977,.T.);
#2034 = ORIENTED_EDGE('',*,*,#2035,.F.);
#2035 = EDGE_CURVE('',#1922,#1978,#2036,.T.);
#2036 = LINE('',#2037,#2038);
#2037 = CARTESIAN_POINT('',(7.62,3.7,9.849));
#2038 = VECTOR('',#2039,1.);
#2039 = DIRECTION('',(0.,1.,0.));
#2040 = PLANE('',#2041);
#2041 = AXIS2_PLACEMENT_3D('',#2042,#2043,#2044);
#2042 = CARTESIAN_POINT('',(7.62,3.7,5.628));
#2043 = DIRECTION('',(1.,0.,0.));
#2044 = DIRECTION('',(0.,0.,1.));
#2045 = ADVANCED_FACE('',(#2046),#2065,.F.);
#2046 = FACE_BOUND('',#2047,.T.);
#2047 = EDGE_LOOP('',(#2048,#2057,#2063,#2064));
#2048 = ORIENTED_EDGE('',*,*,#2049,.F.);
#2049 = EDGE_CURVE('',#2050,#2050,#2052,.T.);
#2050 = VERTEX_POINT('',#2051);
#2051 = CARTESIAN_POINT('',(6.85,0.1,12.92));
#2052 = CIRCLE('',#2053,1.77);
#2053 = AXIS2_PLACEMENT_3D('',#2054,#2055,#2056);
#2054 = CARTESIAN_POINT('',(5.08,0.1,12.92));
#2055 = DIRECTION('',(0.,0.,1.));
#2056 = DIRECTION('',(1.,0.,0.));
#2057 = ORIENTED_EDGE('',*,*,#2058,.T.);
#2058 = EDGE_CURVE('',#2050,#1756,#2059,.T.);
#2059 = LINE('',#2060,#2061);
#2060 = CARTESIAN_POINT('',(6.85,0.1,12.92));
#2061 = VECTOR('',#2062,1.);
#2062 = DIRECTION('',(0.,0.,1.));
#2063 = ORIENTED_EDGE('',*,*,#1755,.F.);
#2064 = ORIENTED_EDGE('',*,*,#2058,.F.);
#2065 = CYLINDRICAL_SURFACE('',#2066,1.77);
#2066 = AXIS2_PLACEMENT_3D('',#2067,#2068,#2069);
#2067 = CARTESIAN_POINT('',(5.08,0.1,12.92));
#2068 = DIRECTION('',(-0.,-0.,-1.));
#2069 = DIRECTION('',(1.,0.,0.));
#2070 = ADVANCED_FACE('',(#2071),#2090,.F.);
#2071 = FACE_BOUND('',#2072,.T.);
#2072 = EDGE_LOOP('',(#2073,#2082,#2088,#2089));
#2073 = ORIENTED_EDGE('',*,*,#2074,.F.);
#2074 = EDGE_CURVE('',#2075,#2075,#2077,.T.);
#2075 = VERTEX_POINT('',#2076);
#2076 = CARTESIAN_POINT('',(1.77,0.1,12.92));
#2077 = CIRCLE('',#2078,1.77);
#2078 = AXIS2_PLACEMENT_3D('',#2079,#2080,#2081);
#2079 = CARTESIAN_POINT('',(0.,0.1,12.92));
#2080 = DIRECTION('',(0.,0.,1.));
#2081 = DIRECTION('',(1.,0.,0.));
#2082 = ORIENTED_EDGE('',*,*,#2083,.T.);
#2083 = EDGE_CURVE('',#2075,#1767,#2084,.T.);
#2084 = LINE('',#2085,#2086);
#2085 = CARTESIAN_POINT('',(1.77,0.1,12.92));
#2086 = VECTOR('',#2087,1.);
#2087 = DIRECTION('',(0.,0.,1.));
#2088 = ORIENTED_EDGE('',*,*,#1766,.F.);
#2089 = ORIENTED_EDGE('',*,*,#2083,.F.);
#2090 = CYLINDRICAL_SURFACE('',#2091,1.77);
#2091 = AXIS2_PLACEMENT_3D('',#2092,#2093,#2094);
#2092 = CARTESIAN_POINT('',(0.,0.1,12.92));
#2093 = DIRECTION('',(-0.,-0.,-1.));
#2094 = DIRECTION('',(1.,0.,0.));
#2095 = ADVANCED_FACE('',(#2096),#2101,.F.);
#2096 = FACE_BOUND('',#2097,.F.);
#2097 = EDGE_LOOP('',(#2098,#2099,#2100));
#2098 = ORIENTED_EDGE('',*,*,#1811,.F.);
#2099 = ORIENTED_EDGE('',*,*,#1785,.F.);
#2100 = ORIENTED_EDGE('',*,*,#1889,.F.);
#2101 = PLANE('',#2102);
#2102 = AXIS2_PLACEMENT_3D('',#2103,#2104,#2105);
#2103 = CARTESIAN_POINT('',(7.62,-5.,5.628));
#2104 = DIRECTION('',(1.,0.,0.));
#2105 = DIRECTION('',(0.,0.,1.));
#2106 = ADVANCED_FACE('',(#2107),#2113,.T.);
#2107 = FACE_BOUND('',#2108,.T.);
#2108 = EDGE_LOOP('',(#2109,#2110,#2111,#2112));
#2109 = ORIENTED_EDGE('',*,*,#1827,.F.);
#2110 = ORIENTED_EDGE('',*,*,#1843,.T.);
#2111 = ORIENTED_EDGE('',*,*,#1875,.T.);
#2112 = ORIENTED_EDGE('',*,*,#1896,.F.);
#2113 = PLANE('',#2114);
#2114 = AXIS2_PLACEMENT_3D('',#2115,#2116,#2117);
#2115 = CARTESIAN_POINT('',(8.22,-5.,5.628));
#2116 = DIRECTION('',(1.,0.,0.));
#2117 = DIRECTION('',(0.,0.,1.));
#2118 = ADVANCED_FACE('',(#2119),#2130,.T.);
#2119 = FACE_BOUND('',#2120,.T.);
#2120 = EDGE_LOOP('',(#2121,#2122,#2123,#2124));
#2121 = ORIENTED_EDGE('',*,*,#1937,.F.);
#2122 = ORIENTED_EDGE('',*,*,#1953,.T.);
#2123 = ORIENTED_EDGE('',*,*,#1993,.T.);
#2124 = ORIENTED_EDGE('',*,*,#2125,.F.);
#2125 = EDGE_CURVE('',#1930,#1986,#2126,.T.);
#2126 = LINE('',#2127,#2128);
#2127 = CARTESIAN_POINT('',(8.22,3.7,9.849));
#2128 = VECTOR('',#2129,1.);
#2129 = DIRECTION('',(0.,1.,0.));
#2130 = PLANE('',#2131);
#2131 = AXIS2_PLACEMENT_3D('',#2132,#2133,#2134);
#2132 = CARTESIAN_POINT('',(8.22,3.7,5.628));
#2133 = DIRECTION('',(1.,0.,0.));
#2134 = DIRECTION('',(0.,0.,1.));
#2135 = ADVANCED_FACE('',(#2136),#2142,.T.);
#2136 = FACE_BOUND('',#2137,.T.);
#2137 = EDGE_LOOP('',(#2138,#2139,#2140,#2141));
#2138 = ORIENTED_EDGE('',*,*,#2035,.F.);
#2139 = ORIENTED_EDGE('',*,*,#1929,.T.);
#2140 = ORIENTED_EDGE('',*,*,#2125,.T.);
#2141 = ORIENTED_EDGE('',*,*,#1985,.F.);
#2142 = PLANE('',#2143);
#2143 = AXIS2_PLACEMENT_3D('',#2144,#2145,#2146);
#2144 = CARTESIAN_POINT('',(7.62,3.7,9.849));
#2145 = DIRECTION('',(0.,0.,1.));
#2146 = DIRECTION('',(1.,0.,0.));
#2147 = ADVANCED_FACE('',(#2148),#2151,.T.);
#2148 = FACE_BOUND('',#2149,.T.);
#2149 = EDGE_LOOP('',(#2150));
#2150 = ORIENTED_EDGE('',*,*,#2049,.T.);
#2151 = PLANE('',#2152);
#2152 = AXIS2_PLACEMENT_3D('',#2153,#2154,#2155);
#2153 = CARTESIAN_POINT('',(5.08,0.1,12.92));
#2154 = DIRECTION('',(0.,0.,1.));
#2155 = DIRECTION('',(1.,0.,-0.));
#2156 = ADVANCED_FACE('',(#2157),#2160,.T.);
#2157 = FACE_BOUND('',#2158,.T.);
#2158 = EDGE_LOOP('',(#2159));
#2159 = ORIENTED_EDGE('',*,*,#2074,.T.);
#2160 = PLANE('',#2161);
#2161 = AXIS2_PLACEMENT_3D('',#2162,#2163,#2164);
#2162 = CARTESIAN_POINT('',(-9.657063082906E-17,0.1,12.92));
#2163 = DIRECTION('',(0.,0.,1.));
#2164 = DIRECTION('',(1.,0.,-0.));
#2165 = ( GEOMETRIC_REPRESENTATION_CONTEXT(3)
GLOBAL_UNCERTAINTY_ASSIGNED_CONTEXT((#2169))
GLOBAL_UNIT_ASSIGNED_CONTEXT((#2166,#2167,#2168)) REPRESENTATION_CONTEXT
('Context #1','3D Context with UNIT and UNCERTAINTY') );
#2166 = ( LENGTH_UNIT() NAMED_UNIT(*) SI_UNIT(.MILLI.,.METRE.) );
#2167 = ( NAMED_UNIT(*) PLANE_ANGLE_UNIT() SI_UNIT($,.RADIAN.) );
#2168 = ( NAMED_UNIT(*) SI_UNIT($,.STERADIAN.) SOLID_ANGLE_UNIT() );
#2169 = UNCERTAINTY_MEASURE_WITH_UNIT(LENGTH_MEASURE(1.E-07),#2166,
  'distance_accuracy_value','confusion accuracy');
#2170 = CONTEXT_DEPENDENT_SHAPE_REPRESENTATION(#2171,#2173);
#2171 = ( REPRESENTATION_RELATIONSHIP('','',#1148,#10)
REPRESENTATION_RELATIONSHIP_WITH_TRANSFORMATION(#2172)
SHAPE_REPRESENTATION_RELATIONSHIP() );
#2172 = ITEM_DEFINED_TRANSFORMATION('','',#11,#39);
#2173 = PRODUCT_DEFINITION_SHAPE('Placement','Placement of an item',
  #2174);
#2174 = NEXT_ASSEMBLY_USAGE_OCCURRENCE('32','housing','',#5,#1143,$);
#2175 = PRODUCT_RELATED_PRODUCT_CATEGORY('part',$,(#1145));
#2176 = MECHANICAL_DESIGN_GEOMETRIC_PRESENTATION_REPRESENTATION('',(
    #2177),#961);
#2177 = STYLED_ITEM('color',(#2178),#811);
#2178 = PRESENTATION_STYLE_ASSIGNMENT((#2179));
#2179 = SURFACE_STYLE_USAGE(.BOTH.,#2180);
#2180 = SURFACE_SIDE_STYLE('',(#2181));
#2181 = SURFACE_STYLE_FILL_AREA(#2182);
#2182 = FILL_AREA_STYLE('',(#2183));
#2183 = FILL_AREA_STYLE_COLOUR('',#2184);
#2184 = COLOUR_RGB('',0.720000003324,0.729999995167,0.750000000934);
#2185 = MECHANICAL_DESIGN_GEOMETRIC_PRESENTATION_REPRESENTATION('',(
    #2186),#1130);
#2186 = STYLED_ITEM('color',(#2187),#980);
#2187 = PRESENTATION_STYLE_ASSIGNMENT((#2188));
#2188 = SURFACE_STYLE_USAGE(.BOTH.,#2189);
#2189 = SURFACE_SIDE_STYLE('',(#2190));
#2190 = SURFACE_STYLE_FILL_AREA(#2191);
#2191 = FILL_AREA_STYLE('',(#2192));
#2192 = FILL_AREA_STYLE_COLOUR('',#2184);
#2193 = MECHANICAL_DESIGN_GEOMETRIC_PRESENTATION_REPRESENTATION('',(
    #2194),#584);
#2194 = STYLED_ITEM('color',(#2195),#434);
#2195 = PRESENTATION_STYLE_ASSIGNMENT((#2196));
#2196 = SURFACE_STYLE_USAGE(.BOTH.,#2197);
#2197 = SURFACE_SIDE_STYLE('',(#2198));
#2198 = SURFACE_STYLE_FILL_AREA(#2199);
#2199 = FILL_AREA_STYLE('',(#2200));
#2200 = FILL_AREA_STYLE_COLOUR('',#2184);
#2201 = MECHANICAL_DESIGN_GEOMETRIC_PRESENTATION_REPRESENTATION('',(
    #2202),#792);
#2202 = STYLED_ITEM('color',(#2203),#603);
#2203 = PRESENTATION_STYLE_ASSIGNMENT((#2204));
#2204 = SURFACE_STYLE_USAGE(.BOTH.,#2205);
#2205 = SURFACE_SIDE_STYLE('',(#2206));
#2206 = SURFACE_STYLE_FILL_AREA(#2207);
#2207 = FILL_AREA_STYLE('',(#2208));
#2208 = FILL_AREA_STYLE_COLOUR('',#2184);
#2209 = MECHANICAL_DESIGN_GEOMETRIC_PRESENTATION_REPRESENTATION('',(
    #2210),#246);
#2210 = STYLED_ITEM('color',(#2211),#57);
#2211 = PRESENTATION_STYLE_ASSIGNMENT((#2212));
#2212 = SURFACE_STYLE_USAGE(.BOTH.,#2213);
#2213 = SURFACE_SIDE_STYLE('',(#2214));
#2214 = SURFACE_STYLE_FILL_AREA(#2215);
#2215 = FILL_AREA_STYLE('',(#2216));
#2216 = FILL_AREA_STYLE_COLOUR('',#2184);
#2217 = MECHANICAL_DESIGN_GEOMETRIC_PRESENTATION_REPRESENTATION('',(
    #2218),#415);
#2218 = STYLED_ITEM('color',(#2219),#265);
#2219 = PRESENTATION_STYLE_ASSIGNMENT((#2220));
#2220 = SURFACE_STYLE_USAGE(.BOTH.,#2221);
#2221 = SURFACE_SIDE_STYLE('',(#2222));
#2222 = SURFACE_STYLE_FILL_AREA(#2223);
#2223 = FILL_AREA_STYLE('',(#2224));
#2224 = FILL_AREA_STYLE_COLOUR('',#2184);
#2225 = MECHANICAL_DESIGN_GEOMETRIC_PRESENTATION_REPRESENTATION('',(
    #2226),#2165);
#2226 = STYLED_ITEM('color',(#2227),#1149);
#2227 = PRESENTATION_STYLE_ASSIGNMENT((#2228));
#2228 = SURFACE_STYLE_USAGE(.BOTH.,#2229);
#2229 = SURFACE_SIDE_STYLE('',(#2230));
#2230 = SURFACE_STYLE_FILL_AREA(#2231);
#2231 = FILL_AREA_STYLE('',(#2232));
#2232 = FILL_AREA_STYLE_COLOUR('',#2233);
#2233 = COLOUR_RGB('',7.999999887273E-02,0.399999997426,0.199999998682);
ENDSEC;
END-ISO-10303-21;
